<?xml version="1.0" standalone="no"?>
<!DOCTYPE svg PUBLIC "-//W3C//DTD SVG 1.1//EN" "http://www.w3.org/Graphics/SVG/1.1/DTD/svg11.dtd">
<svg xmlns="http://www.w3.org/2000/svg">
<defs >
<font id="AdventPro" horiz-adv-x="443" ><font-face
    font-family="Advent Pro Light"
    units-per-em="1000"
    panose-1="0 0 0 0 0 0 0 0 0 0"
    ascent="964"
    descent="-232"
    alphabetic="0" />
<glyph unicode=" " horiz-adv-x="280" />
<glyph unicode="!" horiz-adv-x="138" d="M185 679L76 121H113L240 680Q244 695 239 702T220 710Q207 710 198 703T185 679ZM84 51Q76 53 68 49T55 37Q50 27 51 18T64 6Q74 4 82 8T95 22Q100 31 98 39T84 51Z" />
<glyph unicode="&quot;" horiz-adv-x="252" d="M317 710L302 588H334L372 710Q375 724 368 731T350 738T330 731T317 710ZM181 710L166 588H198L236 710Q239 724 233 731T215 738T195 731T181 710Z" />
<glyph unicode="#" horiz-adv-x="610" d="M443 244L521 414H667L676 458H538L648 700H605L496 458H354L462 700H419L311 458H127L119 414H291L215 244H82L72 202H196L107 0H149L239 202H381L292 0H335L424 202H621L631 244H443ZM401 244H258L334 414H477L401 244Z" />
<glyph unicode="$" horiz-adv-x="528" d="M231 -114H274L472 818H428L231 -114ZM561 633L581 672Q560 684 536 692T487 705T434 709Q396 709 355 701T277 675T214 627T177 550Q168 508 178 478T211 425T266 387T332 356T398 326T454 292T489 246T492 183Q483 141
461 112T407 65T340 39T266 30Q229 30 192 40T125 70T79 121L45 94Q67 58 99 35T173 0T260 -12Q304 -12 348 -2T432 32T499 91T538 178Q547 224 538 256T505 312T451 353T385 384T318 412T262 445T227 488T223 550Q230 584 252 607T304 643T366 662T426 668Q450
668 474 664T520 653T561 633Z" />
<glyph unicode="%" horiz-adv-x="712" d="M55 0H109L794 700H743L55 0ZM327 714Q286 714 249 695T185 642T149 568Q141 528 153 495T195 442T264 422Q305 422 342 442T406 495T441 568Q450 609 437 642T396 694T327 714ZM318 673Q347 673 367 659T397 621T401
568Q395 540 375 516T329 478T274 463Q244 463 223 477T193 516T190 568Q197 597 216 621T262 659T318 673ZM593 277Q554 277 517 258T454 205T418 132Q410 92 422 59T464 6T532 -14Q573 -14 610 5T673 58T708 132Q717 172 705 205T663 257T593 277ZM585 237Q615
237 636 223T666 186T669 132Q663 103 644 79T598 41T541 27Q513 27 492 41T462 79T460 132Q466 162 485 185T531 223T585 237Z" />
<glyph unicode="&amp;" horiz-adv-x="529" d="M525 663L554 704H386Q340 704 303 685T243 632T212 553Q208 530 211 502T228 448T271 403H250Q215 403 187 393T139 364T105 317T84 255L64 161Q56 122 59 94T76 47T111 16T158 -1T212 -5Q238 -5 269 4T332 31T386
77Q388 44 407 24T464 -9L481 25Q445 37 432 64T428 137L476 362H558L584 404H485L507 507H465L443 403H375Q348 403 324 414T282 445T257 492T255 551Q265 602 299 632T381 663H525ZM434 362L395 176Q387 139 365 110T308 61T228 38Q182 34 152 47T110 89T109
163L127 252Q135 285 148 306T178 339T217 357T261 362H434Z" />
<glyph unicode="&apos;" horiz-adv-x="207" d="M227 711L212 589H244L281 711Q284 725 277 732T260 739T240 732T227 711Z" />
<glyph unicode="(" horiz-adv-x="178" d="M329 787L319 817Q279 797 251 772T204 712T175 627L56 70Q47 25 48 -4T60 -54T85 -89T120 -120L143 -88Q130 -77 119 -64T102 -32T94 9T99 63L221 637Q227 664 236 686T259 726T289 759T329 787Z" />
<glyph unicode=")" horiz-adv-x="178" d="M207 817L184 787Q200 774 211 759T227 726T234 686T229 637L107 63Q101 33 90 10T63 -32T32 -63T-2 -88L8 -120Q33 -104 55 -89T95 -54T128 -5T152 70L270 627Q278 664 278 693T270 744T246 783T207 817Z" />
<glyph unicode="*" horiz-adv-x="348" d="M170 623L147 584L252 543L162 448L193 422L284 523L335 422L374 448L322 543L447 584L439 623L315 579L341 700H298L272 579L170 623Z" />
<glyph unicode="+" horiz-adv-x="378" d="M322 530H279L250 392H111L102 349H241L211 210H254L285 349H422L431 392H294L322 530Z" />
<glyph unicode="," horiz-adv-x="215" d="M59 -76L72 -87Q78 -82 87 -73T108 -51T128 -21T143 20Q145 32 139 39T121 47Q109 47 100 40T87 20Q85 10 90 2T104 -8Q99 -22 89 -40T59 -76Z" />
<glyph unicode="-" horiz-adv-x="392" d="M112 369H432L442 414H122L112 369Z" />
<glyph unicode="." horiz-adv-x="126" d="M73 48Q62 48 52 40T40 21Q37 10 43 2T61 -7Q73 -7 83 1T96 21Q99 32 93 40T73 48Z" />
<glyph unicode="/" horiz-adv-x="404" d="M-6 -114H39L560 818H512L-6 -114Z" />
<glyph unicode="0" horiz-adv-x="491" d="M142 508L75 189Q62 124 80 80T142 12T243 -11Q305 -11 357 13T445 81T494 186L563 508Q584 606 540 661T396 716Q297 716 230 663T142 508ZM118 187L187 514Q199 566 226 601T295 655T387 674Q441 674 474 656T519 602T521
515L451 191Q440 138 410 103T337 49T247 31Q198 31 166 49T120 102T118 187Z" />
<glyph unicode="1" horiz-adv-x="226" d="M143 617L147 586Q162 589 180 595T216 609T250 627T278 645L141 0H183L332 700H289Q271 681 249 666T204 641T166 625T143 617Z" />
<glyph unicode="2" horiz-adv-x="413" d="M167 590L205 575Q222 605 245 626T295 657T352 668Q385 668 410 653T446 609T449 543Q446 527 439 510T418 473T380 425L38 42L29 0H379L388 42H89L411 401Q452 446 470 482T496 550Q507 599 491 635T440 691T363 710Q326
710 290 697T223 658T167 590Z" />
<glyph unicode="3" horiz-adv-x="442" d="M285 414H275L501 661L509 700H218L209 655H445L184 369H281Q328 369 361 347T408 288T414 205Q405 158 374 119T300 56T207 32Q164 32 133 51T85 107L43 82Q63 39 104 14T199 -12Q248 -12 290 4T367 50T424 117T457 200Q471
260 453 308T391 385T285 414Z" />
<glyph unicode="4" horiz-adv-x="481" d="M336 0H381L459 369H517L542 413H469L530 700H485L424 413H179L397 700H351L94 369H415L336 0Z" />
<glyph unicode="5" horiz-adv-x="440" d="M192 412L269 655H497L506 700H240L134 369H250Q317 369 355 346T407 285T411 202Q403 162 382 131T332 78T270 44T205 32Q172 32 146 39T100 55T72 72T62 79L37 42Q37 43 49 35T84 16T135 -3T199 -12Q247 -12 289 5T366
53T423 120T455 199Q470 268 449 315T379 387T258 412H192Z" />
<glyph unicode="6" horiz-adv-x="483" d="M415 659H451L459 700H424Q351 700 290 670T187 587T130 463L74 203Q62 145 79 97T139 19T242 -10Q289 -10 332 8T412 57T472 130T502 217Q511 273 492 317T430 388T330 415Q297 415 265 406T202 377T144 328L172 459Q185
517 217 562T299 633T415 659ZM324 372Q357 372 383 360T428 327T455 277T458 216Q453 179 434 147T387 88T323 48T251 33Q205 33 172 56T123 117T117 201Q124 235 144 266T192 321T254 358T324 372Z" />
<glyph unicode="7" horiz-adv-x="433" d="M86 0L558 657L567 700H175L165 655H508L37 0H86Z" />
<glyph unicode="8" horiz-adv-x="479" d="M390 709Q341 709 297 686T221 624T180 535Q175 507 178 479T196 428T235 388Q196 373 162 344T103 278T69 198Q57 140 74 92T133 16T235 -12Q296 -12 349 16T441 91T491 198Q500 238 493 274T464 339T406 387Q451 410
483 447T526 535Q536 583 523 622T475 685T390 709ZM325 406Q289 406 263 424T225 472T221 536Q229 573 253 602T311 649T380 667Q417 667 443 650T479 603T483 536Q476 501 452 472T395 424T325 406ZM244 31Q197 31 164 53T117 113T113 197Q120 231 139 261T186
314T247 350T315 363Q364 363 397 341T443 281T447 197Q438 152 407 115T334 54T244 31Z" />
<glyph unicode="9" horiz-adv-x="482" d="M386 709Q341 709 299 693T222 647T163 579T129 497Q116 437 134 389T195 313T299 285Q332 285 364 294T426 323T485 371L457 246Q445 188 412 142T328 70T216 43H178L170 -1H205Q277 -1 338 29T442 113T499 238L554 497Q567
556 549 604T489 680T386 709ZM377 666Q426 666 459 644T507 583T511 497Q503 461 484 430T436 376T374 340T305 327Q270 327 242 340T196 376T172 431T172 497Q180 532 200 563T248 617T310 653T377 666Z" />
<glyph unicode=":" horiz-adv-x="133" d="M123 144Q126 156 119 163T101 171Q89 171 80 164T67 144Q65 132 71 125T89 117Q101 117 111 124T123 144ZM174 385Q177 397 171 404T152 412Q141 412 131 405T119 386Q116 375 122 366T141 357Q152 357 162 365T174 385Z" />
<glyph unicode=";" horiz-adv-x="141" d="M47 46L59 36Q65 40 75 49T96 71T116 102T130 142Q132 154 126 162T108 170Q96 170 87 163T74 144Q72 133 76 125T91 115Q86 101 76 83T47 46ZM183 385Q186 397 180 404T162 412Q150 412 140 405T128 386Q125 375 131
366T150 357Q161 357 171 365T183 385Z" />
<glyph unicode="&lt;" horiz-adv-x="367" d="M102 359L320 79L357 111L160 357L464 607L438 637L102 359Z" />
<glyph unicode="=" horiz-adv-x="390" d="M113 369H433L442 412H122L113 369ZM91 265H410L420 308H100L91 265Z" />
<glyph unicode="&gt;" horiz-adv-x="367" d="M160 607L355 358L53 111L77 79L414 359L196 637L160 607Z" />
<glyph unicode="?" horiz-adv-x="406" d="M138 532H182Q190 567 207 593T246 635T295 660T345 668Q381 667 407 651T446 606T449 537Q442 506 428 483T392 437T345 391Q322 369 302 351T264 312T235 266T214 204L196 120H236L254 203Q261 233 271 255T297 294T332
329T376 369Q404 394 427 419T467 472T492 538Q500 577 493 608T466 662T418 696T355 709Q322 710 288 700T223 668T171 612T138 532ZM203 48Q191 48 181 40T168 21Q165 10 172 2T191 -7Q202 -7 211 1T224 20Q226 32 220 40T203 48Z" />
<glyph unicode="@" horiz-adv-x="719" d="M788 459L781 491Q754 481 737 466T710 426T691 367L650 171Q639 120 608 83T532 22T437 -12T336 -24Q274 -24 229 -11T155 30T117 97T119 193L150 340Q161 390 185 428T245 491T321 529T407 542Q491 542 532 515T568
443H394Q367 443 339 436T287 411T244 363T216 289L204 230Q194 183 200 150T228 98T282 70T355 61Q378 61 402 63T450 67T493 71T523 74T534 76L602 401H661L673 443H609Q611 472 600 497T564 540T501 569T410 580Q348 580 297 562T206 511T140 434T103 337L73
198Q60 134 72 85T119 2T206 -49T326 -66Q386 -66 446 -52T557 -8T645 67T694 175L737 383Q742 405 748 419T765 443T788 459ZM383 401H561L499 111Q499 111 486 110T451 106T403 103T350 101Q277 101 254 131T245 228L258 286Q268 333 288 358T333 392T383 401Z"
/>
<glyph unicode="A" horiz-adv-x="546" d="M527 0L442 700H402L21 0H68L208 257H448L480 0H527ZM229 300L406 629L445 300H229Z" />
<glyph unicode="B" horiz-adv-x="505" d="M403 700H190L41 0H272Q342 0 392 26T474 99T519 209Q529 257 522 295T495 358T444 395Q471 407 493 428T530 475T552 532Q563 589 549 626T498 681T403 700ZM359 412H173L225 658H395Q443 658 470 644T507 602T507 535Q499
499 479 471T429 428T359 412ZM279 42H94L163 369H360Q408 369 436 348T473 291T472 211Q461 156 435 118T371 61T279 42Z" />
<glyph unicode="C" horiz-adv-x="422" d="M494 645L515 676Q487 693 453 701T380 709Q326 709 278 690T194 627T143 511L73 184Q59 117 73 75T128 11T232 -10Q270 -10 312 -2T401 23L399 60Q368 50 341 43T289 33T244 29Q193 29 161 44T118 94T118 186L187 513Q199
567 225 601T292 653T384 670Q412 670 440 664T494 645Z" />
<glyph unicode="D" horiz-adv-x="497" d="M379 700H189L40 0H250Q321 0 373 22T457 89T504 200L562 475Q577 543 562 593T501 672T379 700ZM243 40H94L225 660H380Q442 660 476 637T521 573T520 483L459 198Q451 156 433 126T388 77T325 49T243 40Z" />
<glyph unicode="E" horiz-adv-x="405" d="M40 0H373L382 40H93L163 369H355L376 412H173L225 659H515L524 700H189L40 0Z" />
<glyph unicode="F" horiz-adv-x="390" d="M524 700H190L41 0H86L164 369H358L377 412H173L225 658H515L524 700Z" />
<glyph unicode="G" horiz-adv-x="478" d="M494 645L515 676Q496 687 475 694T429 705T379 709Q316 709 268 685T187 614T141 503L74 189Q60 123 74 79T127 13T227 -10Q263 -10 298 -2T363 23T416 62L405 0H446L510 300H307L314 257H459L444 186Q436 149 416 121T366
73T303 43T233 32Q183 32 154 50T116 102T118 187L186 506Q197 562 223 598T290 652T385 670Q402 670 421 668T458 659T494 645Z" />
<glyph unicode="H" horiz-adv-x="515" d="M515 412H173L234 700H190L41 0H85L163 369H506L428 0H472L620 700H576L515 412Z" />
<glyph unicode="I" horiz-adv-x="179" d="M159 661L232 659L93 0H136L285 700H167L159 661Z" />
<glyph unicode="J" horiz-adv-x="197" d="M182 120L305 700H188L180 662L252 660L137 116Q128 76 111 49T72 9T25 -6L29 -37Q64 -35 90 -22T134 12T164 61T182 120Z" />
<glyph unicode="K" horiz-adv-x="459" d="M161 354L234 700H190L41 0H85L143 273L229 368L389 0H438L263 405L535 700H480L161 354Z" />
<glyph unicode="L" horiz-adv-x="423" d="M41 0H402L411 40H93L234 700H190L41 0Z" />
<glyph unicode="M" horiz-adv-x="621" d="M233 700H189L40 0H85L206 573L285 0H332L656 571L534 0H578L727 700H683L323 69L233 700Z" />
<glyph unicode="N" horiz-adv-x="577" d="M683 700H639L507 81L234 700H190L41 0H86L218 620L491 0H534L683 700Z" />
<glyph unicode="O" horiz-adv-x="491" d="M142 508L75 189Q62 124 80 80T141 12T242 -11Q305 -11 357 13T445 81T494 186L562 508Q583 606 539 661T395 716Q296 716 230 663T142 508ZM118 187L187 514Q199 566 226 601T294 655T387 674Q440 674 473 656T519 602T520
515L451 191Q440 138 410 103T337 49T247 31Q198 31 166 49T120 102T118 187Z" />
<glyph unicode="P" horiz-adv-x="505" d="M427 700H190L41 0H85L140 257H334Q384 257 424 270T494 310T544 379T577 481Q590 539 586 581T563 649T509 687T427 700ZM149 300L225 658H421Q456 658 481 649T522 620T541 565T534 481Q522 427 505 392T463 336T410
308T346 300H149Z" />
<glyph unicode="Q" horiz-adv-x="491" d="M275 48L301 174H257L230 48Q222 8 226 -21T248 -68T295 -95T369 -104L381 -66Q348 -66 325 -60T289 -41T272 -5T275 48ZM142 508L75 189Q62 124 80 80T141 12T242 -11Q305 -11 357 13T445 81T494 186L562 508Q583 606
539 661T395 716Q296 716 230 663T142 508ZM118 187L187 514Q199 566 226 601T294 655T387 674Q440 674 473 656T519 602T520 515L451 191Q440 138 410 103T337 49T247 31Q198 31 166 49T120 102T118 187Z" />
<glyph unicode="R" horiz-adv-x="510" d="M431 700H190L41 0H85L139 257H334Q343 257 351 257T367 259T383 261L434 0H478L426 272Q466 285 495 312T545 381T577 480Q590 539 587 581T564 649T512 687T431 700ZM346 300H149L225 658H425Q459 658 484 649T524 620T541
565T534 480Q522 426 505 391T463 336T410 308T346 300Z" />
<glyph unicode="S" horiz-adv-x="528" d="M560 633L579 672Q558 684 535 692T485 705T433 709Q394 709 354 701T276 675T212 627T176 550Q167 508 177 478T210 425T265 387T331 356T396 326T452 292T487 246T491 183Q482 141 460 112T406 65T338 39T265 30Q228
30 191 40T124 70T77 121L44 94Q65 58 98 35T172 0T258 -12Q303 -12 347 -2T430 32T497 91T536 178Q546 224 537 256T504 312T449 353T384 384T317 412T261 445T225 488T221 550Q229 584 251 607T302 643T364 662T424 668Q449 668 472 664T518 653T560 633Z" />
<glyph unicode="T" horiz-adv-x="414" d="M366 660H548L557 700H154L146 660H323L182 0H226L366 660Z" />
<glyph unicode="U" horiz-adv-x="498" d="M497 186L606 700H563L454 186Q443 136 415 101T346 49T255 31Q206 31 172 48T124 100T121 186L230 700H187L78 186Q64 122 81 78T141 12T246 -11Q310 -11 361 12T448 79T497 186Z" />
<glyph unicode="V" horiz-adv-x="510" d="M163 700L225 0H284L642 700H595L265 55L210 700H163Z" />
<glyph unicode="W" horiz-adv-x="732" d="M533 700H478L226 60L216 700H171L183 0H245L489 603V0H544L861 700H814L533 74V700Z" />
<glyph unicode="X" horiz-adv-x="557" d="M365 402L241 700H192L332 361L25 0H85L351 314L483 0H533L385 356L674 700H615L365 402Z" />
<glyph unicode="Y" horiz-adv-x="515" d="M506 153L622 700H578L520 426Q513 388 492 362T440 320T376 296T307 288Q247 288 214 306T170 362T172 455L223 700H179L127 459Q113 391 127 344T185 271T301 246Q345 246 382 256T448 283T498 321L462 153Q455 122
445 100T423 63T395 39T363 24L368 -7Q420 2 455 42T506 153Z" />
<glyph unicode="Z" horiz-adv-x="545" d="M189 700L180 661L594 660L571 636L36 39L28 0H515L523 39L90 40L112 63L648 661L657 700H189Z" />
<glyph unicode="[" horiz-adv-x="222" d="M250 774L370 781L377 818H216L18 -114H180L187 -78L71 -71L250 774Z" />
<glyph unicode="\" horiz-adv-x="402" d="M314 -114H361L234 818H190L314 -114Z" />
<glyph unicode="]" horiz-adv-x="223" d="M-6 -114H156L353 818H192L184 781L301 774L121 -71L2 -78L-6 -114Z" />
<glyph unicode="^" horiz-adv-x="267" d="M426 775L327 900L170 774L195 743L314 839L388 745L426 775Z" />
<glyph unicode="_" horiz-adv-x="384" d="M24 -44H344L353 0H33L24 -44Z" />
<glyph unicode="`" horiz-adv-x="267" d="M260 717Q259 725 254 731T242 739T226 738Q218 735 214 728T210 713T213 698L248 612H280L260 717Z" />
<glyph unicode="a" horiz-adv-x="446" d="M441 349Q419 363 392 375T333 395T268 403Q231 403 200 393T144 364T104 316T80 252L62 169Q51 117 59 82T92 27T154 -2T243 -10Q257 -10 278 -9T322 -7T366 -4T399 -1T411 0L476 304Q487 360 484 399T461 463T404 498T311
509L302 474Q333 474 361 469T411 451T440 413T441 349ZM433 310L375 37Q375 37 368 36T348 35T319 33T284 30T248 28Q195 27 163 36T117 65T100 111T105 172L122 250Q129 282 142 303T174 338T213 358T256 365Q289 365 319 358T378 338T433 310Z" />
<glyph unicode="b" horiz-adv-x="457" d="M186 473L234 700H190L41 0Q40 0 52 -1T85 -3T127 -6T170 -9T204 -10Q255 -11 297 -3T372 26T428 82T462 169L503 359Q511 395 504 423T478 470T430 500T364 510Q331 510 300 505T240 492T186 473ZM93 36L177 433Q207
445 236 454T295 468T359 473Q382 473 402 467T438 447T459 411T458 355L419 171Q412 138 399 111T363 65T304 36T215 28Q194 28 173 29T134 33T105 35T93 36Z" />
<glyph unicode="c" horiz-adv-x="380" d="M431 442L451 478Q422 493 389 501T321 510Q256 510 210 486T137 418T97 319L66 174Q52 107 69 67T127 8T228 -11Q258 -11 290 -7T352 5V45Q352 45 342 43T314 38T275 33T230 30Q192 31 166 39T124 66T106 113T111 183L138
309Q148 355 171 391T232 449T319 469Q348 468 377 461T431 442Z" />
<glyph unicode="d" horiz-adv-x="458" d="M414 0L563 700H520L471 472Q439 487 400 498T308 509Q271 509 238 499T178 470T131 423T105 359L65 168Q54 117 62 82T94 27T158 -2T248 -10Q261 -10 281 -9T325 -7T369 -4T402 -1T414 0ZM463 432L379 37Q379 37 372
36T351 34T322 32T287 29T251 28Q198 27 167 36T120 65T103 111T109 170L148 355Q155 388 171 410T208 446T252 466T297 472Q347 472 387 461T463 432Z" />
<glyph unicode="e" horiz-adv-x="421" d="M103 134L119 207L439 224L465 342Q477 397 462 434T409 490T318 510Q261 510 217 491T145 433T104 339L62 139Q53 98 59 69T85 22T134 -4T201 -12Q241 -12 286 0T374 35L364 69Q319 49 282 38T205 26Q178 26 157 32T121
50T102 83T103 134ZM421 347L404 263L128 250L147 339Q157 382 179 411T236 457T314 473Q353 473 380 459T419 416T421 347Z" />
<glyph unicode="f" horiz-adv-x="248" d="M359 668L374 707Q369 709 364 709T352 710T339 710Q314 710 286 703T232 677T186 628T156 550L39 0H84L181 459H290L316 500H190L200 550Q207 582 220 605T250 643T289 664T333 671Q339 671 345 671T359 668Z" />
<glyph unicode="g" horiz-adv-x="440" d="M386 -64L506 499H462L452 452Q433 470 409 482T360 501T311 509Q257 512 215 493T144 437T104 346L67 175Q48 84 82 36T200 -12Q223 -12 247 -6T296 10T339 35T370 67L343 -63Q337 -89 327 -108T303 -139T274 -161T242
-176L247 -211Q288 -199 316 -180T361 -133T386 -64ZM442 404L391 164Q384 132 366 106T322 63T266 38T206 29Q167 30 142 45T109 91T110 167L148 344Q155 380 171 404T209 443T256 464T305 469Q323 469 343 465T382 452T417 433T442 404Z" />
<glyph unicode="h" horiz-adv-x="444" d="M185 469L234 700H190L41 0H86L178 435Q200 446 224 454T274 466T324 472Q354 472 378 466T420 446T442 406T441 344L367 0H411L485 346Q493 383 490 410T473 457T440 488T393 505T335 510Q311 510 285 505T233 490T185 469Z" />
<glyph unicode="i" horiz-adv-x="121" d="M38 0H82L188 501H145L38 0ZM211 710Q200 710 190 702T177 682Q175 671 181 663T200 654Q211 654 221 662T233 682Q236 694 230 702T211 710Z" />
<glyph unicode="j" horiz-adv-x="194" d="M130 -65L250 501H136L127 460H198L87 -64Q81 -93 68 -115T35 -152T-14 -177L-8 -211Q32 -199 59 -181T104 -135T130 -65ZM297 682Q299 694 293 701T275 709Q263 709 253 702T240 682Q238 671 244 663T262 654Q274 654
284 662T297 682Z" />
<glyph unicode="k" horiz-adv-x="426" d="M261 361L433 490L408 519L154 324L234 700H190L41 0H85L143 274L224 333L356 0H408L261 361Z" />
<glyph unicode="l" horiz-adv-x="128" d="M41 0H84L233 700H190L41 0Z" />
<glyph unicode="m" horiz-adv-x="717" d="M713 343L640 0H681L754 344Q764 390 759 422T736 474T688 501T619 509Q597 508 569 502T510 484T451 454Q440 475 421 487T376 505T320 509Q295 508 272 503T226 488T181 468L189 500H145L38 0H82L174 433Q197 444 217
452T259 465T306 471Q336 472 359 466T397 445T416 405T413 343L340 0H382L455 344Q461 369 461 389T458 426Q485 440 510 449T559 464T605 471Q635 472 658 466T697 445T716 405T713 343Z" />
<glyph unicode="n" d="M438 343L364 0H407L480 345Q488 381 485 409T470 456T436 487T389 504T331 509Q307 509 281 504T230 490T181 468L189 500H144L38 0H82L175 434Q197 446 221 454T271 466T320 471Q350 472 374 466T416 445T439 405T438 343Z" />
<glyph unicode="o" horiz-adv-x="429" d="M437 185L466 316Q485 408 450 460T325 512Q265 512 219 490T141 424T96 316L67 185Q56 131 67 87T115 17T215 -10Q307 -10 363 44T437 185ZM422 317L392 178Q384 134 362 101T304 48T221 29Q176 29 149 48T112 101T111
178L141 317Q151 367 174 402T234 455T318 473Q364 473 390 456T425 404T422 317Z" />
<glyph unicode="p" horiz-adv-x="441" d="M446 176L483 346Q494 399 482 436T436 493T346 510Q320 509 292 503T236 484T181 453L191 500H146L-2 -194L39 -213L99 67Q106 45 126 27T175 -2T234 -12Q317 -12 372 36T446 176ZM438 344L401 168Q391 122 370 92T316
45T244 28Q214 27 189 36T145 62T120 106T120 165L170 404Q192 425 221 439T281 462T335 471Q360 472 382 466T419 445T439 405T438 344Z" />
<glyph unicode="q" horiz-adv-x="440" d="M370 66L314 -195L355 -212L507 500H463L452 453Q433 471 411 484T363 503T311 511Q257 513 215 494T144 437T104 346L68 177Q55 116 66 74T111 11T200 -11Q231 -11 263 -2T323 25T370 66ZM442 405L391 166Q384 132 366
107T323 64T268 39T210 30Q168 30 143 46T110 93T110 169L149 346Q156 381 172 405T211 445T258 467T309 472Q330 472 350 467T388 453T420 432T442 405Z" />
<glyph unicode="r" horiz-adv-x="332" d="M407 470L418 508Q415 509 403 511T373 512Q323 511 277 498T181 463L189 500H144L38 0H82L170 417Q195 429 220 439T271 456T320 467T364 472Q379 474 391 473T407 470Z" />
<glyph unicode="s" horiz-adv-x="413" d="M418 446L443 476Q429 486 409 494T365 506T315 511Q283 511 250 502T190 476T145 431T128 369Q129 339 142 318T176 282T223 256T274 235T320 213T355 185T369 146Q369 115 355 92T316 54T265 32T213 24Q182 24 156 31T109
54T70 94L41 68Q66 27 110 5T207 -17Q242 -17 278 -7T344 23T393 74T413 144Q413 175 400 196T366 232T319 258T267 280T220 302T185 331T172 370Q172 396 185 415T219 447T265 466T313 474Q335 474 355 471T391 461T418 446Z" />
<glyph unicode="t" horiz-adv-x="240" d="M111 132L181 459H294L322 500H190L232 700H188L67 132Q55 74 72 39T142 -13L163 21Q139 31 126 45T109 81T111 132Z" />
<glyph unicode="u" horiz-adv-x="445" d="M375 65L361 0H405L512 501H468L398 172Q392 144 377 120T339 77T289 47T231 32Q185 29 155 40T114 80T113 159L186 501H142L68 157Q60 119 63 91T80 43T114 12T160 -5T214 -10Q244 -9 273 0T328 25T375 65Z" />
<glyph unicode="v" horiz-adv-x="427" d="M125 501L182 0H238L510 501H463L219 51L170 501H125Z" />
<glyph unicode="w" horiz-adv-x="695" d="M472 499H431L216 50L171 499H125L176 0H232L434 421L456 0H512L778 499H732L495 50L472 499Z" />
<glyph unicode="x" horiz-adv-x="422" d="M271 286L183 500H139L241 251L30 0H82L259 211L344 0H391L288 247L500 500H451L271 286Z" />
<glyph unicode="y" horiz-adv-x="466" d="M538 480L527 512Q505 503 490 489T465 455T450 412L398 173Q392 145 377 120T339 76T289 46T231 33Q202 32 177 38T135 58T112 98T113 160L186 501H142L69 158Q58 110 65 78T94 26T146 -1T215 -9Q244 -8 273 1T329 26T376
67L348 -63Q344 -85 336 -103T315 -134T287 -158T250 -176L255 -210Q295 -197 322 -180T365 -134T391 -64L492 411Q500 444 511 458T538 480Z" />
<glyph unicode="z" horiz-adv-x="426" d="M484 501H146L138 463L420 462L39 40L30 0H398L407 39L93 40L476 462L484 501Z" />
<glyph unicode="{" horiz-adv-x="251" d="M260 517L284 630Q291 662 302 686T327 728T355 756T380 773T398 784L391 823Q390 822 378 817T346 800T307 767T268 712T239 630L215 517Q211 496 204 476T187 436Q177 417 159 398T113 361L101 353L110 345Q130 327
140 309T152 270Q154 251 153 231T146 190L122 76Q112 28 115 -5T130 -61T155 -95T179 -112T191 -118L217 -78Q211 -74 202 -68T184 -50T169 -22T161 19T166 76L190 190Q195 211 196 231T198 273Q197 313 158 353Q185 373 203 393T232 433Q241 454 248 475T260
517Z" />
<glyph unicode="|" horiz-adv-x="129" d="M18 -114H61L259 818H216L18 -114Z" />
<glyph unicode="}" horiz-adv-x="255" d="M210 823L186 784Q192 780 200 774T218 757T233 728T241 687T235 630L211 517Q205 489 204 461T210 406T244 353Q208 327 188 300T158 246T142 190L118 76Q111 44 100 20T74 -21T46 -50T21 -67T2 -78L9 -118Q11 -117 23
-112T55 -95T94 -61T133 -6T161 76L185 190Q191 218 200 244T230 295T288 345L301 353L292 361Q265 386 255 411T246 462T254 517L279 630Q289 678 286 711T271 767T246 801T222 817T210 823Z" />
<glyph unicode="~" horiz-adv-x="267" d="M351 307L338 339Q322 325 305 319T270 311Q247 312 226 321T184 339T137 349Q118 349 96 341T48 310L60 277Q82 294 99 300T132 305Q155 305 176 296T217 278T262 268Q282 268 303 276T351 307Z" />
<glyph unicode="&#xa0;" horiz-adv-x="280" />
<glyph unicode="&#xa1;" horiz-adv-x="138" d="M102 30L212 590H176L47 31Q44 16 49 8T68 0Q82 0 90 7T102 30ZM241 682Q243 694 237 701T219 709Q207 709 197 702T185 682Q182 671 189 663T207 654Q219 654 228 662T241 682Z" />
<glyph unicode="&#xa2;" horiz-adv-x="380" d="M168 -114H211L367 623H324L168 -114ZM431 442L451 478Q422 493 389 501T321 510Q256 510 210 486T137 418T97 319L66 174Q52 107 69 67T127 8T228 -11Q258 -11 290 -7T352 5V45Q352 45 342 43T314 38T275 33T230
30Q192 31 166 39T124 66T106 113T111 183L138 309Q148 355 171 391T232 449T319 469Q348 468 377 461T431 442Z" />
<glyph unicode="&#xa3;" horiz-adv-x="427" d="M130 42H43L34 0H393L402 42H265Q309 63 339 106T375 198Q379 232 370 264T342 327L326 352H468L478 397H295L265 444Q255 459 246 475T232 508T227 546Q228 580 245 606T291 648T352 668Q387 671 420 662T481 632L503
670Q483 683 460 691T411 704T361 708Q327 707 296 696T239 663T199 613T182 548Q181 514 193 482T226 416L239 397H119L109 352H270L305 300Q316 284 322 267T331 233T332 199Q328 161 310 132T263 83T201 53T130 42Z" />
<glyph unicode="&#xa4;" horiz-adv-x="459" d="M423 370L522 454L500 481L401 398Q387 413 366 421T320 429Q295 429 271 422T225 398L161 481L128 454L191 370Q173 353 162 331T144 284Q139 259 142 237T154 196L55 114L77 85L177 168Q192 154 212 146T258 138Q283
138 306 146T351 168L416 85L451 114L386 196Q403 214 416 236T433 284Q439 308 436 330T423 370ZM267 179Q238 179 217 193T187 231T184 284Q190 313 209 336T256 373T312 387Q340 387 360 373T390 336T393 284Q387 255 368 231T323 193T267 179Z" />
<glyph unicode="&#xa5;" horiz-adv-x="516" d="M353 342L644 700H593L341 391L221 700H172L309 341L237 0H280L353 342ZM141 204H461L470 247H150L141 204ZM119 100H438L448 143H128L119 100Z" />
<glyph unicode="&#xa7;" horiz-adv-x="432" d="M460 633L485 663Q471 673 451 681T407 693T357 698Q325 698 292 689T232 663T187 618T170 556Q170 533 178 516T200 484Q166 466 147 436T128 369Q129 339 142 318T176 282T223 256T274 235T320 213T355 185T369
146Q369 115 355 92T316 54T265 32T213 24Q182 24 156 31T109 54T70 94L41 68Q66 27 110 5T207 -17Q242 -17 278 -7T344 23T393 74T413 144Q413 166 407 182T388 212Q413 233 433 265T455 331Q455 362 442 383T408 419T361 445T309 467T262 489T227 518T213 557Q213
583 226 602T261 634T307 653T355 661Q377 661 397 658T433 648T460 633ZM356 238Q335 252 311 262T262 283T217 305T184 332T172 370Q172 393 181 410T204 439T236 457Q257 445 281 436T327 417T369 396T399 370T411 333Q411 306 394 280T356 238Z" />
<glyph unicode="&#xa8;" horiz-adv-x="267" d="M211 737Q200 737 190 729T177 708Q175 697 181 689T199 681Q211 681 221 689T233 708Q236 720 230 728T211 737ZM368 737Q357 737 347 729T334 708Q332 696 338 689T356 681Q368 681 378 688T390 708Q393 720 387
728T368 737Z" />
<glyph unicode="&#xa9;" horiz-adv-x="696" d="M704 189L733 325Q746 389 733 437T685 518T595 567T471 583Q402 583 341 567T230 518T148 437T100 325L71 189Q58 125 71 77T120 -4T210 -52T333 -69Q402 -69 463 -53T574 -4T657 76T704 189ZM684 307L662 206Q649
145 622 101T554 29T460 -13T341 -27Q275 -27 228 -14T152 28T116 100T121 206L142 307Q155 369 182 413T250 485T344 527T463 541Q529 541 576 528T652 486T688 413T684 307ZM572 391L592 421Q565 438 531 446T457 455Q406 455 365 439T294 393Q267 367 248 331T220
250Q208 194 216 155T252 93Q273 75 304 67T378 58Q417 58 459 66T547 91L534 125Q512 117 492 112T453 104T419 100T388 98Q352 98 327 105T285 127Q265 147 261 178T266 255Q274 292 289 321T328 371Q354 393 387 404T462 415Q475 415 489 414T517 409T545 402T572
391Z" />
<glyph unicode="&#xaa;" horiz-adv-x="328" d="M375 390Q378 401 381 418T389 454T397 492T404 527T410 555Q420 599 416 629T396 676Q386 688 369 695T330 705T279 709L267 675Q300 675 324 670T360 654Q373 643 377 625T376 585Q345 608 316 619T259 631Q225
631 199 616T157 575T133 518Q126 484 129 458T148 415T191 388T259 379Q283 380 312 383T375 390ZM366 545L339 421Q332 420 314 419T274 416T232 417T199 427Q185 436 177 448T168 477T170 514Q175 537 185 555T211 583T249 594Q276 594 306 581T366 545Z" />
<glyph unicode="&#xab;" horiz-adv-x="523" d="M366 267L488 106L456 79L308 267L536 455L559 425L366 267ZM147 267L268 106L235 79L88 267L315 455L339 425L147 267Z" />
<glyph unicode="&#xad;" horiz-adv-x="392" d="M191 369H511L521 414H201L191 369Z" />
<glyph unicode="&#xae;" horiz-adv-x="696" d="M704 189L733 325Q746 389 733 437T685 518T595 567T471 583Q402 583 341 567T230 518T148 437T100 325L71 189Q58 125 71 77T120 -4T210 -52T333 -69Q402 -69 463 -53T574 -4T657 76T704 189ZM682 307L660 206Q647
145 621 101T554 29T460 -13T341 -27Q275 -27 228 -14T152 28T115 101T120 206L142 307Q155 369 182 413T250 485T344 527T463 541Q529 541 576 528T651 486T687 413T682 307ZM492 443H277L195 59H237L265 189H436L474 59H523L483 196Q518 203 546 230T587 318Q596
359 590 384T569 421T534 438T492 443ZM452 233H275L310 400H487Q515 400 530 392T549 365T546 317Q537 274 515 254T452 233Z" />
<glyph unicode="&#xaf;" horiz-adv-x="267" d="M523 677H302L293 635H514L523 677Z" />
<glyph unicode="&#xb0;" horiz-adv-x="348" d="M440 565Q449 605 436 638T395 690T326 710Q286 710 248 691T184 638T148 565Q140 525 152 492T194 439T264 419Q304 419 341 439T405 492T440 565ZM317 670Q346 670 366 656T396 618T399 565Q393 537 374 513T328
475T272 460Q243 460 222 474T192 513T188 565Q195 594 214 618T261 656T317 670Z" />
<glyph unicode="&#xb1;" horiz-adv-x="382" d="M113 384H252L222 247H83L72 202H392L403 247H266L295 384H432L441 426H304L333 565H290L260 426H122L113 384Z" />
<glyph unicode="&#xb4;" horiz-adv-x="267" d="M343 685Q350 692 352 699T354 713T345 724Q340 728 333 727T318 722T306 708L240 599H270L343 685Z" />
<glyph unicode="&#xb5;" horiz-adv-x="465" d="M427 86L517 509L471 500L401 160Q393 122 373 94T322 49T255 30Q206 26 173 44T125 92T118 159L190 500H145L-3 -193L39 -211L97 65Q100 57 109 44T137 18T181 -4T244 -13Q272 -13 297 -6T344 14T382 47Q384 30
390 20T403 4T412 -5L439 21Q436 24 432 32T426 54T427 86Z" />
<glyph unicode="&#xb6;" horiz-adv-x="616" d="M281 259H475L420 1H464L604 660H670L529 1H573L722 702H372Q324 702 286 690T217 651T167 583T133 482Q121 424 123 382T144 312T196 272T281 259ZM360 660H560L485 301H287Q253 302 227 310T186 338T167 393T176
482Q191 550 216 588T278 643T360 660Z" />
<glyph unicode="&#xb7;" horiz-adv-x="137" d="M133 308Q122 308 112 300T100 281Q97 270 103 262T121 253Q133 253 143 261T156 281Q159 292 153 300T133 308Z" />
<glyph unicode="&#xb8;" horiz-adv-x="267" d="M166 7H125L76 -55L79 -81Q92 -80 104 -79T127 -77T148 -76Q177 -76 192 -88T200 -127Q195 -149 182 -162T151 -180T116 -185Q99 -186 83 -184T54 -179T32 -174L14 -213Q20 -214 35 -217T70 -222T113 -225Q155 -224
192 -200T240 -129Q248 -91 227 -63T159 -37Q153 -37 147 -37T130 -38L166 7Z" />
<glyph unicode="&#xba;" horiz-adv-x="326" d="M401 503L420 586Q434 645 409 678T318 711Q251 711 211 679T156 586L136 503Q128 469 136 441T171 396T244 379Q312 379 350 413T401 503ZM375 576L360 511Q351 469 327 444T250 418Q216 418 199 430T178 463T181
511L196 576Q207 623 235 648T311 673Q341 673 357 662T378 630T375 576Z" />
<glyph unicode="&#xbb;" horiz-adv-x="497" d="M245 267L56 108L77 79L305 267L157 455L122 425L245 267ZM465 267L276 108L298 79L524 267L378 455L342 425L465 267Z" />
<glyph unicode="&#xbf;" horiz-adv-x="410" d="M414 162H370Q363 127 347 101T307 58T259 33T208 26Q173 26 147 42T109 88T105 158Q112 190 127 213T163 258T209 302Q231 323 251 341T289 381T319 428T339 490L357 574H316L298 492Q292 461 282 439T256 400T222
365T177 325Q151 301 128 276T87 222T62 156Q53 116 62 85T91 31T140 -2T200 -15Q233 -15 266 -5T330 26T382 82T414 162ZM363 701Q352 701 342 693T329 673Q327 662 333 654T351 645Q363 645 373 653T385 673Q388 685 382 693T363 701Z" />
<glyph unicode="&#xc0;" horiz-adv-x="546" d="M427 864Q426 872 421 878T409 886T393 885Q385 882 381 875T377 860T380 845L415 759H447L427 864ZM527 0L442 700H402L21 0H68L208 257H448L480 0H527ZM229 300L406 629L445 300H229Z" />
<glyph unicode="&#xc1;" horiz-adv-x="546" d="M516 844Q523 851 525 858T527 872T518 883Q513 887 506 886T491 881T479 867L413 758H443L516 844ZM527 0L442 700H402L21 0H68L208 257H448L480 0H527ZM229 300L406 629L445 300H229Z" />
<glyph unicode="&#xc2;" horiz-adv-x="546" d="M564 770L465 894L309 769L334 739L455 836L529 743L564 770ZM527 0L442 700H402L21 0H68L208 257H448L480 0H527ZM229 300L406 629L445 300H229Z" />
<glyph unicode="&#xc3;" horiz-adv-x="546" d="M534 865L531 850Q528 837 521 825T500 814Q493 814 485 819T469 830Q461 837 453 844T433 856Q418 865 400 866T363 856Q351 849 343 838T330 815T323 792L321 777H361L363 792Q365 799 368 809T379 824Q388 829
397 827T412 819Q420 813 428 806T446 793Q457 786 468 780T494 774Q527 774 545 798T571 850L574 865H534ZM527 0L442 700H402L21 0H68L208 257H448L480 0H527ZM229 300L406 629L445 300H229Z" />
<glyph unicode="&#xc4;" horiz-adv-x="546" d="M374 847Q363 847 353 839T340 818Q338 807 344 799T362 791Q374 791 384 799T396 818Q399 830 393 838T374 847ZM531 847Q520 847 510 839T497 818Q495 806 501 799T519 791Q531 791 541 798T553 818Q556 830 550
838T531 847ZM527 0L442 700H402L21 0H68L208 257H448L480 0H527ZM229 300L406 629L445 300H229Z" />
<glyph unicode="&#xc5;" horiz-adv-x="546" d="M465 902Q434 902 405 887T354 847T326 789Q319 757 329 731T362 690T416 675Q447 675 476 690T526 731T554 789Q561 821 551 846T518 887T465 902ZM457 866Q491 866 509 841Q523 819 518 789Q515 774 507 760T486
735Q473 724 457 718T423 711Q407 711 394 717T372 735Q364 745 361 759T362 789Q365 806 374 820T397 845Q410 855 425 860T457 866ZM527 0L442 700H402L21 0H68L208 257H448L480 0H527ZM229 300L406 629L445 300H229Z" />
<glyph unicode="&#xc6;" horiz-adv-x="749" d="M384 0H717L726 40H437L507 369H696L721 414H517L569 658H860L868 700H441L20 0H66L220 256H438L384 0ZM245 300L461 658H524L448 300H245Z" />
<glyph unicode="&#xc7;" horiz-adv-x="422" d="M246 7H205L156 -55L159 -81Q172 -80 184 -79T207 -77T228 -76Q257 -76 272 -88T280 -127Q275 -149 262 -162T231 -180T196 -185Q179 -186 163 -184T134 -179T112 -174L94 -213Q100 -214 115 -217T150 -222T193 -225Q235
-224 272 -200T320 -129Q328 -91 307 -63T239 -37Q233 -37 227 -37T210 -38L246 7ZM494 645L515 676Q487 693 453 701T380 709Q326 709 278 690T194 627T143 511L73 184Q59 117 73 75T128 11T232 -10Q270 -10 312 -2T401 23L399 60Q368 50 341 43T289 33T244 29Q193
29 161 44T118 94T118 186L187 513Q199 567 225 601T292 653T384 670Q412 670 440 664T494 645Z" />
<glyph unicode="&#xc8;" horiz-adv-x="405" d="M361 864Q360 872 355 878T343 886T327 885Q319 882 315 875T311 860T314 845L349 759H381L361 864ZM40 0H373L382 40H93L163 369H355L376 412H173L225 659H515L524 700H189L40 0Z" />
<glyph unicode="&#xc9;" horiz-adv-x="405" d="M444 844Q451 851 453 858T455 872T446 883Q441 887 434 886T419 881T407 867L341 758H371L444 844ZM40 0H373L382 40H93L163 369H355L376 412H173L225 659H515L524 700H189L40 0Z" />
<glyph unicode="&#xca;" horiz-adv-x="405" d="M494 770L395 894L239 769L264 739L385 836L459 743L494 770ZM40 0H373L382 40H93L163 369H355L376 412H173L225 659H515L524 700H189L40 0Z" />
<glyph unicode="&#xcb;" horiz-adv-x="405" d="M304 847Q293 847 283 839T270 818Q268 807 274 799T292 791Q304 791 314 799T326 818Q329 830 323 838T304 847ZM461 847Q450 847 440 839T427 818Q425 806 431 799T449 791Q461 791 471 798T483 818Q486 830 480
838T461 847ZM40 0H373L382 40H93L163 369H355L376 412H173L225 659H515L524 700H189L40 0Z" />
<glyph unicode="&#xcc;" horiz-adv-x="179" d="M260 866Q259 874 254 880T242 888T226 887Q218 884 214 877T210 862T213 847L248 761H280L260 866ZM159 661L232 659L93 0H136L285 700H167L159 661Z" />
<glyph unicode="&#xcd;" horiz-adv-x="179" d="M362 844Q369 851 371 858T373 872T364 883Q359 887 352 886T337 881T325 867L259 758H289L362 844ZM159 661L232 659L93 0H136L285 700H167L159 661Z" />
<glyph unicode="&#xce;" horiz-adv-x="179" d="M404 770L305 894L149 769L174 739L295 836L369 743L404 770ZM159 661L232 659L93 0H136L285 700H167L159 661Z" />
<glyph unicode="&#xcf;" horiz-adv-x="179" d="M215 847Q204 847 194 839T181 818Q179 807 185 799T203 791Q215 791 225 799T237 818Q240 830 234 838T215 847ZM372 847Q361 847 351 839T338 818Q336 806 342 799T360 791Q372 791 382 798T394 818Q397 830 391
838T372 847ZM159 661L232 659L93 0H136L285 700H167L159 661Z" />
<glyph unicode="&#xd0;" horiz-adv-x="497" d="M140 369H353L376 412H149L140 369ZM379 700H189L40 0H250Q321 0 373 22T457 89T504 200L562 475Q577 543 562 593T501 672T379 700ZM243 40H94L225 660H380Q442 660 476 637T521 573T520 483L459 198Q451 156 433
126T388 77T325 49T243 40Z" />
<glyph unicode="&#xd1;" horiz-adv-x="577" d="M549 865L546 850Q543 837 536 825T515 814Q508 814 500 819T484 830Q476 837 468 844T448 856Q433 865 415 866T378 856Q366 849 358 838T345 815T338 792L336 777H376L378 792Q380 799 383 809T394 824Q403 829
412 827T427 819Q435 813 443 806T461 793Q472 786 483 780T509 774Q542 774 560 798T586 850L589 865H549ZM683 700H639L507 81L234 700H190L41 0H86L218 620L491 0H534L683 700Z" />
<glyph unicode="&#xd2;" horiz-adv-x="491" d="M403 865Q402 873 397 879T385 887T369 886Q361 883 357 876T353 861T356 846L391 760H423L403 865ZM142 508L75 189Q62 124 80 80T141 12T242 -11Q305 -11 357 13T445 81T494 186L562 508Q583 606 539 661T395 716Q296
716 230 663T142 508ZM118 187L187 514Q199 566 226 601T294 655T387 674Q440 674 473 656T519 602T520 515L451 191Q440 138 410 103T337 49T247 31Q198 31 166 49T120 102T118 187Z" />
<glyph unicode="&#xd3;" horiz-adv-x="491" d="M487 844Q494 851 496 858T498 872T489 883Q484 887 477 886T462 881T450 867L384 758H414L487 844ZM142 508L75 189Q62 124 80 80T141 12T242 -11Q305 -11 357 13T445 81T494 186L562 508Q583 606 539 661T395 716Q296
716 230 663T142 508ZM118 187L187 514Q199 566 226 601T294 655T387 674Q440 674 473 656T519 602T520 515L451 191Q440 138 410 103T337 49T247 31Q198 31 166 49T120 102T118 187Z" />
<glyph unicode="&#xd4;" horiz-adv-x="491" d="M536 770L437 894L281 769L306 739L427 836L501 743L536 770ZM142 508L75 189Q62 124 80 80T141 12T242 -11Q305 -11 357 13T445 81T494 186L562 508Q583 606 539 661T395 716Q296 716 230 663T142 508ZM118 187L187
514Q199 566 226 601T294 655T387 674Q440 674 473 656T519 602T520 515L451 191Q440 138 410 103T337 49T247 31Q198 31 166 49T120 102T118 187Z" />
<glyph unicode="&#xd5;" horiz-adv-x="491" d="M506 865L503 850Q500 837 493 825T472 814Q465 814 457 819T441 830Q433 837 425 844T405 856Q390 865 372 866T335 856Q323 849 315 838T302 815T295 792L293 777H333L335 792Q337 799 340 809T351 824Q360 829
369 827T384 819Q392 813 400 806T418 793Q429 786 440 780T466 774Q499 774 517 798T543 850L546 865H506ZM142 508L75 189Q62 124 80 80T141 12T242 -11Q305 -11 357 13T445 81T494 186L562 508Q583 606 539 661T395 716Q296 716 230 663T142 508ZM118 187L187
514Q199 566 226 601T294 655T387 674Q440 674 473 656T519 602T520 515L451 191Q440 138 410 103T337 49T247 31Q198 31 166 49T120 102T118 187Z" />
<glyph unicode="&#xd6;" horiz-adv-x="491" d="M346 847Q335 847 325 839T312 818Q310 807 316 799T334 791Q346 791 356 799T368 818Q371 830 365 838T346 847ZM503 847Q492 847 482 839T469 818Q467 806 473 799T491 791Q503 791 513 798T525 818Q528 830 522
838T503 847ZM142 508L75 189Q62 124 80 80T141 12T242 -11Q305 -11 357 13T445 81T494 186L562 508Q583 606 539 661T395 716Q296 716 230 663T142 508ZM118 187L187 514Q199 566 226 601T294 655T387 674Q440 674 473 656T519 602T520 515L451 191Q440 138 410
103T337 49T247 31Q198 31 166 49T120 102T118 187Z" />
<glyph unicode="&#xd7;" horiz-adv-x="339" d="M247 365L167 493L131 467L211 332L75 201L101 172L233 299L310 172L349 202L268 332L406 466L379 493L247 365Z" />
<glyph unicode="&#xd8;" horiz-adv-x="491" d="M49 -1H98L599 701H554L49 -1ZM142 508L75 189Q62 124 80 80T141 12T242 -11Q305 -11 357 13T445 81T494 186L562 508Q583 606 539 661T395 716Q296 716 230 663T142 508ZM118 187L187 514Q199 566 226 601T294 655T387
674Q440 674 473 656T519 602T520 515L451 191Q440 138 410 103T337 49T247 31Q198 31 166 49T120 102T118 187Z" />
<glyph unicode="&#xd9;" horiz-adv-x="498" d="M407 864Q406 872 401 878T389 886T373 885Q365 882 361 875T357 860T360 845L395 759H427L407 864ZM497 186L606 700H563L454 186Q443 136 415 101T346 49T255 31Q206 31 172 48T124 100T121 186L230 700H187L78
186Q64 122 81 78T141 12T246 -11Q310 -11 361 12T448 79T497 186Z" />
<glyph unicode="&#xda;" horiz-adv-x="498" d="M490 838Q497 845 499 852T501 866T492 877Q487 881 480 880T465 875T453 861L387 752H417L490 838ZM497 186L606 700H563L454 186Q443 136 415 101T346 49T255 31Q206 31 172 48T124 100T121 186L230 700H187L78
186Q64 122 81 78T141 12T246 -11Q310 -11 361 12T448 79T497 186Z" />
<glyph unicode="&#xdb;" horiz-adv-x="498" d="M540 770L441 894L285 769L310 739L431 836L505 743L540 770ZM497 186L606 700H563L454 186Q443 136 415 101T346 49T255 31Q206 31 172 48T124 100T121 186L230 700H187L78 186Q64 122 81 78T141 12T246 -11Q310
-11 361 12T448 79T497 186Z" />
<glyph unicode="&#xdc;" horiz-adv-x="498" d="M350 847Q339 847 329 839T316 818Q314 807 320 799T338 791Q350 791 360 799T372 818Q375 830 369 838T350 847ZM507 847Q496 847 486 839T473 818Q471 806 477 799T495 791Q507 791 517 798T529 818Q532 830 526
838T507 847ZM497 186L606 700H563L454 186Q443 136 415 101T346 49T255 31Q206 31 172 48T124 100T121 186L230 700H187L78 186Q64 122 81 78T141 12T246 -11Q310 -11 361 12T448 79T497 186Z" />
<glyph unicode="&#xdd;" horiz-adv-x="515" d="M499 838Q506 845 508 852T510 866T501 877Q496 881 489 880T474 875T462 861L396 752H426L499 838ZM506 153L622 700H578L520 426Q513 388 492 362T440 320T376 296T307 288Q247 288 214 306T170 362T172 455L223
700H179L127 459Q113 391 127 344T185 271T301 246Q345 246 382 256T448 283T498 321L462 153Q455 122 445 100T423 63T395 39T363 24L368 -7Q420 2 455 42T506 153Z" />
<glyph unicode="&#xde;" horiz-adv-x="505" d="M412 615H216L235 700H190L41 0H85L122 172H316Q366 172 405 185T475 225T526 294T560 396Q573 455 570 496T547 564T494 603T412 615ZM131 215L207 573H407Q441 573 466 564T506 535T523 480T516 396Q504 342 487
307T445 252T392 224T328 215H131Z" />
<glyph unicode="&#xdf;" horiz-adv-x="465" d="M84 0L198 541Q207 580 222 606T261 645T315 659Q340 659 355 647T376 617T379 579Q376 561 366 545T339 518T298 508Q284 490 277 472T267 438Q262 410 273 386T304 340T348 297T391 252T420 202T423 142Q418 118
406 98T375 64T333 41T281 32Q261 32 245 34T215 42T190 53T168 68L141 36Q154 24 173 13T220 -5T281 -11Q314 -10 344 0T400 30T444 77T469 140Q477 178 468 208T440 265T399 313T355 355T322 397T312 441Q313 452 317 462T330 483Q330 483 333 483T341 483T349
483T353 483Q372 491 386 505T408 538T420 576Q426 607 417 635T385 682T320 700Q291 699 265 690T217 661T179 611T154 540L39 0H84Z" />
<glyph unicode="&#xe0;" horiz-adv-x="446" d="M342 927Q341 935 336 941T324 949T308 948Q300 945 296 938T292 923T295 908L330 822H362L342 927ZM441 349Q419 363 392 375T333 395T268 403Q231 403 200 393T144 364T104 316T80 252L62 169Q51 117 59 82T92
27T154 -2T243 -10Q257 -10 278 -9T322 -7T366 -4T399 -1T411 0L476 304Q487 360 484 399T461 463T404 498T311 509L302 474Q333 474 361 469T411 451T440 413T441 349ZM433 310L375 37Q375 37 368 36T348 35T319 33T284 30T248 28Q195 27 163 36T117 65T100 111T105
172L122 250Q129 282 142 303T174 338T213 358T256 365Q289 365 319 358T378 338T433 310Z" />
<glyph unicode="&#xe1;" horiz-adv-x="446" d="M424 896Q431 903 433 910T435 924T426 935Q421 939 414 938T399 933T387 919L321 810H351L424 896ZM441 349Q419 363 392 375T333 395T268 403Q231 403 200 393T144 364T104 316T80 252L62 169Q51 117 59 82T92
27T154 -2T243 -10Q257 -10 278 -9T322 -7T366 -4T399 -1T411 0L476 304Q487 360 484 399T461 463T404 498T311 509L302 474Q333 474 361 469T411 451T440 413T441 349ZM433 310L375 37Q375 37 368 36T348 35T319 33T284 30T248 28Q195 27 163 36T117 65T100 111T105
172L122 250Q129 282 142 303T174 338T213 358T256 365Q289 365 319 358T378 338T433 310Z" />
<glyph unicode="&#xe2;" horiz-adv-x="446" d="M475 841L376 965L220 840L245 810L366 907L440 814L475 841ZM441 349Q419 363 392 375T333 395T268 403Q231 403 200 393T144 364T104 316T80 252L62 169Q51 117 59 82T92 27T154 -2T243 -10Q257 -10 278 -9T322
-7T366 -4T399 -1T411 0L476 304Q487 360 484 399T461 463T404 498T311 509L302 474Q333 474 361 469T411 451T440 413T441 349ZM433 310L375 37Q375 37 368 36T348 35T319 33T284 30T248 28Q195 27 163 36T117 65T100 111T105 172L122 250Q129 282 142 303T174
338T213 358T256 365Q289 365 319 358T378 338T433 310Z" />
<glyph unicode="&#xe3;" horiz-adv-x="446" d="M444 926L441 911Q438 898 431 886T410 875Q403 875 395 880T379 891Q371 898 363 905T343 917Q328 926 310 927T273 917Q261 910 253 899T240 876T233 853L231 838H271L273 853Q275 860 278 870T289 885Q298 890
307 888T322 880Q330 874 338 867T356 854Q367 847 378 841T404 835Q437 835 455 859T481 911L484 926H444ZM441 349Q419 363 392 375T333 395T268 403Q231 403 200 393T144 364T104 316T80 252L62 169Q51 117 59 82T92 27T154 -2T243 -10Q257 -10 278 -9T322 -7T366
-4T399 -1T411 0L476 304Q487 360 484 399T461 463T404 498T311 509L302 474Q333 474 361 469T411 451T440 413T441 349ZM433 310L375 37Q375 37 368 36T348 35T319 33T284 30T248 28Q195 27 163 36T117 65T100 111T105 172L122 250Q129 282 142 303T174 338T213
358T256 365Q289 365 319 358T378 338T433 310Z" />
<glyph unicode="&#xe4;" horiz-adv-x="446" d="M283 908Q272 908 262 900T249 879Q247 868 253 860T271 852Q283 852 293 860T305 879Q308 891 302 899T283 908ZM440 908Q429 908 419 900T406 879Q404 867 410 860T428 852Q440 852 450 859T462 879Q465 891 459
899T440 908ZM441 349Q419 363 392 375T333 395T268 403Q231 403 200 393T144 364T104 316T80 252L62 169Q51 117 59 82T92 27T154 -2T243 -10Q257 -10 278 -9T322 -7T366 -4T399 -1T411 0L476 304Q487 360 484 399T461 463T404 498T311 509L302 474Q333 474 361
469T411 451T440 413T441 349ZM433 310L375 37Q375 37 368 36T348 35T319 33T284 30T248 28Q195 27 163 36T117 65T100 111T105 172L122 250Q129 282 142 303T174 338T213 358T256 365Q289 365 319 358T378 338T433 310Z" />
<glyph unicode="&#xe5;" horiz-adv-x="446" d="M369 955Q338 955 309 940T258 900T230 842Q223 810 233 784T266 743T320 728Q351 728 380 743T430 784T458 842Q465 874 455 899T422 940T369 955ZM361 919Q395 919 413 894Q427 872 422 842Q419 827 411 813T390
788Q377 777 361 771T327 764Q311 764 298 770T276 788Q268 798 265 812T266 842Q269 859 278 873T301 898Q314 908 329 913T361 919ZM441 349Q419 363 392 375T333 395T268 403Q231 403 200 393T144 364T104 316T80 252L62 169Q51 117 59 82T92 27T154 -2T243
-10Q257 -10 278 -9T322 -7T366 -4T399 -1T411 0L476 304Q487 360 484 399T461 463T404 498T311 509L302 474Q333 474 361 469T411 451T440 413T441 349ZM433 310L375 37Q375 37 368 36T348 35T319 33T284 30T248 28Q195 27 163 36T117 65T100 111T105 172L122
250Q129 282 142 303T174 338T213 358T256 365Q289 365 319 358T378 338T433 310Z" />
<glyph unicode="&#xe6;" horiz-adv-x="761" d="M441 349Q419 363 392 375T333 395T268 403Q231 403 200 393T144 364T104 316T80 252L62 169Q51 117 59 82T92 27T154 -2T243 -10Q257 -10 278 -9T322 -7T366 -4T399 -1T411 0L476 304Q487 360 484 399T461 463T404
498T311 509L302 474Q333 474 361 469T411 451T440 413T441 349ZM433 310L375 37Q375 37 368 36T348 35T319 33T284 30T248 28Q195 27 163 36T117 65T100 111T105 172L122 250Q129 282 142 303T174 338T213 358T256 365Q289 365 319 358T378 338T433 310ZM440 134L456
207L776 224L802 342Q814 397 799 434T746 490T655 510Q598 510 554 491T482 433T441 339L399 139Q390 98 396 69T422 22T471 -4T538 -12Q578 -12 623 0T711 35L701 69Q656 49 619 38T542 26Q515 26 494 32T458 50T439 83T440 134ZM758 347L741 263L465 250L484
339Q494 382 516 411T573 457T651 473Q690 473 717 459T756 416T758 347Z" />
<glyph unicode="&#xe7;" horiz-adv-x="380" d="M223 12H182L133 -50L136 -76Q149 -75 161 -74T184 -72T205 -71Q234 -71 249 -83T257 -122Q252 -144 239 -157T208 -175T173 -180Q156 -181 140 -179T111 -174T89 -169L71 -208Q77 -209 92 -212T127 -217T170 -220Q212
-219 249 -195T297 -124Q305 -86 284 -58T216 -32Q210 -32 204 -32T187 -33L223 12ZM431 442L451 478Q422 493 389 501T321 510Q256 510 210 486T137 418T97 319L66 174Q52 107 69 67T127 8T228 -11Q258 -11 290 -7T352 5V45Q352 45 342 43T314 38T275 33T230 30Q192
31 166 39T124 66T106 113T111 183L138 309Q148 355 171 391T232 449T319 469Q348 468 377 461T431 442Z" />
<glyph unicode="&#xe8;" horiz-adv-x="421" d="M330 916Q329 924 324 930T312 938T296 937Q288 934 284 927T280 912T283 897L318 811H350L330 916ZM103 134L119 207L439 224L465 342Q477 397 462 434T409 490T318 510Q261 510 217 491T145 433T104 339L62 139Q53
98 59 69T85 22T134 -4T201 -12Q241 -12 286 0T374 35L364 69Q319 49 282 38T205 26Q178 26 157 32T121 50T102 83T103 134ZM421 347L404 263L128 250L147 339Q157 382 179 411T236 457T314 473Q353 473 380 459T419 416T421 347Z" />
<glyph unicode="&#xe9;" horiz-adv-x="421" d="M412 903Q419 910 421 917T423 931T414 942Q409 946 402 945T387 940T375 926L309 817H339L412 903ZM103 134L119 207L439 224L465 342Q477 397 462 434T409 490T318 510Q261 510 217 491T145 433T104 339L62 139Q53
98 59 69T85 22T134 -4T201 -12Q241 -12 286 0T374 35L364 69Q319 49 282 38T205 26Q178 26 157 32T121 50T102 83T103 134ZM421 347L404 263L128 250L147 339Q157 382 179 411T236 457T314 473Q353 473 380 459T419 416T421 347Z" />
<glyph unicode="&#xea;" horiz-adv-x="421" d="M463 841L364 965L208 840L233 810L354 907L428 814L463 841ZM103 134L119 207L439 224L465 342Q477 397 462 434T409 490T318 510Q261 510 217 491T145 433T104 339L62 139Q53 98 59 69T85 22T134 -4T201 -12Q241
-12 286 0T374 35L364 69Q319 49 282 38T205 26Q178 26 157 32T121 50T102 83T103 134ZM421 347L404 263L128 250L147 339Q157 382 179 411T236 457T314 473Q353 473 380 459T419 416T421 347Z" />
<glyph unicode="&#xeb;" horiz-adv-x="421" d="M270 908Q259 908 249 900T236 879Q234 868 240 860T258 852Q270 852 280 860T292 879Q295 891 289 899T270 908ZM427 908Q416 908 406 900T393 879Q391 867 397 860T415 852Q427 852 437 859T449 879Q452 891 446
899T427 908ZM103 134L119 207L439 224L465 342Q477 397 462 434T409 490T318 510Q261 510 217 491T145 433T104 339L62 139Q53 98 59 69T85 22T134 -4T201 -12Q241 -12 286 0T374 35L364 69Q319 49 282 38T205 26Q178 26 157 32T121 50T102 83T103 134ZM421 347L404
263L128 250L147 339Q157 382 179 411T236 457T314 473Q353 473 380 459T419 416T421 347Z" />
<glyph unicode="&#xec;" horiz-adv-x="122" d="M434 938Q433 946 428 952T416 960T400 959Q392 956 388 949T384 934T387 919L422 833H454L434 938ZM38 0H82L188 501H145L38 0Z" />
<glyph unicode="&#xed;" horiz-adv-x="122" d="M525 906Q532 913 534 920T536 934T527 945Q522 949 515 948T500 943T488 929L422 820H452L525 906ZM38 0H82L188 501H145L38 0Z" />
<glyph unicode="&#xee;" horiz-adv-x="122" d="M570 841L471 965L315 840L340 810L461 907L535 814L570 841ZM38 0H82L188 501H145L38 0Z" />
<glyph unicode="&#xef;" horiz-adv-x="122" d="M377 908Q366 908 356 900T343 879Q341 868 347 860T365 852Q377 852 387 860T399 879Q402 891 396 899T377 908ZM534 908Q523 908 513 900T500 879Q498 867 504 860T522 852Q534 852 544 859T556 879Q559 891 553
899T534 908ZM38 0H82L188 501H145L38 0Z" />
<glyph unicode="&#xf0;" horiz-adv-x="423" d="M447 657Q427 675 400 686T337 701L325 676Q336 674 351 669T384 655T416 631L287 525L306 502L435 609Q450 586 456 554T453 478L427 353Q423 371 410 386T377 411T336 428T290 434Q208 434 153 386T78 246L66 188Q47
97 83 44T208 -9Q297 -9 356 42T436 188L496 471Q503 502 503 530T495 584T467 635L521 680L503 703L447 657ZM215 32Q170 32 143 49T108 101T110 186L125 253Q135 298 156 329T208 376T280 393Q310 394 336 386T380 360T406 317T406 257L391 186Q381 136 358 102T299
50T215 32Z" />
<glyph unicode="&#xf1;" d="M440 926L437 911Q434 898 427 886T406 875Q399 875 391 880T375 891Q367 898 359 905T339 917Q324 926 306 927T269 917Q257 910 249 899T236 876T229 853L227 838H267L269 853Q271 860 274 870T285 885Q294 890 303 888T318 880Q326
874 334 867T352 854Q363 847 374 841T400 835Q433 835 451 859T477 911L480 926H440ZM438 343L364 0H407L480 345Q488 381 485 409T470 456T436 487T389 504T331 509Q307 509 281 504T230 490T181 468L189 500H144L38 0H82L175 434Q197 446 221 454T271 466T320
471Q350 472 374 466T416 445T439 405T438 343Z" />
<glyph unicode="&#xf2;" horiz-adv-x="429" d="M333 938Q332 946 327 952T315 960T299 959Q291 956 287 949T283 934T286 919L321 833H353L333 938ZM437 185L466 316Q485 408 450 460T325 512Q265 512 219 490T141 424T96 316L67 185Q56 131 67 87T115 17T215
-10Q307 -10 363 44T437 185ZM422 317L392 178Q384 134 362 101T304 48T221 29Q176 29 149 48T112 101T111 178L141 317Q151 367 174 402T234 455T318 473Q364 473 390 456T425 404T422 317Z" />
<glyph unicode="&#xf3;" horiz-adv-x="429" d="M418 907Q425 914 427 921T429 935T420 946Q415 950 408 949T393 944T381 930L315 821H345L418 907ZM437 185L466 316Q485 408 450 460T325 512Q265 512 219 490T141 424T96 316L67 185Q56 131 67 87T115 17T215
-10Q307 -10 363 44T437 185ZM422 317L392 178Q384 134 362 101T304 48T221 29Q176 29 149 48T112 101T111 178L141 317Q151 367 174 402T234 455T318 473Q364 473 390 456T425 404T422 317Z" />
<glyph unicode="&#xf4;" horiz-adv-x="429" d="M467 841L368 965L212 840L237 810L358 907L432 814L467 841ZM437 185L466 316Q485 408 450 460T325 512Q265 512 219 490T141 424T96 316L67 185Q56 131 67 87T115 17T215 -10Q307 -10 363 44T437 185ZM422 317L392
178Q384 134 362 101T304 48T221 29Q176 29 149 48T112 101T111 178L141 317Q151 367 174 402T234 455T318 473Q364 473 390 456T425 404T422 317Z" />
<glyph unicode="&#xf5;" horiz-adv-x="429" d="M435 926L432 911Q429 898 422 886T401 875Q394 875 386 880T370 891Q362 898 354 905T334 917Q319 926 301 927T264 917Q252 910 244 899T231 876T224 853L222 838H262L264 853Q266 860 269 870T280 885Q289 890
298 888T313 880Q321 874 329 867T347 854Q358 847 369 841T395 835Q428 835 446 859T472 911L475 926H435ZM437 185L466 316Q485 408 450 460T325 512Q265 512 219 490T141 424T96 316L67 185Q56 131 67 87T115 17T215 -10Q307 -10 363 44T437 185ZM422 317L392
178Q384 134 362 101T304 48T221 29Q176 29 149 48T112 101T111 178L141 317Q151 367 174 402T234 455T318 473Q364 473 390 456T425 404T422 317Z" />
<glyph unicode="&#xf6;" horiz-adv-x="429" d="M275 908Q264 908 254 900T241 879Q239 868 245 860T263 852Q275 852 285 860T297 879Q300 891 294 899T275 908ZM432 908Q421 908 411 900T398 879Q396 867 402 860T420 852Q432 852 442 859T454 879Q457 891 451
899T432 908ZM437 185L466 316Q485 408 450 460T325 512Q265 512 219 490T141 424T96 316L67 185Q56 131 67 87T115 17T215 -10Q307 -10 363 44T437 185ZM422 317L392 178Q384 134 362 101T304 48T221 29Q176 29 149 48T112 101T111 178L141 317Q151 367 174 402T234
455T318 473Q364 473 390 456T425 404T422 317Z" />
<glyph unicode="&#xf7;" horiz-adv-x="381" d="M106 362H426L435 405H115L106 362ZM304 541Q293 541 283 533T271 512Q268 501 274 493T293 485Q305 485 315 493T327 512Q330 524 323 532T304 541ZM249 283Q237 283 229 276T217 256Q214 245 219 236T238 228Q250
228 260 235T272 255Q275 267 268 275T249 283Z" />
<glyph unicode="&#xf8;" horiz-adv-x="429" d="M465 514H419L72 -20H117L465 514ZM437 185L466 316Q485 408 450 460T325 512Q265 512 219 490T141 424T96 316L67 185Q56 131 67 87T115 17T215 -10Q307 -10 363 44T437 185ZM422 317L392 178Q384 134 362 101T304
48T221 29Q176 29 149 48T112 101T111 178L141 317Q151 367 174 402T234 455T318 473Q364 473 390 456T425 404T422 317Z" />
<glyph unicode="&#xf9;" horiz-adv-x="445" d="M341 936Q340 944 335 950T323 958T307 957Q299 954 295 947T291 932T294 917L329 831H361L341 936ZM375 65L361 0H405L512 501H468L398 172Q392 144 377 120T339 77T289 47T231 32Q185 29 155 40T114 80T113 159L186
501H142L68 157Q60 119 63 91T80 43T114 12T160 -5T214 -10Q244 -9 273 0T328 25T375 65Z" />
<glyph unicode="&#xfa;" horiz-adv-x="445" d="M424 906Q431 913 433 920T435 934T426 945Q421 949 414 948T399 943T387 929L321 820H351L424 906ZM375 65L361 0H405L512 501H468L398 172Q392 144 377 120T339 77T289 47T231 32Q185 29 155 40T114 80T113 159L186
501H142L68 157Q60 119 63 91T80 43T114 12T160 -5T214 -10Q244 -9 273 0T328 25T375 65Z" />
<glyph unicode="&#xfb;" horiz-adv-x="445" d="M474 841L375 965L219 840L244 810L365 907L439 814L474 841ZM375 65L361 0H405L512 501H468L398 172Q392 144 377 120T339 77T289 47T231 32Q185 29 155 40T114 80T113 159L186 501H142L68 157Q60 119 63 91T80
43T114 12T160 -5T214 -10Q244 -9 273 0T328 25T375 65Z" />
<glyph unicode="&#xfc;" horiz-adv-x="445" d="M281 908Q270 908 260 900T247 879Q245 868 251 860T269 852Q281 852 291 860T303 879Q306 891 300 899T281 908ZM438 908Q427 908 417 900T404 879Q402 867 408 860T426 852Q438 852 448 859T460 879Q463 891 457
899T438 908ZM375 65L361 0H405L512 501H468L398 172Q392 144 377 120T339 77T289 47T231 32Q185 29 155 40T114 80T113 159L186 501H142L68 157Q60 119 63 91T80 43T114 12T160 -5T214 -10Q244 -9 273 0T328 25T375 65Z" />
<glyph unicode="&#xfd;" horiz-adv-x="466" d="M434 906Q441 913 443 920T445 934T436 945Q431 949 424 948T409 943T397 929L331 820H361L434 906ZM538 480L527 512Q505 503 490 489T465 455T450 412L398 173Q392 145 377 120T339 76T289 46T231 33Q202 32 177
38T135 58T112 98T113 160L186 501H142L69 158Q58 110 65 78T94 26T146 -1T215 -9Q244 -8 273 1T329 26T376 67L348 -63Q344 -85 336 -103T315 -134T287 -158T250 -176L255 -210Q295 -197 322 -180T365 -134T391 -64L492 411Q500 444 511 458T538 480Z" />
<glyph unicode="&#xfe;" horiz-adv-x="441" d="M446 176L483 346Q494 399 482 436T436 493T346 510Q320 509 292 503T236 484T181 453L233 700H188L-2 -194L39 -213L99 67Q106 45 126 27T175 -2T234 -12Q317 -12 372 36T446 176ZM438 344L401 168Q391 122 370
92T316 45T244 28Q214 27 189 36T145 62T120 106T120 165L170 404Q192 425 221 439T281 462T335 471Q360 472 382 466T419 445T439 405T438 344Z" />
<glyph unicode="&#xff;" horiz-adv-x="466" d="M292 908Q281 908 271 900T258 879Q256 868 262 860T280 852Q292 852 302 860T314 879Q317 891 311 899T292 908ZM449 908Q438 908 428 900T415 879Q413 867 419 860T437 852Q449 852 459 859T471 879Q474 891 468
899T449 908ZM538 480L527 512Q505 503 490 489T465 455T450 412L398 173Q392 145 377 120T339 76T289 46T231 33Q202 32 177 38T135 58T112 98T113 160L186 501H142L69 158Q58 110 65 78T94 26T146 -1T215 -9Q244 -8 273 1T329 26T376 67L348 -63Q344 -85 336
-103T315 -134T287 -158T250 -176L255 -210Q295 -197 322 -180T365 -134T391 -64L492 411Q500 444 511 458T538 480Z" />
<glyph unicode="&#x2013;" d="M112 369H486L495 414H122L112 369Z" />
<glyph unicode="&#x2014;" horiz-adv-x="717" d="M112 369H756L765 414H122L112 369Z" />
<glyph unicode="&#x2018;" horiz-adv-x="120" d="M237 690L224 701Q218 696 209 688T188 666T168 636T154 595Q151 583 157 576T175 568Q187 568 197 575T210 595Q212 605 207 612T192 622Q197 637 207 655T237 690Z" />
<glyph unicode="&#x2019;" horiz-adv-x="120" d="M149 570L162 560Q168 564 178 573T198 595T218 625T233 665Q235 678 229 686T210 694Q200 694 190 686T177 665Q175 655 180 648T193 638Q189 624 179 606T149 570Z" />
<glyph unicode="&#x201a;" horiz-adv-x="131" d="M22 -54L34 -64Q40 -60 50 -51T71 -29T91 1T105 42Q107 55 101 62T82 70Q71 70 62 62T49 42Q47 31 52 24T65 15Q61 1 51 -17T22 -54Z" />
<glyph unicode="&#x201c;" horiz-adv-x="299" d="M416 690L404 701Q398 696 389 688T368 666T348 636T333 595Q331 583 337 576T355 568Q367 568 377 575T389 595Q391 605 387 612T371 622Q377 637 387 655T416 690ZM237 690L224 701Q218 696 209 688T188 666T168
636T154 595Q151 583 157 576T175 568Q187 568 197 575T210 595Q212 605 207 612T192 622Q197 637 207 655T237 690Z" />
<glyph unicode="&#x201d;" horiz-adv-x="300" d="M149 570L162 560Q168 564 178 572T198 594T218 625T233 665Q235 678 229 686T210 694Q199 694 190 686T177 665Q175 655 180 648T193 638Q189 624 179 606T149 570ZM330 570L342 560Q348 564 358 573T378 595T398
625T412 665Q415 678 409 686T391 694Q380 694 370 686T356 665Q355 655 359 648T373 638Q368 624 359 606T330 570Z" />
<glyph unicode="&#x201e;" horiz-adv-x="310" d="M22 -54L34 -64Q40 -60 50 -51T71 -29T91 1T105 42Q107 55 101 62T82 70Q71 70 62 62T49 42Q47 31 52 24T65 15Q61 1 51 -17T22 -54ZM202 -54L214 -64Q220 -59 229 -51T250 -29T270 1T284 42Q288 55 281 62T262
70Q251 70 241 62T229 42Q226 31 231 24T245 15Q242 1 232 -17T202 -54Z" />
<glyph unicode="&#x2022;" horiz-adv-x="319" d="M339 427Q309 465 256 465Q205 465 158 427Q112 390 101 336Q96 310 100 288T120 247Q149 208 202 208Q229 208 253 217T301 247Q323 265 338 288T357 336Q369 388 339 427Z" />
<glyph unicode="&#x2039;" horiz-adv-x="277" d="M84 267L231 79L265 108L142 267L334 425L311 455L84 267Z" />
<glyph unicode="&#x203a;" horiz-adv-x="277" d="M245 268L56 108L78 79L305 267L158 455L122 425L245 268Z" />
</font>
</defs>
</svg>
