<?xml version="1.0" standalone="no"?>
<!DOCTYPE svg PUBLIC "-//W3C//DTD SVG 1.1//EN" "http://www.w3.org/Graphics/SVG/1.1/DTD/svg11.dtd">
<svg xmlns="http://www.w3.org/2000/svg">
<defs >
<font id="AdventPro" horiz-adv-x="443" ><font-face
    font-family="Advent Pro Medium"
    units-per-em="1000"
    panose-1="0 0 0 0 0 0 0 0 0 0"
    ascent="964"
    descent="-232"
    alphabetic="0" />
<glyph unicode=" " horiz-adv-x="280" />
<glyph unicode="!" horiz-adv-x="164" d="M181 663L78 121H135L264 664Q269 687 261 698T231 710Q211 710 199 699T181 663ZM98 80Q81 80 67 69T49 40Q44 23 52 9T80 -5Q99 -5 112 7T131 37Q134 54 126 67T98 80Z" />
<glyph unicode="&quot;" horiz-adv-x="273" d="M315 701L305 588H353L390 701Q394 720 385 729T361 738T333 729T315 701ZM179 701L169 588H216L255 701Q259 720 250 729T225 738T197 729T179 701Z" />
<glyph unicode="#" horiz-adv-x="614" d="M468 253L532 395H665L681 471H565L669 700H594L491 471H373L475 700H404L302 471H131L116 395H267L203 253H85L70 182H172L91 0H163L243 182H362L281 0H355L436 182H619L634 253H468ZM394 253H275L339 395H458L394 253Z" />
<glyph unicode="$" horiz-adv-x="535" d="M219 -114H293L491 818H416L219 -114ZM554 609L587 672Q565 685 541 693T489 705T435 709Q397 709 356 701T278 675T215 625T178 548Q169 505 177 474T207 420T258 381T318 350T379 320T430 288T463 247T467 192Q459 157
441 132T396 90T338 67T275 59Q242 59 208 67T145 93T101 138L48 91Q71 57 104 34T177 0T264 -12Q310 -12 355 -1T440 35T507 96T546 186Q556 232 548 265T518 323T468 364T407 396T346 424T293 454T259 492T254 545Q260 573 279 591T323 620T374 635T423 639Q447
639 470 636T514 626T554 609Z" />
<glyph unicode="%" horiz-adv-x="719" d="M44 0H127L813 700H732L44 0ZM332 714Q291 714 254 695T190 642T154 569Q146 529 158 496T200 442T269 422Q310 422 347 442T411 495T446 569Q455 609 442 642T401 694T332 714ZM318 649Q340 649 355 638T378 609T381
569Q377 547 362 529T326 499T284 488Q261 488 245 499T222 528T219 569Q224 591 239 609T275 638T318 649ZM599 277Q559 277 522 258T459 205T423 132Q415 92 427 59T469 6T537 -14Q578 -14 615 5T678 58T713 132Q722 172 710 205T668 257T599 277ZM585 213Q608
213 624 202T647 173T649 132Q644 110 630 91T595 62T551 51Q530 51 514 61T491 91T489 132Q494 155 508 173T543 202T585 213Z" />
<glyph unicode="&amp;" horiz-adv-x="530" d="M515 632L554 703H387Q342 703 304 684T240 631T206 552Q202 526 204 499T220 447T258 403H240Q213 403 189 395T144 368T108 323T85 256L64 161Q57 125 60 98T74 52T105 20T148 1T201 -5Q224 -5 251 2T307 22T359
57Q367 30 390 15T450 -9L482 49Q450 57 436 78T429 137L472 336H547L584 404H485L507 507H435L413 403H376Q351 408 331 420T296 450T277 493T278 544Q288 585 316 608T382 632H515ZM399 337L365 174Q359 143 340 120T292 83T230 66Q194 64 172 75T141 110T140
165L159 254Q165 282 176 298T203 323T233 334T262 337H399Z" />
<glyph unicode="&apos;" horiz-adv-x="228" d="M225 701L215 589H262L299 701Q304 721 295 730T270 739T242 730T225 701Z" />
<glyph unicode="(" horiz-adv-x="202" d="M344 764L325 818Q282 797 252 769T202 704T173 620L57 78Q49 36 50 6T61 -46T87 -85T126 -119L168 -66Q157 -57 148 -45T133 -15T126 24T131 76L248 627Q254 655 264 676T288 714T315 743T344 764Z" />
<glyph unicode=")" horiz-adv-x="202" d="M225 818L183 764Q194 755 203 743T218 715T225 677T221 627L104 76Q98 47 88 25T64 -15T36 -44T6 -66L26 -119Q55 -102 79 -85T121 -46T154 6T178 78L293 620Q300 655 300 684T292 738T268 782T225 818Z" />
<glyph unicode="*" horiz-adv-x="363" d="M185 636L145 570L249 541L157 457L211 412L290 516L326 412L397 456L339 541L458 570L443 637L330 587L366 700H290L277 587L185 636Z" />
<glyph unicode="+" horiz-adv-x="380" d="M339 530H265L238 405H115L99 333H223L197 210H271L297 333H420L435 405H313L339 530Z" />
<glyph unicode="," horiz-adv-x="241" d="M69 -79L86 -93Q92 -88 103 -78T127 -53T153 -16T170 32Q173 50 164 62T137 74Q120 74 105 62T86 32Q83 17 90 6T111 -9Q105 -25 96 -43T69 -79Z" />
<glyph unicode="-" horiz-adv-x="393" d="M107 340H427L442 414H122L107 340Z" />
<glyph unicode="." horiz-adv-x="155" d="M92 73Q75 73 60 61T41 30Q38 13 47 1T74 -12Q92 -12 107 0T127 30Q131 48 121 60T92 73Z" />
<glyph unicode="/" horiz-adv-x="438" d="M-3 -114H68L592 818H518L-3 -114Z" />
<glyph unicode="0" horiz-adv-x="493" d="M143 508L77 192Q64 127 82 82T142 13T244 -11Q306 -11 358 13T447 81T496 186L563 504Q584 602 541 659T397 716Q298 716 231 663T143 508ZM151 193L217 502Q227 549 249 580T305 626T381 642Q426 642 453 626T489 580T488
502L423 197Q414 154 390 124T330 78T254 62Q214 62 188 77T152 121T151 193Z" />
<glyph unicode="1" horiz-adv-x="253" d="M148 624L156 566Q164 568 178 572T209 582T241 595T267 609L137 0H210L359 700H286Q266 679 242 665T196 642T161 629T148 624Z" />
<glyph unicode="2" horiz-adv-x="423" d="M170 590L229 562Q245 588 264 605T306 630T348 638Q374 638 394 627T423 593T425 538Q422 523 417 509T398 475T358 425L45 69L30 0H388L403 69H131L411 388Q453 436 474 474T503 547Q515 600 498 636T445 692T365 710Q330
710 294 697T226 657T170 590Z" />
<glyph unicode="3" horiz-adv-x="446" d="M303 409L301 410L496 631L510 700H220L204 625H404L156 340H267Q306 340 335 321T377 270T382 199Q374 160 349 129T288 79T214 61Q175 61 148 76T103 125L42 81Q65 38 108 13T204 -12Q254 -12 296 4T371 48T427 115T459
197Q471 253 455 300T399 376T303 409Z" />
<glyph unicode="4" horiz-adv-x="507" d="M333 0H407L480 340H531L567 414H496L556 700H482L421 414H229L435 700H358L89 340H405L333 0Z" />
<glyph unicode="5" horiz-adv-x="442" d="M227 412L291 625H491L507 700H240L132 341H242Q297 341 331 324T378 276T383 202Q376 171 360 146T320 101T269 72T212 62Q180 62 154 68T111 84T84 99T75 105L34 42Q34 43 47 35T82 16T134 -3T199 -12Q250 -12 293 7T371
57T426 125T456 199Q471 267 451 314T383 387T266 412H227Z" />
<glyph unicode="6" horiz-adv-x="485" d="M407 632H446L461 700H426Q353 700 292 670T188 587T131 462L75 204Q63 145 81 97T141 19T244 -10Q289 -10 331 6T408 52T468 121T502 204Q515 263 497 311T435 387T330 415Q305 415 279 409T227 390T181 360L201 449Q212
501 239 542T309 607T407 632ZM319 342Q347 342 369 331T407 301T428 257T428 203Q422 175 406 150T366 105T315 74T259 63Q221 63 194 82T154 133T149 203Q155 231 171 256T211 301T262 331T319 342Z" />
<glyph unicode="7" horiz-adv-x="445" d="M116 0L559 627L575 700H182L167 625H476L34 0H116Z" />
<glyph unicode="8" horiz-adv-x="485" d="M393 709Q343 709 298 686T222 622T181 533Q176 506 177 480T190 430T224 389Q188 373 156 344T102 278T71 201Q59 143 76 95T135 17T238 -12Q299 -12 353 16T446 94T497 201Q505 240 500 274T476 338T424 388Q466 414
493 449T531 533Q541 582 527 622T479 685T393 709ZM333 431Q305 431 284 445T254 483T251 534Q257 563 276 586T322 624T376 638Q405 638 425 624T455 587T458 534Q453 507 434 484T388 446T333 431ZM254 62Q215 62 188 81T148 131T144 201Q150 230 166 255T205
299T256 329T313 340Q354 340 381 322T420 272T423 201Q415 163 390 132T329 81T254 62Z" />
<glyph unicode="9" horiz-adv-x="483" d="M388 709Q342 709 300 693T223 648T164 581T130 497Q117 437 135 390T195 314T300 286Q332 286 359 293T408 313T449 341L429 252Q419 201 391 160T321 94T223 70H185L171 -1H206Q279 -1 340 29T443 114T500 239L555 497Q568
556 551 604T491 680T388 709ZM372 636Q411 636 439 618T479 568T482 498Q476 469 460 444T421 399T370 369T313 358Q285 358 262 369T224 399T203 443T203 498Q210 527 226 552T266 596T316 625T372 636Z" />
<glyph unicode=":" horiz-adv-x="162" d="M152 144Q156 162 146 174T119 186Q101 186 86 174T68 144Q64 126 73 114T101 102Q118 102 133 114T152 144ZM203 385Q207 403 197 415T170 427Q153 427 138 415T119 385Q115 368 125 356T152 343Q170 343 184 355T203 385Z" />
<glyph unicode=";" horiz-adv-x="165" d="M54 33L70 19Q76 23 87 33T112 58T137 95T155 144Q158 162 149 174T121 186Q104 186 89 174T71 144Q67 129 74 117T96 102Q90 87 81 69T54 33ZM208 385Q212 403 202 415T174 427Q157 427 142 415T124 385Q120 368 130
356T157 343Q174 343 189 355T208 385Z" />
<glyph unicode="&lt;" horiz-adv-x="387" d="M102 359L321 79L380 128L199 358L480 588L439 637L102 359Z" />
<glyph unicode="=" horiz-adv-x="392" d="M111 357H431L447 429H126L111 357ZM85 237H406L421 309H101L85 237Z" />
<glyph unicode="&gt;" horiz-adv-x="388" d="M156 588L337 358L58 128L98 79L435 359L216 637L156 588Z" />
<glyph unicode="?" horiz-adv-x="412" d="M139 532H214Q220 560 233 580T264 614T302 633T341 639Q368 638 389 626T420 590T423 532Q416 503 400 480T363 436T318 393Q300 377 283 359T249 320T221 272T202 212L182 120H253L272 208Q279 238 288 259T312 298T343
331T380 366Q408 391 431 416T472 469T497 533Q505 574 498 606T470 662T420 697T356 709Q323 710 289 700T224 667T171 612T139 532ZM209 73Q191 73 176 61T157 30Q153 13 163 1T191 -12Q208 -12 223 0T242 30Q245 48 236 60T209 73Z" />
<glyph unicode="@" horiz-adv-x="753" d="M817 440L808 491Q771 482 748 465T712 421T692 359L651 163Q641 118 615 86T548 33T461 4T360 -6Q298 -6 253 5T181 42T146 106T150 202L178 338Q188 384 208 418T257 476T325 511T411 523Q484 523 522 504T554 443H405Q377
443 350 436T300 410T259 362T231 288L220 234Q209 186 215 153T243 99T295 70T366 61Q389 61 414 62T464 66T508 69T538 72T550 74L613 375H663L681 443H624Q629 478 619 504T583 549T516 578T419 588Q356 588 304 571T211 521T144 441T103 334L73 192Q59 126
73 76T124 -8T217 -59T343 -76Q416 -76 480 -59T594 -11T677 67T723 174L764 366Q768 385 774 399T791 423T817 440ZM398 375H542L490 132Q487 132 476 131T449 129T413 127T373 126Q315 126 297 148T291 230L303 285Q313 326 330 345T366 369T398 375Z" />
<glyph unicode="A" horiz-adv-x="546" d="M525 0L465 700H378L22 0H104L217 225H422L442 0H525ZM252 300L397 595L420 300H252Z" />
<glyph unicode="B" horiz-adv-x="506" d="M391 700H190L41 0H268Q338 0 389 26T473 99T519 208Q529 255 523 291T498 351T454 388Q479 403 498 423T531 468T550 523Q562 581 547 620T492 679T391 700ZM329 413H203L249 628H372Q412 628 436 617T468 582T468 522Q461
487 444 463T398 426T329 413ZM272 69H130L188 341H337Q380 341 405 324T437 277T438 211Q427 162 403 130T346 84T272 69Z" />
<glyph unicode="C" horiz-adv-x="424" d="M483 622L516 677Q486 694 451 702T377 711Q322 711 274 689T192 623T144 510L74 184Q60 119 74 76T129 11T232 -11Q271 -11 313 -2T401 23L402 89Q380 82 355 76T302 65T252 60Q209 60 183 72T148 113T149 186L219 514Q228
560 250 588T306 629T384 642Q409 642 434 637T483 622Z" />
<glyph unicode="D" horiz-adv-x="498" d="M379 700H190L41 0H250Q321 0 373 23T458 91T505 202L562 475Q577 544 561 594T500 672T379 700ZM247 67H130L249 629H374Q426 629 455 611T492 561T491 488L428 192Q422 165 410 142T375 102T322 76T247 67Z" />
<glyph unicode="E" horiz-adv-x="408" d="M41 0H373L388 67H130L188 341H343L376 413H203L249 629H509L524 700H190L41 0Z" />
<glyph unicode="F" horiz-adv-x="392" d="M524 700H190L41 0H116L188 341H345L377 413H203L249 628H509L524 700Z" />
<glyph unicode="G" horiz-adv-x="480" d="M489 620L519 676Q501 687 480 694T435 705T385 709Q321 709 272 685T189 616T142 503L74 186Q60 119 76 76T133 12T230 -10Q256 -10 285 -4T342 13T392 41L387 0H447L511 300H308L318 229H423L414 187Q408 158 391 135T350
96T298 71T242 62Q203 62 179 76T148 118T149 187L218 511Q228 558 252 586T311 627T390 640Q407 640 423 638T456 632T489 620Z" />
<glyph unicode="H" horiz-adv-x="515" d="M486 413H203L264 700H190L41 0H116L188 341H470L398 0H472L620 700H547L486 413Z" />
<glyph unicode="I" horiz-adv-x="205" d="M156 632L221 630L87 0H162L311 700H170L156 632Z" />
<glyph unicode="J" horiz-adv-x="232" d="M218 126L340 700H201L187 632L250 630L144 128Q137 91 120 67T81 31T31 19L40 -37Q77 -36 107 -24T159 10T196 61T218 126Z" />
<glyph unicode="K" horiz-adv-x="478" d="M204 404L267 700H190L41 0H118L175 268L234 338L370 0H456L291 402L557 700H466L204 404Z" />
<glyph unicode="L" horiz-adv-x="426" d="M41 0H402L417 67H130L264 700H190L41 0Z" />
<glyph unicode="M" horiz-adv-x="621" d="M264 700H190L41 0H116L217 480L275 0H343L606 480L504 0H578L727 700H653L336 127L264 700Z" />
<glyph unicode="N" horiz-adv-x="577" d="M683 700H609L489 139L265 700H190L41 0H116L234 556L460 0H534L683 700Z" />
<glyph unicode="O" horiz-adv-x="493" d="M143 508L77 192Q64 127 82 82T142 13T244 -11Q306 -11 358 13T447 81T496 186L563 504Q584 602 541 659T397 716Q298 716 231 663T143 508ZM151 193L217 502Q227 549 249 580T305 626T381 642Q426 642 453 626T489 580T488
502L423 197Q414 154 390 124T330 78T254 62Q214 62 188 77T152 121T151 193Z" />
<glyph unicode="P" horiz-adv-x="507" d="M420 700H190L41 0H116L164 229H320Q366 229 406 240T480 279T537 352T575 467Q590 534 585 579T557 651T500 688T420 700ZM179 300L249 628H394Q427 628 451 622T491 599T509 550T501 467Q489 412 472 379T433 329T384
306T325 300H179Z" />
<glyph unicode="Q" horiz-adv-x="493" d="M290 48L316 174H246L219 44Q211 6 214 -23T235 -72T285 -101T367 -111L389 -48Q357 -48 336 -43T302 -27T287 3T290 48ZM143 508L77 192Q64 127 82 82T142 13T244 -11Q306 -11 358 13T447 81T496 186L563 504Q584 602
541 659T397 716Q298 716 231 663T143 508ZM151 193L217 502Q227 549 249 580T305 626T381 642Q426 642 453 626T489 580T488 502L423 197Q414 154 390 124T330 78T254 62Q214 62 188 77T152 121T151 193Z" />
<glyph unicode="R" horiz-adv-x="511" d="M420 700H190L41 0H115L164 229H319Q328 229 336 229T353 230T369 232L403 0H480L441 254Q474 270 499 298T544 367T575 466Q590 534 585 579T557 650T500 688T420 700ZM325 300H179L249 628H394Q427 628 451 622T491
599T508 550T501 466Q489 411 472 378T433 329T383 306T325 300Z" />
<glyph unicode="S" horiz-adv-x="535" d="M553 609L585 672Q563 685 539 693T488 705T434 709Q395 709 354 701T276 675T213 625T177 548Q168 505 176 474T206 420T256 381T316 350T377 320T428 288T461 247T465 192Q458 157 439 132T394 90T337 67T274 59Q241
59 207 67T144 93T99 138L47 91Q70 57 103 34T176 0T262 -12Q309 -12 354 -1T439 35T506 96T545 186Q555 232 547 265T517 323T467 364T406 396T344 424T291 454T258 492T253 545Q259 573 277 591T321 620T373 635T422 639Q446 639 468 636T512 626T553 609Z" />
<glyph unicode="T" horiz-adv-x="422" d="M379 630H545L561 700H158L143 630H305L171 0H245L379 630Z" />
<glyph unicode="U" horiz-adv-x="499" d="M498 186L607 700H534L426 194Q417 152 394 123T338 78T262 62Q220 62 193 77T155 121T153 193L261 700H187L78 186Q65 122 82 78T142 12T247 -11Q311 -11 362 12T449 79T498 186Z" />
<glyph unicode="V" horiz-adv-x="513" d="M165 700L208 0H302L643 700H561L280 118L246 700H165Z" />
<glyph unicode="W" horiz-adv-x="736" d="M544 700H471L246 127V700H168V0H266L468 502L473 0H561L864 700H781L544 146V700Z" />
<glyph unicode="X" horiz-adv-x="580" d="M383 430L275 700H187L323 357L27 0H127L356 278L468 0H556L416 350L702 700H603L383 430Z" />
<glyph unicode="Y" horiz-adv-x="517" d="M509 156L624 700H550L490 417Q484 386 466 364T423 328T369 307T311 300Q259 299 232 314T197 361T199 440L254 700H180L125 442Q112 380 125 332T180 257T295 230Q326 230 356 235T413 253T461 283L434 157Q428 131
420 112T400 79T375 55T343 42L353 -11Q415 -4 454 38T509 156Z" />
<glyph unicode="Z" horiz-adv-x="551" d="M190 700L175 631L551 630L530 608L43 67L28 0H516L531 68L136 69L156 90L642 631L657 700H190Z" />
<glyph unicode="[" horiz-adv-x="226" d="M274 742L364 752L377 818H216L18 -114H180L193 -49L108 -39L274 742Z" />
<glyph unicode="\" horiz-adv-x="436" d="M315 -114H394L268 818H190L315 -114Z" />
<glyph unicode="]" horiz-adv-x="228" d="M0 -114H161L359 818H198L184 752L269 742L102 -39L14 -49L0 -114Z" />
<glyph unicode="^" horiz-adv-x="267" d="M428 773L327 900L167 772L201 728L310 817L375 730L428 773Z" />
<glyph unicode="_" horiz-adv-x="384" d="M20 -63H340L353 0H33L20 -63Z" />
<glyph unicode="`" horiz-adv-x="267" d="M272 709Q271 721 264 728T247 739T225 737Q213 732 208 722T202 701T207 681L245 603H284L272 709Z" />
<glyph unicode="a" horiz-adv-x="449" d="M411 345Q395 362 371 375T318 395T260 402Q231 402 203 394T150 368T108 322T81 252L62 165Q51 112 61 78T96 24T160 -3T245 -10Q261 -10 281 -10T322 -8T362 -5T394 -2T412 0L476 294Q488 353 487 394T467 461T411 497T312
509L297 455Q326 455 350 451T391 435T413 401T411 345ZM399 286L352 62Q352 62 347 62T334 61T313 59T288 57T259 56Q214 54 187 61T147 83T134 122T139 175L154 246Q159 274 170 290T196 316T225 329T252 333Q281 333 308 326T358 308T399 286Z" />
<glyph unicode="b" horiz-adv-x="458" d="M217 477L264 700H190L41 0Q46 0 59 -1T91 -4T129 -7T169 -9T203 -10Q249 -11 291 -4T367 22T425 77T461 165L503 359Q512 400 504 428T477 475T430 501T374 509Q345 509 318 505T266 494T217 477ZM129 62L201 406Q223
415 247 423T297 435T352 440Q365 440 380 437T408 424T427 398T427 352L390 176Q384 145 373 122T342 84T293 62T218 56Q200 57 184 58T156 60T136 61T129 62Z" />
<glyph unicode="c" horiz-adv-x="382" d="M422 420L452 478Q424 493 392 501T325 511Q258 511 212 487T138 419T98 319L67 174Q53 107 70 66T130 7T231 -11Q261 -11 292 -7T353 5V68Q353 68 344 67T319 63T284 58T245 55Q213 55 190 62T154 85T138 124T142 182L170
315Q178 354 198 383T249 428T321 444Q347 443 374 437T422 420Z" />
<glyph unicode="d" horiz-adv-x="459" d="M415 0L564 700H491L443 476Q413 490 379 499T299 509Q270 509 240 501T183 475T135 429T106 359L66 169Q55 118 64 83T100 27T164 -2T250 -10Q266 -10 285 -10T325 -8T364 -5T396 -2T415 0ZM428 406L355 62Q355 62 350
62T337 61T316 59T291 57T263 56Q218 55 191 62T151 84T136 121T141 175L179 352Q185 380 198 397T229 424T263 436T292 440Q336 440 368 430T428 406Z" />
<glyph unicode="e" horiz-adv-x="423" d="M136 139L147 189L436 204L466 342Q478 398 462 435T409 491T317 510Q263 510 220 491T147 433T105 339L63 140Q54 99 60 70T85 23T133 -3T199 -12Q240 -12 287 0T376 35L360 96Q320 78 283 66T211 54Q191 54 175 59T149
74T135 101T136 139ZM390 337L376 269L162 259L176 330Q185 366 202 391T246 429T310 444Q343 444 363 430T389 392T390 337Z" />
<glyph unicode="f" horiz-adv-x="259" d="M357 641L383 707Q376 709 369 710T355 711T339 711Q313 711 285 703T231 676T186 626T156 550L39 0H115L207 430H288L326 500H221L232 553Q237 576 245 593T266 622T293 639T327 645Q335 645 342 644T357 641Z" />
<glyph unicode="g" horiz-adv-x="442" d="M388 -64L508 499H433L425 461Q409 476 390 487T350 503T306 509Q253 511 212 492T144 436T105 346L69 175Q49 84 82 36T200 -12Q219 -12 238 -8T276 4T310 22T336 45L315 -60Q310 -80 302 -95T282 -122T256 -141T225
-153L233 -211Q276 -203 307 -186T359 -138T388 -64ZM410 391L361 162Q356 138 343 119T312 86T270 64T219 56Q186 56 166 68T140 105T141 164L178 341Q184 371 198 391T230 423T268 440T309 443Q323 442 339 438T369 426T395 411T410 391Z" />
<glyph unicode="h" horiz-adv-x="445" d="M215 471L264 700H190L41 0H116L203 412Q224 423 244 429T283 439T322 443Q343 443 361 438T393 421T411 390T411 343L338 0H411L485 346Q493 380 491 407T477 453T448 485T405 504T350 510Q327 510 303 505T256 490T215 471Z" />
<glyph unicode="i" horiz-adv-x="156" d="M40 0H115L221 501H147L40 0ZM229 710Q212 710 197 698T178 668Q174 651 183 639T211 626Q228 626 243 638T262 668Q266 686 257 698T229 710Z" />
<glyph unicode="j" horiz-adv-x="220" d="M157 -62L277 501H136L122 436L188 433L84 -58Q79 -83 67 -102T37 -133T-5 -153L3 -212Q45 -204 76 -185T128 -136T157 -62ZM320 668Q323 686 314 697T286 709Q268 709 253 698T234 668Q230 651 240 639T268 626Q286 626
301 638T320 668Z" />
<glyph unicode="k" d="M282 344L452 469L409 519L190 351L264 700H190L41 0H115L171 262L218 296L334 0H424L282 344Z" />
<glyph unicode="l" horiz-adv-x="158" d="M41 0H114L263 700H190L41 0Z" />
<glyph unicode="m" horiz-adv-x="718" d="M683 342L610 0H682L755 344Q765 387 760 418T737 470T691 499T625 509Q603 509 576 503T519 485T463 456Q452 474 435 485T394 503T340 509Q319 509 297 504T255 490T212 470L219 500H145L38 0H113L200 410Q221 421 239
428T276 438T313 442Q334 442 352 437T382 420T399 389T398 342L325 0H397L471 344Q475 362 476 377T475 407Q499 420 521 427T562 438T597 442Q618 442 636 437T667 420T684 389T683 342Z" />
<glyph unicode="n" horiz-adv-x="444" d="M408 342L335 0H408L481 345Q488 379 486 405T474 451T445 484T401 503T346 509Q323 509 299 504T253 490T212 470L219 500H144L38 0H112L200 412Q221 423 241 430T281 440T318 443Q339 443 358 438T390 420T408 389T408 342Z" />
<glyph unicode="o" horiz-adv-x="431" d="M439 185L468 316Q487 408 451 460T326 512Q266 512 220 490T143 424T98 316L69 185Q58 132 69 88T116 17T216 -10Q308 -10 364 44T439 185ZM392 318L362 176Q355 141 338 115T294 74T230 60Q195 60 173 75T143 116T142
176L172 318Q181 359 199 386T246 428T312 442Q349 442 369 428T395 386T392 318Z" />
<glyph unicode="p" d="M447 176L483 346Q494 398 483 435T440 492T352 510Q329 510 305 504T257 487T213 462L221 500H146L-1 -189L69 -214L124 45Q133 29 149 16T188 -4T237 -12Q320 -12 374 36T447 176ZM407 341L370 165Q363 129 346 105T305 69T247 56Q224
56 204 63T170 83T150 117T149 163L198 391Q211 406 232 417T277 435T321 444Q342 445 360 440T391 424T409 392T407 341Z" />
<glyph unicode="q" horiz-adv-x="442" d="M337 46L287 -189L357 -213L509 500H434L425 462Q409 478 390 488T351 505T307 511Q254 513 213 494T144 437T105 346L69 177Q56 116 66 74T110 11T200 -11Q225 -11 251 -4T299 17T337 46ZM411 392L362 163Q356 139 344
120T312 86T270 65T220 57Q186 57 167 70T141 107T141 166L179 342Q185 372 198 392T230 424T269 441T309 445Q324 444 339 440T369 428T395 412T411 392Z" />
<glyph unicode="r" horiz-adv-x="347" d="M409 443L430 505Q425 507 410 510T375 512Q328 511 289 500T213 471L219 500H144L38 0H112L198 402Q215 412 235 419T277 433T322 442T364 446Q385 448 397 446T409 443Z" />
<glyph unicode="s" horiz-adv-x="420" d="M410 421L448 476Q429 490 407 498T361 509T317 512Q284 512 251 503T190 475T145 428T128 364Q129 334 140 312T171 275T213 249T259 228T301 208T333 184T345 150Q345 126 334 108T303 77T263 59T223 52Q195 52 171
59T128 79T92 112L41 69Q68 29 114 6T214 -17Q252 -17 288 -6T355 28T403 83T422 156Q422 185 410 206T379 242T336 268T289 289T246 310T215 334T203 368Q203 388 213 402T241 426T277 439T314 445Q332 445 349 443T382 435T410 421Z" />
<glyph unicode="t" horiz-adv-x="253" d="M142 132L206 432H294L333 500H221L263 700H188L67 132Q54 70 76 35T158 -13L193 45Q171 50 158 61T141 89T142 132Z" />
<glyph unicode="u" horiz-adv-x="446" d="M340 41L332 0H406L513 501H439L369 174Q363 150 351 131T320 97T279 73T233 61Q196 58 174 67T145 100T145 160L217 501H143L69 157Q62 122 64 95T78 48T108 16T151 -3T204 -9Q229 -9 254 -3T301 14T340 41Z" />
<glyph unicode="v" horiz-adv-x="442" d="M127 501L175 0H262L524 501H444L235 94L203 501H127Z" />
<glyph unicode="w" horiz-adv-x="715" d="M496 499H427L241 103L205 499H126L175 0H263L431 359L446 0H532L796 499H717L513 103L496 499Z" />
<glyph unicode="x" horiz-adv-x="462" d="M295 313L214 500H137L242 251L31 0H125L274 180L349 0H430L326 242L543 500H453L295 313Z" />
<glyph unicode="y" horiz-adv-x="474" d="M541 458L528 512Q496 507 473 491T437 451T418 404L369 175Q364 152 351 132T320 95T279 70T233 61Q213 61 194 66T162 83T144 114T145 162L217 502H142L69 158Q60 114 65 82T89 31T137 2T204 -8Q228 -8 253 -2T301 15T341
43L320 -57Q316 -74 309 -89T290 -117T265 -139T233 -152L241 -211Q284 -202 314 -184T364 -135T393 -61L490 393Q496 423 508 437T541 458Z" />
<glyph unicode="z" horiz-adv-x="430" d="M490 501H148L133 434L377 433L47 69L32 0H400L415 68L143 69L475 435L490 501Z" />
<glyph unicode="{" horiz-adv-x="269" d="M291 517L315 630Q320 656 328 675T346 709T368 734T389 751T409 763L391 823Q390 823 378 818T346 801T307 768T268 712T239 630L215 517Q211 496 204 476T187 436Q177 417 159 398T113 361L101 353L110 345Q130 327
140 309T152 270Q154 251 153 231T146 190L122 76Q112 28 115 -5T129 -61T154 -95T179 -112T191 -118L236 -56Q229 -51 221 -45T207 -28T196 -3T191 31T197 76L221 190Q226 211 227 231T229 273Q228 314 189 353Q216 373 234 393T263 433Q272 454 279 475T291 517Z"
/>
<glyph unicode="|" horiz-adv-x="159" d="M18 -114H92L290 818H216L18 -114Z" />
<glyph unicode="}" horiz-adv-x="275" d="M230 823L186 763Q193 758 201 752T215 735T226 710T230 676T224 630L200 517Q194 489 192 461T198 406T232 353Q196 327 177 300T147 246T131 190L107 76Q101 51 93 32T75 -2T53 -27T31 -44T11 -56L29 -118Q31 -117 43
-112T75 -95T114 -61T153 -6T181 76L205 190Q211 218 220 244T250 295T308 345L320 353L311 361Q285 386 275 411T266 462T274 517L299 630Q309 678 306 712T291 767T266 801T242 818T230 823Z" />
<glyph unicode="~" horiz-adv-x="267" d="M355 304L337 350Q320 337 304 330T269 323Q247 323 227 331T186 348T140 356Q118 356 94 346T45 315L61 269Q83 285 100 290T134 295Q156 294 175 286T214 270T256 261Q280 260 304 271T355 304Z" />
<glyph unicode="&#xa0;" horiz-adv-x="280" />
<glyph unicode="&#xa1;" horiz-adv-x="164" d="M133 47L235 590H178L50 48Q45 24 53 12T81 0Q102 0 115 11T133 47ZM266 673Q270 691 261 703T233 715Q216 715 201 703T182 673Q178 656 188 644T215 631Q233 631 247 643T266 673Z" />
<glyph unicode="&#xa2;" horiz-adv-x="382" d="M167 -114H233L389 624H323L167 -114ZM422 420L452 478Q424 493 392 501T325 511Q258 511 212 487T138 419T98 319L67 174Q53 107 70 66T130 7T231 -11Q261 -11 292 -7T353 5V68Q353 68 344 67T319 63T284 58T245
55Q213 55 190 62T154 85T138 124T142 182L170 315Q178 354 198 383T249 428T321 444Q347 443 374 437T422 420Z" />
<glyph unicode="&#xa3;" horiz-adv-x="430" d="M136 69H50L35 0H394L410 69H294Q330 92 356 132T388 215Q392 243 387 269T368 321L359 340H467L483 413H319L289 463Q280 477 273 491T262 520T260 551Q261 577 275 596T310 626T355 639Q386 642 414 634T468 609L505
672Q488 684 466 692T421 705T375 709Q341 709 308 699T248 668T204 620T182 554Q179 523 188 493T213 435L226 413H123L108 340H267L291 303Q299 289 303 274T310 245T311 215Q308 182 292 155T252 109T197 80T136 69Z" />
<glyph unicode="&#xa4;" horiz-adv-x="478" d="M437 361L539 445L503 490L401 405Q388 417 370 423T329 429Q308 429 287 423T246 405L180 490L127 445L191 360Q177 345 168 325T153 284Q149 262 151 242T159 206L58 123L92 77L194 162Q208 151 226 145T267 138Q288
138 309 144T349 161L415 77L471 123L404 206Q418 222 428 242T443 284Q448 305 446 325T437 361ZM281 203Q260 203 244 214T221 243T218 284Q223 306 237 324T273 352T315 363Q338 363 353 353T376 324T378 284Q373 262 359 244T325 214T281 203Z" />
<glyph unicode="&#xa5;" horiz-adv-x="517" d="M367 333L644 700H562L346 415L252 700H171L291 332L221 0H296L367 333ZM140 197H460L476 269H155L140 197ZM114 77H435L450 149H130L114 77Z" />
<glyph unicode="&#xa7;" horiz-adv-x="439" d="M450 608L488 663Q469 677 447 685T401 696T357 699Q324 699 291 690T229 662T185 615T168 551Q168 528 175 510T194 479Q162 459 145 429T128 364Q129 334 140 312T171 275T213 249T259 228T301 208T333 184T345
150Q345 126 334 108T303 77T263 59T223 52Q195 52 171 59T128 79T92 112L41 69Q68 29 114 6T214 -17Q252 -17 288 -6T355 28T403 83T422 156Q422 176 416 192T400 220Q425 243 443 275T462 343Q462 372 450 393T419 429T376 455T329 476T286 497T254 521T242 555Q242
575 253 589T280 613T316 626T354 632Q371 632 389 630T422 622T450 608ZM344 264Q326 274 307 283T269 300T235 317T212 339T203 368Q203 384 209 397T228 419T254 435Q272 426 290 418T325 402T355 385T377 365T385 337Q385 316 373 297T344 264Z" />
<glyph unicode="&#xa8;" horiz-adv-x="267" d="M214 751Q197 751 182 739T163 709Q159 692 169 680T196 667Q214 667 229 679T247 709Q251 726 242 738T214 751ZM371 751Q354 751 339 739T320 709Q316 691 326 679T353 667Q371 667 386 679T405 709Q408 726 399
738T371 751Z" />
<glyph unicode="&#xa9;" horiz-adv-x="726" d="M733 187L763 327Q777 393 763 442T712 525T617 574T488 591Q415 591 352 574T237 524T151 442T101 327L71 187Q58 121 71 72T123 -11T217 -61T346 -78Q418 -78 482 -61T598 -11T685 72T733 187ZM683 298L666 216Q652
152 626 109T562 41T474 4T361 -8Q294 -8 248 3T176 40T144 109T151 216L169 298Q182 362 207 405T269 473T357 510T473 522Q540 522 586 511T658 474T690 405T683 298ZM575 367L607 421Q580 438 546 447T473 456Q423 456 382 440T309 394Q282 367 263 331T235
250Q223 196 231 157T267 94Q288 75 319 66T392 57Q431 57 473 66T562 91L545 151Q530 147 514 143T480 135T446 130T410 127Q380 127 359 133T326 151Q309 167 306 193T310 255Q318 287 331 311T363 352Q385 370 413 378T476 387Q490 387 504 385T531 380T556
374T575 367Z" />
<glyph unicode="&#xaa;" horiz-adv-x="329" d="M377 391Q380 402 383 418T391 454T398 492T405 528T412 555Q422 602 418 633T395 682Q383 694 366 700T326 708T280 709L262 660Q286 661 304 659T332 651Q351 645 356 632T357 599Q332 615 309 623T263 632Q230
632 204 618T160 578T135 519Q126 479 131 452T153 409T195 387T253 379Q280 379 311 383T377 391ZM343 540L322 440Q321 440 311 439T286 437T256 437T231 442Q215 447 206 456T193 479T193 512Q197 534 205 547T226 568T253 575Q275 575 299 565T343 540Z" />
<glyph unicode="&#xab;" horiz-adv-x="543" d="M405 267L513 126L456 79L309 267L536 455L574 406L405 267ZM185 267L292 126L236 79L88 267L316 455L354 406L185 267Z" />
<glyph unicode="&#xad;" horiz-adv-x="393" d="M179 340H499L514 414H194L179 340Z" />
<glyph unicode="&#xae;" horiz-adv-x="726" d="M733 187L763 327Q777 393 763 442T712 525T617 574T487 591Q415 591 351 574T236 524T151 442T101 327L71 187Q58 121 71 72T122 -11T217 -61T346 -78Q418 -78 482 -61T598 -11T685 72T733 187ZM682 298L664 216Q651
152 627 109T566 41T478 4T360 -8Q293 -8 248 3T176 40T144 109T151 216L169 298Q182 362 206 405T267 473T355 510T473 522Q540 522 586 511T657 474T689 405T682 298ZM494 443H292L210 60H282L304 161H428L456 60H540L505 174Q535 186 561 215T599 303Q608 347
603 375T582 417T544 437T494 443ZM449 233H320L349 371H478Q502 371 514 364T530 341T528 302Q519 264 500 249T449 233Z" />
<glyph unicode="&#xaf;" horiz-adv-x="267" d="M522 688H301L287 622H508L522 688Z" />
<glyph unicode="&#xb0;" horiz-adv-x="349" d="M440 565Q449 606 437 639T395 691T326 711Q286 711 248 692T184 639T148 566Q140 525 152 492T194 439T264 419Q304 419 341 439T405 492T440 565ZM312 646Q334 646 350 635T373 606T375 565Q371 544 356 526T321
496T278 485Q256 485 240 496T217 525T214 565Q219 588 233 606T269 635T312 646Z" />
<glyph unicode="&#xb1;" horiz-adv-x="386" d="M111 369H235L209 247H84L68 176H389L405 247H283L308 369H431L446 440H324L350 565H277L249 440H126L111 369Z" />
<glyph unicode="&#xb4;" horiz-adv-x="267" d="M345 680Q354 690 358 700T361 720T350 735Q341 741 330 740T310 731T295 713L235 603H274L345 680Z" />
<glyph unicode="&#xb5;" horiz-adv-x="466" d="M430 100L517 509L440 497L372 168Q365 137 350 114T310 77T254 59Q221 55 195 67T155 102T148 155L221 500H145L-1 -188L70 -212L124 45Q127 42 134 33T156 14T191 -4T243 -11Q266 -11 286 -6T324 10T353 35Q357
24 363 16T375 3T384 -4L441 26Q439 27 435 35T428 59T430 100Z" />
<glyph unicode="&#xb6;" horiz-adv-x="641" d="M284 230H440L390 1H465L599 630H658L524 1H598L747 702H384Q339 702 300 691T227 653T169 581T131 469Q116 400 120 354T146 281T202 242T284 230ZM380 630H524L455 301H310Q278 302 253 307T214 330T196 380T205
469Q219 537 243 571T302 618T380 630Z" />
<glyph unicode="&#xb7;" horiz-adv-x="167" d="M152 333Q135 333 120 321T101 290Q98 273 107 261T134 248Q152 248 167 260T187 290Q191 308 181 320T152 333Z" />
<glyph unicode="&#xb8;" horiz-adv-x="267" d="M173 7H117L61 -64L69 -97Q85 -95 99 -94T126 -91T149 -90Q174 -89 185 -97T191 -128Q188 -142 179 -152T155 -167T122 -172Q106 -172 90 -170T59 -166T35 -161L11 -216Q12 -216 27 -219T65 -225T110 -228Q161 -228
199 -202T247 -128Q255 -91 235 -63T166 -35Q160 -35 154 -35T138 -37L173 7Z" />
<glyph unicode="&#xba;" horiz-adv-x="327" d="M402 503L421 587Q434 645 408 678T317 711Q249 711 208 680T153 587L134 503Q127 470 135 442T169 396T243 379Q311 379 350 413T402 503ZM352 574L339 512Q331 480 314 461T255 441Q229 441 216 450T199 475T201
512L215 574Q223 612 246 631T303 650Q327 650 340 642T356 616T352 574Z" />
<glyph unicode="&#xbb;" horiz-adv-x="517" d="M228 267L60 126L97 79L324 267L176 455L118 406L228 267ZM448 267L280 126L317 79L544 267L397 455L338 406L448 267Z" />
<glyph unicode="&#xbf;" horiz-adv-x="416" d="M419 162H345Q339 135 326 115T296 81T258 61T217 54Q192 55 171 67T140 103T137 161Q144 192 160 214T197 257T242 299Q259 316 276 334T310 374T338 422T358 482L378 574H307L288 486Q282 456 272 435T248 396T217
362T180 328Q153 303 130 278T89 225T63 161Q54 120 63 88T94 33T143 -2T202 -15Q238 -16 272 -5T337 28T388 84T419 162ZM369 705Q352 705 337 693T318 663Q315 646 324 634T351 621Q369 621 384 633T402 663Q406 681 397 693T369 705Z" />
<glyph unicode="&#xc0;" horiz-adv-x="546" d="M443 859Q442 871 435 878T418 889T396 887Q384 882 379 872T373 851T378 831L416 753H455L443 859ZM525 0L465 700H378L22 0H104L217 225H422L442 0H525ZM252 300L397 595L420 300H252Z" />
<glyph unicode="&#xc1;" horiz-adv-x="546" d="M518 830Q527 840 531 850T534 870T523 885Q514 891 503 890T483 881T468 863L408 753H447L518 830ZM525 0L465 700H378L22 0H104L217 225H422L442 0H525ZM252 300L397 595L420 300H252Z" />
<glyph unicode="&#xc2;" horiz-adv-x="546" d="M570 781L468 908L309 780L343 738L453 827L519 741L570 781ZM525 0L465 700H378L22 0H104L217 225H422L442 0H525ZM252 300L397 595L420 300H252Z" />
<glyph unicode="&#xc3;" horiz-adv-x="546" d="M526 866L523 851Q521 841 516 831T499 821Q493 821 484 826T470 837Q461 843 453 849T435 860Q420 868 401 868T365 858Q350 851 340 839T323 812T314 784L311 769H367L369 784Q371 791 374 799T384 811Q391 814
399 812T413 804Q419 799 427 793T443 782Q453 776 464 771T489 765Q526 765 548 791T579 851L582 866H526ZM525 0L465 700H378L22 0H104L217 225H422L442 0H525ZM252 300L397 595L420 300H252Z" />
<glyph unicode="&#xc4;" horiz-adv-x="546" d="M377 861Q360 861 345 849T326 819Q322 802 332 790T359 777Q377 777 392 789T410 819Q414 836 405 848T377 861ZM534 861Q517 861 502 849T483 819Q479 801 489 789T516 777Q534 777 549 789T568 819Q571 836 562
848T534 861ZM525 0L465 700H378L22 0H104L217 225H422L442 0H525ZM252 300L397 595L420 300H252Z" />
<glyph unicode="&#xc5;" horiz-adv-x="546" d="M463 892Q432 892 403 877T352 837T324 779Q317 748 327 722T360 681T414 665Q445 665 474 680T524 722T552 779Q559 811 549 836T517 877T463 892ZM450 836Q477 836 490 816Q499 801 495 779Q493 768 487 759T473
740Q463 732 452 727T426 722Q413 722 403 727T387 742Q382 749 381 758T381 779Q384 792 391 802T407 820Q416 828 427 832T450 836ZM525 0L465 700H378L22 0H104L217 225H422L442 0H525ZM252 300L397 595L420 300H252Z" />
<glyph unicode="&#xc6;" horiz-adv-x="754" d="M385 0H719L734 67H474L532 340H687L726 414H548L593 628H856L871 700H441L20 0H103L238 227H434L385 0ZM281 300L476 628H519L449 300H281Z" />
<glyph unicode="&#xc7;" horiz-adv-x="424" d="M256 7H200L144 -64L152 -97Q168 -95 182 -94T209 -91T232 -90Q257 -89 268 -97T274 -128Q271 -142 262 -152T238 -167T205 -172Q189 -172 173 -170T142 -166T118 -161L94 -216Q95 -216 110 -219T148 -225T193 -228Q244
-228 282 -202T330 -128Q338 -91 318 -63T249 -35Q243 -35 237 -35T221 -37L256 7ZM483 622L516 677Q486 694 451 702T377 711Q322 711 274 689T192 623T144 510L74 184Q60 119 74 76T129 11T232 -11Q271 -11 313 -2T401 23L402 89Q380 82 355 76T302 65T252 60Q209
60 183 72T148 113T149 186L219 514Q228 560 250 588T306 629T384 642Q409 642 434 637T483 622Z" />
<glyph unicode="&#xc8;" horiz-adv-x="408" d="M374 860Q373 872 366 879T349 890T327 888Q315 883 310 873T304 852T309 832L347 754H386L374 860ZM41 0H373L388 67H130L188 341H343L376 413H203L249 629H509L524 700H190L41 0Z" />
<glyph unicode="&#xc9;" horiz-adv-x="408" d="M447 830Q456 840 460 850T463 870T452 885Q443 891 432 890T412 881T397 863L337 753H376L447 830ZM41 0H373L388 67H130L188 341H343L376 413H203L249 629H509L524 700H190L41 0Z" />
<glyph unicode="&#xca;" horiz-adv-x="408" d="M501 781L399 908L240 780L274 738L384 827L450 741L501 781ZM41 0H373L388 67H130L188 341H343L376 413H203L249 629H509L524 700H190L41 0Z" />
<glyph unicode="&#xcb;" horiz-adv-x="408" d="M309 861Q292 861 277 849T258 819Q254 802 264 790T291 777Q309 777 324 789T342 819Q346 836 337 848T309 861ZM466 861Q449 861 434 849T415 819Q411 801 421 789T448 777Q466 777 481 789T500 819Q503 836 494
848T466 861ZM41 0H373L388 67H130L188 341H343L376 413H203L249 629H509L524 700H190L41 0Z" />
<glyph unicode="&#xcc;" horiz-adv-x="205" d="M280 861Q279 873 272 880T255 891T233 889Q221 884 216 874T210 853T215 833L253 755H292L280 861ZM156 632L221 630L87 0H162L311 700H170L156 632Z" />
<glyph unicode="&#xcd;" horiz-adv-x="205" d="M372 830Q381 840 385 850T388 870T377 885Q368 891 357 890T337 881T322 863L262 753H301L372 830ZM156 632L221 630L87 0H162L311 700H170L156 632Z" />
<glyph unicode="&#xce;" horiz-adv-x="205" d="M415 781L313 908L154 780L188 738L298 827L364 741L415 781ZM156 632L221 630L87 0H162L311 700H170L156 632Z" />
<glyph unicode="&#xcf;" horiz-adv-x="205" d="M230 861Q213 861 198 849T179 819Q175 802 185 790T212 777Q230 777 245 789T263 819Q267 836 258 848T230 861ZM387 861Q370 861 355 849T336 819Q332 801 342 789T369 777Q387 777 402 789T421 819Q424 836 415
848T387 861ZM156 632L221 630L87 0H162L311 700H170L156 632Z" />
<glyph unicode="&#xd0;" horiz-adv-x="498" d="M158 341H339L376 413H173L158 341ZM379 700H190L41 0H250Q321 0 373 23T458 91T505 202L562 475Q577 544 561 594T500 672T379 700ZM247 67H130L249 629H374Q426 629 455 611T492 561T491 488L428 192Q422 165 410
142T375 102T322 76T247 67Z" />
<glyph unicode="&#xd1;" horiz-adv-x="577" d="M541 866L538 851Q536 841 531 831T514 821Q508 821 499 826T485 837Q476 843 468 849T450 860Q435 868 416 868T380 858Q365 851 355 839T338 812T329 784L326 769H382L384 784Q386 791 389 799T399 811Q406 814
414 812T428 804Q434 799 442 793T458 782Q468 776 479 771T504 765Q541 765 563 791T594 851L597 866H541ZM683 700H609L489 139L265 700H190L41 0H116L234 556L460 0H534L683 700Z" />
<glyph unicode="&#xd2;" horiz-adv-x="493" d="M416 861Q415 873 408 880T391 891T369 889Q357 884 352 874T346 853T351 833L389 755H428L416 861ZM143 508L77 192Q64 127 82 82T142 13T244 -11Q306 -11 358 13T447 81T496 186L563 504Q584 602 541 659T397 716Q298
716 231 663T143 508ZM151 193L217 502Q227 549 249 580T305 626T381 642Q426 642 453 626T489 580T488 502L423 197Q414 154 390 124T330 78T254 62Q214 62 188 77T152 121T151 193Z" />
<glyph unicode="&#xd3;" horiz-adv-x="493" d="M489 830Q498 840 502 850T505 870T494 885Q485 891 474 890T454 881T439 863L379 753H418L489 830ZM143 508L77 192Q64 127 82 82T142 13T244 -11Q306 -11 358 13T447 81T496 186L563 504Q584 602 541 659T397 716Q298
716 231 663T143 508ZM151 193L217 502Q227 549 249 580T305 626T381 642Q426 642 453 626T489 580T488 502L423 197Q414 154 390 124T330 78T254 62Q214 62 188 77T152 121T151 193Z" />
<glyph unicode="&#xd4;" horiz-adv-x="493" d="M543 781L441 908L282 780L316 738L426 827L492 741L543 781ZM143 508L77 192Q64 127 82 82T142 13T244 -11Q306 -11 358 13T447 81T496 186L563 504Q584 602 541 659T397 716Q298 716 231 663T143 508ZM151 193L217
502Q227 549 249 580T305 626T381 642Q426 642 453 626T489 580T488 502L423 197Q414 154 390 124T330 78T254 62Q214 62 188 77T152 121T151 193Z" />
<glyph unicode="&#xd5;" horiz-adv-x="493" d="M499 866L496 851Q494 841 489 831T472 821Q466 821 457 826T443 837Q434 843 426 849T408 860Q393 868 374 868T338 858Q323 851 313 839T296 812T287 784L284 769H340L342 784Q344 791 347 799T357 811Q364 814
372 812T386 804Q392 799 400 793T416 782Q426 776 437 771T462 765Q499 765 521 791T552 851L555 866H499ZM143 508L77 192Q64 127 82 82T142 13T244 -11Q306 -11 358 13T447 81T496 186L563 504Q584 602 541 659T397 716Q298 716 231 663T143 508ZM151 193L217
502Q227 549 249 580T305 626T381 642Q426 642 453 626T489 580T488 502L423 197Q414 154 390 124T330 78T254 62Q214 62 188 77T152 121T151 193Z" />
<glyph unicode="&#xd6;" horiz-adv-x="493" d="M350 861Q333 861 318 849T299 819Q295 802 305 790T332 777Q350 777 365 789T383 819Q387 836 378 848T350 861ZM507 861Q490 861 475 849T456 819Q452 801 462 789T489 777Q507 777 522 789T541 819Q544 836 535
848T507 861ZM143 508L77 192Q64 127 82 82T142 13T244 -11Q306 -11 358 13T447 81T496 186L563 504Q584 602 541 659T397 716Q298 716 231 663T143 508ZM151 193L217 502Q227 549 249 580T305 626T381 642Q426 642 453 626T489 580T488 502L423 197Q414 154 390
124T330 78T254 62Q214 62 188 77T152 121T151 193Z" />
<glyph unicode="&#xd7;" horiz-adv-x="357" d="M260 385L188 501L129 458L204 333L77 210L118 164L238 280L310 165L370 210L293 333L423 459L380 501L260 385Z" />
<glyph unicode="&#xd8;" horiz-adv-x="493" d="M29 -1H102L620 701H549L29 -1ZM143 508L77 192Q64 127 82 82T142 13T244 -11Q306 -11 358 13T447 81T496 186L563 504Q584 602 541 659T397 716Q298 716 231 663T143 508ZM151 193L217 502Q227 549 249 580T305
626T381 642Q426 642 453 626T489 580T488 502L423 197Q414 154 390 124T330 78T254 62Q214 62 188 77T152 121T151 193Z" />
<glyph unicode="&#xd9;" horiz-adv-x="499" d="M419 860Q418 872 411 879T394 890T372 888Q360 883 355 873T349 852T354 832L392 754H431L419 860ZM498 186L607 700H534L426 194Q417 152 394 123T338 78T262 62Q220 62 193 77T155 121T153 193L261 700H187L78
186Q65 122 82 78T142 12T247 -11Q311 -11 362 12T449 79T498 186Z" />
<glyph unicode="&#xda;" horiz-adv-x="499" d="M492 830Q501 840 505 850T508 870T497 885Q488 891 477 890T457 881T442 863L382 753H421L492 830ZM498 186L607 700H534L426 194Q417 152 394 123T338 78T262 62Q220 62 193 77T155 121T153 193L261 700H187L78
186Q65 122 82 78T142 12T247 -11Q311 -11 362 12T449 79T498 186Z" />
<glyph unicode="&#xdb;" horiz-adv-x="499" d="M546 781L444 908L285 780L319 738L429 827L495 741L546 781ZM498 186L607 700H534L426 194Q417 152 394 123T338 78T262 62Q220 62 193 77T155 121T153 193L261 700H187L78 186Q65 122 82 78T142 12T247 -11Q311
-11 362 12T449 79T498 186Z" />
<glyph unicode="&#xdc;" horiz-adv-x="499" d="M353 861Q336 861 321 849T302 819Q298 802 308 790T335 777Q353 777 368 789T386 819Q390 836 381 848T353 861ZM510 861Q493 861 478 849T459 819Q455 801 465 789T492 777Q510 777 525 789T544 819Q547 836 538
848T510 861ZM498 186L607 700H534L426 194Q417 152 394 123T338 78T262 62Q220 62 193 77T155 121T153 193L261 700H187L78 186Q65 122 82 78T142 12T247 -11Q311 -11 362 12T449 79T498 186Z" />
<glyph unicode="&#xdd;" horiz-adv-x="517" d="M501 830Q510 840 514 850T517 870T506 885Q497 891 486 890T466 881T451 863L391 753H430L501 830ZM509 156L624 700H550L490 417Q484 386 466 364T423 328T369 307T311 300Q259 299 232 314T197 361T199 440L254
700H180L125 442Q112 380 125 332T180 257T295 230Q326 230 356 235T413 253T461 283L434 157Q428 131 420 112T400 79T375 55T343 42L353 -11Q415 -4 454 38T509 156Z" />
<glyph unicode="&#xde;" horiz-adv-x="507" d="M402 615H247L266 700H190L41 0H116L146 144H301Q348 144 388 155T461 194T518 267T558 382Q572 449 567 494T539 566T482 603T402 615ZM162 215L231 543H376Q408 543 433 537T472 514T490 465T482 382Q471 327 454
294T415 244T366 221T306 215H162Z" />
<glyph unicode="&#xdf;" horiz-adv-x="483" d="M114 0L226 530Q234 563 247 585T279 619T323 630Q343 630 354 622T370 600T372 570Q370 555 361 541T338 517T302 508Q287 489 279 471T269 436Q265 408 274 384T302 337T341 292T380 248T407 201T410 147Q405 126
394 110T368 82T335 66T299 60Q285 60 272 60T246 64T220 74T194 91L154 36Q171 21 192 10T238 -6T291 -11Q324 -10 355 0T413 29T459 78T487 144Q495 182 487 212T462 269T425 318T385 361T355 402T346 442Q347 451 351 460T362 477Q362 477 366 477T376 477T385
477T389 477Q407 491 419 509T438 547T446 585Q449 617 437 643T398 686T332 701Q300 700 272 690T220 659T180 609T154 538L39 0H114Z" />
<glyph unicode="&#xe0;" horiz-adv-x="449" d="M355 917Q354 929 347 936T330 947T308 945Q296 940 291 930T285 909T290 889L328 811H367L355 917ZM411 345Q395 362 371 375T318 395T260 402Q231 402 203 394T150 368T108 322T81 252L62 165Q51 112 61 78T96
24T160 -3T245 -10Q261 -10 281 -10T322 -8T362 -5T394 -2T412 0L476 294Q488 353 487 394T467 461T411 497T312 509L297 455Q326 455 350 451T391 435T413 401T411 345ZM399 286L352 62Q352 62 347 62T334 61T313 59T288 57T259 56Q214 54 187 61T147 83T134 122T139
175L154 246Q159 274 170 290T196 316T225 329T252 333Q281 333 308 326T358 308T399 286Z" />
<glyph unicode="&#xe1;" horiz-adv-x="449" d="M433 887Q442 897 446 907T449 927T438 942Q429 948 418 947T398 938T383 920L323 810H362L433 887ZM411 345Q395 362 371 375T318 395T260 402Q231 402 203 394T150 368T108 322T81 252L62 165Q51 112 61 78T96
24T160 -3T245 -10Q261 -10 281 -10T322 -8T362 -5T394 -2T412 0L476 294Q488 353 487 394T467 461T411 497T312 509L297 455Q326 455 350 451T391 435T413 401T411 345ZM399 286L352 62Q352 62 347 62T334 61T313 59T288 57T259 56Q214 54 187 61T147 83T134 122T139
175L154 246Q159 274 170 290T196 316T225 329T252 333Q281 333 308 326T358 308T399 286Z" />
<glyph unicode="&#xe2;" horiz-adv-x="449" d="M482 852L380 979L221 851L255 809L365 898L431 812L482 852ZM411 345Q395 362 371 375T318 395T260 402Q231 402 203 394T150 368T108 322T81 252L62 165Q51 112 61 78T96 24T160 -3T245 -10Q261 -10 281 -10T322
-8T362 -5T394 -2T412 0L476 294Q488 353 487 394T467 461T411 497T312 509L297 455Q326 455 350 451T391 435T413 401T411 345ZM399 286L352 62Q352 62 347 62T334 61T313 59T288 57T259 56Q214 54 187 61T147 83T134 122T139 175L154 246Q159 274 170 290T196
316T225 329T252 333Q281 333 308 326T358 308T399 286Z" />
<glyph unicode="&#xe3;" horiz-adv-x="449" d="M437 927L434 912Q432 902 427 892T410 882Q404 882 395 887T381 898Q372 904 364 910T346 921Q331 929 312 929T276 919Q261 912 251 900T234 873T225 845L222 830H278L280 845Q282 852 285 860T295 872Q302 875
310 873T324 865Q330 860 338 854T354 843Q364 837 375 832T400 826Q437 826 459 852T490 912L493 927H437ZM411 345Q395 362 371 375T318 395T260 402Q231 402 203 394T150 368T108 322T81 252L62 165Q51 112 61 78T96 24T160 -3T245 -10Q261 -10 281 -10T322
-8T362 -5T394 -2T412 0L476 294Q488 353 487 394T467 461T411 497T312 509L297 455Q326 455 350 451T391 435T413 401T411 345ZM399 286L352 62Q352 62 347 62T334 61T313 59T288 57T259 56Q214 54 187 61T147 83T134 122T139 175L154 246Q159 274 170 290T196
316T225 329T252 333Q281 333 308 326T358 308T399 286Z" />
<glyph unicode="&#xe4;" horiz-adv-x="449" d="M287 922Q270 922 255 910T236 880Q232 863 242 851T269 838Q287 838 302 850T320 880Q324 897 315 909T287 922ZM444 922Q427 922 412 910T393 880Q389 862 399 850T426 838Q444 838 459 850T478 880Q481 897 472
909T444 922ZM411 345Q395 362 371 375T318 395T260 402Q231 402 203 394T150 368T108 322T81 252L62 165Q51 112 61 78T96 24T160 -3T245 -10Q261 -10 281 -10T322 -8T362 -5T394 -2T412 0L476 294Q488 353 487 394T467 461T411 497T312 509L297 455Q326 455 350
451T391 435T413 401T411 345ZM399 286L352 62Q352 62 347 62T334 61T313 59T288 57T259 56Q214 54 187 61T147 83T134 122T139 175L154 246Q159 274 170 290T196 316T225 329T252 333Q281 333 308 326T358 308T399 286Z" />
<glyph unicode="&#xe5;" horiz-adv-x="449" d="M368 934Q337 934 308 919T257 879T229 821Q222 790 232 764T265 723T319 707Q350 707 379 722T429 764T457 821Q464 853 454 878T422 919T368 934ZM355 878Q382 878 395 858Q404 843 400 821Q398 810 392 801T378
782Q368 774 357 769T331 764Q318 764 308 769T292 784Q287 791 286 800T286 821Q289 834 296 844T312 862Q321 870 332 874T355 878ZM411 345Q395 362 371 375T318 395T260 402Q231 402 203 394T150 368T108 322T81 252L62 165Q51 112 61 78T96 24T160 -3T245
-10Q261 -10 281 -10T322 -8T362 -5T394 -2T412 0L476 294Q488 353 487 394T467 461T411 497T312 509L297 455Q326 455 350 451T391 435T413 401T411 345ZM399 286L352 62Q352 62 347 62T334 61T313 59T288 57T259 56Q214 54 187 61T147 83T134 122T139 175L154
246Q159 274 170 290T196 316T225 329T252 333Q281 333 308 326T358 308T399 286Z" />
<glyph unicode="&#xe6;" horiz-adv-x="733" d="M411 345Q395 362 371 375T318 395T260 402Q231 402 203 394T150 368T108 322T81 252L62 165Q51 112 61 78T96 24T160 -3T245 -10Q261 -10 281 -10T322 -8T362 -5T394 -2T412 0L476 294Q488 353 487 394T467 461T411
497T312 509L297 455Q326 455 350 451T391 435T413 401T411 345ZM399 286L352 62Q352 62 347 62T334 61T313 59T288 57T259 56Q214 54 187 61T147 83T134 122T139 175L154 246Q159 274 170 290T196 316T225 329T252 333Q281 333 308 326T358 308T399 286ZM445 139L456
189L745 204L775 342Q787 398 771 435T718 491T626 510Q572 510 529 491T456 433T414 339L372 140Q363 99 369 70T394 23T442 -3T508 -12Q549 -12 596 0T685 35L669 96Q629 78 592 66T520 54Q500 54 484 59T458 74T444 101T445 139ZM699 337L685 269L471 259L485
330Q494 366 511 391T555 429T619 444Q652 444 672 430T698 392T699 337Z" />
<glyph unicode="&#xe7;" horiz-adv-x="382" d="M232 12H176L120 -59L128 -92Q144 -90 158 -89T185 -86T208 -85Q233 -84 244 -92T250 -123Q247 -137 238 -147T214 -162T181 -167Q165 -167 149 -165T118 -161T94 -156L70 -211Q71 -211 86 -214T124 -220T169 -223Q220
-223 258 -197T306 -123Q314 -86 294 -58T225 -30Q219 -30 213 -30T197 -32L232 12ZM422 420L452 478Q424 493 392 501T325 511Q258 511 212 487T138 419T98 319L67 174Q53 107 70 66T130 7T231 -11Q261 -11 292 -7T353 5V68Q353 68 344 67T319 63T284 58T245 55Q213
55 190 62T154 85T138 124T142 182L170 315Q178 354 198 383T249 428T321 444Q347 443 374 437T422 420Z" />
<glyph unicode="&#xe8;" horiz-adv-x="423" d="M342 920Q341 932 334 939T317 950T295 948Q283 943 278 933T272 912T277 892L315 814H354L342 920ZM136 139L147 189L436 204L466 342Q478 398 462 435T409 491T317 510Q263 510 220 491T147 433T105 339L63 140Q54
99 60 70T85 23T133 -3T199 -12Q240 -12 287 0T376 35L360 96Q320 78 283 66T211 54Q191 54 175 59T149 74T135 101T136 139ZM390 337L376 269L162 259L176 330Q185 366 202 391T246 429T310 444Q343 444 363 430T389 392T390 337Z" />
<glyph unicode="&#xe9;" horiz-adv-x="423" d="M415 898Q424 908 428 918T431 938T420 953Q411 959 400 958T380 949T365 931L305 821H344L415 898ZM136 139L147 189L436 204L466 342Q478 398 462 435T409 491T317 510Q263 510 220 491T147 433T105 339L63 140Q54
99 60 70T85 23T133 -3T199 -12Q240 -12 287 0T376 35L360 96Q320 78 283 66T211 54Q191 54 175 59T149 74T135 101T136 139ZM390 337L376 269L162 259L176 330Q185 366 202 391T246 429T310 444Q343 444 363 430T389 392T390 337Z" />
<glyph unicode="&#xea;" horiz-adv-x="423" d="M470 852L368 979L209 851L243 809L353 898L419 812L470 852ZM136 139L147 189L436 204L466 342Q478 398 462 435T409 491T317 510Q263 510 220 491T147 433T105 339L63 140Q54 99 60 70T85 23T133 -3T199 -12Q240
-12 287 0T376 35L360 96Q320 78 283 66T211 54Q191 54 175 59T149 74T135 101T136 139ZM390 337L376 269L162 259L176 330Q185 366 202 391T246 429T310 444Q343 444 363 430T389 392T390 337Z" />
<glyph unicode="&#xeb;" horiz-adv-x="423" d="M274 922Q257 922 242 910T223 880Q219 863 229 851T256 838Q274 838 289 850T307 880Q311 897 302 909T274 922ZM431 922Q414 922 399 910T380 880Q376 862 386 850T413 838Q431 838 446 850T465 880Q468 897 459
909T431 922ZM136 139L147 189L436 204L466 342Q478 398 462 435T409 491T317 510Q263 510 220 491T147 433T105 339L63 140Q54 99 60 70T85 23T133 -3T199 -12Q240 -12 287 0T376 35L360 96Q320 78 283 66T211 54Q191 54 175 59T149 74T135 101T136 139ZM390 337L376
269L162 259L176 330Q185 366 202 391T246 429T310 444Q343 444 363 430T389 392T390 337Z" />
<glyph unicode="&#xec;" horiz-adv-x="153" d="M460 933Q459 945 452 952T435 963T413 961Q401 956 396 946T390 925T395 905L433 827H472L460 933ZM38 0H113L219 501H145L38 0Z" />
<glyph unicode="&#xed;" horiz-adv-x="153" d="M544 901Q553 911 557 921T560 941T549 956Q540 962 529 961T509 952T494 934L434 824H473L544 901ZM38 0H113L219 501H145L38 0Z" />
<glyph unicode="&#xee;" horiz-adv-x="153" d="M589 852L487 979L328 851L362 809L472 898L538 812L589 852ZM38 0H113L219 501H145L38 0Z" />
<glyph unicode="&#xef;" horiz-adv-x="153" d="M395 922Q378 922 363 910T344 880Q340 863 350 851T377 838Q395 838 410 850T428 880Q432 897 423 909T395 922ZM552 922Q535 922 520 910T501 880Q497 862 507 850T534 838Q552 838 567 850T586 880Q589 897 580
909T552 922ZM38 0H113L219 501H145L38 0Z" />
<glyph unicode="&#xf0;" horiz-adv-x="425" d="M439 660Q419 676 394 686T338 701L314 657Q320 656 332 652T359 640T388 618L277 527L306 491L415 581Q425 563 428 538T425 481L403 376Q397 389 386 399T360 417T327 429T289 434Q207 434 153 386T79 246L67 188Q48
97 84 44T209 -9Q299 -9 358 42T437 188L498 474Q505 505 505 530T498 579T473 628L523 670L495 706L439 660ZM223 63Q187 63 166 77T139 118T141 186L157 256Q164 292 181 316T223 353T280 365Q304 365 324 359T358 339T378 306T378 260L362 186Q354 145 335 118T288
77T223 63Z" />
<glyph unicode="&#xf1;" horiz-adv-x="444" d="M432 927L429 912Q427 902 422 892T405 882Q399 882 390 887T376 898Q367 904 359 910T341 921Q326 929 307 929T271 919Q256 912 246 900T229 873T220 845L217 830H273L275 845Q277 852 280 860T290 872Q297 875
305 873T319 865Q325 860 333 854T349 843Q359 837 370 832T395 826Q432 826 454 852T485 912L488 927H432ZM408 342L335 0H408L481 345Q488 379 486 405T474 451T445 484T401 503T346 509Q323 509 299 504T253 490T212 470L219 500H144L38 0H112L200 412Q221 423
241 430T281 440T318 443Q339 443 358 438T390 420T408 389T408 342Z" />
<glyph unicode="&#xf2;" horiz-adv-x="431" d="M346 933Q345 945 338 952T321 963T299 961Q287 956 282 946T276 925T281 905L319 827H358L346 933ZM439 185L468 316Q487 408 451 460T326 512Q266 512 220 490T143 424T98 316L69 185Q58 132 69 88T116 17T216
-10Q308 -10 364 44T439 185ZM392 318L362 176Q355 141 338 115T294 74T230 60Q195 60 173 75T143 116T142 176L172 318Q181 359 199 386T246 428T312 442Q349 442 369 428T395 386T392 318Z" />
<glyph unicode="&#xf3;" horiz-adv-x="431" d="M421 902Q430 912 434 922T437 942T426 957Q417 963 406 962T386 953T371 935L311 825H350L421 902ZM439 185L468 316Q487 408 451 460T326 512Q266 512 220 490T143 424T98 316L69 185Q58 132 69 88T116 17T216
-10Q308 -10 364 44T439 185ZM392 318L362 176Q355 141 338 115T294 74T230 60Q195 60 173 75T143 116T142 176L172 318Q181 359 199 386T246 428T312 442Q349 442 369 428T395 386T392 318Z" />
<glyph unicode="&#xf4;" horiz-adv-x="431" d="M473 852L371 979L212 851L246 809L356 898L422 812L473 852ZM439 185L468 316Q487 408 451 460T326 512Q266 512 220 490T143 424T98 316L69 185Q58 132 69 88T116 17T216 -10Q308 -10 364 44T439 185ZM392 318L362
176Q355 141 338 115T294 74T230 60Q195 60 173 75T143 116T142 176L172 318Q181 359 199 386T246 428T312 442Q349 442 369 428T395 386T392 318Z" />
<glyph unicode="&#xf5;" horiz-adv-x="431" d="M428 927L425 912Q423 902 418 892T401 882Q395 882 386 887T372 898Q363 904 355 910T337 921Q322 929 303 929T267 919Q252 912 242 900T225 873T216 845L213 830H269L271 845Q273 852 276 860T286 872Q293 875
301 873T315 865Q321 860 329 854T345 843Q355 837 366 832T391 826Q428 826 450 852T481 912L484 927H428ZM439 185L468 316Q487 408 451 460T326 512Q266 512 220 490T143 424T98 316L69 185Q58 132 69 88T116 17T216 -10Q308 -10 364 44T439 185ZM392 318L362
176Q355 141 338 115T294 74T230 60Q195 60 173 75T143 116T142 176L172 318Q181 359 199 386T246 428T312 442Q349 442 369 428T395 386T392 318Z" />
<glyph unicode="&#xf6;" horiz-adv-x="431" d="M279 922Q262 922 247 910T228 880Q224 863 234 851T261 838Q279 838 294 850T312 880Q316 897 307 909T279 922ZM436 922Q419 922 404 910T385 880Q381 862 391 850T418 838Q436 838 451 850T470 880Q473 897 464
909T436 922ZM439 185L468 316Q487 408 451 460T326 512Q266 512 220 490T143 424T98 316L69 185Q58 132 69 88T116 17T216 -10Q308 -10 364 44T439 185ZM392 318L362 176Q355 141 338 115T294 74T230 60Q195 60 173 75T143 116T142 176L172 318Q181 359 199 386T246
428T312 442Q349 442 369 428T395 386T392 318Z" />
<glyph unicode="&#xf7;" horiz-adv-x="380" d="M103 351H424L437 416H117L103 351ZM308 555Q290 555 275 543T256 513Q252 496 262 484T290 471Q307 471 322 483T341 513Q345 530 335 542T308 555ZM252 297Q234 297 221 286T202 257Q198 240 206 227T235 213Q252
213 267 225T286 255Q290 273 280 285T252 297Z" />
<glyph unicode="&#xf8;" horiz-adv-x="431" d="M476 514H408L63 -20H130L476 514ZM439 185L468 316Q487 408 451 460T326 512Q266 512 220 490T143 424T98 316L69 185Q58 132 69 88T116 17T216 -10Q308 -10 364 44T439 185ZM392 318L362 176Q355 141 338 115T294
74T230 60Q195 60 173 75T143 116T142 176L172 318Q181 359 199 386T246 428T312 442Q349 442 369 428T395 386T392 318Z" />
<glyph unicode="&#xf9;" horiz-adv-x="446" d="M352 931Q351 943 344 950T327 961T305 959Q293 954 288 944T282 923T287 903L325 825H364L352 931ZM340 41L332 0H406L513 501H439L369 174Q363 150 351 131T320 97T279 73T233 61Q196 58 174 67T145 100T145 160L217
501H143L69 157Q62 122 64 95T78 48T108 16T151 -3T204 -9Q229 -9 254 -3T301 14T340 41Z" />
<glyph unicode="&#xfa;" horiz-adv-x="446" d="M426 901Q435 911 439 921T442 941T431 956Q422 962 411 961T391 952T376 934L316 824H355L426 901ZM340 41L332 0H406L513 501H439L369 174Q363 150 351 131T320 97T279 73T233 61Q196 58 174 67T145 100T145 160L217
501H143L69 157Q62 122 64 95T78 48T108 16T151 -3T204 -9Q229 -9 254 -3T301 14T340 41Z" />
<glyph unicode="&#xfb;" horiz-adv-x="446" d="M480 852L378 979L219 851L253 809L363 898L429 812L480 852ZM340 41L332 0H406L513 501H439L369 174Q363 150 351 131T320 97T279 73T233 61Q196 58 174 67T145 100T145 160L217 501H143L69 157Q62 122 64 95T78
48T108 16T151 -3T204 -9Q229 -9 254 -3T301 14T340 41Z" />
<glyph unicode="&#xfc;" horiz-adv-x="446" d="M284 922Q267 922 252 910T233 880Q229 863 239 851T266 838Q284 838 299 850T317 880Q321 897 312 909T284 922ZM441 922Q424 922 409 910T390 880Q386 862 396 850T423 838Q441 838 456 850T475 880Q478 897 469
909T441 922ZM340 41L332 0H406L513 501H439L369 174Q363 150 351 131T320 97T279 73T233 61Q196 58 174 67T145 100T145 160L217 501H143L69 157Q62 122 64 95T78 48T108 16T151 -3T204 -9Q229 -9 254 -3T301 14T340 41Z" />
<glyph unicode="&#xfd;" horiz-adv-x="474" d="M440 901Q449 911 453 921T456 941T445 956Q436 962 425 961T405 952T390 934L330 824H369L440 901ZM541 458L528 512Q496 507 473 491T437 451T418 404L369 175Q364 152 351 132T320 95T279 70T233 61Q213 61 194
66T162 83T144 114T145 162L217 502H142L69 158Q60 114 65 82T89 31T137 2T204 -8Q228 -8 253 -2T301 15T341 43L320 -57Q316 -74 309 -89T290 -117T265 -139T233 -152L241 -211Q284 -202 314 -184T364 -135T393 -61L490 393Q496 423 508 437T541 458Z" />
<glyph unicode="&#xfe;" d="M447 176L483 346Q494 398 483 435T440 492T352 510Q329 510 305 504T257 487T213 462L263 700H188L-1 -189L69 -214L124 45Q133 29 149 16T188 -4T237 -12Q320 -12 374 36T447 176ZM407 341L370 165Q363 129 346 105T305 69T247 56Q224
56 204 63T170 83T150 117T149 163L198 391Q211 406 232 417T277 435T321 444Q342 445 360 440T391 424T409 392T407 341Z" />
<glyph unicode="&#xff;" horiz-adv-x="474" d="M298 922Q281 922 266 910T247 880Q243 863 253 851T280 838Q298 838 313 850T331 880Q335 897 326 909T298 922ZM455 922Q438 922 423 910T404 880Q400 862 410 850T437 838Q455 838 470 850T489 880Q492 897 483
909T455 922ZM541 458L528 512Q496 507 473 491T437 451T418 404L369 175Q364 152 351 132T320 95T279 70T233 61Q213 61 194 66T162 83T144 114T145 162L217 502H142L69 158Q60 114 65 82T89 31T137 2T204 -8Q228 -8 253 -2T301 15T341 43L320 -57Q316 -74 309
-89T290 -117T265 -139T233 -152L241 -211Q284 -202 314 -184T364 -135T393 -61L490 393Q496 423 508 437T541 458Z" />
<glyph unicode="&#x2013;" horiz-adv-x="444" d="M107 340H477L492 414H122L107 340Z" />
<glyph unicode="&#x2014;" horiz-adv-x="718" d="M107 340H750L766 414H122L107 340Z" />
<glyph unicode="&#x2018;" horiz-adv-x="144" d="M256 705L238 718Q232 714 221 704T197 679T172 643T154 594Q150 576 160 564T187 552Q205 552 220 564T239 594Q242 609 235 620T213 636Q218 652 228 670T256 705Z" />
<glyph unicode="&#x2019;" horiz-adv-x="144" d="M156 557L173 542Q178 547 190 557T215 582T240 619T257 666Q261 684 252 696T224 709Q207 709 192 697T173 666Q169 652 176 641T197 625Q193 610 183 593T156 557Z" />
<glyph unicode="&#x201a;" horiz-adv-x="156" d="M29 -68L46 -81Q52 -77 63 -67T88 -42T113 -5T130 43Q133 62 124 73T96 85Q79 85 64 73T45 43Q43 27 50 16T69 2Q65 -14 56 -32T29 -68Z" />
<glyph unicode="&#x201c;" horiz-adv-x="324" d="M434 705L418 718Q412 714 401 704T377 679T351 643T334 594Q330 576 339 564T366 552Q384 552 399 564T419 594Q421 609 414 620T393 636Q399 652 408 670T434 705ZM256 705L238 718Q232 714 221 704T197 679T172
643T154 594Q150 576 160 564T187 552Q205 552 220 564T239 594Q242 609 235 620T213 636Q218 652 228 670T256 705Z" />
<glyph unicode="&#x201d;" horiz-adv-x="324" d="M156 557L172 542Q178 546 190 556T215 582T240 619T257 666Q260 684 251 696T224 709Q206 709 191 697T173 666Q169 652 176 641T197 625Q193 610 183 593T156 557ZM336 557L353 542Q359 547 370 557T395 582T420
619T437 666Q441 684 431 696T403 709Q386 709 371 697T352 666Q350 652 357 641T377 625Q372 610 363 593T336 557Z" />
<glyph unicode="&#x201e;" horiz-adv-x="336" d="M29 -68L46 -81Q52 -77 63 -67T88 -42T113 -5T130 43Q133 62 124 73T96 85Q79 85 64 73T45 43Q43 27 50 16T70 2Q65 -14 56 -32T29 -68ZM209 -68L226 -81Q232 -76 243 -67T268 -42T293 -5T310 43Q314 62 304 73T276
85Q259 85 244 73T225 43Q222 27 229 16T250 2Q246 -14 236 -32T209 -68Z" />
<glyph unicode="&#x2022;" horiz-adv-x="368" d="M385 445Q349 491 286 491Q225 491 168 445Q114 400 101 337Q94 306 99 279T122 229Q158 184 221 184Q253 184 282 195T339 229Q366 251 383 278T407 337Q422 400 385 445Z" />
<glyph unicode="&#x2039;" horiz-adv-x="296" d="M84 267L231 79L288 126L180 267L350 406L311 455L84 267Z" />
<glyph unicode="&#x203a;" horiz-adv-x="297" d="M228 267L60 126L98 79L324 267L177 455L118 406L228 267Z" />
</font>
</defs>
</svg>
