<?xml version="1.0" standalone="no"?>
<!DOCTYPE svg PUBLIC "-//W3C//DTD SVG 1.1//EN" "http://www.w3.org/Graphics/SVG/1.1/DTD/svg11.dtd">
<svg xmlns="http://www.w3.org/2000/svg">
<defs >
<font id="AdventPro" horiz-adv-x="443" ><font-face
    font-family="Advent Pro SemiBold"
    units-per-em="1000"
    panose-1="0 0 0 0 0 0 0 0 0 0"
    ascent="964"
    descent="-232"
    alphabetic="0" />
<glyph unicode=" " horiz-adv-x="280" />
<glyph unicode="!" horiz-adv-x="179" d="M39 652L55 121H122L140 653Q140 682 127 696T88 710Q64 710 52 696T39 652ZM90 93Q69 93 54 78T39 41Q39 20 54 5T90 -10Q111 -10 125 5T140 41Q140 63 126 78T90 93Z" />
<glyph unicode="&quot;" horiz-adv-x="278" d="M166 698L179 589H234L248 698Q248 718 236 728T207 739T179 729T166 698ZM29 698L43 589H98L113 698Q113 718 101 728T71 739T42 729T29 698Z" />
<glyph unicode="#" horiz-adv-x="616" d="M437 261L464 376H582V471H487L542 700H446L392 471H274L327 700H239L186 471H32V376H164L137 261H32V175H116L74 0H164L204 175H322L282 0H376L416 175H582V261H437ZM343 261H224L251 376H370L343 261Z" />
<glyph unicode="$" horiz-adv-x="541" d="M236 -115H328V819H236V-115ZM421 595L448 673Q424 686 398 694T344 706T290 710Q252 710 212 701T138 671T84 617T63 536Q63 497 77 468T117 416T173 377T237 346T302 317T358 285T398 246T413 195Q413 163 401 141T367
104T320 82T266 75Q233 75 200 83T136 109T84 150L32 89Q61 55 98 33T178 0T266 -12Q314 -12 358 -1T437 36T492 100T512 193Q512 237 497 270T457 327T400 370T335 404T270 432T213 461T173 495T158 538Q158 563 171 580T204 606T246 620T289 624Q312 624 334
621T379 612T421 595Z" />
<glyph unicode="%" horiz-adv-x="724" d="M39 0H139L678 700H578L39 0ZM184 715Q144 715 111 696T57 643T37 569Q37 529 57 496T110 443T184 423Q223 423 256 443T309 496T329 569Q329 610 309 643T256 695T184 715ZM184 636Q202 636 216 627T240 603T250 569Q250
552 241 537T217 512T184 503Q165 503 150 512T126 536T117 569Q117 587 126 602T150 627T184 636ZM545 278Q505 278 472 259T418 206T398 132Q398 92 418 59T471 6T545 -14Q585 -14 618 5T670 58T690 132Q690 173 671 206T618 258T545 278ZM545 199Q563 199 578
190T601 166T610 132Q610 114 602 99T578 74T545 65Q527 65 512 74T488 98T479 132Q479 150 488 165T512 190T545 199Z" />
<glyph unicode="&amp;" horiz-adv-x="530" d="M382 611L405 703H238Q192 703 157 684T101 631T81 553Q81 524 91 496T122 445T171 404H156Q128 404 105 396T66 369T40 323T31 256V161Q31 125 40 97T64 50T101 20T147 3T198 -3Q219 -3 243 3T290 22T331 53Q348
26 377 11T448 -8L475 65Q441 69 421 85T400 137V321H477L500 404H400V508H309V404H284Q262 412 243 425T207 455T182 493T173 539Q173 574 195 592T251 611H382ZM309 324V171Q309 145 296 126T262 96T213 83Q185 81 165 91T134 120T123 165V257Q123 278 129 291T147
312T171 321T196 324H309Z" />
<glyph unicode="&apos;" horiz-adv-x="188" d="M52 699L66 589H121L135 699Q135 719 123 729T94 739T65 729T52 699Z" />
<glyph unicode="(" horiz-adv-x="221" d="M198 749L156 819Q113 795 88 764T52 695T40 613V87Q40 50 46 21T67 -33T103 -78T156 -118L199 -50Q191 -45 180 -36T158 -10T140 31T133 90V618Q133 649 139 671T156 709T177 734T198 749Z" />
<glyph unicode=")" horiz-adv-x="221" d="M23 747L66 819Q98 801 120 779T155 730T175 675T181 613V87Q181 50 175 21T155 -33T119 -78T65 -118L23 -50Q30 -45 41 -35T63 -9T81 32T89 90V618Q89 649 83 671T66 708T44 732T23 747Z" />
<glyph unicode="*" horiz-adv-x="372" d="M57 646L25 561L139 542L56 462L137 404L184 516L233 404L314 461L228 541L345 560L308 646L211 588L233 700H135L157 588L57 646Z" />
<glyph unicode="+" horiz-adv-x="381" d="M236 531H143V413H29V324H143V211H236V324H349V413H236V531Z" />
<glyph unicode="," horiz-adv-x="214" d="M74 -72L95 -88Q98 -86 107 -77T129 -52T149 -13T158 41Q158 62 144 77T108 92Q87 92 72 77T57 41Q57 23 68 9T96 -9Q93 -24 89 -40T74 -72Z" />
<glyph unicode="-" horiz-adv-x="393" d="M35 323H355V414H35V323Z" />
<glyph unicode="." horiz-adv-x="172" d="M86 88Q65 88 50 74T35 37Q35 16 50 1T86 -14Q107 -14 122 1T138 37Q138 59 123 73T86 88Z" />
<glyph unicode="/" horiz-adv-x="459" d="M25 -115H110L437 819H350L25 -115Z" />
<glyph unicode="0" horiz-adv-x="494" d="M35 508V186Q35 121 63 77T140 11T247 -11Q310 -11 357 12T431 80T457 186V507Q457 605 402 661T248 717Q149 717 92 664T35 508ZM128 200V490Q128 535 141 564T181 607T246 621Q287 621 313 607T352 564T365 490V200Q365
163 350 137T309 96T246 82Q210 82 184 96T143 136T128 200Z" />
<glyph unicode="1" horiz-adv-x="269" d="M16 627L43 550Q47 550 58 553T85 561T114 572T135 584V0H226V700H135Q121 680 101 666T61 644T28 631T16 627Z" />
<glyph unicode="2" horiz-adv-x="432" d="M46 590L125 552Q133 575 147 590T180 613T219 621Q241 621 260 611T291 582T303 534Q303 520 301 506T289 473T260 424L31 86V0H397V85H138L334 380Q364 426 379 464T395 544Q395 599 370 635T304 691T220 710Q182 710
148 696T87 656T46 590Z" />
<glyph unicode="3" horiz-adv-x="448" d="M231 409L228 411L363 610V700H72V608H259L69 323H179Q216 323 249 310T304 270T326 201Q326 166 311 138T268 95T204 79Q168 79 137 94T83 138L21 75Q59 30 105 9T205 -12Q250 -12 288 4T356 50T402 117T418 201Q418
257 395 302T329 375T231 409Z" />
<glyph unicode="4" horiz-adv-x="524" d="M333 0H426V323H477L497 414H426V700H333V414H170L303 700H209L18 323H333V0Z" />
<glyph unicode="5" d="M156 412L175 608H358V700H93L57 326H170Q219 326 253 312T305 271T323 204Q323 177 314 155T289 116T250 90T200 80Q168 80 142 86T96 101T67 115T56 122L23 42Q23 43 36 35T75 16T132 -3T203 -12Q255 -12 294 7T360 58T400 127T414 200Q414
262 388 309T310 384T187 412H156Z" />
<glyph unicode="6" horiz-adv-x="487" d="M273 616H312V700H278Q205 700 150 671T64 589T33 462V204Q33 145 61 97T138 19T246 -10Q291 -10 329 6T397 52T442 121T459 204Q459 264 431 311T354 386T245 414Q229 414 205 410T158 396T124 372V444Q124 492 140 531T188
593T273 616ZM246 324Q271 324 293 315T331 288T357 250T367 203Q367 178 358 156T332 117T293 91T246 81Q213 81 186 97T141 142T124 203Q124 228 134 249T160 288T199 314T246 324Z" />
<glyph unicode="7" horiz-adv-x="456" d="M133 0L434 608V700H41V608H330L30 0H133Z" />
<glyph unicode="8" horiz-adv-x="486" d="M243 710Q194 710 155 687T92 623T68 534Q68 504 76 478T101 429T143 390Q109 373 83 343T43 277T28 202Q28 143 57 95T134 17T242 -12Q301 -12 349 17T427 94T456 202Q456 241 442 277T402 341T342 389Q382 415 400 450T419
534Q419 583 395 622T332 686T243 710ZM242 449Q219 449 200 461T169 492T157 535Q157 559 168 578T199 608T242 619Q266 619 285 608T315 578T327 535Q327 512 316 493T285 461T242 449ZM242 79Q208 79 181 95T137 140T120 202Q120 227 129 249T155 288T194 314T242
324Q277 324 304 308T348 264T364 202Q364 168 348 140T304 96T242 79Z" />
<glyph unicode="9" horiz-adv-x="485" d="M238 710Q193 710 155 694T87 649T41 582T25 498Q25 437 53 389T130 314T239 286Q272 286 296 294T335 312T358 328V257Q358 211 343 172T294 109T210 85H171V-1H206Q279 -1 334 29T419 113T450 239V498Q450 558 422 606T346
682T238 710ZM238 619Q272 619 299 603T342 560T358 498Q358 473 349 451T324 412T286 386T238 377Q213 377 191 386T152 412T126 451T116 498Q116 523 125 545T152 583T191 609T238 619Z" />
<glyph unicode=":" horiz-adv-x="179" d="M140 144Q140 165 125 180T88 196Q67 196 52 181T37 144Q37 123 52 108T88 93Q109 93 124 108T140 144ZM140 386Q140 406 125 421T88 436Q67 436 52 421T37 386Q37 365 52 350T88 334Q109 334 124 349T140 386Z" />
<glyph unicode=";" horiz-adv-x="181" d="M55 30L77 15Q80 17 89 26T111 51T131 90T140 144Q140 166 125 180T89 194Q68 194 53 180T38 144Q38 127 49 113T78 94Q77 80 72 63T55 30ZM142 386Q142 406 127 421T90 436Q69 436 55 421T40 386Q40 365 54 350T90 334Q112
334 127 349T142 386Z" />
<glyph unicode="&lt;" horiz-adv-x="400" d="M26 359L304 80L365 138L145 358L367 578L304 638L26 359Z" />
<glyph unicode="=" horiz-adv-x="394" d="M35 357H356V446H35V357ZM35 221H356V309H35V221Z" />
<glyph unicode="&gt;" horiz-adv-x="402" d="M31 578L253 358L33 138L93 80L372 359L93 638L31 578Z" />
<glyph unicode="?" horiz-adv-x="420" d="M26 533H121Q121 555 128 572T147 600T175 616T207 622Q232 622 253 610T286 577T298 530Q298 504 288 482T260 440T225 397Q211 380 198 362T173 321T156 272T149 213V120H238V210Q238 238 242 258T256 296T278 329T311
366Q332 390 350 414T379 467T390 528Q390 570 375 603T335 661T277 697T206 710Q173 710 141 700T83 668T42 613T26 533ZM194 88Q173 88 158 74T143 37Q143 16 158 1T194 -14Q215 -14 230 1T245 37Q245 59 230 73T194 88Z" />
<glyph unicode="@" horiz-adv-x="786" d="M757 428L731 488Q690 480 669 461T639 415T630 354V163Q630 121 613 90T564 39T486 10T382 0Q316 0 267 12T186 50T138 117T122 215V335Q122 378 132 411T163 468T220 502T306 514Q373 514 412 500T455 444H325Q296 444
271 436T227 409T196 361T185 287V235Q185 193 196 161T228 106T282 72T357 61Q377 61 402 62T453 64T499 66T532 69T545 70V360H586L605 444H542Q540 487 523 516T474 563T399 589T302 597Q238 597 188 581T103 531T51 447T33 329V185Q33 116 59 66T132 -18T242
-68T377 -85Q463 -85 526 -66T632 -11T695 73T716 176V351Q716 370 719 384T731 409T757 428ZM343 360H458V145Q451 144 441 144T418 142T392 141T363 140Q320 140 298 160T276 232V284Q276 317 287 333T314 354T343 360Z" />
<glyph unicode="A" horiz-adv-x="546" d="M524 0L332 700H211L23 0H126L179 204H362L416 0H524ZM202 301L271 576L341 301H202Z" />
<glyph unicode="B" horiz-adv-x="506" d="M251 700H41V0H265Q334 0 380 25T451 97T476 207Q476 254 463 289T425 348T372 386Q394 401 409 422T431 469T439 525Q439 582 416 621T351 680T251 700ZM220 413H134V609H225Q261 609 285 600T322 569T334 515Q334 480
322 457T285 424T220 413ZM245 86H134V324H243Q286 324 314 311T357 271T371 210Q371 163 353 136T306 98T245 86Z" />
<glyph unicode="C" horiz-adv-x="426" d="M347 602L372 677Q338 695 302 703T229 711Q174 711 131 689T61 623T35 511V184Q35 120 59 76T127 11T234 -11Q272 -11 313 -2T397 23L382 108Q369 105 346 98T295 86T240 81Q203 81 179 91T141 125T128 186V514Q128 552
142 575T183 610T248 621Q272 621 298 616T347 602Z" />
<glyph unicode="D" horiz-adv-x="498" d="M230 700H41V0H250Q321 0 368 23T439 93T463 205V475Q463 546 435 596T355 673T230 700ZM234 85H134V609H240Q286 609 314 594T356 552T370 487V195Q370 173 365 154T345 119T304 94T234 85Z" />
<glyph unicode="E" horiz-adv-x="409" d="M41 0H374V84H134V325H262L289 413H134V609H376V700H41V0Z" />
<glyph unicode="F" horiz-adv-x="394" d="M376 700H41V0H134V325H258L289 413H134V609H376V700Z" />
<glyph unicode="G" horiz-adv-x="481" d="M352 601L380 677Q360 687 338 694T291 706T242 710Q177 710 131 687T60 618T35 504V183Q35 116 62 73T136 10T239 -10Q259 -10 284 -5T333 10T375 36L380 0H448V301H245L275 212H356V187Q356 163 348 144T324 110T286
89T239 81Q203 81 179 93T141 128T128 188V512Q128 553 143 576T187 610T253 620Q268 620 284 618T318 612T352 601Z" />
<glyph unicode="H" horiz-adv-x="516" d="M380 413H134V700H41V0H134V325H380V0H473V700H380V413Z" />
<glyph unicode="I" horiz-adv-x="222" d="M20 614L87 612V0H180V700H20V614Z" />
<glyph unicode="J" horiz-adv-x="257" d="M216 133V700H62V614L126 612V143Q126 108 114 85T80 50T27 38L55 -37Q94 -36 124 -24T174 10T205 63T216 133Z" />
<glyph unicode="K" horiz-adv-x="497" d="M139 426V700H41V0H139V266L173 321L360 0H475L230 405L431 700H321L139 426Z" />
<glyph unicode="L" horiz-adv-x="427" d="M41 0H403V85H134V700H41V0Z" />
<glyph unicode="M" horiz-adv-x="622" d="M134 700H41V0H134V425L271 0H347L487 426V0H579V700H487L309 167L134 700Z" />
<glyph unicode="N" horiz-adv-x="578" d="M535 700H441V175L134 700H41V0H134V515L441 0H535V700Z" />
<glyph unicode="O" horiz-adv-x="494" d="M35 508V186Q35 121 63 77T140 11T247 -11Q310 -11 357 12T431 80T457 186V507Q457 605 402 661T248 717Q149 717 92 664T35 508ZM128 200V490Q128 535 141 564T181 607T246 621Q287 621 313 607T352 564T365 490V200Q365
163 350 137T309 96T246 82Q210 82 184 96T143 136T128 200Z" />
<glyph unicode="P" horiz-adv-x="508" d="M265 700H41V0H134V212H265Q309 212 347 223T414 261T460 336T477 460Q477 531 460 577T414 651T346 689T265 700ZM134 301V609H239Q275 609 302 604T347 584T374 539T384 460Q384 407 375 376T347 328T302 306T239 301H134Z" />
<glyph unicode="Q" horiz-adv-x="494" d="M288 47V174H204V38Q204 4 213 -24T243 -73T300 -104T391 -115L402 -35Q369 -35 347 -30T312 -16T294 10T288 47ZM35 508V186Q35 121 63 77T140 11T247 -11Q310 -11 357 12T431 80T457 186V507Q457 605 402 661T248 717Q149
717 92 664T35 508ZM128 200V490Q128 535 141 564T181 607T246 621Q287 621 313 607T352 564T365 490V200Q365 163 350 137T309 96T246 82Q210 82 184 96T143 136T128 200Z" />
<glyph unicode="R" horiz-adv-x="512" d="M265 700H41V0H134V212H265Q272 212 279 212T294 213T307 215L384 0H481L392 244Q418 260 437 288T467 359T477 460Q477 531 460 577T414 651T346 689T265 700ZM239 301H134V609H239Q275 609 302 604T347 584T374 539T384
460Q384 407 375 376T347 328T302 306T239 301Z" />
<glyph unicode="S" horiz-adv-x="541" d="M420 595L446 673Q423 686 397 694T343 706T289 710Q250 710 210 701T136 671T82 617T61 536Q61 497 76 468T116 416T172 377T236 346T300 317T357 285T396 246T411 195Q411 163 399 141T366 104T318 82T264 75Q232 75
199 83T135 109T83 150L30 89Q60 55 97 33T177 0T264 -12Q312 -12 356 -1T435 36T490 100T510 193Q510 237 495 270T455 327T399 370T333 404T268 432T211 461T171 495T156 538Q156 563 169 580T202 606T245 620T288 624Q311 624 333 621T378 612T420 595Z" />
<glyph unicode="T" horiz-adv-x="427" d="M257 609H414V700H11V609H165V0H257V609Z" />
<glyph unicode="U" horiz-adv-x="500" d="M460 186V700H367V200Q367 164 353 138T312 97T249 82Q212 82 186 95T146 135T131 199V700H39V186Q39 122 65 78T140 12T250 -11Q312 -11 359 11T433 78T460 186Z" />
<glyph unicode="V" horiz-adv-x="514" d="M16 700L201 0H312L496 700H390L256 168L120 700H16Z" />
<glyph unicode="W" horiz-adv-x="739" d="M408 700H330L223 192L121 700H19L164 0H278L369 436L462 0H573L717 700H613L516 192L408 700Z" />
<glyph unicode="X" horiz-adv-x="605" d="M303 449L152 700H40L247 357L26 0H141L303 264L466 0H581L360 357L566 700H456L303 449Z" />
<glyph unicode="Y" horiz-adv-x="518" d="M477 157V700H384V412Q384 386 374 366T345 331T305 309T259 301Q214 301 184 316T139 360T124 433V700H31V428Q31 362 57 315T131 242T243 216Q269 216 294 220T343 234T384 261V161Q384 135 379 116T365 85T343 65T313
53L341 -15Q412 -7 444 36T477 157Z" />
<glyph unicode="Z" horiz-adv-x="554" d="M41 700V611L395 610L379 589L28 84V0H517V86L143 87L158 107L508 610V700H41Z" />
<glyph unicode="[" horiz-adv-x="230" d="M135 723L204 733V819H42V-115H204V-29L135 -19V723Z" />
<glyph unicode="\" horiz-adv-x="457" d="M341 -115H440L115 819H16L341 -115Z" />
<glyph unicode="]" horiz-adv-x="232" d="M27 -115H189V819H27V733L96 723V-19L27 -29V-115Z" />
<glyph unicode="^" horiz-adv-x="267" d="M264 773L136 901L3 772L51 724L136 810L215 726L264 773Z" />
<glyph unicode="_" horiz-adv-x="384" d="M33 -70H353V0H33V-70Z" />
<glyph unicode="`" horiz-adv-x="267" d="M126 710Q123 722 114 730T92 741T66 736Q54 730 51 719T50 695T60 673L118 596H159L126 710Z" />
<glyph unicode="a" horiz-adv-x="450" d="M322 340Q305 359 280 373T226 394T170 402Q142 402 117 393T71 367T40 321T28 253V160Q28 110 44 77T90 24T157 -3T241 -11Q259 -11 278 -10T317 -9T355 -7T388 -3T414 0V301Q414 360 403 400T368 464T304 499T206 510L199
445Q228 445 251 440T289 424T313 392T322 340ZM322 270V79Q322 79 318 79T305 78T287 76T267 75T246 73Q206 73 182 79T144 99T126 131T121 175V243Q121 263 127 276T143 297T165 307T189 310Q215 310 240 303T288 287T322 270Z" />
<glyph unicode="b" horiz-adv-x="458" d="M134 480V700H41V0Q53 -1 68 -2T102 -4T139 -7T176 -10T212 -11Q256 -11 295 -4T363 23T409 75T426 160V360Q426 399 413 427T378 474T328 501T271 510Q245 510 222 507T178 497T134 480ZM134 78V388Q146 395 164 401T204
413T253 418Q265 418 279 415T305 405T326 384T334 349V175Q334 151 330 132T312 100T274 81T209 74Q197 74 184 75T159 76T141 77T134 78Z" />
<glyph unicode="c" horiz-adv-x="384" d="M330 406L351 479Q320 493 287 502T220 511Q158 513 116 488T52 420T30 320V174Q30 110 54 70T121 10T222 -12Q255 -13 288 -8T353 5L336 82Q336 82 328 80T306 76T273 72T237 70Q210 70 189 76T152 96T130 130T122 179V325Q123
360 136 384T174 420T235 430Q259 429 284 423T330 406Z" />
<glyph unicode="d" horiz-adv-x="460" d="M416 0V700H324V480Q292 495 259 502T186 510Q158 510 130 502T80 475T44 428T30 360V160Q30 112 47 79T93 26T162 -2T246 -11Q264 -11 283 -10T321 -9T358 -7T391 -3T416 0ZM324 388V79Q324 79 320 79T308 78T290 77T270
75T249 74Q210 74 186 80T148 99T129 131T123 175V349Q123 370 131 383T153 404T180 415T206 418Q245 418 275 408T324 388Z" />
<glyph unicode="e" horiz-adv-x="425" d="M126 144V181L393 195V343Q393 399 372 436T311 492T217 511Q165 511 123 492T57 435T32 340V135Q32 95 44 67T80 22T134 -4T201 -13Q243 -13 288 0T368 35L334 113Q301 96 266 85T201 73Q184 73 170 77T147 91T132 113T126
144ZM301 325V277L126 267V322Q126 354 134 376T163 411T216 424Q247 426 265 412T292 375T301 325Z" />
<glyph unicode="f" horiz-adv-x="269" d="M226 625L241 706Q234 708 225 709T206 711T188 712Q160 712 134 703T86 675T52 625T40 550V0H135V414H207L231 501H135V561Q135 577 138 589T149 610T166 624T192 629Q200 629 209 628T226 625Z" />
<glyph unicode="g" horiz-adv-x="442" d="M402 -64V501H310V470Q293 484 274 492T235 505T195 511Q142 512 106 492T51 435T32 346V177Q32 85 76 37T203 -12Q219 -12 234 -9T264 -1T290 11T310 28V-56Q310 -76 304 -91T288 -116T266 -131T239 -139L262 -211Q307
-207 338 -191T386 -144T402 -64ZM310 389V151Q310 135 303 121T283 96T252 79T210 72Q182 71 163 82T134 114T124 162V340Q124 365 132 382T153 410T182 424T216 427Q229 427 244 423T273 413T297 401T310 389Z" />
<glyph unicode="h" horiz-adv-x="445" d="M133 474V700H41V0H133V400Q151 409 167 415T198 424T229 427Q248 427 264 422T293 406T313 380T320 344V0H412V346Q412 383 404 410T380 456T343 487T298 505T246 511Q224 511 203 506T164 492T133 474Z" />
<glyph unicode="i" horiz-adv-x="178" d="M42 0H135V501H42V0ZM89 710Q68 710 53 696T38 660Q38 639 53 624T89 609Q110 609 125 624T140 660Q140 682 125 696T89 710Z" />
<glyph unicode="j" horiz-adv-x="239" d="M191 -62V501H28V424L99 417V-54Q99 -78 91 -95T66 -122T28 -140L54 -214Q97 -210 127 -191T174 -138T191 -62ZM198 659Q198 681 183 695T147 710Q125 710 110 696T95 659Q95 639 110 624T147 609Q168 609 183 624T198 659Z" />
<glyph unicode="k" horiz-adv-x="459" d="M231 339L367 457L301 521L134 367V700H41V0H134V252L161 276L324 0H440L231 339Z" />
<glyph unicode="l" horiz-adv-x="177" d="M41 0H134V700H41V0Z" />
<glyph unicode="m" horiz-adv-x="720" d="M592 342V0H683V345Q683 390 670 421T633 472T580 500T516 509Q488 509 462 502T414 484T372 458Q357 476 336 487T291 504T241 509Q218 509 198 503T161 489T132 473V501H39V0H132V398Q149 407 164 413T194 423T225 426Q243
426 260 421T289 405T308 379T316 342V0H406V345Q406 359 405 372T401 396Q419 406 437 413T471 423T500 426Q518 426 534 421T564 405T584 379T592 342Z" />
<glyph unicode="n" horiz-adv-x="445" d="M317 343V-1H408V346Q408 382 400 409T376 456T341 487T296 504T244 510Q221 510 200 504T161 490T131 474V501H39V-1H131V399Q149 409 165 415T196 424T227 427Q245 427 261 422T290 406T310 379T317 343Z" />
<glyph unicode="o" horiz-adv-x="432" d="M400 185V317Q400 409 353 460T218 512Q158 512 116 490T52 424T30 317V185Q30 133 50 89T112 17T219 -10Q310 -10 355 43T400 185ZM306 321V176Q306 148 297 126T269 92T218 79Q187 79 166 92T135 127T124 176V321Q124
354 135 376T166 409T218 421Q248 421 267 410T296 376T306 321Z" />
<glyph unicode="p" d="M410 177V346Q410 398 392 435T337 492T248 511Q228 510 206 505T164 490T133 470V501H40V-191L133 -213V28Q145 17 162 8T199 -7T240 -12Q323 -12 366 36T410 177ZM317 340V162Q317 134 308 114T281 83T236 72Q218 72 200 77T167 91T143
116T133 151V389Q141 397 156 405T190 420T227 427Q244 428 260 424T289 410T309 383T317 340Z" />
<glyph unicode="q" horiz-adv-x="442" d="M310 29V-191L402 -213V501H310V471Q293 484 274 493T236 506T196 512Q143 513 107 493T51 436T32 346V177Q32 116 51 74T109 11T203 -11Q224 -11 244 -6T281 8T310 29ZM310 390V152Q310 135 303 121T283 97T252 80T210
73Q181 73 162 84T134 117T124 164V341Q124 366 132 383T153 411T183 425T215 428Q229 428 244 424T272 415T296 402T310 390Z" />
<glyph unicode="r" horiz-adv-x="360" d="M323 427L335 504Q325 508 307 511T268 515Q228 514 195 504T132 477V501H39V0H132V396Q146 404 163 410T199 422T237 429T275 432Q298 432 310 430T323 427Z" />
<glyph unicode="s" horiz-adv-x="424" d="M318 404L348 478Q329 491 307 498T262 509T217 513Q187 513 157 505T103 480T65 437T51 375Q51 342 64 318T100 277T148 248T201 226T250 203T285 176T299 138Q299 120 291 107T269 86T239 74T208 70Q184 70 162 77T119
96T80 126L27 69Q62 30 112 7T216 -16Q250 -16 282 -6T339 23T379 72T394 140Q394 177 381 203T345 247T297 278T243 302T194 322T159 346T145 377Q145 392 153 401T173 415T200 423T227 426Q244 426 260 423T291 416T318 404Z" />
<glyph unicode="t" horiz-adv-x="265" d="M133 132V415H214L237 500H133V700H40V132Q40 66 74 30T177 -13L204 60Q182 63 166 70T142 93T133 132Z" />
<glyph unicode="u" horiz-adv-x="446" d="M314 33V0H406V501H314V175Q314 154 306 137T284 106T251 86T211 78Q185 78 167 86T140 114T130 164V501H36V158Q36 120 44 93T68 46T105 15T151 -2T202 -8Q224 -8 246 -2T287 13T314 33Z" />
<glyph unicode="v" horiz-adv-x="456" d="M20 501L178 0H274L431 501H332L227 133L120 501H20Z" />
<glyph unicode="w" horiz-adv-x="721" d="M406 500H317L227 149L120 500H20L179 0H277L359 314L440 0H537L697 500H598L498 149L406 500Z" />
<glyph unicode="x" horiz-adv-x="488" d="M245 338L146 501H31L188 249L31 0H146L245 160L344 0H454L301 250L459 501H347L245 338Z" />
<glyph unicode="y" horiz-adv-x="479" d="M449 446L419 512Q382 509 359 492T325 450T314 398V176Q314 156 307 138T287 107T257 86T219 78Q201 78 185 83T156 98T137 125T129 162V502H36V159Q36 112 48 81T84 30T137 2T201 -7Q224 -7 246 -1T286 14T314 35V-52Q314
-68 310 -82T296 -109T275 -128T246 -139L271 -212Q315 -208 345 -190T391 -139T406 -60V378Q406 406 416 423T449 446Z" />
<glyph unicode="z" horiz-adv-x="433" d="M387 501H41V417L271 416L32 87V0H401V87L148 88L387 418V501Z" />
<glyph unicode="{" horiz-adv-x="281" d="M198 518V631Q198 654 202 672T211 703T224 726T240 741T257 752L216 824Q215 823 204 818T176 802T144 769T118 713T107 631V518Q107 496 104 476T95 436Q89 417 75 399T36 361L26 353L36 346Q60 328 74 309T95 271Q101
252 104 232T107 190V76Q107 28 117 -6T143 -61T175 -95T202 -113T216 -118L257 -45Q249 -41 241 -35T225 -19T212 3T202 34T198 76V190Q198 211 196 232T188 274Q178 315 132 353Q155 373 169 393T188 433Q193 454 195 475T198 518Z" />
<glyph unicode="|" horiz-adv-x="178" d="M42 -115H135V819H42V-115Z" />
<glyph unicode="}" horiz-adv-x="286" d="M66 824L25 752Q33 748 41 742T57 726T71 704T81 673T84 631V518Q84 490 88 462T106 406T151 353Q120 328 106 301T88 247T84 190V76Q84 52 81 34T72 3T58 -19T42 -34T25 -45L66 -118Q68 -118 79 -113T107 -96T139 -62T166
-6T177 76V190Q177 218 181 244T200 296T246 346L257 353L246 361Q214 386 200 411T181 463T177 518V631Q177 679 166 712T139 768T107 802T79 818T66 824Z" />
<glyph unicode="~" horiz-adv-x="267" d="M291 302L261 353Q245 340 230 334T198 327Q177 327 156 335T114 351T67 359Q42 359 20 348T-24 318L6 267Q24 280 40 286T72 291Q94 291 114 283T156 267T198 259Q225 259 248 271T291 302Z" />
<glyph unicode="&#xa0;" horiz-adv-x="280" />
<glyph unicode="&#xa1;" horiz-adv-x="179" d="M140 57L122 590H55L39 58Q39 29 51 15T88 0Q114 0 127 14T140 57ZM140 669Q140 691 126 705T90 720Q69 720 54 706T38 669Q38 648 53 634T90 619Q111 619 125 633T140 669Z" />
<glyph unicode="&#xa2;" horiz-adv-x="384" d="M192 -114H268V624H192V-114ZM330 406L351 479Q320 493 287 502T220 511Q158 513 116 488T52 420T30 320V174Q30 110 54 70T121 10T222 -12Q255 -13 288 -8T353 5L336 82Q336 82 328 80T306 76T273 72T237 70Q210
70 189 76T152 96T130 130T122 179V325Q123 360 136 384T174 420T235 430Q259 429 284 423T330 406Z" />
<glyph unicode="&#xa3;" horiz-adv-x="431" d="M129 85H35V0H396V85H286Q313 105 327 140T342 208Q343 236 335 263T311 316L297 341H396V428H236L204 470Q191 488 181 505T165 538T161 568Q163 585 172 596T196 614T227 622Q257 623 283 616T333 597L362 673Q344
685 322 693T276 705T233 709Q200 709 170 700T116 674T78 631T62 571Q61 539 74 509T108 450L122 428H35V341H184L205 313Q216 297 225 279T239 243T245 205Q246 179 237 157T213 118T176 94T129 85Z" />
<glyph unicode="&#xa4;" horiz-adv-x="488" d="M369 355L455 441L400 495L315 408Q300 418 282 423T244 429Q224 429 206 424T171 408L87 495L32 441L118 355Q109 341 104 322T98 284Q98 263 103 246T118 212L32 127L87 72L172 158Q187 149 205 144T244 138Q263
138 281 143T314 158L400 72L455 127L369 212Q378 228 383 245T389 284Q389 304 384 322T369 355ZM244 218Q226 218 211 226T187 250T178 284Q178 303 187 317T211 340T244 349Q262 349 277 341T300 318T309 284Q309 266 301 251T277 227T244 218Z" />
<glyph unicode="&#xa5;" horiz-adv-x="517" d="M303 325L494 700H393L256 425L120 700H21L210 324V0H303V325ZM97 197H418V286H97V197ZM97 61H418V149H97V61Z" />
<glyph unicode="&#xa7;" horiz-adv-x="442" d="M318 591L348 665Q328 678 306 685T261 696T217 700Q186 700 157 692T103 667T65 624T51 562Q51 531 62 509T92 470Q73 454 62 430T51 375Q51 342 64 318T100 277T148 248T201 226T250 203T285 176T299 138Q299 120
291 107T269 86T239 74T208 70Q184 70 162 77T119 96T80 126L27 69Q62 30 112 7T216 -16Q250 -16 282 -6T339 23T379 72T394 140Q394 170 385 192T361 232Q377 250 385 274T394 327Q394 364 381 390T345 434T296 465T243 489T194 509T158 533T145 564Q145 579 153
588T173 602T200 610T227 613Q243 613 259 610T291 603T318 591ZM282 285Q263 295 244 302T206 317T175 333T153 352T145 377Q145 388 149 396T160 411T176 423Q194 415 212 408T245 392T273 375T292 353T299 325Q299 313 295 303T282 285Z" />
<glyph unicode="&#xa8;" horiz-adv-x="267" d="M54 760Q33 760 18 745T3 709Q3 688 18 673T54 658Q76 658 90 673T105 709Q105 730 91 745T54 760ZM213 760Q192 760 177 745T162 709Q162 688 177 673T213 658Q234 658 249 673T264 709Q264 730 249 745T213 760Z" />
<glyph unicode="&#xa9;" horiz-adv-x="755" d="M723 187V327Q723 394 698 445T626 530T516 581T377 598Q301 598 239 581T130 530T58 445T32 327V187Q32 119 57 68T129 -17T238 -69T377 -86Q453 -86 516 -69T625 -18T697 68T723 187ZM635 294V219Q635 159 620
117T574 49T494 12T377 0Q309 0 261 11T181 48T135 116T120 219V294Q120 359 135 402T181 469T260 503T377 513Q445 513 494 504T574 470T620 403T635 294ZM509 349L533 422Q503 437 467 446T392 456Q342 456 305 440T242 395Q219 369 208 332T196 250Q196 197
213 158T262 94Q287 76 320 67T394 57Q433 57 474 66T558 92L534 170Q527 167 513 163T479 155T439 149T396 146Q371 146 352 151T320 167Q304 180 297 202T289 256Q289 284 296 304T317 340Q332 354 355 361T408 369Q420 369 433 368T459 365T484 358T509 349Z"
/>
<glyph unicode="&#xaa;" horiz-adv-x="330" d="M295 391Q295 396 295 412T295 451T295 495T295 534T295 556Q295 602 286 634T251 685Q236 699 216 704T173 711T129 710L121 655Q139 656 153 656T178 652Q202 648 210 639T219 605Q195 619 173 625T131 632Q97
633 74 618T38 577T25 520Q25 478 35 451T66 409T113 386T174 379Q200 379 231 383T295 391ZM218 538V451Q216 451 209 450T192 449T173 449T154 451Q139 454 126 460T105 478T97 511Q97 528 102 540T116 559T139 566Q158 566 179 558T218 538Z" />
<glyph unicode="&#xab;" horiz-adv-x="555" d="M370 268L499 137L440 80L252 268L440 456L500 395L370 268ZM150 268L278 137L219 80L32 268L219 456L280 395L150 268Z" />
<glyph unicode="&#xad;" horiz-adv-x="393" d="M35 323H355V414H35V323Z" />
<glyph unicode="&#xae;" horiz-adv-x="755" d="M723 187V327Q723 394 698 445T626 530T516 581T376 598Q301 598 238 581T129 530T58 445T32 327V187Q32 119 57 68T129 -17T238 -69T376 -86Q452 -86 515 -69T625 -18T697 68T723 187ZM634 293V219Q634 154 620
111T574 44T494 10T376 0Q308 0 260 10T181 44T135 111T120 219V293Q120 359 135 401T181 468T260 503T376 513Q444 513 493 504T574 470T619 402T634 293ZM414 444H215V60H306V145H405L445 60H551L494 163Q526 179 540 212T553 293Q553 337 544 366T516 412T473
436T414 444ZM409 234H306V352H409Q426 352 438 348T456 331T463 293Q463 257 448 246T409 234Z" />
<glyph unicode="&#xaf;" horiz-adv-x="267" d="M244 699H22V620H244V699Z" />
<glyph unicode="&#xb0;" horiz-adv-x="350" d="M321 566Q321 606 302 639T249 691T175 711Q135 711 102 692T48 639T28 566Q28 526 48 493T101 440T175 420Q216 420 249 440T301 493T321 566ZM175 633Q193 633 208 624T232 600T242 566Q242 548 233 533T208 509T175
500Q157 500 142 509T117 533T108 566Q108 584 117 599T141 624T175 633Z" />
<glyph unicode="&#xb1;" horiz-adv-x="388" d="M34 359H148V247H33V161H353V247H241V359H354V448H241V566H148V448H34V359Z" />
<glyph unicode="&#xb4;" horiz-adv-x="267" d="M204 677Q212 688 214 699T213 722T197 739Q186 746 174 744T152 734T140 713L107 600H148L204 677Z" />
<glyph unicode="&#xb5;" horiz-adv-x="465" d="M409 107V511L316 498V157Q316 132 306 114T277 87T231 76Q205 74 183 84T146 112T132 153V501H40V-190L132 -214V34Q136 28 145 21T167 6T198 -5T235 -10Q255 -10 274 -5T307 10T328 31Q333 22 339 15T351 4T361
-3L433 25Q432 27 426 35T415 61T409 107Z" />
<glyph unicode="&#xb6;" horiz-adv-x="659" d="M241 213H373V1H465V611H524V1H616V702H241Q199 702 162 691T95 652T48 579T31 461Q31 387 47 338T93 262T160 224T241 213ZM267 611H373V301H267Q233 301 206 306T161 328T133 376T123 461Q123 527 139 558T188
600T267 611Z" />
<glyph unicode="&#xb7;" horiz-adv-x="173" d="M86 348Q65 348 50 334T35 297Q35 276 50 261T86 246Q107 246 122 261T138 297Q138 319 123 333T86 348Z" />
<glyph unicode="&#xb8;" horiz-adv-x="267" d="M171 3H110L65 -70L81 -106Q100 -104 115 -103T144 -100T167 -99Q188 -99 199 -107T210 -134Q210 -146 204 -154T187 -167T160 -171Q142 -171 122 -169T86 -165T65 -161L52 -220Q53 -220 68 -223T108 -229T155 -232Q211
-232 241 -205T271 -131Q271 -93 246 -66T173 -39Q168 -39 163 -39T146 -39L171 3Z" />
<glyph unicode="&#xba;" horiz-adv-x="339" d="M304 503V587Q304 646 270 678T171 711Q105 711 70 680T34 587V503Q34 470 49 442T94 396T172 379Q239 379 271 413T304 503ZM228 582V505Q228 481 215 466T171 450Q151 450 138 457T118 477T111 505V582Q111 610
126 624T171 639Q191 639 203 632T222 613T228 582Z" />
<glyph unicode="&#xbb;" horiz-adv-x="530" d="M162 268L33 137L92 80L280 268L92 456L32 395L162 268ZM382 268L254 137L313 80L500 268L313 456L252 395L382 268Z" />
<glyph unicode="&#xbf;" horiz-adv-x="422" d="M392 162H299Q298 140 291 123T272 95T244 77T209 72Q188 73 168 84T135 115T122 165Q122 191 132 212T160 253T194 295Q208 312 221 331T246 373T264 423T271 482V575H181V486Q181 457 177 436T163 399T141 366T109
328Q87 304 69 280T40 228T29 166Q29 123 44 90T86 33T145 -2T212 -15Q252 -16 284 -4T341 32T378 88T392 162ZM226 708Q205 708 190 694T175 657Q175 636 190 621T226 605Q247 605 261 620T276 657Q276 679 262 693T226 708Z" />
<glyph unicode="&#xc0;" horiz-adv-x="546" d="M264 865Q261 877 252 885T230 896T204 891Q192 885 189 874T188 850T198 828L256 751H297L264 865ZM524 0L332 700H211L23 0H126L179 204H362L416 0H524ZM202 301L271 576L341 301H202Z" />
<glyph unicode="&#xc1;" horiz-adv-x="546" d="M349 828Q357 839 359 850T358 873T342 890Q331 897 319 895T297 885T285 864L252 751H293L349 828ZM524 0L332 700H211L23 0H126L179 204H362L416 0H524ZM202 301L271 576L341 301H202Z" />
<glyph unicode="&#xc2;" horiz-adv-x="546" d="M403 788L275 915L142 787L190 740L275 825L354 742L403 788ZM524 0L332 700H211L23 0H126L179 204H362L416 0H524ZM202 301L271 576L341 301H202Z" />
<glyph unicode="&#xc3;" horiz-adv-x="546" d="M339 863V852Q339 842 337 832T324 822Q316 822 307 828T293 836Q283 843 276 848T258 857Q242 865 224 865T188 859Q172 852 162 840T148 811T144 777V766H205V777Q205 786 206 794T217 804Q223 806 231 803T246
795Q252 792 263 785T280 775Q290 770 301 766T324 761Q363 761 381 789T400 852V863H339ZM524 0L332 700H211L23 0H126L179 204H362L416 0H524ZM202 301L271 576L341 301H202Z" />
<glyph unicode="&#xc4;" horiz-adv-x="546" d="M193 870Q172 870 157 855T142 819Q142 798 157 783T193 768Q215 768 229 783T244 819Q244 840 230 855T193 870ZM352 870Q331 870 316 855T301 819Q301 798 316 783T352 768Q373 768 388 783T403 819Q403 840 388
855T352 870ZM524 0L332 700H211L23 0H126L179 204H362L416 0H524ZM202 301L271 576L341 301H202Z" />
<glyph unicode="&#xc5;" horiz-adv-x="546" d="M273 889Q242 889 216 874T174 834T158 776Q158 744 173 718T215 677T273 662Q305 662 330 677T371 718T387 776Q387 808 372 833T331 874T273 889ZM273 819Q291 819 305 806Q317 794 317 776Q317 766 313 758T303
743Q297 737 290 734T273 731Q264 731 256 734T242 744Q236 750 233 758T229 776Q229 785 232 793T242 807Q249 813 256 816T273 819ZM524 0L332 700H211L23 0H126L179 204H362L416 0H524ZM202 301L271 576L341 301H202Z" />
<glyph unicode="&#xc6;" horiz-adv-x="756" d="M387 0H721V84H478V323H615L644 414H478V609H722V700H293L21 0H127L207 211H387V0ZM240 301L355 609H386V301H240Z" />
<glyph unicode="&#xc7;" horiz-adv-x="426" d="M250 3H189L144 -70L160 -106Q179 -104 194 -103T223 -100T246 -99Q267 -99 278 -107T289 -134Q289 -146 283 -154T266 -167T239 -171Q221 -171 201 -169T165 -165T144 -161L131 -220Q132 -220 147 -223T187 -229T234
-232Q290 -232 320 -205T350 -131Q350 -93 325 -66T252 -39Q247 -39 242 -39T225 -39L250 3ZM347 602L372 677Q338 695 302 703T229 711Q174 711 131 689T61 623T35 511V184Q35 120 59 76T127 11T234 -11Q272 -11 313 -2T397 23L382 108Q369 105 346 98T295 86T240
81Q203 81 179 91T141 125T128 186V514Q128 552 142 575T183 610T248 621Q272 621 298 616T347 602Z" />
<glyph unicode="&#xc8;" horiz-adv-x="409" d="M197 865Q194 877 185 885T163 896T137 891Q125 885 122 874T121 850T131 828L189 751H230L197 865ZM41 0H374V84H134V325H262L289 413H134V609H376V700H41V0Z" />
<glyph unicode="&#xc9;" horiz-adv-x="409" d="M275 827Q283 838 285 849T284 872T268 889Q257 896 245 894T223 884T211 863L178 750H219L275 827ZM41 0H374V84H134V325H262L289 413H134V609H376V700H41V0Z" />
<glyph unicode="&#xca;" horiz-adv-x="409" d="M335 788L207 915L74 787L122 740L207 825L286 742L335 788ZM41 0H374V84H134V325H262L289 413H134V609H376V700H41V0Z" />
<glyph unicode="&#xcb;" horiz-adv-x="409" d="M125 870Q104 870 89 855T74 819Q74 798 89 783T125 768Q147 768 161 783T176 819Q176 840 162 855T125 870ZM284 870Q263 870 248 855T233 819Q233 798 248 783T284 768Q305 768 320 783T335 819Q335 840 320 855T284
870ZM41 0H374V84H134V325H262L289 413H134V609H376V700H41V0Z" />
<glyph unicode="&#xcc;" horiz-adv-x="222" d="M117 866Q114 878 105 886T83 897T57 892Q45 886 42 875T41 851T51 829L109 752H150L117 866ZM20 614L87 612V0H180V700H20V614Z" />
<glyph unicode="&#xcd;" horiz-adv-x="222" d="M205 827Q213 838 215 849T214 872T198 889Q187 896 175 894T153 884T141 863L108 750H149L205 827ZM20 614L87 612V0H180V700H20V614Z" />
<glyph unicode="&#xce;" horiz-adv-x="222" d="M252 788L124 915L-9 787L39 740L124 825L203 742L252 788ZM20 614L87 612V0H180V700H20V614Z" />
<glyph unicode="&#xcf;" horiz-adv-x="222" d="M308 870Q287 870 272 855T257 819Q257 798 272 783T308 768Q330 768 344 783T359 819Q359 840 345 855T308 870ZM467 870Q446 870 431 855T416 819Q416 798 431 783T467 768Q488 768 503 783T518 819Q518 840 503
855T467 870ZM20 614L87 612V0H180V700H20V614Z" />
<glyph unicode="&#xd0;" horiz-adv-x="498" d="M104 325H262L289 413H104V325ZM230 700H41V0H250Q321 0 368 23T439 93T463 205V475Q463 546 435 596T355 673T230 700ZM234 85H134V609H240Q286 609 314 594T356 552T370 487V195Q370 173 365 154T345 119T304 94T234 85Z" />
<glyph unicode="&#xd1;" horiz-adv-x="577" d="M355 863V852Q355 842 353 832T340 822Q332 822 323 828T309 836Q299 843 292 848T274 857Q258 865 240 865T204 859Q188 852 178 840T164 811T160 777V766H221V777Q221 786 222 794T233 804Q239 806 247 803T262
795Q268 792 279 785T296 775Q306 770 317 766T340 761Q379 761 397 789T416 852V863H355ZM535 700H441V175L134 700H41V0H134V515L441 0H535V700Z" />
<glyph unicode="&#xd2;" horiz-adv-x="494" d="M239 865Q236 877 227 885T205 896T179 891Q167 885 164 874T163 850T173 828L231 751H272L239 865ZM35 508V186Q35 121 63 77T140 11T247 -11Q310 -11 357 12T431 80T457 186V507Q457 605 402 661T248 717Q149 717
92 664T35 508ZM128 200V490Q128 535 141 564T181 607T246 621Q287 621 313 607T352 564T365 490V200Q365 163 350 137T309 96T246 82Q210 82 184 96T143 136T128 200Z" />
<glyph unicode="&#xd3;" horiz-adv-x="494" d="M317 828Q325 839 327 850T326 873T310 890Q299 897 287 895T265 885T253 864L220 751H261L317 828ZM35 508V186Q35 121 63 77T140 11T247 -11Q310 -11 357 12T431 80T457 186V507Q457 605 402 661T248 717Q149 717
92 664T35 508ZM128 200V490Q128 535 141 564T181 607T246 621Q287 621 313 607T352 564T365 490V200Q365 163 350 137T309 96T246 82Q210 82 184 96T143 136T128 200Z" />
<glyph unicode="&#xd4;" horiz-adv-x="494" d="M376 788L248 915L115 787L163 740L248 825L327 742L376 788ZM35 508V186Q35 121 63 77T140 11T247 -11Q310 -11 357 12T431 80T457 186V507Q457 605 402 661T248 717Q149 717 92 664T35 508ZM128 200V490Q128 535
141 564T181 607T246 621Q287 621 313 607T352 564T365 490V200Q365 163 350 137T309 96T246 82Q210 82 184 96T143 136T128 200Z" />
<glyph unicode="&#xd5;" horiz-adv-x="494" d="M314 863V852Q314 842 312 832T299 822Q291 822 282 828T268 836Q258 843 251 848T233 857Q217 865 199 865T163 859Q147 852 137 840T123 811T119 777V766H180V777Q180 786 181 794T192 804Q198 806 206 803T221
795Q227 792 238 785T255 775Q265 770 276 766T299 761Q338 761 356 789T375 852V863H314ZM35 508V186Q35 121 63 77T140 11T247 -11Q310 -11 357 12T431 80T457 186V507Q457 605 402 661T248 717Q149 717 92 664T35 508ZM128 200V490Q128 535 141 564T181 607T246
621Q287 621 313 607T352 564T365 490V200Q365 163 350 137T309 96T246 82Q210 82 184 96T143 136T128 200Z" />
<glyph unicode="&#xd6;" horiz-adv-x="494" d="M167 870Q146 870 131 855T116 819Q116 798 131 783T167 768Q189 768 203 783T218 819Q218 840 204 855T167 870ZM326 870Q305 870 290 855T275 819Q275 798 290 783T326 768Q347 768 362 783T377 819Q377 840 362
855T326 870ZM35 508V186Q35 121 63 77T140 11T247 -11Q310 -11 357 12T431 80T457 186V507Q457 605 402 661T248 717Q149 717 92 664T35 508ZM128 200V490Q128 535 141 564T181 607T246 621Q287 621 313 607T352 564T365 490V200Q365 163 350 137T309 96T246 82Q210
82 184 96T143 136T128 200Z" />
<glyph unicode="&#xd7;" horiz-adv-x="367" d="M183 395L92 505L30 454L132 333L32 215L92 161L183 271L275 161L335 215L235 333L336 456L274 506L183 395Z" />
<glyph unicode="&#xd8;" horiz-adv-x="494" d="M33 0H118L475 701H390L33 0ZM35 508V186Q35 121 63 77T140 11T247 -11Q310 -11 357 12T431 80T457 186V507Q457 605 402 661T248 717Q149 717 92 664T35 508ZM128 200V490Q128 535 141 564T181 607T246 621Q287
621 313 607T352 564T365 490V200Q365 163 350 137T309 96T246 82Q210 82 184 96T143 136T128 200Z" />
<glyph unicode="&#xd9;" horiz-adv-x="500" d="M242 865Q239 877 230 885T208 896T182 891Q170 885 167 874T166 850T176 828L234 751H275L242 865ZM460 186V700H367V200Q367 164 353 138T312 97T249 82Q212 82 186 95T146 135T131 199V700H39V186Q39 122 65 78T140
12T250 -11Q312 -11 359 11T433 78T460 186Z" />
<glyph unicode="&#xda;" horiz-adv-x="500" d="M319 827Q327 838 329 849T328 872T312 889Q301 896 289 894T267 884T255 863L222 750H263L319 827ZM460 186V700H367V200Q367 164 353 138T312 97T249 82Q212 82 186 95T146 135T131 199V700H39V186Q39 122 65 78T140
12T250 -11Q312 -11 359 11T433 78T460 186Z" />
<glyph unicode="&#xdb;" horiz-adv-x="500" d="M380 788L252 915L119 787L167 740L252 825L331 742L380 788ZM460 186V700H367V200Q367 164 353 138T312 97T249 82Q212 82 186 95T146 135T131 199V700H39V186Q39 122 65 78T140 12T250 -11Q312 -11 359 11T433
78T460 186Z" />
<glyph unicode="&#xdc;" horiz-adv-x="500" d="M169 870Q148 870 133 855T118 819Q118 798 133 783T169 768Q191 768 205 783T220 819Q220 840 206 855T169 870ZM328 870Q307 870 292 855T277 819Q277 798 292 783T328 768Q349 768 364 783T379 819Q379 840 364
855T328 870ZM460 186V700H367V200Q367 164 353 138T312 97T249 82Q212 82 186 95T146 135T131 199V700H39V186Q39 122 65 78T140 12T250 -11Q312 -11 359 11T433 78T460 186Z" />
<glyph unicode="&#xdd;" horiz-adv-x="518" d="M328 827Q336 838 338 849T337 872T321 889Q310 896 298 894T276 884T264 863L231 750H272L328 827ZM477 157V700H384V412Q384 386 374 366T345 331T305 309T259 301Q214 301 184 316T139 360T124 433V700H31V428Q31
362 57 315T131 242T243 216Q269 216 294 220T343 234T384 261V161Q384 135 379 116T365 85T343 65T313 53L341 -15Q412 -7 444 36T477 157Z" />
<glyph unicode="&#xde;" horiz-adv-x="508" d="M265 613H134V700H41V0H134V125H265Q309 125 347 136T414 174T460 249T477 373Q477 444 460 490T414 564T346 602T265 613ZM134 214V522H239Q275 522 302 517T347 497T374 452T384 373Q384 320 375 289T347 241T302
219T239 214H134Z" />
<glyph unicode="&#xdf;" horiz-adv-x="500" d="M133 0V518Q133 550 140 571T162 603T200 614Q217 614 228 607T246 589T253 564Q253 551 247 538T230 517T199 508Q188 490 184 473T179 438Q180 409 194 384T231 336T278 292T325 248T361 202T375 150Q375 133 369
119T352 96T328 82T299 76Q287 76 275 77T249 82T223 92T196 109L159 37Q179 21 202 10T251 -6T304 -12Q338 -11 368 0T422 31T459 81T472 147Q472 185 458 216T422 274T375 322T327 365T289 404T273 443Q273 452 276 460T284 478Q284 478 287 478T295 478T303
478T307 478Q324 494 332 514T342 557T338 599Q332 629 311 652T260 688T193 701Q162 701 134 691T85 661T52 611T40 538V0H133Z" />
<glyph unicode="&#xe0;" horiz-adv-x="450" d="M217 924Q214 936 205 944T183 955T157 950Q145 944 142 933T141 909T151 887L209 810H250L217 924ZM322 340Q305 359 280 373T226 394T170 402Q142 402 117 393T71 367T40 321T28 253V160Q28 110 44 77T90 24T157
-3T241 -11Q259 -11 278 -10T317 -9T355 -7T388 -3T414 0V301Q414 360 403 400T368 464T304 499T206 510L199 445Q228 445 251 440T289 424T313 392T322 340ZM322 270V79Q322 79 318 79T305 78T287 76T267 75T246 73Q206 73 182 79T144 99T126 131T121 175V243Q121
263 127 276T143 297T165 307T189 310Q215 310 240 303T288 287T322 270Z" />
<glyph unicode="&#xe1;" horiz-adv-x="450" d="M306 887Q314 898 316 909T315 932T299 949Q288 956 276 954T254 944T242 923L209 810H250L306 887ZM322 340Q305 359 280 373T226 394T170 402Q142 402 117 393T71 367T40 321T28 253V160Q28 110 44 77T90 24T157
-3T241 -11Q259 -11 278 -10T317 -9T355 -7T388 -3T414 0V301Q414 360 403 400T368 464T304 499T206 510L199 445Q228 445 251 440T289 424T313 392T322 340ZM322 270V79Q322 79 318 79T305 78T287 76T267 75T246 73Q206 73 182 79T144 99T126 131T121 175V243Q121
263 127 276T143 297T165 307T189 310Q215 310 240 303T288 287T322 270Z" />
<glyph unicode="&#xe2;" horiz-adv-x="450" d="M353 859L225 986L92 858L140 811L225 896L304 813L353 859ZM322 340Q305 359 280 373T226 394T170 402Q142 402 117 393T71 367T40 321T28 253V160Q28 110 44 77T90 24T157 -3T241 -11Q259 -11 278 -10T317 -9T355
-7T388 -3T414 0V301Q414 360 403 400T368 464T304 499T206 510L199 445Q228 445 251 440T289 424T313 392T322 340ZM322 270V79Q322 79 318 79T305 78T287 76T267 75T246 73Q206 73 182 79T144 99T126 131T121 175V243Q121 263 127 276T143 297T165 307T189 310Q215
310 240 303T288 287T322 270Z" />
<glyph unicode="&#xe3;" horiz-adv-x="450" d="M290 924V913Q290 903 288 893T275 883Q267 883 258 889T244 897Q234 904 227 909T209 918Q193 926 175 926T139 920Q123 913 113 901T99 872T95 838V827H156V838Q156 847 157 855T168 865Q174 867 182 864T197 856Q203
853 214 846T231 836Q241 831 252 827T275 822Q314 822 332 850T351 913V924H290ZM322 340Q305 359 280 373T226 394T170 402Q142 402 117 393T71 367T40 321T28 253V160Q28 110 44 77T90 24T157 -3T241 -11Q259 -11 278 -10T317 -9T355 -7T388 -3T414 0V301Q414
360 403 400T368 464T304 499T206 510L199 445Q228 445 251 440T289 424T313 392T322 340ZM322 270V79Q322 79 318 79T305 78T287 76T267 75T246 73Q206 73 182 79T144 99T126 131T121 175V243Q121 263 127 276T143 297T165 307T189 310Q215 310 240 303T288 287T322
270Z" />
<glyph unicode="&#xe4;" horiz-adv-x="450" d="M145 931Q124 931 109 916T94 880Q94 859 109 844T145 829Q167 829 181 844T196 880Q196 901 182 916T145 931ZM304 931Q283 931 268 916T253 880Q253 859 268 844T304 829Q325 829 340 844T355 880Q355 901 340
916T304 931ZM322 340Q305 359 280 373T226 394T170 402Q142 402 117 393T71 367T40 321T28 253V160Q28 110 44 77T90 24T157 -3T241 -11Q259 -11 278 -10T317 -9T355 -7T388 -3T414 0V301Q414 360 403 400T368 464T304 499T206 510L199 445Q228 445 251 440T289
424T313 392T322 340ZM322 270V79Q322 79 318 79T305 78T287 76T267 75T246 73Q206 73 182 79T144 99T126 131T121 175V243Q121 263 127 276T143 297T165 307T189 310Q215 310 240 303T288 287T322 270Z" />
<glyph unicode="&#xe5;" horiz-adv-x="450" d="M226 924Q195 924 169 909T127 869T111 811Q111 779 126 753T168 712T226 697Q258 697 283 712T324 753T340 811Q340 843 325 868T284 909T226 924ZM226 854Q244 854 258 841Q270 829 270 811Q270 801 266 793T256
778Q250 772 243 769T226 766Q217 766 209 769T195 779Q189 785 186 793T182 811Q182 820 185 828T195 842Q202 848 209 851T226 854ZM322 340Q305 359 280 373T226 394T170 402Q142 402 117 393T71 367T40 321T28 253V160Q28 110 44 77T90 24T157 -3T241 -11Q259
-11 278 -10T317 -9T355 -7T388 -3T414 0V301Q414 360 403 400T368 464T304 499T206 510L199 445Q228 445 251 440T289 424T313 392T322 340ZM322 270V79Q322 79 318 79T305 78T287 76T267 75T246 73Q206 73 182 79T144 99T126 131T121 175V243Q121 263 127 276T143
297T165 307T189 310Q215 310 240 303T288 287T322 270Z" />
<glyph unicode="&#xe6;" horiz-adv-x="716" d="M322 340Q305 359 280 373T226 394T170 402Q142 402 117 393T71 367T40 321T28 253V160Q28 110 44 77T90 24T157 -3T241 -11Q259 -11 278 -10T317 -9T355 -7T388 -3T414 0V301Q414 360 403 400T368 464T304 499T206
510L199 445Q228 445 251 440T289 424T313 392T322 340ZM322 270V79Q322 79 318 79T305 78T287 76T267 75T246 73Q206 73 182 79T144 99T126 131T121 175V243Q121 263 127 276T143 297T165 307T189 310Q215 310 240 303T288 287T322 270ZM419 144V181L686 195V343Q686
399 665 436T604 492T510 511Q458 511 416 492T350 435T325 340V135Q325 95 337 67T373 22T427 -4T494 -13Q536 -13 581 0T661 35L627 113Q594 96 559 85T494 73Q477 73 463 77T440 91T425 113T419 144ZM594 325V277L419 267V322Q419 354 427 376T456 411T509 424Q540
426 558 412T585 375T594 325Z" />
<glyph unicode="&#xe7;" horiz-adv-x="384" d="M229 8H168L123 -65L139 -101Q158 -99 173 -98T202 -95T225 -94Q246 -94 257 -102T268 -129Q268 -141 262 -149T245 -162T218 -166Q200 -166 180 -164T144 -160T123 -156L110 -215Q111 -215 126 -218T166 -224T213
-227Q269 -227 299 -200T329 -126Q329 -88 304 -61T231 -34Q226 -34 221 -34T204 -34L229 8ZM330 406L351 479Q320 493 287 502T220 511Q158 513 116 488T52 420T30 320V174Q30 110 54 70T121 10T222 -12Q255 -13 288 -8T353 5L336 82Q336 82 328 80T306 76T273
72T237 70Q210 70 189 76T152 96T130 130T122 179V325Q123 360 136 384T174 420T235 430Q259 429 284 423T330 406Z" />
<glyph unicode="&#xe8;" horiz-adv-x="425" d="M201 925Q198 937 189 945T167 956T141 951Q129 945 126 934T125 910T135 888L193 811H234L201 925ZM126 144V181L393 195V343Q393 399 372 436T311 492T217 511Q165 511 123 492T57 435T32 340V135Q32 95 44 67T80
22T134 -4T201 -13Q243 -13 288 0T368 35L334 113Q301 96 266 85T201 73Q184 73 170 77T147 91T132 113T126 144ZM301 325V277L126 267V322Q126 354 134 376T163 411T216 424Q247 426 265 412T292 375T301 325Z" />
<glyph unicode="&#xe9;" horiz-adv-x="425" d="M281 898Q289 909 291 920T290 943T274 960Q263 967 251 965T229 955T217 934L184 821H225L281 898ZM126 144V181L393 195V343Q393 399 372 436T311 492T217 511Q165 511 123 492T57 435T32 340V135Q32 95 44 67T80
22T134 -4T201 -13Q243 -13 288 0T368 35L334 113Q301 96 266 85T201 73Q184 73 170 77T147 91T132 113T126 144ZM301 325V277L126 267V322Q126 354 134 376T163 411T216 424Q247 426 265 412T292 375T301 325Z" />
<glyph unicode="&#xea;" horiz-adv-x="425" d="M342 859L214 986L81 858L129 811L214 896L293 813L342 859ZM126 144V181L393 195V343Q393 399 372 436T311 492T217 511Q165 511 123 492T57 435T32 340V135Q32 95 44 67T80 22T134 -4T201 -13Q243 -13 288 0T368
35L334 113Q301 96 266 85T201 73Q184 73 170 77T147 91T132 113T126 144ZM301 325V277L126 267V322Q126 354 134 376T163 411T216 424Q247 426 265 412T292 375T301 325Z" />
<glyph unicode="&#xeb;" horiz-adv-x="425" d="M133 931Q112 931 97 916T82 880Q82 859 97 844T133 829Q155 829 169 844T184 880Q184 901 170 916T133 931ZM292 931Q271 931 256 916T241 880Q241 859 256 844T292 829Q313 829 328 844T343 880Q343 901 328 916T292
931ZM126 144V181L393 195V343Q393 399 372 436T311 492T217 511Q165 511 123 492T57 435T32 340V135Q32 95 44 67T80 22T134 -4T201 -13Q243 -13 288 0T368 35L334 113Q301 96 266 85T201 73Q184 73 170 77T147 91T132 113T126 144ZM301 325V277L126 267V322Q126
354 134 376T163 411T216 424Q247 426 265 412T292 375T301 325Z" />
<glyph unicode="&#xec;" horiz-adv-x="172" d="M331 938Q328 950 319 958T297 969T271 964Q259 958 256 947T255 923T265 901L323 824H364L331 938ZM39 0H132V500H39V0Z" />
<glyph unicode="&#xed;" horiz-adv-x="172" d="M424 898Q432 909 434 920T433 943T417 960Q406 967 394 965T372 955T360 934L327 821H368L424 898ZM39 0H132V500H39V0Z" />
<glyph unicode="&#xee;" horiz-adv-x="172" d="M472 859L344 986L211 858L259 811L344 896L423 813L472 859ZM39 0H132V500H39V0Z" />
<glyph unicode="&#xef;" horiz-adv-x="172" d="M262 931Q241 931 226 916T211 880Q211 859 226 844T262 829Q284 829 298 844T313 880Q313 901 299 916T262 931ZM421 931Q400 931 385 916T370 880Q370 859 385 844T421 829Q442 829 457 844T472 880Q472 901 457
916T421 931ZM39 0H132V500H39V0Z" />
<glyph unicode="&#xf0;" horiz-adv-x="424" d="M293 662Q271 676 245 686T189 701L168 645Q171 644 182 641T208 629T240 608L161 529L204 486L281 563Q292 547 298 527T304 481V393Q296 402 285 409T259 422T228 430T197 433Q114 433 71 386T27 246V187Q27 96
74 44T209 -9Q300 -9 348 41T397 187V478Q397 508 391 533T372 581T341 624L383 665L340 708L293 662ZM211 82Q181 82 161 94T130 128T119 183V259Q119 288 128 308T156 339T202 350Q222 350 240 345T273 331T296 306T304 271V183Q304 150 294 128T262 94T211 82Z"
/>
<glyph unicode="&#xf1;" horiz-adv-x="445" d="M288 924V913Q288 903 286 893T273 883Q265 883 256 889T242 897Q232 904 225 909T207 918Q191 926 173 926T137 920Q121 913 111 901T97 872T93 838V827H154V838Q154 847 155 855T166 865Q172 867 180 864T195 856Q201
853 212 846T229 836Q239 831 250 827T273 822Q312 822 330 850T349 913V924H288ZM317 343V-1H408V346Q408 382 400 409T376 456T341 487T296 504T244 510Q221 510 200 504T161 490T131 474V501H39V-1H131V399Q149 409 165 415T196 424T227 427Q245 427 261 422T290
406T310 379T317 343Z" />
<glyph unicode="&#xf2;" horiz-adv-x="432" d="M208 938Q205 950 196 958T174 969T148 964Q136 958 133 947T132 923T142 901L200 824H241L208 938ZM400 185V317Q400 409 353 460T218 512Q158 512 116 490T52 424T30 317V185Q30 133 50 89T112 17T219 -10Q310
-10 355 43T400 185ZM306 321V176Q306 148 297 126T269 92T218 79Q187 79 166 92T135 127T124 176V321Q124 354 135 376T166 409T218 421Q248 421 267 410T296 376T306 321Z" />
<glyph unicode="&#xf3;" horiz-adv-x="432" d="M285 898Q293 909 295 920T294 943T278 960Q267 967 255 965T233 955T221 934L188 821H229L285 898ZM400 185V317Q400 409 353 460T218 512Q158 512 116 490T52 424T30 317V185Q30 133 50 89T112 17T219 -10Q310
-10 355 43T400 185ZM306 321V176Q306 148 297 126T269 92T218 79Q187 79 166 92T135 127T124 176V321Q124 354 135 376T166 409T218 421Q248 421 267 410T296 376T306 321Z" />
<glyph unicode="&#xf4;" horiz-adv-x="432" d="M346 859L218 986L85 858L133 811L218 896L297 813L346 859ZM400 185V317Q400 409 353 460T218 512Q158 512 116 490T52 424T30 317V185Q30 133 50 89T112 17T219 -10Q310 -10 355 43T400 185ZM306 321V176Q306 148
297 126T269 92T218 79Q187 79 166 92T135 127T124 176V321Q124 354 135 376T166 409T218 421Q248 421 267 410T296 376T306 321Z" />
<glyph unicode="&#xf5;" horiz-adv-x="432" d="M282 924V913Q282 903 280 893T267 883Q259 883 250 889T236 897Q226 904 219 909T201 918Q185 926 167 926T131 920Q115 913 105 901T91 872T87 838V827H148V838Q148 847 149 855T160 865Q166 867 174 864T189 856Q195
853 206 846T223 836Q233 831 244 827T267 822Q306 822 324 850T343 913V924H282ZM400 185V317Q400 409 353 460T218 512Q158 512 116 490T52 424T30 317V185Q30 133 50 89T112 17T219 -10Q310 -10 355 43T400 185ZM306 321V176Q306 148 297 126T269 92T218 79Q187
79 166 92T135 127T124 176V321Q124 354 135 376T166 409T218 421Q248 421 267 410T296 376T306 321Z" />
<glyph unicode="&#xf6;" horiz-adv-x="432" d="M131 931Q110 931 95 916T80 880Q80 859 95 844T131 829Q153 829 167 844T182 880Q182 901 168 916T131 931ZM290 931Q269 931 254 916T239 880Q239 859 254 844T290 829Q311 829 326 844T341 880Q341 901 326 916T290
931ZM400 185V317Q400 409 353 460T218 512Q158 512 116 490T52 424T30 317V185Q30 133 50 89T112 17T219 -10Q310 -10 355 43T400 185ZM306 321V176Q306 148 297 126T269 92T218 79Q187 79 166 92T135 127T124 176V321Q124 354 135 376T166 409T218 421Q248 421
267 410T296 376T306 321Z" />
<glyph unicode="&#xf7;" horiz-adv-x="380" d="M29 346H349V421H29V346ZM190 564Q169 564 154 549T139 513Q139 492 154 477T190 462Q211 462 226 477T242 513Q242 533 227 548T190 564ZM190 305Q169 305 154 292T139 256Q139 234 154 220T190 205Q211 205 226
219T242 256Q242 278 227 291T190 305Z" />
<glyph unicode="&#xf8;" horiz-adv-x="432" d="M373 514H295L63 -20H139L373 514ZM400 185V317Q400 409 353 460T218 512Q158 512 116 490T52 424T30 317V185Q30 133 50 89T112 17T219 -10Q310 -10 355 43T400 185ZM306 321V176Q306 148 297 126T269 92T218 79Q187
79 166 92T135 127T124 176V321Q124 354 135 376T166 409T218 421Q248 421 267 410T296 376T306 321Z" />
<glyph unicode="&#xf9;" horiz-adv-x="446" d="M213 937Q210 949 201 957T179 968T153 963Q141 957 138 946T137 922T147 900L205 823H246L213 937ZM314 33V0H406V501H314V175Q314 154 306 137T284 106T251 86T211 78Q185 78 167 86T140 114T130 164V501H36V158Q36
120 44 93T68 46T105 15T151 -2T202 -8Q224 -8 246 -2T287 13T314 33Z" />
<glyph unicode="&#xfa;" horiz-adv-x="446" d="M298 898Q306 909 308 920T307 943T291 960Q280 967 268 965T246 955T234 934L201 821H242L298 898ZM314 33V0H406V501H314V175Q314 154 306 137T284 106T251 86T211 78Q185 78 167 86T140 114T130 164V501H36V158Q36
120 44 93T68 46T105 15T151 -2T202 -8Q224 -8 246 -2T287 13T314 33Z" />
<glyph unicode="&#xfb;" horiz-adv-x="446" d="M352 859L224 986L91 858L139 811L224 896L303 813L352 859ZM314 33V0H406V501H314V175Q314 154 306 137T284 106T251 86T211 78Q185 78 167 86T140 114T130 164V501H36V158Q36 120 44 93T68 46T105 15T151 -2T202
-8Q224 -8 246 -2T287 13T314 33Z" />
<glyph unicode="&#xfc;" horiz-adv-x="446" d="M140 931Q119 931 104 916T89 880Q89 859 104 844T140 829Q162 829 176 844T191 880Q191 901 177 916T140 931ZM299 931Q278 931 263 916T248 880Q248 859 263 844T299 829Q320 829 335 844T350 880Q350 901 335
916T299 931ZM314 33V0H406V501H314V175Q314 154 306 137T284 106T251 86T211 78Q185 78 167 86T140 114T130 164V501H36V158Q36 120 44 93T68 46T105 15T151 -2T202 -8Q224 -8 246 -2T287 13T314 33Z" />
<glyph unicode="&#xfd;" horiz-adv-x="479" d="M308 898Q316 909 318 920T317 943T301 960Q290 967 278 965T256 955T244 934L211 821H252L308 898ZM449 446L419 512Q382 509 359 492T325 450T314 398V176Q314 156 307 138T287 107T257 86T219 78Q201 78 185 83T156
98T137 125T129 162V502H36V159Q36 112 48 81T84 30T137 2T201 -7Q224 -7 246 -1T286 14T314 35V-52Q314 -68 310 -82T296 -109T275 -128T246 -139L271 -212Q315 -208 345 -190T391 -139T406 -60V378Q406 406 416 423T449 446Z" />
<glyph unicode="&#xfe;" d="M410 177V346Q410 398 392 435T337 492T248 511Q228 510 206 505T164 490T133 470V700H40V-191L133 -213V28Q145 17 162 8T199 -7T240 -12Q323 -12 366 36T410 177ZM317 340V162Q317 134 308 114T281 83T236 72Q218 72 200 77T167 91T143
116T133 151V389Q141 397 156 405T190 420T227 427Q244 428 260 424T289 410T309 383T317 340Z" />
<glyph unicode="&#xff;" horiz-adv-x="479" d="M160 931Q139 931 124 916T109 880Q109 859 124 844T160 829Q182 829 196 844T211 880Q211 901 197 916T160 931ZM319 931Q298 931 283 916T268 880Q268 859 283 844T319 829Q340 829 355 844T370 880Q370 901 355
916T319 931ZM449 446L419 512Q382 509 359 492T325 450T314 398V176Q314 156 307 138T287 107T257 86T219 78Q201 78 185 83T156 98T137 125T129 162V502H36V159Q36 112 48 81T84 30T137 2T201 -7Q224 -7 246 -1T286 14T314 35V-52Q314 -68 310 -82T296 -109T275
-128T246 -139L271 -212Q315 -208 345 -190T391 -139T406 -60V378Q406 406 416 423T449 446Z" />
<glyph unicode="&#x2013;" horiz-adv-x="445" d="M35 323H410V414H35V323Z" />
<glyph unicode="&#x2014;" horiz-adv-x="720" d="M35 323H685V414H35V323Z" />
<glyph unicode="&#x2018;" horiz-adv-x="161" d="M114 707L91 723Q89 720 79 712T57 687T37 648T28 595Q28 573 43 558T79 543Q101 543 115 558T130 595Q130 612 119 625T90 644Q93 659 98 675T114 707Z" />
<glyph unicode="&#x2019;" horiz-adv-x="159" d="M45 554L68 538Q70 540 80 549T102 574T122 613T131 667Q131 688 116 703T79 718Q58 718 43 703T28 667Q28 650 40 636T68 618Q66 602 61 586T45 554Z" />
<glyph unicode="&#x201a;" horiz-adv-x="173" d="M53 -70L74 -85Q77 -83 86 -74T108 -50T129 -11T138 43Q137 65 123 79T87 94Q66 94 51 80T36 43Q36 25 47 11T74 -7Q73 -21 68 -37T53 -70Z" />
<glyph unicode="&#x201c;" horiz-adv-x="341" d="M292 707L271 723Q269 720 259 712T237 687T217 648T208 595Q208 573 223 558T259 543Q281 543 296 558T311 595Q311 612 300 625T271 644Q273 659 277 675T292 707ZM114 707L91 723Q89 720 79 712T57 687T37 648T28
595Q28 573 43 558T79 543Q101 543 115 558T130 595Q130 612 119 625T90 644Q93 659 98 675T114 707Z" />
<glyph unicode="&#x201d;" horiz-adv-x="339" d="M46 554L67 538Q70 540 80 549T101 574T122 613T131 667Q131 688 116 703T79 718Q58 718 43 703T28 667Q28 650 39 636T67 618Q66 602 62 586T46 554ZM226 554L248 538Q251 540 260 549T282 574T302 613T311 667Q311
688 296 703T259 718Q238 718 224 703T209 667Q209 650 220 636T248 618Q247 602 242 586T226 554Z" />
<glyph unicode="&#x201e;" horiz-adv-x="353" d="M52 -70L74 -85Q77 -83 86 -74T108 -50T129 -11T138 43Q137 65 122 79T87 94Q66 94 51 80T36 43Q36 25 47 11T75 -7Q74 -21 68 -37T52 -70ZM233 -70L256 -85Q258 -83 267 -74T289 -50T310 -11T318 43Q318 65 303
79T266 94Q245 94 231 80T216 43Q216 25 227 11T254 -7Q253 -21 248 -37T233 -70Z" />
<glyph unicode="&#x2022;" horiz-adv-x="392" d="M311 455Q262 503 195 503Q127 503 76 455Q28 406 28 337Q28 303 40 274T76 220Q126 171 195 171Q229 171 258 183T311 220Q335 244 348 273T361 337Q361 406 311 455Z" />
<glyph unicode="&#x2039;" horiz-adv-x="309" d="M27 268L215 80L274 137L146 268L276 395L215 456L27 268Z" />
<glyph unicode="&#x203a;" horiz-adv-x="309" d="M162 268L33 137L93 80L280 268L93 456L32 395L162 268Z" />
</font>
</defs>
</svg>
