<?xml version="1.0" standalone="no"?>
<!DOCTYPE svg PUBLIC "-//W3C//DTD SVG 1.1//EN" "http://www.w3.org/Graphics/SVG/1.1/DTD/svg11.dtd">
<svg xmlns="http://www.w3.org/2000/svg">
<defs >
<font id="AdventPro" horiz-adv-x="443" ><font-face
    font-family="Advent Pro Thin"
    units-per-em="1000"
    panose-1="0 0 0 0 0 0 0 0 0 0"
    ascent="964"
    descent="-232"
    alphabetic="0" />
<glyph unicode=" " horiz-adv-x="280" />
<glyph unicode="!" horiz-adv-x="118" d="M42 692L51 121H66L74 692Q74 701 71 705T60 710Q53 710 48 706T42 692ZM75 18Q75 24 71 29T59 34Q52 34 47 29T41 18Q41 11 46 6T59 0Q67 0 71 5T75 18Z" />
<glyph unicode="&quot;" horiz-adv-x="223" d="M164 723L169 589H186L193 723Q193 731 189 734T179 738T169 735T164 723ZM28 723L33 589H50L56 723Q56 731 52 734T42 738T32 735T28 723Z" />
<glyph unicode="#" horiz-adv-x="609" d="M390 244L431 415H578V432H434L498 700H479L416 432H227L288 700H269L208 432H29V415H202L163 244H29V227H158L106 0H124L177 227H368L316 0H334L387 227H578V244H390ZM372 244H181L221 415H411L372 244Z" />
<glyph unicode="$" horiz-adv-x="525" d="M266 -114H285V818H266V-114ZM429 653L436 672Q412 685 386 693T333 705T278 710Q241 710 203 701T132 673T79 624T59 549Q59 508 77 479T125 430T192 393T269 363T346 333T413 295T460 243T478 169Q478 124 459 93T409
43T339 16T262 7Q219 7 177 18T99 51T35 109L22 99Q49 60 88 36T172 0T263 -12Q305 -12 346 -2T422 29T476 85T497 167Q497 214 480 247T432 303T365 344T288 375T211 404T144 438T96 484T78 549Q78 587 96 614T144 659T208 685T275 693Q301 693 328 689T382 676T429
653Z" />
<glyph unicode="%" horiz-adv-x="709" d="M68 0H95L633 700H607L68 0ZM174 714Q134 714 101 695T47 642T27 568Q27 528 47 495T100 442T174 422Q214 422 247 442T299 495T319 568Q319 609 300 642T247 694T174 714ZM174 694Q209 694 237 677T282 632T299 568Q299
534 282 506T237 460T174 442Q139 442 110 459T64 505T47 568Q47 603 64 631T110 677T174 694ZM534 277Q495 277 462 258T409 205T389 132Q389 92 409 59T462 6T534 -14Q575 -14 607 5T659 58T679 132Q679 172 660 205T608 257T534 277ZM534 257Q569 257 597 240T643
195T660 132Q660 98 643 70T598 24T534 7Q500 7 472 24T426 69T409 132Q409 167 426 195T471 240T534 257Z" />
<glyph unicode="&amp;" horiz-adv-x="529" d="M393 684L403 704H245Q197 704 162 685T109 633T92 555Q93 527 106 498T144 445T206 404H184Q133 404 102 390T56 354T35 305T29 255V162Q29 115 42 84T76 34T124 7T176 -4T224 -4Q255 -2 287 10T344 46T382 106Q388
62 413 34T488 -9L493 7Q444 23 421 52T398 137V385H489L498 404H398V507H380V404H275Q254 404 227 415T173 446T129 494T112 556Q112 612 144 648T241 684H393ZM380 385V174Q380 133 361 98T307 40T224 13Q171 9 132 22T70 70T48 160V256Q48 285 54 308T76 349T117
375T182 385H380Z" />
<glyph unicode="&apos;" horiz-adv-x="87" d="M28 724L34 589H50L57 724Q57 731 53 734T43 738T33 735T28 724Z" />
<glyph unicode="(" horiz-adv-x="170" d="M154 800L144 816Q108 793 85 768T52 710T41 627V69Q41 32 46 4T64 -45T96 -84T144 -120L155 -102Q145 -94 129 -83T97 -54T71 -7T60 65V637Q60 672 67 696T86 738T115 770T154 800Z" />
<glyph unicode=")" horiz-adv-x="170" d="M16 800L26 816Q53 798 72 780T104 741T123 692T129 627V69Q129 32 124 4T106 -45T74 -84T26 -120L15 -102Q26 -94 41 -83T73 -54T99 -7T110 65V637Q110 672 103 696T84 738T55 770T16 800Z" />
<glyph unicode="*" horiz-adv-x="337" d="M29 614L22 594L151 548L71 441L89 428L167 538L249 428L265 441L183 548L313 594L306 614L176 563L177 700H155L156 563L29 614Z" />
<glyph unicode="+" horiz-adv-x="377" d="M197 530H178V380H27V361H178V210H197V361H347V380H197V530Z" />
<glyph unicode="," horiz-adv-x="112" d="M30 -57L39 -64Q39 -64 45 -60T59 -46T72 -22T78 13Q78 21 74 25T61 30Q54 30 50 26T45 13Q45 7 48 3T56 -3Q55 -14 50 -28T30 -57Z" />
<glyph unicode="-" horiz-adv-x="391" d="M33 394H353V414H33V394Z" />
<glyph unicode="." horiz-adv-x="103" d="M34 13Q34 6 39 1T51 -4Q59 -4 63 1T68 13Q68 21 64 25T51 30Q44 30 39 26T34 13Z" />
<glyph unicode="/" horiz-adv-x="380" d="M18 -114H38L363 818H343L18 -114Z" />
<glyph unicode="0" horiz-adv-x="488" d="M33 508V186Q33 121 61 77T138 11T244 -11Q307 -11 354 12T427 80T453 186V507Q453 605 398 660T245 716Q146 716 90 661T33 508ZM52 185V508Q52 565 74 607T139 673T245 696Q308 696 350 673T413 609T434 510V185Q434
126 409 87T341 28T244 8Q191 8 148 27T78 86T52 185Z" />
<glyph unicode="1" horiz-adv-x="205" d="M8 608L13 592Q32 597 49 604T83 621T114 642T142 666V0H162V700H142Q133 685 118 671T85 644T47 622T8 608Z" />
<glyph unicode="2" horiz-adv-x="413" d="M40 590L59 583Q69 614 88 638T139 677T213 691Q255 691 288 672T341 621T361 548Q361 530 357 509T343 466T318 423L28 20V0H378V20H50L332 412Q356 447 367 481T380 548Q381 594 358 630T298 688T219 710Q174 710 139
697T80 657T40 590Z" />
<glyph unicode="3" horiz-adv-x="440" d="M201 414H158L358 680V700H68V680H334L121 394H207Q257 394 299 370T368 305T394 208Q394 150 369 105T299 33T195 7Q148 7 109 29T41 95L24 82Q53 39 96 14T201 -12Q246 -12 284 4T352 50T397 118T413 202Q413 266 385
313T309 387T201 414Z" />
<glyph unicode="4" horiz-adv-x="465" d="M344 0H364V394H432L437 412H364V700H345V412H47L207 700H187L15 394H345L344 0Z" />
<glyph unicode="5" horiz-adv-x="440" d="M80 412L109 680H357V700H92L59 394H176Q255 394 302 366T371 294T393 200Q393 154 377 118T334 58T272 20T201 7Q168 7 139 15T86 33T49 52T36 59L28 42Q28 43 41 35T79 16T134 -3T202 -12Q245 -12 283 3T350 47T395
114T412 199Q412 260 387 308T309 385T175 414L80 412Z" />
<glyph unicode="6" horiz-adv-x="482" d="M276 681H309V699H275Q201 699 146 671T61 591T30 464V203Q30 144 59 96T136 19T243 -10Q287 -10 325 6T393 52T440 120T457 203Q457 263 428 311T350 387T242 415Q204 415 168 402T101 362T50 289V459Q50 528 76 578T154
654T276 681ZM243 396Q283 396 318 381T379 340T421 278T436 203Q436 163 421 128T380 66T318 24T243 9Q190 9 146 35T76 105T50 203Q50 243 65 278T106 339T168 381T243 396Z" />
<glyph unicode="7" horiz-adv-x="429" d="M56 0L417 680V700H25V680H394L36 0H56Z" />
<glyph unicode="8" horiz-adv-x="470" d="M235 709Q187 709 149 687T89 626T67 538Q67 505 81 475T120 421T176 386Q133 373 99 345T46 278T26 192Q26 132 53 86T128 14T235 -12Q294 -12 340 14T413 87T440 192Q440 237 421 277T367 346T290 386Q340 403 371 444T402
538Q402 587 381 625T323 686T235 709ZM235 392Q195 392 161 412T106 467T85 541Q85 582 105 615T160 669T235 689Q276 689 309 669T363 616T383 541Q383 500 364 466T311 412T235 392ZM234 5Q182 5 140 30T72 97T46 190Q46 229 60 262T101 321T161 360T234 374Q285
374 327 349T395 283T421 190Q421 140 396 98T328 30T234 5Z" />
<glyph unicode="9" horiz-adv-x="481" d="M235 708Q191 708 153 692T85 646T39 579T22 496Q22 436 50 388T127 312T236 284Q275 284 311 296T377 337T428 409V247Q428 180 403 129T328 49T207 20H169V-1H204Q275 -1 330 28T416 113T447 244V496Q447 556 419 604T343
680T235 708ZM235 689Q288 689 332 664T402 595T428 497Q428 457 413 422T372 359T310 317T235 302Q195 302 160 317T98 359T56 421T41 498Q41 538 56 572T98 633T160 674T235 689Z" />
<glyph unicode=":" horiz-adv-x="111" d="M70 144Q70 152 66 156T53 160Q46 160 41 156T36 144Q36 137 41 133T53 128Q61 128 65 132T70 144ZM70 385Q70 393 66 397T53 401Q46 401 41 397T36 385Q36 378 41 373T53 368Q61 368 65 373T70 385Z" />
<glyph unicode=";" horiz-adv-x="123" d="M35 68L43 63Q43 63 49 67T63 81T76 106T82 141Q82 149 78 153T65 157Q59 157 54 152T49 141Q49 135 52 131T60 124Q59 114 54 98T35 68ZM83 385Q83 393 78 397T67 401Q60 401 55 397T49 385Q49 378 54 373T67 368Q73
368 78 373T83 385Z" />
<glyph unicode="&lt;" horiz-adv-x="350" d="M25 359L303 79L317 95L49 357L317 625L303 637L25 359Z" />
<glyph unicode="=" horiz-adv-x="387" d="M32 394H352V412H32V394ZM32 289H352V308H32V289Z" />
<glyph unicode="&gt;" horiz-adv-x="351" d="M30 625L299 357L30 95L44 79L322 359L44 637L30 625Z" />
<glyph unicode="?" horiz-adv-x="408" d="M25 532H44Q44 573 58 603T95 652T146 681T203 691Q251 691 286 670T341 613T361 537Q361 510 355 488T334 444T298 394Q271 363 250 342T214 300T190 255T182 188V120H200V194Q200 224 205 244T222 281T254 320T305 374Q327
398 343 421T369 473T379 538Q379 579 364 611T324 664T268 697T203 709Q170 710 139 700T82 668T41 612T25 532ZM192 30Q185 30 180 26T174 13Q174 6 179 1T192 -4Q198 -4 203 1T208 13Q208 21 203 25T192 30Z" />
<glyph unicode="@" horiz-adv-x="719" d="M690 474L681 486Q662 473 654 460T643 426T640 372V169Q640 119 614 79T545 11T449 -33T342 -48Q269 -48 215 -30T123 21T68 99T49 199V339Q49 400 70 443T125 512T203 551T292 563Q384 563 432 528T494 443H307Q278
443 251 436T202 411T167 364T154 289V223Q154 192 162 163T191 111T245 75T329 61Q351 61 376 62T425 64T469 66T501 68T513 69V425H575L579 443H510Q503 478 483 504T432 547T367 572T292 581Q228 581 179 562T97 510T47 431T30 334V202Q30 138 52 88T115 4T212
-49T337 -67Q397 -67 453 -51T556 -4T629 71T656 171V387Q656 416 659 431T670 455T690 474ZM302 425H495V87Q495 87 479 86T438 84T383 81T328 79Q249 79 210 117T170 228V286Q170 330 184 361T228 408T302 425Z" />
<glyph unicode="A" horiz-adv-x="544" d="M526 0L280 700H266L20 0H40L139 281H406L505 0H526ZM147 300L273 660L400 300H147Z" />
<glyph unicode="B" horiz-adv-x="504" d="M260 700H41V0H270Q337 0 382 26T451 99T475 209Q475 254 460 293T415 362T338 402Q369 411 391 433T426 483T438 540Q438 593 417 628T355 682T260 700ZM298 412H60V681H256Q314 681 349 663T402 614T419 542Q419 505
403 476T360 429T298 412ZM271 19H60V394H273Q331 394 371 371T434 306T456 209Q456 152 435 109T373 43T271 19Z" />
<glyph unicode="C" horiz-adv-x="421" d="M363 660L371 677Q341 694 306 702T229 710Q179 710 135 692T62 630T34 514V184Q34 117 58 75T126 11T234 -10Q273 -10 313 -2T396 23L390 41Q362 30 335 23T283 12T238 8Q185 8 143 25T77 81T53 186V514Q53 573 73 612T134
671T232 691Q264 691 297 684T363 660Z" />
<glyph unicode="D" horiz-adv-x="496" d="M230 700H41V0H250Q321 0 368 22T438 89T462 200V475Q462 543 436 593T358 672T230 700ZM240 20H60V680H240Q308 680 352 654T419 579T442 468V214Q442 157 429 120T389 60T326 29T240 20Z" />
<glyph unicode="E" horiz-adv-x="403" d="M41 0H373V19H60V394H282L288 412H60V681H375V700H41V0Z" />
<glyph unicode="F" horiz-adv-x="388" d="M375 700H41V0H61V394H282L289 412H61V680H375V700Z" />
<glyph unicode="G" horiz-adv-x="477" d="M363 659L370 676Q349 687 326 694T279 705T228 709Q165 709 122 685T56 614T33 504V189Q33 124 57 80T126 13T236 -10Q280 -10 317 2T383 38T426 91V0H445V300H243L251 281H426V183Q426 141 413 109T374 54T315 21T239
9Q180 9 139 29T75 89T53 187V497Q53 558 71 601T129 667T231 691Q251 691 272 688T317 678T363 659Z" />
<glyph unicode="H" horiz-adv-x="515" d="M453 412H59V700H41V0H59V394H453V0H471V700H453V412Z" />
<glyph unicode="I" horiz-adv-x="151" d="M15 684L102 681V0H120V700H15V684Z" />
<glyph unicode="J" horiz-adv-x="178" d="M137 123V700H33V684L119 681V119Q119 77 108 49T77 4T26 -19L32 -37Q65 -29 86 -14T118 22T133 68T137 123Z" />
<glyph unicode="K" horiz-adv-x="459" d="M60 307V700H41V0H60V280L157 403L417 0H438L170 418L386 700H364L60 307Z" />
<glyph unicode="L" horiz-adv-x="420" d="M41 0H402V20H60V700H41V0Z" />
<glyph unicode="M" horiz-adv-x="621" d="M59 700H41V0H59V648L299 0H317L560 648V0H578V700H560L309 30L59 700Z" />
<glyph unicode="N" horiz-adv-x="577" d="M534 700H517V32L58 700H41V0H58V670L517 0H534V700Z" />
<glyph unicode="O" horiz-adv-x="488" d="M33 508V186Q33 121 61 77T138 11T244 -11Q307 -11 354 12T427 80T453 186V507Q453 605 398 660T245 716Q146 716 90 661T33 508ZM52 185V508Q52 565 74 607T139 673T245 696Q308 696 350 673T413 609T434 510V185Q434
126 409 87T341 28T244 8Q191 8 148 27T78 86T52 185Z" />
<glyph unicode="P" horiz-adv-x="504" d="M291 700H41V0H60V281H284Q335 281 371 294T430 335T465 402T476 494Q476 542 465 580T431 645T374 686T291 700ZM60 300V680H292Q336 680 367 668T418 631T447 573T457 494Q457 447 447 411T416 350T362 313T283 300H60Z" />
<glyph unicode="Q" horiz-adv-x="488" d="M250 43V174H230V43Q230 7 240 -19T269 -62T319 -88T390 -97L392 -76Q356 -76 330 -69T285 -48T259 -11T250 43ZM33 508V186Q33 121 61 77T138 11T244 -11Q307 -11 354 12T427 80T453 186V507Q453 605 398 660T245 716Q146
716 90 661T33 508ZM52 185V508Q52 565 74 607T139 673T245 696Q308 696 350 673T413 609T434 510V185Q434 126 409 87T341 28T244 8Q191 8 148 27T78 86T52 185Z" />
<glyph unicode="R" horiz-adv-x="509" d="M291 700H41V0H60V281H284Q290 281 296 281T308 283T320 284L456 0H476L339 286Q387 296 417 322T461 392T476 494Q476 542 465 580T431 645T374 686T291 700ZM283 300H60V680H292Q336 680 367 668T418 631T447 573T457
494Q457 447 447 411T416 350T362 313T283 300Z" />
<glyph unicode="S" horiz-adv-x="525" d="M428 653L435 672Q411 685 385 693T332 705T277 710Q240 710 201 701T130 673T78 624T58 549Q58 508 75 479T123 430T190 393T267 363T344 333T412 295T459 243T477 169Q477 124 458 93T408 43T338 16T261 7Q218 7 176
18T98 51T34 109L21 99Q48 60 86 36T170 0T262 -12Q304 -12 345 -2T420 29T475 85T496 167Q496 214 479 247T431 303T364 344T287 375T210 404T142 438T95 484T77 549Q77 587 95 614T142 659T206 685T274 693Q300 693 327 689T380 676T428 653Z" />
<glyph unicode="T" horiz-adv-x="409" d="M212 680H406V700H3V680H194V0H212V680Z" />
<glyph unicode="U" horiz-adv-x="498" d="M458 186V700H438V185Q438 126 415 87T349 28T249 8Q194 8 151 28T82 87T56 185V700H38V186Q38 121 64 77T139 11T249 -11Q311 -11 358 11T431 78T458 186Z" />
<glyph unicode="V" horiz-adv-x="508" d="M13 700L243 0H265L492 700H473L255 26L32 700H13Z" />
<glyph unicode="W" horiz-adv-x="729" d="M374 700H353L208 36L36 700H15L198 0H219L364 653L510 0H531L711 700H689L521 35L374 700Z" />
<glyph unicode="X" horiz-adv-x="559" d="M279 382L65 700H43L268 364L25 0H50L279 346L511 0H536L292 364L516 700H492L279 382Z" />
<glyph unicode="Y" horiz-adv-x="515" d="M474 146V700H454V431Q454 389 438 358T395 306T333 275T260 264Q192 264 145 285T74 349T49 459V700H30V454Q30 386 56 340T133 269T255 245Q319 245 359 264T423 308T454 351V153Q454 111 446 85T423 44T393 22T363
11L369 -7Q421 6 447 44T474 146Z" />
<glyph unicode="Z" horiz-adv-x="541" d="M39 700V682L486 681L466 655L27 19V0H514V18L48 19L68 44L508 681V700H39Z" />
<glyph unicode="[" horiz-adv-x="219" d="M61 798L204 800V818H42V-114H204V-97L61 -96V798Z" />
<glyph unicode="\" horiz-adv-x="378" d="M341 -114H361L37 818H16L341 -114Z" />
<glyph unicode="]" horiz-adv-x="220" d="M15 -114H177V818H15V800L158 798V-96L15 -97V-114Z" />
<glyph unicode="^" horiz-adv-x="267" d="M255 781L135 900L11 780L26 765L135 870L240 765L255 781Z" />
<glyph unicode="_" horiz-adv-x="383" d="M33 -20H353V0H33V-20Z" />
<glyph unicode="`" horiz-adv-x="267" d="M92 729Q90 734 87 736T79 740T70 739Q66 737 65 733T63 725T66 716L123 615H144L92 729Z" />
<glyph unicode="a" horiz-adv-x="445" d="M391 346Q361 361 328 374T259 396T187 404Q136 404 105 390T56 352T32 303T25 252V169Q25 124 36 91T73 35T137 1T230 -10Q241 -10 263 -9T310 -7T359 -4T396 -1T410 0V336Q410 389 394 423T349 475T282 501T202 509L201
491Q237 491 271 484T332 461T375 417T391 346ZM391 323V18Q392 18 380 17T349 15T307 12T264 9T230 8Q171 8 134 21T78 58T51 108T43 163V250Q43 278 51 302T75 345T119 374T186 385Q223 385 256 377T322 356T391 323Z" />
<glyph unicode="b" horiz-adv-x="456" d="M60 472V700H41V-1Q40 -1 54 -2T92 -4T140 -7T188 -10T221 -11Q277 -11 316 0T379 34T414 90T426 169V359Q426 383 417 409T388 458T333 495T248 510Q211 510 178 505T115 492T60 472ZM60 17V452Q87 464 116 473T179 488T249
493Q288 493 317 483T367 453T397 409T407 355V162Q407 135 400 108T374 57T317 20T221 7Q204 7 179 8T129 12T84 15T60 17Z" />
<glyph unicode="c" horiz-adv-x="378" d="M341 459L348 478Q316 494 281 502T211 510Q150 510 109 485T48 416T28 314V174Q29 109 53 69T121 9T223 -11Q255 -12 288 -8T350 5L346 25Q341 24 331 22T305 16T270 11T225 9Q185 9 153 18T97 46T60 98T47 176V314Q47
369 66 408T121 469T211 491Q243 492 276 484T341 459Z" />
<glyph unicode="d" horiz-adv-x="457" d="M413 -1V700H394V472Q355 489 310 499T208 510Q158 510 124 496T68 458T38 409T28 359V169Q28 124 39 91T76 35T140 1T234 -11Q245 -11 266 -10T313 -8T362 -5T399 -2T413 -1ZM394 452V18Q395 18 383 17T352 15T310 11T268
8T235 7Q176 7 139 20T83 57T56 107T48 162V355Q48 384 58 409T89 453T138 482T206 493Q262 493 308 482T394 452Z" />
<glyph unicode="e" horiz-adv-x="420" d="M49 133V230L391 247V342Q391 398 369 435T308 491T215 510Q162 510 120 491T54 433T30 339V134Q30 93 43 65T81 20T137 -4T205 -12Q247 -12 287 0T365 35L357 52Q314 28 279 18T203 7Q171 7 143 13T94 34T61 72T49 133ZM371
343V265L49 249V333Q49 384 69 419T126 474T214 493Q262 493 297 477T351 427T371 343Z" />
<glyph unicode="f" horiz-adv-x="247" d="M220 690L224 706Q219 708 213 708T200 709T188 710Q162 710 136 702T87 676T52 627T39 550V0H57V484H203L210 500H57V550Q57 593 69 621T101 665T145 687T194 693Q201 693 207 693T220 690Z" />
<glyph unicode="g" horiz-adv-x="438" d="M399 -64V500H379V453Q354 472 323 484T260 503T205 510Q151 510 112 491T51 436T29 345V176Q29 85 75 37T204 -12Q227 -12 253 -6T305 13T351 42T379 80V-63Q379 -101 369 -124T344 -161T313 -181T285 -194L291 -211Q329
-199 353 -180T388 -133T399 -64ZM379 427V148Q379 112 362 85T316 40T255 14T189 8Q147 11 116 29T67 83T49 169V347Q49 387 60 414T92 457T137 481T189 490Q210 491 236 488T289 477T339 457T379 427Z" />
<glyph unicode="h" d="M61 473V700H41V0H61V455Q80 464 106 472T161 487T220 495Q261 497 292 491T346 467T380 420T392 347V0H411V346Q411 393 400 424T368 473T321 499T265 510T207 510Q181 509 154 503T102 488T61 473Z" />
<glyph unicode="i" horiz-adv-x="96" d="M39 0H57V501H39V0ZM49 710Q42 710 37 706T32 693Q32 686 37 681T49 676Q57 676 61 681T66 693Q66 701 62 705T49 710Z" />
<glyph unicode="j" horiz-adv-x="182" d="M132 -68V501H29V483H113V-67Q113 -105 104 -129T74 -168T19 -197L25 -214Q64 -201 87 -184T121 -138T132 -68ZM140 693Q140 701 136 705T124 709Q117 709 112 705T107 693Q107 686 112 681T124 676Q132 676 136 681T140 693Z" />
<glyph unicode="k" horiz-adv-x="425" d="M174 379L311 508L298 520L61 301V700H41V0H61V277L160 366L385 0H408L174 379Z" />
<glyph unicode="l" horiz-adv-x="105" d="M41 0H61V700H41V0Z" />
<glyph unicode="m" horiz-adv-x="717" d="M664 345V0H681V344Q681 403 665 437T623 487T564 508T500 509Q476 507 447 500T391 481T343 456Q326 483 301 495T246 509T187 509Q162 507 138 502T94 488T57 472V500H38V0H57V453Q76 462 95 470T138 485T192 494Q232
497 262 490T311 465T341 418T351 345V0H371V344Q371 376 366 400T352 442Q372 454 396 465T448 484T504 494Q545 497 575 491T624 466T654 418T664 345Z" />
<glyph unicode="n" d="M389 346V0H407V345Q407 392 395 423T361 473T313 499T259 510T204 510Q181 509 155 504T104 491T57 473V501H38V0H57V454Q76 463 101 471T155 486T213 494Q254 496 286 490T341 466T377 419T389 346Z" />
<glyph unicode="o" horiz-adv-x="427" d="M397 185V316Q397 408 351 460T215 512Q156 512 114 490T49 424T27 316V185Q27 131 47 87T109 17T215 -10Q306 -10 351 43T397 185ZM378 320V185Q378 135 361 95T308 31T215 8Q157 8 120 31T65 95T47 185V320Q47 375 66
413T122 473T215 494Q264 494 300 475T357 417T378 320Z" />
<glyph unicode="p" horiz-adv-x="440" d="M409 176V345Q409 399 388 436T328 492T235 510Q205 509 175 501T115 478T58 447V500H39V-207L58 -213V80Q70 52 99 31T164 -1T235 -12Q318 -12 363 36T409 176ZM392 345V169Q392 118 375 82T325 27T249 4Q216 2 182 10T120
37T75 84T58 148V427Q83 446 115 461T183 486T247 494Q276 493 302 484T349 458T380 412T392 345Z" />
<glyph unicode="q" horiz-adv-x="431" d="M379 81V-208L398 -212V500H379V452Q349 473 318 485T258 504T205 511Q150 514 111 496T50 440T29 346V177Q29 116 49 74T109 11T204 -11Q235 -11 268 -2T331 27T379 81ZM379 428V149Q379 112 363 85T321 41T263 15T202
6Q156 6 122 25T68 81T49 170V349Q49 391 60 418T92 462T137 486T189 494Q215 495 243 490T298 474T346 452T379 428Z" />
<glyph unicode="r" horiz-adv-x="330" d="M309 492L310 508Q300 511 289 513T265 515Q222 515 171 498T57 455V501H38V0H57V433Q94 450 124 462T178 481T223 492T263 496Q274 496 286 495T309 492Z" />
<glyph unicode="s" horiz-adv-x="406" d="M325 461L335 476Q335 477 319 485T274 503T209 512Q181 512 153 505T102 484T64 447T50 392Q50 357 67 334T111 294T172 266T238 241T298 213T343 174T360 116Q360 87 346 66T310 30T259 9T202 2Q168 2 139 10T84 35T38
81L25 68Q60 24 104 5T203 -15Q234 -15 265 -7T321 17T362 58T378 119Q378 156 361 181T317 223T256 252T190 277T130 304T85 340T68 394Q68 421 80 440T114 471T159 488T208 494Q231 494 252 490T292 478T325 461Z" />
<glyph unicode="t" horiz-adv-x="215" d="M59 132V482H207L216 500H59V700H39V132Q39 74 64 39T144 -13L151 4Q118 16 98 31T68 71T59 132Z" />
<glyph unicode="u" horiz-adv-x="444" d="M385 98V0H405V500H385V169Q385 139 375 111T344 61T294 26T229 9Q175 6 136 19T76 66T54 156V500H34V157Q34 110 47 79T81 29T129 2T181 -8T229 -9Q263 -7 294 6T349 42T385 98Z" />
<glyph unicode="v" horiz-adv-x="424" d="M17 500L203 0H216L402 500H382L209 36L36 500H17Z" />
<glyph unicode="w" horiz-adv-x="670" d="M337 500H326L192 36L38 500H18L187 0H199L331 454L466 0H479L647 500H627L472 36L337 500Z" />
<glyph unicode="x" horiz-adv-x="391" d="M199 265L59 500H36L188 251L29 0H51L199 234L339 0H360L210 250L363 500H341L199 265Z" />
<glyph unicode="y" horiz-adv-x="461" d="M430 501L417 512Q405 500 399 488T390 459T387 419V170Q387 140 376 112T344 62T294 27T229 10Q189 7 157 14T101 38T66 85T54 157V501H34V158Q34 99 54 65T104 14T168 -6T230 -8Q264 -6 295 7T351 43T387 100V-66Q387
-95 382 -115T365 -150T336 -175T293 -196L299 -213Q337 -200 360 -183T393 -137T404 -67V418Q404 452 409 470T430 501Z" />
<glyph unicode="z" horiz-adv-x="422" d="M376 501H38V484L352 483L29 19V0H396V18L52 19L376 483V501Z" />
<glyph unicode="{" horiz-adv-x="236" d="M125 517V630Q125 673 134 703T157 753T185 783T209 798T220 803L217 823Q216 822 205 817T177 801T145 768T118 713T107 630V517Q107 496 104 476T96 436Q90 417 76 398T37 361L26 353L37 345Q61 327 75 309T96 270Q101
251 104 231T107 190V76Q107 28 118 -6T145 -62T177 -96T204 -113T217 -118L221 -99Q220 -99 210 -95T186 -79T158 -49T135 2T125 76V190Q125 211 122 231T114 273Q104 314 56 353Q80 373 94 393T114 433Q119 454 122 475T125 517Z" />
<glyph unicode="|" horiz-adv-x="104" d="M42 -114H60V818H42V-114Z" />
<glyph unicode="}" horiz-adv-x="239" d="M20 823L15 803Q16 803 26 799T51 784T80 754T103 704T113 630V517Q113 489 117 461T135 407T180 353Q150 327 136 300T117 246T113 190V76Q113 33 104 2T80 -48T52 -79T27 -94T15 -99L19 -118Q20 -118 31 -113T59 -96T92
-62T119 -6T130 76V190Q130 218 134 244T152 295T199 345L210 353L199 361Q167 385 153 410T134 462T130 517V630Q130 678 120 711T93 767T61 801T33 817T20 823Z" />
<glyph unicode="~" horiz-adv-x="267" d="M279 308L269 323Q253 308 237 303T205 298Q183 299 161 309T115 328T65 338Q46 338 27 332T-12 305L-1 288Q16 305 32 311T63 318Q86 318 109 308T158 289T209 279Q226 279 243 285T279 308Z" />
<glyph unicode="&#xa0;" horiz-adv-x="280" />
<glyph unicode="&#xa1;" horiz-adv-x="117" d="M73 18L65 590H50L41 18Q41 11 46 6T58 0Q66 0 69 4T73 18ZM74 693Q74 701 69 705T58 710Q51 710 46 706T40 693Q40 686 45 681T58 676Q64 676 69 681T74 693Z" />
<glyph unicode="&#xa2;" horiz-adv-x="378" d="M199 -114H216V623H199V-114ZM341 459L348 478Q316 494 281 502T211 510Q150 510 109 485T48 416T28 314V174Q29 109 53 69T121 9T223 -11Q255 -12 288 -8T350 5L346 25Q341 24 331 22T305 16T270 11T225 9Q185 9
153 18T97 46T60 98T47 176V314Q47 369 66 408T121 469T211 491Q243 492 276 484T341 459Z" />
<glyph unicode="&#xa3;" horiz-adv-x="425" d="M137 19H33V0H392V19H225Q272 39 296 76T319 164Q318 206 298 248T242 330L201 376H392V397H182L161 421Q143 443 125 466T94 516T82 572Q83 604 98 630T141 672T204 691Q245 693 283 683T353 652L359 669Q334 683
306 692T251 706T197 707Q170 704 146 694T103 665T74 623T63 570Q63 529 86 490T145 409L156 397H33V376H175L227 317Q250 292 265 266T289 213T298 162Q298 126 286 99T253 54T202 28T137 19Z" />
<glyph unicode="&#xa4;" horiz-adv-x="444" d="M330 379L411 461L398 474L318 393Q299 410 274 419T222 429Q193 429 169 420T125 393L44 474L31 461L112 379Q96 360 86 336T76 284Q76 256 86 232T112 187L31 107L44 93L125 174Q145 158 169 148T222 138Q249 138
273 148T316 174L398 93L411 107L330 187Q347 207 356 231T366 284Q366 311 357 335T330 379ZM222 157Q187 157 158 174T112 219T95 284Q95 319 112 347T158 392T222 409Q257 409 285 392T330 347T347 284Q347 248 330 220T285 174T222 157Z" />
<glyph unicode="&#xa5;" horiz-adv-x="516" d="M265 342L493 700H470L256 362L44 700H21L247 342V0H265V342ZM98 218H418V236H98V218ZM98 113H418V132H98V113Z" />
<glyph unicode="&#xa7;" horiz-adv-x="426" d="M322 648L332 663Q331 664 315 672T271 690T206 699Q178 699 150 692T99 671T61 634T47 579Q47 546 62 523T103 484Q79 469 65 447T50 392Q50 357 67 334T111 294T172 266T238 241T298 213T343 174T360 116Q360 87
346 66T310 30T259 9T202 2Q168 2 139 10T84 35T38 81L25 68Q60 24 104 5T203 -15Q234 -15 265 -7T321 17T362 58T378 119Q378 151 365 173T330 213Q350 229 362 252T375 306Q375 343 358 368T314 410T253 439T187 464T126 491T82 527T65 581Q65 608 77 627T110
658T156 675T205 681Q227 681 248 677T289 665T322 648ZM315 223Q288 241 255 253T189 278T129 304T85 340T68 394Q68 414 74 429T93 455T120 474Q147 460 179 449T242 425T300 398T341 359T357 303Q357 277 346 257T315 223Z" />
<glyph unicode="&#xa8;" horiz-adv-x="267" d="M55 725Q47 725 43 721T38 709Q38 701 42 697T55 692Q63 692 67 696T71 709Q71 717 67 721T55 725ZM214 725Q206 725 202 721T197 709Q197 701 201 697T214 692Q222 692 226 696T230 709Q230 717 226 721T214 725Z" />
<glyph unicode="&#xa9;" horiz-adv-x="695" d="M663 192V320Q663 385 640 433T574 515T473 564T346 581Q277 581 220 565T120 515T54 434T30 320V192Q30 128 53 80T119 -2T219 -51T346 -68Q415 -68 473 -52T573 -2T639 79T663 192ZM645 317V195Q645 134 623 88T561
11T466 -36T346 -52Q281 -52 227 -36T132 11T70 88T48 195V317Q48 378 70 424T132 501T226 547T346 563Q411 563 466 548T561 501T623 424T645 317ZM494 405L502 421Q471 438 436 446T359 455Q309 455 272 440T210 395Q188 368 177 332T166 250Q166 196 182 158T231
95Q256 77 289 68T364 58Q403 58 444 66T527 91L521 109Q499 100 479 94T439 83T402 77T371 75Q331 75 300 83T245 108Q217 130 202 166T187 255Q187 296 197 328T228 384Q250 409 284 422T363 436Q378 436 393 434T425 429T459 419T494 405Z" />
<glyph unicode="&#xaa;" horiz-adv-x="326" d="M291 390Q291 390 291 407T291 448T291 497T291 538T291 555Q291 595 283 624T257 671Q246 684 227 692T183 705T127 709L124 693Q166 692 195 685T243 660Q258 647 265 624T273 570Q231 600 193 615T121 630Q85
630 63 612T32 568T22 517Q22 494 27 470T50 424T101 391T191 379Q207 381 231 383T291 390ZM272 549V405Q247 402 221 400T170 398T124 402T87 415Q69 427 59 441T45 474T41 514Q41 532 47 555T72 596T122 614Q154 614 191 598T272 549Z" />
<glyph unicode="&#xab;" horiz-adv-x="509" d="M280 267L453 97L439 79L251 267L439 455L454 441L280 267ZM61 267L233 97L218 79L31 267L218 455L234 441L61 267Z" />
<glyph unicode="&#xad;" horiz-adv-x="392" d="M33 394H353V414H33V394Z" />
<glyph unicode="&#xae;" horiz-adv-x="695" d="M663 192V320Q663 385 640 433T574 515T473 564T346 581Q277 581 220 565T120 515T54 434T30 320V192Q30 128 53 80T119 -2T219 -51T346 -68Q415 -68 473 -52T573 -2T639 79T663 192ZM645 317V195Q645 134 623 88T561
11T466 -36T346 -52Q281 -52 227 -36T132 11T70 88T48 195V317Q48 378 70 424T132 501T226 547T346 563Q411 563 466 548T561 501T623 424T645 317ZM422 443H187V59H207V213H420L504 59H524L441 216Q482 219 505 243T528 329Q528 363 521 385T499 419T466 437T422
443ZM430 233H207V423H430Q459 423 476 413T502 383T510 328Q510 279 493 256T430 233Z" />
<glyph unicode="&#xaf;" horiz-adv-x="267" d="M244 677H23V658H244V677Z" />
<glyph unicode="&#xb0;" horiz-adv-x="348" d="M319 565Q319 605 300 638T247 690T174 710Q134 710 101 691T47 638T27 565Q27 525 47 492T100 439T174 419Q214 419 247 439T299 492T319 565ZM174 691Q209 691 237 674T282 629T299 565Q299 531 282 503T237 457T174
439Q139 439 110 456T64 502T47 565Q47 600 64 628T110 674T174 691Z" />
<glyph unicode="&#xb1;" horiz-adv-x="381" d="M30 397H181V247H29V227H349V247H200V397H350V415H200V565H181V415H30V397Z" />
<glyph unicode="&#xb4;" horiz-adv-x="267" d="M200 688Q202 693 202 697T202 706T196 712Q192 714 188 714T181 711T175 703L123 588H144L200 688Z" />
<glyph unicode="&#xb5;" horiz-adv-x="462" d="M409 70V509L390 506V132Q390 90 369 61T313 17T236 2Q173 2 134 26T76 85T57 152V500H39V-206L57 -211V80Q71 55 89 37T131 8T182 -9T239 -14Q275 -14 305 -4T357 24T390 62Q390 40 396 27T411 7T420 -2L431 10Q422
19 418 27T411 45T409 70Z" />
<glyph unicode="&#xb6;" horiz-adv-x="605" d="M220 283H443V1H463V682H542V1H562V702H213Q166 702 131 688T74 648T40 583T29 495Q29 443 40 404T74 337T133 297T220 283ZM212 682H443V301H222Q176 301 143 314T89 351T57 412T47 495Q47 555 64 596T118 660T212 682Z" />
<glyph unicode="&#xb7;" horiz-adv-x="102" d="M34 273Q34 266 39 261T51 256Q59 256 63 261T68 273Q68 281 64 285T51 290Q44 290 39 286T34 273Z" />
<glyph unicode="&#xb8;" horiz-adv-x="267" d="M151 0H130L101 -46V-67Q112 -67 122 -67T141 -67T158 -67Q190 -67 210 -87T230 -137Q230 -168 216 -183T184 -202T158 -208Q133 -210 111 -207T76 -201T63 -197L57 -214Q75 -218 89 -221T120 -226T159 -227Q198
-225 223 -201T249 -137Q249 -99 225 -73T155 -46Q151 -46 146 -46T124 -46L151 0Z" />
<glyph unicode="&#xba;" horiz-adv-x="340" d="M305 503V586Q305 645 271 678T172 711Q107 711 71 679T35 586V503Q35 469 49 441T94 396T172 379Q238 379 271 413T305 503ZM286 587V505Q286 459 260 429T172 398Q131 398 105 412T67 450T54 505V587Q54 637 83
664T172 692Q207 692 232 681T272 646T286 587Z" />
<glyph unicode="&#xbb;" horiz-adv-x="483" d="M205 267L32 97L46 79L234 267L46 455L31 441L205 267ZM424 267L252 97L267 79L454 267L267 455L251 441L424 267Z" />
<glyph unicode="&#xbf;" horiz-adv-x="412" d="M382 163H362Q362 122 349 92T313 42T262 13T205 3Q158 3 122 24T66 81T46 157Q46 184 52 208T71 255T109 304Q136 334 158 355T195 396T218 441T226 505V575H207V501Q207 471 202 451T185 414T153 375T102 320Q81
298 64 274T38 222T28 157Q28 115 43 84T84 30T142 -3T207 -15Q240 -15 271 -5T327 27T367 83T382 163ZM216 697Q209 697 204 693T199 681Q199 674 204 669T216 664Q224 664 228 669T233 681Q233 689 229 693T216 697Z" />
<glyph unicode="&#xc0;" horiz-adv-x="544" d="M232 879Q230 884 227 886T219 890T210 889Q206 887 205 883T203 875T206 866L263 765H284L232 879ZM526 0L280 700H266L20 0H40L139 281H406L505 0H526ZM147 300L273 660L400 300H147Z" />
<glyph unicode="&#xc1;" horiz-adv-x="544" d="M349 864Q352 869 352 873T352 882T345 888Q341 890 337 890T330 887T324 879L272 764H293L349 864ZM526 0L280 700H266L20 0H40L139 281H406L505 0H526ZM147 300L273 660L400 300H147Z" />
<glyph unicode="&#xc2;" horiz-adv-x="544" d="M394 762L273 881L150 762L164 748L273 851L379 748L394 762ZM526 0L280 700H266L20 0H40L139 281H406L505 0H526ZM147 300L273 660L400 300H147Z" />
<glyph unicode="&#xc3;" horiz-adv-x="544" d="M360 856V847Q360 831 355 817T329 803Q320 803 312 807T297 816Q287 823 279 829T260 842Q245 853 227 858T190 853Q180 848 175 839T167 818T165 795V787H185V795Q185 806 187 817T198 835Q207 841 218 839T239
832Q250 825 262 817T287 800Q298 793 308 788T331 783Q359 783 369 804T380 847V856H360ZM526 0L280 700H266L20 0H40L139 281H406L505 0H526ZM147 300L273 660L400 300H147Z" />
<glyph unicode="&#xc4;" horiz-adv-x="544" d="M193 835Q185 835 181 831T176 819Q176 811 180 807T193 802Q201 802 205 806T209 819Q209 827 205 831T193 835ZM352 835Q344 835 340 831T335 819Q335 811 339 807T352 802Q360 802 364 806T368 819Q368 827 364
831T352 835ZM526 0L280 700H266L20 0H40L139 281H406L505 0H526ZM147 300L273 660L400 300H147Z" />
<glyph unicode="&#xc5;" horiz-adv-x="544" d="M273 915Q242 915 216 900T174 860T158 802Q158 770 173 744T215 703T273 688Q304 688 329 703T370 744T386 802Q386 834 371 859T330 900T273 915ZM273 896Q311 896 339 869Q367 839 367 802Q367 783 360 766T339
734Q325 721 309 714T273 707Q254 707 237 714T207 733Q194 746 186 764T177 802Q177 822 184 838T205 869Q219 883 236 889T273 896ZM526 0L280 700H266L20 0H40L139 281H406L505 0H526ZM147 300L273 660L400 300H147Z" />
<glyph unicode="&#xc6;" horiz-adv-x="744" d="M383 0H716V20H403V394H624L632 414H403V680H716V700H291L19 0H41L150 280H383V0ZM157 300L303 680H383V300H157Z" />
<glyph unicode="&#xc7;" horiz-adv-x="421" d="M229 0H208L179 -46V-67Q190 -67 200 -67T219 -67T236 -67Q268 -67 288 -87T308 -137Q308 -168 294 -183T262 -202T236 -208Q211 -210 189 -207T154 -201T141 -197L135 -214Q153 -218 167 -221T198 -226T237 -227Q276
-225 301 -201T327 -137Q327 -99 303 -73T233 -46Q229 -46 224 -46T202 -46L229 0ZM363 660L371 677Q341 694 306 702T229 710Q179 710 135 692T62 630T34 514V184Q34 117 58 75T126 11T234 -10Q273 -10 313 -2T396 23L390 41Q362 30 335 23T283 12T238 8Q185 8
143 25T77 81T53 186V514Q53 573 73 612T134 671T232 691Q264 691 297 684T363 660Z" />
<glyph unicode="&#xc8;" horiz-adv-x="403" d="M160 879Q158 884 155 886T147 890T138 889Q134 887 133 883T131 875T134 866L191 765H212L160 879ZM41 0H373V19H60V394H282L288 412H60V681H375V700H41V0Z" />
<glyph unicode="&#xc9;" horiz-adv-x="403" d="M268 862Q271 867 271 871T271 880T264 886Q260 888 256 888T249 885T243 877L191 762H212L268 862ZM41 0H373V19H60V394H282L288 412H60V681H375V700H41V0Z" />
<glyph unicode="&#xca;" horiz-adv-x="403" d="M325 762L204 881L81 762L95 748L204 851L310 748L325 762ZM41 0H373V19H60V394H282L288 412H60V681H375V700H41V0Z" />
<glyph unicode="&#xcb;" horiz-adv-x="403" d="M123 835Q115 835 111 831T106 819Q106 811 110 807T123 802Q131 802 135 806T139 819Q139 827 135 831T123 835ZM282 835Q274 835 270 831T265 819Q265 811 269 807T282 802Q290 802 294 806T298 819Q298 827 294
831T282 835ZM41 0H373V19H60V394H282L288 412H60V681H375V700H41V0Z" />
<glyph unicode="&#xcc;" horiz-adv-x="163" d="M67 879Q65 884 62 886T54 890T45 889Q41 887 40 883T38 875T41 866L98 765H119L67 879ZM15 684L102 681V0H120V700H15V684Z" />
<glyph unicode="&#xcd;" horiz-adv-x="163" d="M179 864Q182 869 182 873T182 882T175 888Q171 890 167 890T160 887T154 879L102 764H123L179 864ZM15 684L102 681V0H120V700H15V684Z" />
<glyph unicode="&#xce;" horiz-adv-x="163" d="M231 762L110 881L-13 762L1 748L110 851L216 748L231 762ZM15 684L102 681V0H120V700H15V684Z" />
<glyph unicode="&#xcf;" horiz-adv-x="163" d="M281 835Q273 835 269 831T264 819Q264 811 268 807T281 802Q289 802 293 806T297 819Q297 827 293 831T281 835ZM440 835Q432 835 428 831T423 819Q423 811 427 807T440 802Q448 802 452 806T456 819Q456 827 452
831T440 835ZM15 684L102 681V0H120V700H15V684Z" />
<glyph unicode="&#xd0;" horiz-adv-x="496" d="M50 394H282L288 412H50V394ZM230 700H41V0H250Q321 0 368 22T438 89T462 200V475Q462 543 436 593T358 672T230 700ZM240 20H60V680H240Q308 680 352 654T419 579T442 468V214Q442 157 429 120T389 60T326 29T240 20Z" />
<glyph unicode="&#xd1;" horiz-adv-x="577" d="M375 856V847Q375 831 370 817T344 803Q335 803 327 807T312 816Q302 823 294 829T275 842Q260 853 242 858T205 853Q195 848 190 839T182 818T180 795V787H200V795Q200 806 202 817T213 835Q222 841 233 839T254
832Q265 825 277 817T302 800Q313 793 323 788T346 783Q374 783 384 804T395 847V856H375ZM534 700H517V32L58 700H41V0H58V670L517 0H534V700Z" />
<glyph unicode="&#xd2;" horiz-adv-x="488" d="M202 879Q200 884 197 886T189 890T180 889Q176 887 175 883T173 875T176 866L233 765H254L202 879ZM33 508V186Q33 121 61 77T138 11T244 -11Q307 -11 354 12T427 80T453 186V507Q453 605 398 660T245 716Q146 716
90 661T33 508ZM52 185V508Q52 565 74 607T139 673T245 696Q308 696 350 673T413 609T434 510V185Q434 126 409 87T341 28T244 8Q191 8 148 27T78 86T52 185Z" />
<glyph unicode="&#xd3;" horiz-adv-x="488" d="M310 864Q313 869 313 873T313 882T306 888Q302 890 298 890T291 887T285 879L233 764H254L310 864ZM33 508V186Q33 121 61 77T138 11T244 -11Q307 -11 354 12T427 80T453 186V507Q453 605 398 660T245 716Q146 716
90 661T33 508ZM52 185V508Q52 565 74 607T139 673T245 696Q308 696 350 673T413 609T434 510V185Q434 126 409 87T341 28T244 8Q191 8 148 27T78 86T52 185Z" />
<glyph unicode="&#xd4;" horiz-adv-x="488" d="M365 762L244 881L121 762L135 748L244 851L350 748L365 762ZM33 508V186Q33 121 61 77T138 11T244 -11Q307 -11 354 12T427 80T453 186V507Q453 605 398 660T245 716Q146 716 90 661T33 508ZM52 185V508Q52 565
74 607T139 673T245 696Q308 696 350 673T413 609T434 510V185Q434 126 409 87T341 28T244 8Q191 8 148 27T78 86T52 185Z" />
<glyph unicode="&#xd5;" horiz-adv-x="488" d="M331 856V847Q331 831 326 817T300 803Q291 803 283 807T268 816Q258 823 250 829T231 842Q216 853 198 858T161 853Q151 848 146 839T138 818T136 795V787H156V795Q156 806 158 817T169 835Q178 841 189 839T210
832Q221 825 233 817T258 800Q269 793 279 788T302 783Q330 783 340 804T351 847V856H331ZM33 508V186Q33 121 61 77T138 11T244 -11Q307 -11 354 12T427 80T453 186V507Q453 605 398 660T245 716Q146 716 90 661T33 508ZM52 185V508Q52 565 74 607T139 673T245
696Q308 696 350 673T413 609T434 510V185Q434 126 409 87T341 28T244 8Q191 8 148 27T78 86T52 185Z" />
<glyph unicode="&#xd6;" horiz-adv-x="488" d="M164 835Q156 835 152 831T147 819Q147 811 151 807T164 802Q172 802 176 806T180 819Q180 827 176 831T164 835ZM323 835Q315 835 311 831T306 819Q306 811 310 807T323 802Q331 802 335 806T339 819Q339 827 335
831T323 835ZM33 508V186Q33 121 61 77T138 11T244 -11Q307 -11 354 12T427 80T453 186V507Q453 605 398 660T245 716Q146 716 90 661T33 508ZM52 185V508Q52 565 74 607T139 673T245 696Q308 696 350 673T413 609T434 510V185Q434 126 409 87T341 28T244 8Q191
8 148 27T78 86T52 185Z" />
<glyph unicode="&#xd7;" horiz-adv-x="323" d="M162 344L44 486L31 474L149 330L33 191L47 180L161 316L272 180L289 194L175 331L291 472L277 485L162 344Z" />
<glyph unicode="&#xd8;" horiz-adv-x="488" d="M78 0H98L413 700H392L78 0ZM33 508V186Q33 121 61 77T138 11T244 -11Q307 -11 354 12T427 80T453 186V507Q453 605 398 660T245 716Q146 716 90 661T33 508ZM52 185V508Q52 565 74 607T139 673T245 696Q308 696
350 673T413 609T434 510V185Q434 126 409 87T341 28T244 8Q191 8 148 27T78 86T52 185Z" />
<glyph unicode="&#xd9;" horiz-adv-x="498" d="M206 879Q204 884 201 886T193 890T184 889Q180 887 179 883T177 875T180 866L237 765H258L206 879ZM458 186V700H438V185Q438 126 415 87T349 28T249 8Q194 8 151 28T82 87T56 185V700H38V186Q38 121 64 77T139
11T249 -11Q311 -11 358 11T431 78T458 186Z" />
<glyph unicode="&#xda;" horiz-adv-x="498" d="M314 848Q317 853 317 857T317 866T310 872Q306 874 302 874T295 871T289 863L237 748H258L314 848ZM458 186V700H438V185Q438 126 415 87T349 28T249 8Q194 8 151 28T82 87T56 185V700H38V186Q38 121 64 77T139
11T249 -11Q311 -11 358 11T431 78T458 186Z" />
<glyph unicode="&#xdb;" horiz-adv-x="498" d="M370 762L249 881L126 762L140 748L249 851L355 748L370 762ZM458 186V700H438V185Q438 126 415 87T349 28T249 8Q194 8 151 28T82 87T56 185V700H38V186Q38 121 64 77T139 11T249 -11Q311 -11 358 11T431 78T458 186Z" />
<glyph unicode="&#xdc;" horiz-adv-x="498" d="M170 835Q162 835 158 831T153 819Q153 811 157 807T170 802Q178 802 182 806T186 819Q186 827 182 831T170 835ZM329 835Q321 835 317 831T312 819Q312 811 316 807T329 802Q337 802 341 806T345 819Q345 827 341
831T329 835ZM458 186V700H438V185Q438 126 415 87T349 28T249 8Q194 8 151 28T82 87T56 185V700H38V186Q38 121 64 77T139 11T249 -11Q311 -11 358 11T431 78T458 186Z" />
<glyph unicode="&#xdd;" horiz-adv-x="515" d="M323 848Q326 853 326 857T326 866T319 872Q315 874 311 874T304 871T298 863L246 748H267L323 848ZM474 146V700H454V431Q454 389 438 358T395 306T333 275T260 264Q192 264 145 285T74 349T49 459V700H30V454Q30
386 56 340T133 269T255 245Q319 245 359 264T423 308T454 351V153Q454 111 446 85T423 44T393 22T363 11L369 -7Q421 6 447 44T474 146Z" />
<glyph unicode="&#xde;" horiz-adv-x="504" d="M291 612H60L59 700H41V0H60V193H284Q335 193 371 206T430 247T465 314T476 406Q476 454 465 492T431 557T374 598T291 612ZM60 212V592H292Q336 592 367 580T418 543T447 485T457 406Q457 359 447 323T416 262T362
225T283 212H60Z" />
<glyph unicode="&#xdf;" horiz-adv-x="464" d="M59 0V541Q59 588 71 619T107 665T167 681Q199 681 220 667T254 630T267 584Q268 564 260 547T234 518T190 507Q182 491 179 476T175 447Q175 414 192 389T237 343T296 302T355 259T400 207T418 138Q418 119 412
97T391 54T348 21T276 8Q247 8 224 14T183 27T156 42T144 50L134 36Q138 34 155 22T204 0T283 -11Q321 -11 349 1T398 33T428 80T438 136Q438 179 421 210T377 266T318 310T260 349T214 392T193 444Q192 455 194 468T204 494Q205 494 206 494T208 494T211 494T215
494Q239 497 254 510T277 544T285 585Q285 612 271 638T230 682T166 700Q143 700 121 693T80 667T50 619T39 541V0H59Z" />
<glyph unicode="&#xe0;" horiz-adv-x="445" d="M179 924Q177 929 174 931T166 935T157 934Q153 932 152 928T150 920T153 911L210 810H231L179 924ZM391 346Q361 361 328 374T259 396T187 404Q136 404 105 390T56 352T32 303T25 252V169Q25 124 36 91T73 35T137
1T230 -10Q241 -10 263 -9T310 -7T359 -4T396 -1T410 0V336Q410 389 394 423T349 475T282 501T202 509L201 491Q237 491 271 484T332 461T375 417T391 346ZM391 323V18Q392 18 380 17T349 15T307 12T264 9T230 8Q171 8 134 21T78 58T51 108T43 163V250Q43 278 51
302T75 345T119 374T186 385Q223 385 256 377T322 356T391 323Z" />
<glyph unicode="&#xe1;" horiz-adv-x="445" d="M281 909Q284 914 284 918T284 927T277 933Q273 935 269 935T262 932T256 924L204 809H225L281 909ZM391 346Q361 361 328 374T259 396T187 404Q136 404 105 390T56 352T32 303T25 252V169Q25 124 36 91T73 35T137
1T230 -10Q241 -10 263 -9T310 -7T359 -4T396 -1T410 0V336Q410 389 394 423T349 475T282 501T202 509L201 491Q237 491 271 484T332 461T375 417T391 346ZM391 323V18Q392 18 380 17T349 15T307 12T264 9T230 8Q171 8 134 21T78 58T51 108T43 163V250Q43 278 51
302T75 345T119 374T186 385Q223 385 256 377T322 356T391 323Z" />
<glyph unicode="&#xe2;" horiz-adv-x="445" d="M345 835L224 954L101 835L115 821L224 924L330 821L345 835ZM391 346Q361 361 328 374T259 396T187 404Q136 404 105 390T56 352T32 303T25 252V169Q25 124 36 91T73 35T137 1T230 -10Q241 -10 263 -9T310 -7T359
-4T396 -1T410 0V336Q410 389 394 423T349 475T282 501T202 509L201 491Q237 491 271 484T332 461T375 417T391 346ZM391 323V18Q392 18 380 17T349 15T307 12T264 9T230 8Q171 8 134 21T78 58T51 108T43 163V250Q43 278 51 302T75 345T119 374T186 385Q223 385
256 377T322 356T391 323Z" />
<glyph unicode="&#xe3;" horiz-adv-x="445" d="M311 917V908Q311 892 306 878T280 864Q271 864 263 868T248 877Q238 884 230 890T211 903Q196 914 178 919T141 914Q131 909 126 900T118 879T116 856V848H136V856Q136 867 138 878T149 896Q158 902 169 900T190
893Q201 886 213 878T238 861Q249 854 259 849T282 844Q310 844 320 865T331 908V917H311ZM391 346Q361 361 328 374T259 396T187 404Q136 404 105 390T56 352T32 303T25 252V169Q25 124 36 91T73 35T137 1T230 -10Q241 -10 263 -9T310 -7T359 -4T396 -1T410 0V336Q410
389 394 423T349 475T282 501T202 509L201 491Q237 491 271 484T332 461T375 417T391 346ZM391 323V18Q392 18 380 17T349 15T307 12T264 9T230 8Q171 8 134 21T78 58T51 108T43 163V250Q43 278 51 302T75 345T119 374T186 385Q223 385 256 377T322 356T391 323Z"
/>
<glyph unicode="&#xe4;" horiz-adv-x="445" d="M145 896Q137 896 133 892T128 880Q128 872 132 868T145 863Q153 863 157 867T161 880Q161 888 157 892T145 896ZM304 896Q296 896 292 892T287 880Q287 872 291 868T304 863Q312 863 316 867T320 880Q320 888 316
892T304 896ZM391 346Q361 361 328 374T259 396T187 404Q136 404 105 390T56 352T32 303T25 252V169Q25 124 36 91T73 35T137 1T230 -10Q241 -10 263 -9T310 -7T359 -4T396 -1T410 0V336Q410 389 394 423T349 475T282 501T202 509L201 491Q237 491 271 484T332
461T375 417T391 346ZM391 323V18Q392 18 380 17T349 15T307 12T264 9T230 8Q171 8 134 21T78 58T51 108T43 163V250Q43 278 51 302T75 345T119 374T186 385Q223 385 256 377T322 356T391 323Z" />
<glyph unicode="&#xe5;" horiz-adv-x="445" d="M213 972Q182 972 156 957T114 917T98 859Q98 827 113 801T155 760T213 745Q244 745 269 760T310 801T326 859Q326 891 311 916T270 957T213 972ZM213 953Q251 953 279 926Q307 896 307 859Q307 840 300 823T279
791Q265 778 249 771T213 764Q194 764 177 771T147 790Q134 803 126 821T117 859Q117 879 124 895T145 926Q159 940 176 946T213 953ZM391 346Q361 361 328 374T259 396T187 404Q136 404 105 390T56 352T32 303T25 252V169Q25 124 36 91T73 35T137 1T230 -10Q241
-10 263 -9T310 -7T359 -4T396 -1T410 0V336Q410 389 394 423T349 475T282 501T202 509L201 491Q237 491 271 484T332 461T375 417T391 346ZM391 323V18Q392 18 380 17T349 15T307 12T264 9T230 8Q171 8 134 21T78 58T51 108T43 163V250Q43 278 51 302T75 345T119
374T186 385Q223 385 256 377T322 356T391 323Z" />
<glyph unicode="&#xe6;" horiz-adv-x="786" d="M391 346Q361 361 328 374T259 396T187 404Q136 404 105 390T56 352T32 303T25 252V169Q25 124 36 91T73 35T137 1T230 -10Q241 -10 263 -9T310 -7T359 -4T396 -1T410 0V336Q410 389 394 423T349 475T282 501T202
509L201 491Q237 491 271 484T332 461T375 417T391 346ZM391 323V18Q392 18 380 17T349 15T307 12T264 9T230 8Q171 8 134 21T78 58T51 108T43 163V250Q43 278 51 302T75 345T119 374T186 385Q223 385 256 377T322 356T391 323ZM413 133V230L755 247V342Q755 398
733 435T672 491T579 510Q526 510 484 491T418 433T394 339V134Q394 93 407 65T445 20T501 -4T569 -12Q611 -12 651 0T729 35L721 52Q678 28 643 18T567 7Q535 7 507 13T458 34T425 72T413 133ZM735 343V265L413 249V333Q413 384 433 419T490 474T578 493Q626 493
661 477T715 427T735 343Z" />
<glyph unicode="&#xe7;" horiz-adv-x="378" d="M206 5H185L156 -41V-62Q167 -62 177 -62T196 -62T213 -62Q245 -62 265 -82T285 -132Q285 -163 271 -178T239 -197T213 -203Q188 -205 166 -202T131 -196T118 -192L112 -209Q130 -213 144 -216T175 -221T214 -222Q253
-220 278 -196T304 -132Q304 -94 280 -68T210 -41Q206 -41 201 -41T179 -41L206 5ZM341 459L348 478Q316 494 281 502T211 510Q150 510 109 485T48 416T28 314V174Q29 109 53 69T121 9T223 -11Q255 -12 288 -8T350 5L346 25Q341 24 331 22T305 16T270 11T225 9Q185
9 153 18T97 46T60 98T47 176V314Q47 369 66 408T121 469T211 491Q243 492 276 484T341 459Z" />
<glyph unicode="&#xe8;" horiz-adv-x="420" d="M168 925Q166 930 163 932T155 936T146 935Q142 933 141 929T139 921T142 912L199 811H220L168 925ZM49 133V230L391 247V342Q391 398 369 435T308 491T215 510Q162 510 120 491T54 433T30 339V134Q30 93 43 65T81
20T137 -4T205 -12Q247 -12 287 0T365 35L357 52Q314 28 279 18T203 7Q171 7 143 13T94 34T61 72T49 133ZM371 343V265L49 249V333Q49 384 69 419T126 474T214 493Q262 493 297 477T351 427T371 343Z" />
<glyph unicode="&#xe9;" horiz-adv-x="420" d="M275 909Q278 914 278 918T278 927T271 933Q267 935 263 935T256 932T250 924L198 809H219L275 909ZM49 133V230L391 247V342Q391 398 369 435T308 491T215 510Q162 510 120 491T54 433T30 339V134Q30 93 43 65T81
20T137 -4T205 -12Q247 -12 287 0T365 35L357 52Q314 28 279 18T203 7Q171 7 143 13T94 34T61 72T49 133ZM371 343V265L49 249V333Q49 384 69 419T126 474T214 493Q262 493 297 477T351 427T371 343Z" />
<glyph unicode="&#xea;" horiz-adv-x="420" d="M332 833L211 952L88 833L102 819L211 922L317 819L332 833ZM49 133V230L391 247V342Q391 398 369 435T308 491T215 510Q162 510 120 491T54 433T30 339V134Q30 93 43 65T81 20T137 -4T205 -12Q247 -12 287 0T365
35L357 52Q314 28 279 18T203 7Q171 7 143 13T94 34T61 72T49 133ZM371 343V265L49 249V333Q49 384 69 419T126 474T214 493Q262 493 297 477T351 427T371 343Z" />
<glyph unicode="&#xeb;" horiz-adv-x="420" d="M132 896Q124 896 120 892T115 880Q115 872 119 868T132 863Q140 863 144 867T148 880Q148 888 144 892T132 896ZM291 896Q283 896 279 892T274 880Q274 872 278 868T291 863Q299 863 303 867T307 880Q307 888 303
892T291 896ZM49 133V230L391 247V342Q391 398 369 435T308 491T215 510Q162 510 120 491T54 433T30 339V134Q30 93 43 65T81 20T137 -4T205 -12Q247 -12 287 0T365 35L357 52Q314 28 279 18T203 7Q171 7 143 13T94 34T61 72T49 133ZM371 343V265L49 249V333Q49
384 69 419T126 474T214 493Q262 493 297 477T351 427T371 343Z" />
<glyph unicode="&#xec;" horiz-adv-x="96" d="M261 925Q259 930 256 932T248 936T239 935Q235 933 234 929T232 921T235 912L292 811H313L261 925ZM38 0H56V500H38V0Z" />
<glyph unicode="&#xed;" horiz-adv-x="96" d="M371 909Q374 914 374 918T374 927T367 933Q363 935 359 935T352 932T346 924L294 809H315L371 909ZM38 0H56V500H38V0Z" />
<glyph unicode="&#xee;" horiz-adv-x="96" d="M425 833L304 952L181 833L195 819L304 922L410 819L425 833ZM38 0H56V500H38V0Z" />
<glyph unicode="&#xef;" horiz-adv-x="96" d="M226 896Q218 896 214 892T209 880Q209 872 213 868T226 863Q234 863 238 867T242 880Q242 888 238 892T226 896ZM385 896Q377 896 373 892T368 880Q368 872 372 868T385 863Q393 863 397 867T401 880Q401 888 397
892T385 896ZM38 0H56V500H38V0Z" />
<glyph unicode="&#xf0;" horiz-adv-x="419" d="M310 652Q285 672 254 684T185 701L182 688Q198 686 217 680T257 665T297 639L186 526L198 515L310 629Q337 604 355 566T373 471V340Q365 362 346 379T301 408T249 427T199 434Q116 434 70 386T23 246V188Q23 97
70 44T207 -9Q296 -9 344 42T393 188V471Q393 502 386 533T363 593T322 641L371 691L359 702L310 652ZM207 11Q159 11 122 30T64 88T43 183V252Q43 303 59 339T106 395T180 417Q212 419 246 411T309 384T356 338T373 274V183Q373 129 354 91T299 32T207 11Z" />
<glyph unicode="&#xf1;" d="M308 917V908Q308 892 303 878T277 864Q268 864 260 868T245 877Q235 884 227 890T208 903Q193 914 175 919T138 914Q128 909 123 900T115 879T113 856V848H133V856Q133 867 135 878T146 896Q155 902 166 900T187 893Q198 886 210 878T235
861Q246 854 256 849T279 844Q307 844 317 865T328 908V917H308ZM389 346V0H407V345Q407 392 395 423T361 473T313 499T259 510T204 510Q181 509 155 504T104 491T57 473V501H38V0H57V454Q76 463 101 471T155 486T213 494Q254 496 286 490T341 466T377 419T389
346Z" />
<glyph unicode="&#xf2;" horiz-adv-x="427" d="M171 950Q169 955 166 957T158 961T149 960Q145 958 144 954T142 946T145 937L202 836H223L171 950ZM397 185V316Q397 408 351 460T215 512Q156 512 114 490T49 424T27 316V185Q27 131 47 87T109 17T215 -10Q306
-10 351 43T397 185ZM378 320V185Q378 135 361 95T308 31T215 8Q157 8 120 31T65 95T47 185V320Q47 375 66 413T122 473T215 494Q264 494 300 475T357 417T378 320Z" />
<glyph unicode="&#xf3;" horiz-adv-x="427" d="M278 909Q281 914 281 918T281 927T274 933Q270 935 266 935T259 932T253 924L201 809H222L278 909ZM397 185V316Q397 408 351 460T215 512Q156 512 114 490T49 424T27 316V185Q27 131 47 87T109 17T215 -10Q306
-10 351 43T397 185ZM378 320V185Q378 135 361 95T308 31T215 8Q157 8 120 31T65 95T47 185V320Q47 375 66 413T122 473T215 494Q264 494 300 475T357 417T378 320Z" />
<glyph unicode="&#xf4;" horiz-adv-x="427" d="M336 833L215 952L92 833L106 819L215 922L321 819L336 833ZM397 185V316Q397 408 351 460T215 512Q156 512 114 490T49 424T27 316V185Q27 131 47 87T109 17T215 -10Q306 -10 351 43T397 185ZM378 320V185Q378 135
361 95T308 31T215 8Q157 8 120 31T65 95T47 185V320Q47 375 66 413T122 473T215 494Q264 494 300 475T357 417T378 320Z" />
<glyph unicode="&#xf5;" horiz-adv-x="427" d="M302 917V908Q302 892 297 878T271 864Q262 864 254 868T239 877Q229 884 221 890T202 903Q187 914 169 919T132 914Q122 909 117 900T109 879T107 856V848H127V856Q127 867 129 878T140 896Q149 902 160 900T181
893Q192 886 204 878T229 861Q240 854 250 849T273 844Q301 844 311 865T322 908V917H302ZM397 185V316Q397 408 351 460T215 512Q156 512 114 490T49 424T27 316V185Q27 131 47 87T109 17T215 -10Q306 -10 351 43T397 185ZM378 320V185Q378 135 361 95T308 31T215
8Q157 8 120 31T65 95T47 185V320Q47 375 66 413T122 473T215 494Q264 494 300 475T357 417T378 320Z" />
<glyph unicode="&#xf6;" horiz-adv-x="427" d="M132 896Q124 896 120 892T115 880Q115 872 119 868T132 863Q140 863 144 867T148 880Q148 888 144 892T132 896ZM291 896Q283 896 279 892T274 880Q274 872 278 868T291 863Q299 863 303 867T307 880Q307 888 303
892T291 896ZM397 185V316Q397 408 351 460T215 512Q156 512 114 490T49 424T27 316V185Q27 131 47 87T109 17T215 -10Q306 -10 351 43T397 185ZM378 320V185Q378 135 361 95T308 31T215 8Q157 8 120 31T65 95T47 185V320Q47 375 66 413T122 473T215 494Q264 494
300 475T357 417T378 320Z" />
<glyph unicode="&#xf7;" horiz-adv-x="384" d="M30 373H350V394H30V373ZM191 530Q185 530 180 525T175 512Q175 506 180 501T191 496Q199 496 204 501T209 512Q209 520 204 525T191 530ZM191 272Q185 272 180 268T175 255Q175 248 180 244T191 239Q199 239 204
243T209 255Q209 263 204 267T191 272Z" />
<glyph unicode="&#xf8;" horiz-adv-x="427" d="M345 514H324L84 -20H106L345 514ZM397 185V316Q397 408 351 460T215 512Q156 512 114 490T49 424T27 316V185Q27 131 47 87T109 17T215 -10Q306 -10 351 43T397 185ZM378 320V185Q378 135 361 95T308 31T215 8Q157
8 120 31T65 95T47 185V320Q47 375 66 413T122 473T215 494Q264 494 300 475T357 417T378 320Z" />
<glyph unicode="&#xf9;" horiz-adv-x="445" d="M177 950Q175 955 172 957T164 961T155 960Q151 958 150 954T148 946T151 937L208 836H229L177 950ZM385 98V0H405V500H385V169Q385 139 375 111T344 61T294 26T229 9Q175 6 136 19T76 66T54 156V500H34V157Q34 110
47 79T81 29T129 2T181 -8T229 -9Q263 -7 294 6T349 42T385 98Z" />
<glyph unicode="&#xfa;" horiz-adv-x="445" d="M285 909Q288 914 288 918T288 927T281 933Q277 935 273 935T266 932T260 924L208 809H229L285 909ZM385 98V0H405V500H385V169Q385 139 375 111T344 61T294 26T229 9Q175 6 136 19T76 66T54 156V500H34V157Q34 110
47 79T81 29T129 2T181 -8T229 -9Q263 -7 294 6T349 42T385 98Z" />
<glyph unicode="&#xfb;" horiz-adv-x="445" d="M340 833L219 952L96 833L110 819L219 922L325 819L340 833ZM385 98V0H405V500H385V169Q385 139 375 111T344 61T294 26T229 9Q175 6 136 19T76 66T54 156V500H34V157Q34 110 47 79T81 29T129 2T181 -8T229 -9Q263
-7 294 6T349 42T385 98Z" />
<glyph unicode="&#xfc;" horiz-adv-x="445" d="M141 896Q133 896 129 892T124 880Q124 872 128 868T141 863Q149 863 153 867T157 880Q157 888 153 892T141 896ZM300 896Q292 896 288 892T283 880Q283 872 287 868T300 863Q308 863 312 867T316 880Q316 888 312
892T300 896ZM385 98V0H405V500H385V169Q385 139 375 111T344 61T294 26T229 9Q175 6 136 19T76 66T54 156V500H34V157Q34 110 47 79T81 29T129 2T181 -8T229 -9Q263 -7 294 6T349 42T385 98Z" />
<glyph unicode="&#xfd;" horiz-adv-x="461" d="M295 909Q298 914 298 918T298 927T291 933Q287 935 283 935T276 932T270 924L218 809H239L295 909ZM430 501L417 512Q405 500 399 488T390 459T387 419V170Q387 140 376 112T344 62T294 27T229 10Q189 7 157 14T101
38T66 85T54 157V501H34V158Q34 99 54 65T104 14T168 -6T230 -8Q264 -6 295 7T351 43T387 100V-66Q387 -95 382 -115T365 -150T336 -175T293 -196L299 -213Q337 -200 360 -183T393 -137T404 -67V418Q404 452 409 470T430 501Z" />
<glyph unicode="&#xfe;" horiz-adv-x="440" d="M409 176V345Q409 399 388 436T328 492T235 510Q205 509 175 501T115 478T58 447V701H39V-207L58 -213V80Q70 52 99 31T164 -1T235 -12Q318 -12 363 36T409 176ZM392 345V169Q392 118 375 82T325 27T249 4Q216 2
182 10T120 37T75 84T58 148V427Q83 446 115 461T183 486T247 494Q276 493 302 484T349 458T380 412T392 345Z" />
<glyph unicode="&#xff;" horiz-adv-x="461" d="M151 896Q143 896 139 892T134 880Q134 872 138 868T151 863Q159 863 163 867T167 880Q167 888 163 892T151 896ZM310 896Q302 896 298 892T293 880Q293 872 297 868T310 863Q318 863 322 867T326 880Q326 888 322
892T310 896ZM430 501L417 512Q405 500 399 488T390 459T387 419V170Q387 140 376 112T344 62T294 27T229 10Q189 7 157 14T101 38T66 85T54 157V501H34V158Q34 99 54 65T104 14T168 -6T230 -8Q264 -6 295 7T351 43T387 100V-66Q387 -95 382 -115T365 -150T336
-175T293 -196L299 -213Q337 -200 360 -183T393 -137T404 -67V418Q404 452 409 470T430 501Z" />
<glyph unicode="&#x2013;" d="M33 394H410V414H33V394Z" />
<glyph unicode="&#x2014;" horiz-adv-x="717" d="M33 394H684V414H33V394Z" />
<glyph unicode="&#x2018;" horiz-adv-x="104" d="M74 667L65 674Q66 674 60 670T47 656T33 632T27 597Q27 590 31 586T42 581Q50 581 55 585T60 597Q60 603 56 607T47 612Q49 623 54 638T74 667Z" />
<glyph unicode="&#x2019;" horiz-adv-x="103" d="M26 593L34 587Q34 587 40 591T54 605T67 628T73 663Q73 671 69 676T56 681Q50 681 45 676T40 663Q40 657 43 654T51 648Q50 638 45 623T26 593Z" />
<glyph unicode="&#x201a;" horiz-adv-x="114" d="M31 -31L40 -37Q40 -37 46 -33T60 -19T73 5T79 40Q79 48 75 52T62 57Q55 57 51 53T46 40Q46 34 49 30T57 24Q56 14 51 -1T31 -31Z" />
<glyph unicode="&#x201c;" horiz-adv-x="283" d="M254 667L245 674Q245 674 239 670T226 656T212 632T207 597Q207 590 211 586T223 581Q230 581 235 585T240 597Q240 603 237 607T228 612Q229 623 234 638T254 667ZM74 667L65 674Q66 674 60 670T47 656T33 632T27
597Q27 590 31 586T42 581Q50 581 55 585T60 597Q60 603 56 607T47 612Q49 623 54 638T74 667Z" />
<glyph unicode="&#x201d;" horiz-adv-x="283" d="M26 593L34 587Q34 587 40 591T54 605T67 628T73 663Q73 671 69 676T56 681Q50 681 45 676T40 663Q40 657 43 654T51 648Q50 638 45 623T26 593ZM206 593L215 587Q214 587 220 591T233 605T247 628T253 663Q253
671 249 676T237 681Q230 681 225 676T220 663Q220 657 223 654T231 648Q230 638 226 623T206 593Z" />
<glyph unicode="&#x201e;" horiz-adv-x="293" d="M31 -31L40 -37Q40 -37 46 -33T60 -19T73 5T79 40Q79 48 75 52T62 57Q55 57 51 53T46 40Q46 34 49 30T57 24Q56 14 51 -1T31 -31ZM212 -31L221 -37Q220 -37 226 -33T239 -19T253 5T259 40Q259 48 255 52T243 57Q236
57 231 53T226 40Q226 34 229 30T237 24Q236 14 232 -1T212 -31Z" />
<glyph unicode="&#x2022;" horiz-adv-x="270" d="M207 409Q176 440 134 440Q90 440 60 409Q30 379 30 336Q30 315 37 297T60 264Q90 233 134 233Q155 233 173 240T207 264Q221 279 229 298T237 336Q237 378 207 409Z" />
<glyph unicode="&#x2039;" horiz-adv-x="262" d="M26 267L213 79L228 97L54 267L229 441L213 455L26 267Z" />
<glyph unicode="&#x203a;" horiz-adv-x="263" d="M205 267L32 97L47 79L234 267L47 455L31 441L205 267Z" />
</font>
</defs>
</svg>
