<?xml version="1.0" standalone="no"?>
<!DOCTYPE svg PUBLIC "-//W3C//DTD SVG 1.1//EN" "http://www.w3.org/Graphics/SVG/1.1/DTD/svg11.dtd">
<svg xmlns="http://www.w3.org/2000/svg">
<defs >
<font id="AdventPro" horiz-adv-x="443" ><font-face
    font-family="Advent Pro"
    units-per-em="1000"
    panose-1="0 0 0 0 0 0 0 0 0 0"
    ascent="964"
    descent="-232"
    alphabetic="0" />
<glyph unicode=" " horiz-adv-x="280" />
<glyph unicode="!" horiz-adv-x="148" d="M183 673L76 121H123L250 674Q254 692 248 701T224 710Q208 710 198 702T183 673ZM87 67Q73 67 63 59T49 38Q45 24 50 12T73 0Q89 0 99 10T113 33Q116 46 110 56T87 67Z" />
<glyph unicode="&quot;" horiz-adv-x="267" d="M316 703L306 588H346L384 703Q388 721 380 729T358 738T332 730T316 703ZM181 703L170 588H209L249 703Q253 721 245 729T223 738T197 730T181 703Z" />
<glyph unicode="#" horiz-adv-x="611" d="M444 244L521 414H667L679 471H544L648 700H593L490 471H372L474 700H419L317 471H130L119 414H291L215 244H82L70 190H191L107 0H162L246 190H364L280 0H335L419 190H619L631 244H444ZM390 244H271L346 414H466L390 244Z" />
<glyph unicode="$" horiz-adv-x="530" d="M225 -114H281L479 818H422L225 -114ZM557 623L582 672Q561 684 538 692T489 705T436 709Q398 709 357 701T278 675T214 626T177 549Q168 506 177 476T209 423T262 384T326 353T389 323T443 290T477 247T481 188Q472 148
452 120T402 75T339 50T269 42Q235 42 199 51T134 80T89 127L46 92Q69 57 101 34T174 -1T262 -12Q306 -12 350 -1T434 33T500 93T539 180Q549 227 540 260T509 317T457 358T393 388T329 416T275 447T240 489T236 549Q243 581 264 601T313 634T370 650T425 655Q449
655 472 652T517 641T557 623Z" />
<glyph unicode="%" horiz-adv-x="713" d="M48 0H116L800 700H736L48 0ZM328 714Q287 714 250 695T186 642T150 568Q142 528 154 495T196 442T265 422Q306 422 343 442T407 495T442 568Q451 609 438 642T397 694T328 714ZM317 663Q343 663 361 650T388 616T391
568Q386 543 368 522T326 487T277 474Q250 474 231 487T204 521T201 568Q207 594 224 615T266 650T317 663ZM594 277Q555 277 518 258T455 205T419 132Q411 92 423 59T465 6T533 -14Q574 -14 611 5T674 58T709 132Q718 172 706 205T664 257T594 277ZM584 227Q611
227 630 215T657 181T659 132Q654 106 637 84T595 50T544 37Q519 37 500 49T473 84T471 132Q477 159 494 180T535 214T584 227Z" />
<glyph unicode="&amp;" horiz-adv-x="529" d="M518 653L554 704H388Q342 704 305 684T245 629T213 548Q210 527 210 501T222 449T259 403H240Q213 403 188 395T143 368T107 322T84 255L64 160Q57 126 59 100T73 53T104 20T149 1T206 -6Q229 -6 259 1T320 23T376
62Q381 35 401 19T453 -9L475 34Q444 46 432 71T428 137L474 350H550L584 404H485L507 507H454L432 403H382Q352 403 329 414T289 444T268 489T268 545Q278 593 308 623T381 653H518ZM420 350L384 177Q377 142 356 115T303 71T229 50Q186 46 159 59T123 99T122
165L140 252Q148 287 162 306T193 335T228 347T259 350H420Z" />
<glyph unicode="&apos;" horiz-adv-x="267" d="M249 704L238 589H278L316 704Q320 722 312 730T290 739T265 730T249 704Z" />
<glyph unicode="(" horiz-adv-x="182" d="M331 780L320 818Q281 799 252 774T205 713T175 627L56 70Q46 22 48 -8T62 -58T89 -92T121 -120L148 -81Q133 -69 124 -54T110 -21T105 17T111 62L233 637Q238 660 246 680T267 719T295 753T331 780Z" />
<glyph unicode=")" horiz-adv-x="182" d="M210 818L183 780Q198 768 207 753T221 720T225 681T220 637L98 62Q93 38 85 18T64 -21T36 -54T0 -81L11 -120Q33 -105 54 -92T95 -59T130 -9T156 70L274 627Q282 665 282 694T273 745T249 785T210 818Z" />
<glyph unicode="*" horiz-adv-x="353" d="M175 627L146 579L244 541L160 451L199 419L285 516L333 419L381 451L334 541L451 579L440 627L325 587L349 700H295L271 587L175 627Z" />
<glyph unicode="+" horiz-adv-x="379" d="M329 530H274L246 398H113L101 343H234L206 210H261L290 343H421L433 398H302L329 530Z" />
<glyph unicode="," horiz-adv-x="267" d="M80 -85L95 -98Q104 -91 115 -80T137 -54T159 -20T174 23Q176 38 169 47T147 56Q133 56 122 47T107 23Q104 11 110 2T128 -10Q122 -26 112 -45T80 -85Z" />
<glyph unicode="-" horiz-adv-x="392" d="M110 356H430L442 414H122L110 356Z" />
<glyph unicode="." horiz-adv-x="137" d="M80 57Q67 57 55 48T40 24Q37 11 45 1T66 -9Q80 -9 92 1T108 24Q111 38 103 47T80 57Z" />
<glyph unicode="/" horiz-adv-x="416" d="M-6 -114H51L574 818H512L-6 -114Z" />
<glyph unicode="0" horiz-adv-x="492" d="M142 508L76 191Q63 126 81 81T142 13T243 -11Q305 -11 357 13T446 81T495 186L563 507Q584 605 540 660T395 716Q296 716 230 663T142 508ZM130 187L200 517Q211 566 237 598T301 646T385 663Q433 663 464 647T508 598T510
517L440 192Q430 143 402 110T334 59T248 42Q204 42 174 58T132 107T130 187Z" />
<glyph unicode="1" horiz-adv-x="236" d="M146 622L151 583Q164 585 180 590T215 603T248 619T275 634L140 0H193L342 700H288Q267 679 242 664T195 640T159 627T146 622Z" />
<glyph unicode="2" horiz-adv-x="413" d="M168 590L216 571Q234 601 255 619T300 647T346 656Q375 656 398 643T431 604T434 541Q431 526 425 511T406 477T366 426L41 53L29 0H379L391 53H106L407 395Q452 446 470 483T495 551Q507 602 490 637T437 692T359 710Q326
710 291 697T224 658T168 590Z" />
<glyph unicode="3" d="M291 414H289L499 651L509 700H219L207 643H428L174 356H286Q328 356 356 335T397 278T402 204Q394 161 366 125T297 66T212 44Q170 44 142 61T97 113L44 82Q64 39 105 14T200 -12Q250 -12 292 4T369 50T425 117T458 200Q471 258 454 306T394
384T291 414Z" />
<glyph unicode="4" horiz-adv-x="489" d="M332 0H389L465 356H517L550 414H478L538 700H481L420 414H201L418 700H359L92 356H408L332 0Z" />
<glyph unicode="5" horiz-adv-x="440" d="M204 412L277 643H494L506 700H240L130 356H245Q306 356 343 336T394 280T399 201Q392 165 373 137T326 87T269 55T208 44Q175 44 149 51T105 67T78 83T68 89L37 42Q37 43 50 35T85 16T136 -3T199 -12Q249 -12 292 6T369
55T425 123T455 199Q471 272 448 319T374 389T257 412H204Z" />
<glyph unicode="6" horiz-adv-x="484" d="M410 648H449L460 700H425Q353 700 292 670T188 586T130 462L74 203Q62 145 80 97T140 19T243 -10Q288 -10 330 6T407 52T467 120T501 203Q514 262 496 310T434 386T330 415Q300 415 271 408T214 385T160 347L183 455Q195
511 226 554T304 623T410 648ZM322 360Q354 360 379 348T422 314T446 264T445 203Q438 171 420 143T375 92T318 58T254 45Q211 45 180 66T135 124T130 203Q137 235 155 263T200 313T258 347T322 360Z" />
<glyph unicode="7" horiz-adv-x="435" d="M100 0L555 645L567 700H175L163 643H492L37 0H100Z" />
<glyph unicode="8" horiz-adv-x="483" d="M392 709Q342 709 297 686T221 622T180 533Q175 507 177 480T190 430T223 389Q187 372 155 343T101 278T70 201Q58 143 75 95T134 17T237 -12Q298 -12 352 16T445 93T496 201Q504 240 499 274T475 337T423 388Q465 414
492 449T530 533Q540 582 526 622T478 685T392 709ZM328 412Q295 412 271 429T236 474T232 534Q239 568 261 595T315 639T379 656Q413 656 437 640T471 596T475 534Q469 501 447 474T393 429T328 412ZM249 44Q206 44 175 65T131 122T126 201Q133 233 151 261T195
311T252 345T316 357Q362 357 393 336T436 280T440 201Q431 158 402 123T333 66T249 44Z" />
<glyph unicode="9" horiz-adv-x="482" d="M387 709Q341 709 299 693T222 647T163 580T129 497Q116 437 134 389T196 313T300 285Q331 285 359 293T415 316T469 353L445 246Q434 191 403 148T324 79T219 54H181L170 -1H205Q277 -1 338 29T442 114T499 239L554 497Q567
556 550 604T490 680T387 709ZM375 654Q419 654 450 633T495 577T499 497Q492 464 474 436T430 386T373 352T308 340Q276 340 250 352T208 385T185 435T185 497Q192 530 210 558T255 608T312 642T375 654Z" />
<glyph unicode=":" horiz-adv-x="144" d="M134 144Q137 158 129 167T108 177Q94 177 82 168T67 144Q64 130 72 121T94 111Q107 111 119 120T134 144ZM185 385Q188 399 181 408T159 418Q146 418 134 409T118 385Q115 372 123 362T145 352Q159 352 170 362T185 385Z" />
<glyph unicode=";" horiz-adv-x="150" d="M46 35L60 23Q69 29 80 40T103 66T124 100T139 144Q141 159 134 168T112 177Q98 177 87 168T72 144Q69 132 75 123T93 111Q87 95 77 75T46 35ZM192 385Q195 399 188 408T166 418Q153 418 141 409T125 385Q122 372 130
362T152 352Q166 352 177 362T192 385Z" />
<glyph unicode="&lt;" horiz-adv-x="375" d="M102 359L320 79L367 119L177 357L470 599L438 637L102 359Z" />
<glyph unicode="=" horiz-adv-x="391" d="M110 357H430L442 412H122L110 357ZM88 253H408L420 308H100L88 253Z" />
<glyph unicode="&gt;" horiz-adv-x="375" d="M158 599L346 357L55 119L85 79L422 359L204 637L158 599Z" />
<glyph unicode="?" horiz-adv-x="405" d="M138 532H195Q202 564 217 588T253 627T297 649T343 656Q372 655 396 642T432 602T435 535Q428 502 411 478T372 432T326 389Q308 373 291 356T258 318T230 271T211 212L191 120H242L261 207Q268 238 279 260T305 300T337
333T372 366Q400 392 424 417T465 472T491 538Q499 578 492 609T464 663T416 696T355 709Q322 710 288 700T223 667T171 612T138 532ZM205 57Q191 57 179 48T163 24Q160 11 168 1T191 -9Q204 -9 216 1T231 24Q234 38 226 47T205 57Z" />
<glyph unicode="@" horiz-adv-x="719" d="M786 452L780 493Q750 485 730 468T698 425T678 364L636 163Q626 115 597 82T525 28T436 -2T340 -12Q283 -12 239 -1T167 34T130 96T132 190L164 342Q174 389 197 424T252 483T324 519T405 531Q483 531 524 508T558 443H391Q364
443 337 436T286 410T244 363T217 289L205 234Q193 178 202 144T235 91T293 67T362 61Q385 61 409 63T457 67T498 71T526 74T537 76L602 389H658L673 443H610Q612 469 603 493T569 537T506 567T408 579Q347 579 296 561T206 511T141 435T104 339L73 196Q60 132
73 83T121 1T209 -49T327 -66Q388 -66 447 -53T558 -11T644 63T693 171L737 381Q741 400 747 414T764 437T786 452ZM377 389H549L492 120Q492 120 481 119T449 117T404 114T353 112Q283 112 264 138T257 228L270 286Q281 335 300 356T341 383T377 389Z" />
<glyph unicode="A" horiz-adv-x="547" d="M527 0L448 700H395L21 0H81L212 245H439L468 0H527ZM238 300L402 614L436 300H238Z" />
<glyph unicode="B" horiz-adv-x="505" d="M400 700H190L41 0H272Q342 0 392 26T474 99T519 209Q529 257 523 293T499 353T454 391Q479 406 498 426T531 472T551 528Q563 586 549 624T496 681T400 700ZM349 412H185L235 647H391Q434 647 459 634T493 595T493 530Q486
495 468 468T420 427T349 412ZM282 53H109L173 357H362Q405 357 429 337T461 284T460 213Q449 160 425 124T366 71T282 53Z" />
<glyph unicode="C" horiz-adv-x="423" d="M490 639L515 677Q487 694 453 702T380 710Q325 710 277 689T193 624T143 510L73 184Q59 117 73 75T129 11T233 -10Q271 -10 313 -2T401 23L399 69Q369 60 342 54T291 44T247 40Q197 40 168 54T129 101T130 186L200 514Q211
567 236 599T300 645T387 660Q413 660 439 655T490 639Z" />
<glyph unicode="D" horiz-adv-x="497" d="M379 700H190L41 0H250Q321 0 373 22T457 89T504 200L562 475Q577 543 562 593T501 672T379 700ZM243 50H108L235 650H378Q437 650 469 628T510 570T509 490L445 190Q438 156 422 130T381 86T321 59T243 50Z" />
<glyph unicode="E" horiz-adv-x="406" d="M41 0H373L384 50H108L173 357H349L376 412H185L235 648H513L524 700H190L41 0Z" />
<glyph unicode="F" horiz-adv-x="391" d="M524 700H190L41 0H98L173 357H352L377 412H185L235 647H513L524 700Z" />
<glyph unicode="G" horiz-adv-x="479" d="M490 638L515 676Q496 687 475 694T429 705T379 709Q316 709 268 685T187 614T141 503L74 189Q60 123 74 79T127 13T223 -10Q255 -10 287 -3T349 17T401 47L395 0H446L510 300H307L316 245H445L433 187Q426 153 406 127T356
83T294 54T229 44Q186 44 161 60T128 109T130 187L199 511Q210 564 235 596T299 644T388 659Q405 659 422 657T456 650T490 638Z" />
<glyph unicode="H" horiz-adv-x="515" d="M503 412H185L246 700H190L41 0H98L173 357H491L415 0H472L620 700H564L503 412Z" />
<glyph unicode="I" horiz-adv-x="187" d="M159 651L226 649L88 0H144L293 700H169L159 651Z" />
<glyph unicode="J" horiz-adv-x="207" d="M191 119L315 700H191L181 651L246 649L133 114Q125 75 108 50T70 12T27 0L32 -37Q67 -37 94 -25T140 10T172 60T191 119Z" />
<glyph unicode="K" horiz-adv-x="459" d="M177 375L246 700H190L41 0H97L154 269L223 351L375 0H438L266 398L535 700H466L177 375Z" />
<glyph unicode="L" horiz-adv-x="424" d="M41 0H402L413 50H108L246 700H190L41 0Z" />
<glyph unicode="M" horiz-adv-x="621" d="M246 700H190L41 0H98L211 535L278 0H339L636 535L522 0H578L727 700H671L327 86L246 700Z" />
<glyph unicode="N" horiz-adv-x="577" d="M683 700H627L500 103L247 700H190L41 0H98L225 597L478 0H534L683 700Z" />
<glyph unicode="O" horiz-adv-x="492" d="M142 508L76 191Q63 126 81 81T142 13T243 -11Q305 -11 357 13T446 81T495 186L563 507Q584 605 540 660T395 716Q296 716 230 663T142 508ZM130 187L200 517Q211 566 237 598T301 646T385 663Q433 663 464 647T508 598T510
517L440 192Q430 143 402 110T334 59T248 42Q204 42 174 58T132 107T130 187Z" />
<glyph unicode="P" horiz-adv-x="506" d="M426 700H190L41 0H98L150 245H329Q379 245 419 257T489 297T541 368T576 474Q590 538 586 581T562 651T508 688T426 700ZM161 300L235 647H419Q449 647 472 640T510 614T528 561T520 474Q508 417 490 382T450 330T401
306T346 300H161Z" />
<glyph unicode="Q" horiz-adv-x="492" d="M282 50L308 174H252L226 51Q217 9 221 -21T244 -71T293 -99T368 -108L383 -61Q353 -61 331 -56T296 -37T279 -3T282 50ZM142 508L76 191Q63 126 81 81T142 13T243 -11Q305 -11 357 13T446 81T495 186L563 507Q584 605
540 660T395 716Q296 716 230 663T142 508ZM130 187L200 517Q211 566 237 598T301 646T385 663Q433 663 464 647T508 598T510 517L440 192Q430 143 402 110T334 59T248 42Q204 42 174 58T132 107T130 187Z" />
<glyph unicode="R" horiz-adv-x="510" d="M426 700H190L41 0H97L149 245H329Q339 245 348 245T367 247T385 250L423 0H479L439 265Q474 280 500 307T545 376T576 473Q590 538 586 581T562 651T508 688T426 700ZM346 300H161L235 647H419Q449 647 472 640T510 614T528
561T520 473Q508 416 490 382T449 330T400 306T346 300Z" />
<glyph unicode="S" horiz-adv-x="530" d="M556 623L580 672Q559 684 536 692T487 705T435 709Q396 709 355 701T277 675T213 626T176 549Q167 506 176 476T208 423T261 384T324 353T387 323T441 290T475 247T479 188Q471 148 450 120T400 75T337 50T268 42Q234
42 198 51T132 80T87 127L45 92Q68 57 100 34T173 -1T260 -12Q305 -12 349 -1T432 33T499 93T538 180Q548 227 539 260T508 317T455 358T392 388T327 416T273 447T239 489T235 549Q242 581 262 601T311 634T369 650T424 655Q448 655 471 652T515 641T556 623Z"
/>
<glyph unicode="T" horiz-adv-x="417" d="M371 650H547L558 700H156L145 650H316L177 0H233L371 650Z" />
<glyph unicode="U" horiz-adv-x="498" d="M497 186L606 700H551L442 187Q432 140 406 108T342 59T257 42Q211 42 180 58T136 107T133 187L242 700H187L78 186Q64 122 81 78T141 12T246 -11Q310 -11 361 12T448 79T497 186Z" />
<glyph unicode="V" horiz-adv-x="511" d="M164 700L216 0H293L642 700H582L268 69L224 700H164Z" />
<glyph unicode="W" horiz-adv-x="733" d="M536 700H466L231 69V700H175V0H258L480 576V0H550L862 700H802L536 93V700Z" />
<glyph unicode="X" horiz-adv-x="556" d="M368 412L255 700H192L325 360L25 0H101L349 300L469 0H532L393 353L676 700H602L368 412Z" />
<glyph unicode="Y" horiz-adv-x="515" d="M507 156L622 700H566L508 423Q501 387 480 363T430 326T368 306T303 300Q248 300 219 317T182 369T184 453L235 700H179L127 456Q113 391 126 344T182 272T297 246Q331 246 364 252T427 271T483 306L450 153Q444 128
436 108T418 73T393 47T362 30L368 -7Q419 0 455 41T507 156Z" />
<glyph unicode="Z" horiz-adv-x="547" d="M189 700L178 651L576 650L554 626L39 49L28 0H515L526 49L109 50L130 73L646 651L657 700H189Z" />
<glyph unicode="[" horiz-adv-x="223" d="M260 762L368 772L377 818H216L18 -114H180L189 -69L86 -59L260 762Z" />
<glyph unicode="\" horiz-adv-x="414" d="M312 -114H373L246 818H190L312 -114Z" />
<glyph unicode="]" horiz-adv-x="225" d="M-4 -114H158L355 818H194L184 772L288 762L113 -59L6 -69L-4 -114Z" />
<glyph unicode="^" horiz-adv-x="267" d="M428 772L327 900L167 771L198 732L311 824L381 735L428 772Z" />
<glyph unicode="_" horiz-adv-x="384" d="M21 -56H341L353 0H33L21 -56Z" />
<glyph unicode="`" horiz-adv-x="267" d="M267 711Q266 721 260 728T246 738T226 737Q216 734 212 726T207 707T210 689L246 610H282L267 711Z" />
<glyph unicode="a" horiz-adv-x="447" d="M429 350Q409 364 383 376T328 395T265 403Q235 403 206 395T151 370T108 323T80 252L62 169Q51 114 61 78T97 23T163 -4T251 -10Q266 -10 286 -9T329 -7T370 -4T400 -1T411 0L473 288Q485 348 485 390T467 459T411 497T311
509L300 466Q329 466 356 462T402 446T429 411T429 350ZM419 303L365 46Q365 46 360 46T346 45T324 43T294 40T257 38Q206 36 175 43T130 68T113 113T119 176L135 250Q142 284 156 304T186 336T220 351T250 355Q282 355 311 348T368 329T419 303Z" />
<glyph unicode="b" horiz-adv-x="457" d="M198 473L246 700H190L41 0Q40 0 51 -1T81 -3T121 -6T163 -9T197 -10Q245 -11 288 -4T365 22T425 78T462 169L503 359Q512 401 504 430T475 476T426 502T368 510Q336 510 306 505T250 492T198 473ZM108 46L187 423Q217
435 245 444T301 458T362 463Q376 463 393 459T425 444T447 412T446 355L408 176Q401 140 388 113T352 69T296 44T212 38Q188 39 169 40T136 43T115 45T108 46Z" />
<glyph unicode="c" horiz-adv-x="381" d="M427 433L451 478Q422 493 389 501T320 510Q254 510 209 485T136 417T97 319L66 174Q52 105 70 64T132 6T236 -11Q265 -10 294 -6T352 5V55Q352 55 342 54T315 49T278 44T236 41Q199 41 174 49T135 74T119 119T124 186L150
306Q159 350 180 384T236 439T318 458Q346 457 375 451T427 433Z" />
<glyph unicode="d" horiz-adv-x="458" d="M414 0L563 700H508L459 472Q429 487 392 498T304 509Q274 509 243 502T184 477T135 430T105 359L65 168Q53 113 63 78T100 23T167 -4T256 -10Q270 -10 290 -9T332 -7T372 -4T403 -1T414 0ZM449 423L369 46Q369 46 364
46T350 44T327 42T297 40T261 38Q211 37 180 44T134 69T116 113T122 175L160 355Q168 390 184 411T220 444T258 458T290 462Q338 462 375 451T449 423Z" />
<glyph unicode="e" horiz-adv-x="422" d="M116 134L129 196L437 212L465 342Q477 397 461 434T408 490T315 510Q261 510 218 491T145 433T104 339L63 142Q54 100 60 71T85 23T133 -3T201 -12Q239 -12 285 0T375 35L362 78Q319 59 282 48T206 36Q182 36 163 41T132
58T115 89T116 134ZM410 349L392 262L141 251L159 338Q169 378 189 405T241 448T313 463Q348 463 372 449T407 410T410 349Z" />
<glyph unicode="f" horiz-adv-x="249" d="M355 658L374 707Q369 709 364 709T352 710T339 710Q315 710 287 703T233 677T187 628T156 550L39 0H96L191 447H282L316 500H202L212 550Q218 577 228 598T253 632T287 653T329 660Q335 660 341 660T355 658Z" />
<glyph unicode="g" horiz-adv-x="441" d="M387 -64L507 499H450L440 452Q422 470 401 482T357 501T310 509Q256 512 214 493T144 437T105 346L68 175Q49 84 82 36T200 -12Q223 -12 245 -7T289 9T328 32T357 61L331 -63Q326 -83 319 -99T300 -128T274 -151T241
-167L248 -211Q289 -199 317 -180T362 -133T387 -64ZM428 393L381 173Q374 142 358 117T320 75T270 49T214 40Q176 40 153 54T122 96T123 166L160 343Q167 377 183 400T220 437T264 456T311 459Q327 458 344 453T378 440T408 421T428 393Z" />
<glyph unicode="h" horiz-adv-x="444" d="M197 467L246 700H190L41 0H98L188 425Q211 437 233 444T278 456T324 460Q348 460 369 455T407 436T429 400T428 343L355 0H411L485 346Q492 378 490 404T478 449T449 482T404 503T345 510Q321 510 295 505T244 490T197 467Z" />
<glyph unicode="i" horiz-adv-x="133" d="M38 0H95L201 501H145L38 0ZM218 710Q205 710 193 700T177 676Q174 663 182 653T204 643Q217 643 229 653T244 676Q247 690 240 700T218 710Z" />
<glyph unicode="j" horiz-adv-x="200" d="M136 -63L256 501H136L125 449H189L80 -62Q75 -87 64 -108T34 -143T-9 -167L-2 -210Q38 -198 65 -180T110 -133T136 -63ZM302 676Q304 690 297 699T275 709Q260 709 248 700T233 676Q230 663 238 653T260 643Q274 643
286 653T302 676Z" />
<glyph unicode="k" horiz-adv-x="427" d="M264 352L440 481L408 519L168 335L246 700H190L41 0H97L155 273L217 317L341 0H408L264 352Z" />
<glyph unicode="l" horiz-adv-x="140" d="M41 0H96L245 700H190L41 0Z" />
<glyph unicode="m" horiz-adv-x="717" d="M701 342L628 0H681L754 344Q763 384 760 415T740 467T696 498T625 509Q604 509 577 504T519 486T456 453Q446 471 429 483T388 502T332 509Q308 509 285 504T240 489T193 466L201 500H145L38 0H95L184 423Q208 435 228
443T268 455T311 459Q335 459 355 454T390 435T410 399T408 342L335 0H387L461 344Q466 365 467 383T465 418Q493 433 517 442T563 455T604 459Q628 459 648 454T683 435T703 399T701 342Z" />
<glyph unicode="n" d="M425 342L352 0H407L480 345Q487 376 485 402T473 448T445 481T400 502T341 509Q316 509 291 504T241 490T193 466L201 500H144L38 0H94L185 425Q208 437 230 444T275 455T319 459Q343 459 365 454T403 435T425 399T425 342Z" />
<glyph unicode="o" horiz-adv-x="430" d="M438 185L467 316Q486 408 450 460T325 512Q265 512 219 490T142 424T97 316L68 185Q57 131 68 87T117 17T216 -10Q308 -10 364 44T438 185ZM410 316L380 175Q372 134 352 104T300 57T226 40Q186 40 160 57T125 104T123
175L153 316Q163 364 184 396T239 445T316 462Q360 462 384 446T414 397T410 316Z" />
<glyph unicode="p" horiz-adv-x="442" d="M446 176L483 346Q494 399 483 436T438 493T347 510Q323 509 297 503T245 484T193 453L203 500H146L-1 -188L51 -213L110 61Q118 41 136 24T179 -2T236 -12Q319 -12 373 36T446 176ZM425 343L388 167Q379 124 360 96T311
54T244 40Q215 40 192 49T154 75T133 117T134 174L180 393Q199 414 224 428T276 450T325 460Q349 462 370 457T406 438T426 401T425 343Z" />
<glyph unicode="q" horiz-adv-x="441" d="M357 62L304 -188L356 -212L508 500H451L440 454Q422 472 401 484T358 503T310 511Q256 514 214 495T145 438T105 346L69 177Q56 116 66 74T110 11T200 -11Q230 -11 260 -1T316 25T357 62ZM428 394L381 174Q374 142 359
117T320 75T270 50T214 41Q176 41 153 55T123 98T123 168L161 344Q168 378 183 401T220 438T265 457T312 461Q328 460 345 455T378 442T408 422T428 394Z" />
<glyph unicode="r" horiz-adv-x="333" d="M404 460L418 508Q418 508 405 510T373 511Q319 509 277 497T194 467L201 500H144L38 0H94L181 409Q197 419 219 428T266 444T316 456T362 461Q379 463 391 462T404 460Z" />
<glyph unicode="s" horiz-adv-x="417" d="M416 439L447 476Q426 491 403 498T358 508T314 511Q282 511 249 502T189 475T145 430T128 368Q129 337 141 315T174 278T219 251T268 230T313 209T347 183T360 147Q360 118 347 97T313 62T267 41T221 34Q190 34 164 41T117
63T78 100L41 68Q67 28 112 5T212 -18Q247 -18 282 -8T348 23T396 73T416 144Q416 175 404 196T371 233T325 259T275 281T229 303T196 330T183 369Q183 393 195 410T226 439T268 457T312 464Q331 465 350 463T386 454T416 439Z" />
<glyph unicode="t" horiz-adv-x="241" d="M123 132L191 448H287L322 500H202L244 700H188L67 132Q55 74 72 39T142 -13L168 30Q147 38 136 51T121 85T123 132Z" />
<glyph unicode="u" horiz-adv-x="445" d="M359 48L349 0H405L512 501H456L386 173Q380 146 366 124T330 85T283 58T231 44Q190 41 163 51T126 87T126 160L198 501H142L68 157Q61 123 63 96T77 49T107 16T151 -3T208 -10Q234 -10 261 -4T313 16T359 48Z" />
<glyph unicode="v" horiz-adv-x="428" d="M126 501L172 0H249L511 501H450L221 58L184 501H126Z" />
<glyph unicode="w" horiz-adv-x="708" d="M487 499H430L224 57L184 499H125L171 0H249L437 405L451 0H528L790 499H731L503 57L487 499Z" />
<glyph unicode="x" horiz-adv-x="437" d="M280 296L192 500H137L241 251L30 0H97L264 200L346 0H406L301 245L515 500H453L280 296Z" />
<glyph unicode="y" horiz-adv-x="469" d="M538 470L527 512Q502 504 483 489T453 453T436 409L386 174Q380 148 366 125T330 83T284 55T231 44Q208 44 186 49T148 68T126 104T126 162L198 501H142L69 158Q60 115 65 84T88 32T136 1T208 -9Q234 -9 261 -3T313 17T360
50L336 -61Q332 -80 325 -96T307 -126T282 -149T249 -166L256 -209Q296 -196 323 -178T366 -132T392 -62L492 408Q499 440 511 452T538 470Z" />
<glyph unicode="z" horiz-adv-x="428" d="M485 501H147L136 452L402 451L42 50L31 0H399L410 50L112 51L474 452L485 501Z" />
<glyph unicode="{" horiz-adv-x="258" d="M273 517L297 630Q303 657 312 678T332 715T356 742T380 761T402 774L391 823Q390 822 378 817T346 800T307 767T268 712T239 630L215 517Q211 496 204 476T187 436Q177 417 159 398T113 361L101 353L110 345Q130 327
140 309T152 270Q154 251 153 231T146 190L122 76Q111 28 114 -5T129 -60T154 -94T179 -112T191 -118L225 -67Q217 -62 208 -55T192 -36T179 -9T174 28T179 76L203 190Q208 211 209 231T211 273Q210 313 171 353Q198 373 216 393T245 433Q254 454 261 475T273 517Z"
/>
<glyph unicode="|" horiz-adv-x="141" d="M18 -114H73L271 818H216L18 -114Z" />
<glyph unicode="}" horiz-adv-x="263" d="M218 823L186 774Q194 769 202 762T218 743T230 715T235 678T230 630L206 517Q200 489 199 461T205 406T238 353Q202 327 183 300T153 246T137 190L113 76Q107 49 98 29T77 -8T52 -35T28 -54T6 -67L17 -118Q19 -117 31
-112T63 -95T102 -61T141 -6T169 76L193 190Q199 218 208 244T238 295T296 345L309 353L300 361Q273 386 263 411T254 462T262 517L287 630Q297 678 294 711T279 767T254 801T230 817T218 823Z" />
<glyph unicode="~" horiz-adv-x="267" d="M354 306L338 347Q323 334 307 327T271 318Q248 318 227 327T184 345T137 354Q118 354 95 345T46 313L60 272Q82 289 99 295T133 299Q156 298 176 290T217 273T260 263Q280 262 303 271T354 306Z" />
<glyph unicode="&#xa0;" horiz-adv-x="280" />
<glyph unicode="&#xa1;" horiz-adv-x="148" d="M114 36L223 590H176L48 37Q44 18 50 9T73 0Q90 0 100 9T114 36ZM250 676Q253 690 246 699T224 709Q210 709 198 700T183 676Q180 663 188 653T210 643Q224 643 235 653T250 676Z" />
<glyph unicode="&#xa2;" horiz-adv-x="381" d="M165 -114H221L377 623H321L165 -114ZM427 433L451 478Q422 493 389 501T320 510Q254 510 209 485T136 417T97 319L66 174Q52 105 70 64T132 6T236 -11Q265 -10 294 -6T352 5V55Q352 55 342 54T315 49T278 44T236
41Q199 41 174 49T135 74T119 119T124 186L150 306Q159 350 180 384T236 439T318 458Q346 457 375 451T427 433Z" />
<glyph unicode="&#xa3;" horiz-adv-x="428" d="M125 53H46L34 0H393L405 53H283Q322 75 351 119T386 207Q390 238 383 268T359 325L350 340H466L478 397H311L274 455Q266 467 258 480T245 510T240 543Q240 575 255 599T296 638T352 656Q384 660 415 651T475 622L504
671Q485 683 463 691T416 704T368 708Q333 708 300 697T241 665T199 613T182 545Q181 512 193 481T224 420L239 397H119L107 340H278L310 292Q319 279 324 265T331 236T331 208Q327 171 307 142T258 94T195 64T125 53Z" />
<glyph unicode="&#xa4;" horiz-adv-x="467" d="M429 366L529 450L501 485L400 401Q387 415 367 422T324 429Q300 429 277 422T233 401L169 485L127 450L190 366Q174 350 164 329T148 284Q143 260 145 239T156 200L56 118L83 81L184 165Q198 152 218 145T262 138Q285
138 307 145T350 165L415 81L459 118L394 200Q409 217 421 238T437 284Q442 307 440 328T429 366ZM273 189Q247 189 228 201T201 236T198 284Q204 310 221 331T262 364T313 377Q339 377 357 365T384 331T386 284Q381 258 364 236T323 202T273 189Z" />
<glyph unicode="&#xa5;" horiz-adv-x="516" d="M360 342L645 700H580L344 406L235 700H172L303 340L231 0H287L360 342ZM140 198H460L472 253H152L140 198ZM118 94H438L450 149H130L118 94Z" />
<glyph unicode="&#xa7;" horiz-adv-x="435" d="M456 626L487 663Q466 678 443 685T398 695T354 698Q322 698 289 689T229 662T185 617T168 555Q168 531 175 513T196 481Q163 462 146 432T128 368Q129 337 141 315T174 278T219 251T268 230T313 209T347 183T360
147Q360 118 347 97T313 62T267 41T221 34Q190 34 164 41T117 63T78 100L41 68Q67 28 112 5T212 -18Q247 -18 282 -8T348 23T396 73T416 144Q416 166 410 183T392 213Q416 234 435 265T456 331Q456 362 444 383T411 420T365 446T315 468T269 490T235 517T222 556Q222
580 234 597T266 626T308 644T352 651Q371 652 390 650T426 641T456 626ZM351 246Q330 258 307 268T262 287T222 307T194 333T183 369Q183 388 190 403T211 429T241 447Q261 436 283 427T325 409T363 390T390 367T400 334Q400 309 385 285T351 246Z" />
<glyph unicode="&#xa8;" horiz-adv-x="267" d="M212 742Q199 742 187 732T172 708Q169 695 177 685T198 675Q212 675 224 685T239 708Q242 722 234 732T212 742ZM369 742Q356 742 344 732T328 708Q325 694 333 685T354 675Q368 675 380 684T395 708Q398 722 391
732T369 742Z" />
<glyph unicode="&#xa9;" horiz-adv-x="696" d="M704 188L734 327Q747 391 734 439T685 519T595 568T471 584Q402 584 341 568T231 519T149 438T101 327L71 188Q58 124 71 76T120 -5T210 -53T333 -69Q402 -69 463 -53T574 -5T657 75T704 188ZM669 302L650 212Q637
151 612 108T550 37T461 -2T344 -15Q278 -15 233 -3T161 37T129 107T136 212L155 302Q168 364 192 407T254 478T343 517T460 530Q526 530 571 518T643 478T675 408T669 302ZM568 384L592 421Q565 438 530 446T457 455Q407 455 366 439T294 393Q267 367 248 331T220
250Q208 194 216 155T252 93Q273 75 304 67T378 58Q417 58 459 66T547 91L531 134Q508 127 489 122T454 115T423 111T393 109Q359 109 335 115T296 136Q277 154 273 183T278 255Q286 291 301 318T338 365Q362 385 394 395T465 405Q477 405 490 404T516 400T543
393T568 384Z" />
<glyph unicode="&#xaa;" horiz-adv-x="329" d="M376 390Q380 407 383 423T390 456T397 489T403 522T411 555Q421 601 416 631T394 678Q383 690 367 696T328 706T279 709L265 666Q294 666 315 663T348 651Q362 641 366 626T367 593Q338 612 312 621T262 631Q229
632 203 618T159 578T134 519Q125 479 130 453T152 410T194 387T252 379Q280 379 311 382T376 390ZM354 543L330 429Q331 429 318 428T284 425T243 425T211 433Q197 441 189 452T178 478T180 514Q185 540 194 555T217 577T247 584Q272 584 300 573T354 543Z" />
<glyph unicode="&#xab;" horiz-adv-x="530" d="M382 267L497 114L456 79L308 267L536 455L564 417L382 267ZM163 267L277 114L235 79L88 267L315 455L344 417L163 267Z" />
<glyph unicode="&#xad;" horiz-adv-x="392" d="M187 356H507L519 414H199L187 356Z" />
<glyph unicode="&#xae;" horiz-adv-x="696" d="M704 188L734 327Q747 391 734 439T685 519T595 568T471 584Q402 584 341 568T231 519T149 438T101 327L71 188Q58 124 71 76T120 -5T210 -53T333 -69Q402 -69 463 -53T574 -5T657 75T704 188ZM667 302L648 212Q635
151 611 108T549 37T461 -2T344 -15Q278 -15 233 -3T161 37T129 107T136 212L155 302Q168 364 192 407T254 478T343 517T460 530Q526 530 571 518T642 478T674 408T667 302ZM480 443H275L193 59H246L272 177H421L453 59H517L481 186Q512 195 541 223T582 312Q591
357 584 383T560 422T522 439T480 443ZM438 233H284L317 389H471Q498 389 513 381T532 356T530 311Q521 271 499 252T438 233Z" />
<glyph unicode="&#xaf;" horiz-adv-x="267" d="M520 677H299L287 623H508L520 677Z" />
<glyph unicode="&#xb0;" horiz-adv-x="348" d="M440 565Q449 605 436 638T395 690T326 710Q286 710 248 691T184 638T148 565Q140 525 152 492T194 439T264 419Q304 419 341 439T405 492T440 565ZM315 660Q341 660 359 647T386 613T389 565Q384 540 367 519T325
484T275 471Q249 471 230 484T203 518T199 565Q205 591 222 612T264 647T315 660Z" />
<glyph unicode="&#xb1;" horiz-adv-x="383" d="M112 378H245L217 247H83L70 190H390L403 247H273L300 378H431L443 432H312L340 565H285L256 432H123L112 378Z" />
<glyph unicode="&#xb4;" horiz-adv-x="267" d="M342 684Q350 693 353 701T355 718T345 731Q338 736 329 735T312 728T298 712L237 605H272L342 684Z" />
<glyph unicode="&#xb5;" horiz-adv-x="466" d="M429 94L517 509L458 497L392 173Q384 136 366 109T322 64T260 43Q217 38 185 53T139 96T131 158L203 500H145L-2 -187L52 -210L108 53Q108 54 114 45T135 22T176 -2T244 -12Q269 -12 292 -7T335 11T372 40Q377 25
384 16T398 1T408 -6L442 26Q441 27 436 35T428 58T429 94Z" />
<glyph unicode="&#xb6;" horiz-adv-x="622" d="M281 247H461L408 1H464L602 649H661L523 1H579L728 702H377Q329 702 290 691T220 653T168 584T132 476Q119 414 122 370T143 299T197 260T281 247ZM362 649H546L473 301H288Q260 302 236 308T197 331T179 383T188
476Q203 547 229 584T289 635T362 649Z" />
<glyph unicode="&#xb7;" horiz-adv-x="150" d="M140 317Q127 317 115 308T100 284Q97 271 105 261T126 251Q140 251 152 261T168 284Q171 298 163 307T140 317Z" />
<glyph unicode="&#xb8;" horiz-adv-x="267" d="M174 10H123L69 -59L76 -88Q90 -86 103 -85T128 -82T151 -81Q178 -80 192 -88T200 -123Q196 -140 184 -151T155 -168T118 -174Q105 -174 92 -173T65 -169T37 -163L15 -212Q16 -212 31 -215T69 -221T114 -224Q158
-224 199 -200T250 -125Q258 -88 237 -59T165 -32Q158 -32 151 -32T138 -34L174 10Z" />
<glyph unicode="&#xba;" horiz-adv-x="320" d="M398 503L418 586Q432 645 406 678T315 711Q248 711 207 679T152 586L132 503Q124 469 132 441T167 396T240 379Q308 379 346 413T398 503ZM359 569L346 515Q337 476 318 453T250 429Q219 429 204 440T186 470T189
515L202 569Q213 615 238 638T305 662Q332 662 346 652T364 621T359 569Z" />
<glyph unicode="&#xbb;" horiz-adv-x="504" d="M237 267L57 114L84 79L312 267L164 455L120 417L237 267ZM457 267L277 114L305 79L531 267L385 455L340 417L457 267Z" />
<glyph unicode="&#xbf;" horiz-adv-x="409" d="M413 162H357Q350 130 335 106T300 67T256 44T210 37Q181 38 157 51T122 91T118 158Q126 192 142 216T181 261T227 303Q244 319 261 336T295 375T323 422T342 482L362 574H310L291 487Q285 456 274 433T248 393T216
360T181 327Q154 302 130 277T89 222T62 156Q53 116 62 85T93 31T141 -2T197 -15Q230 -16 263 -6T327 25T380 81T413 162ZM362 703Q349 703 337 693T322 669Q319 656 327 646T348 636Q362 636 374 646T389 669Q392 683 384 693T362 703Z" />
<glyph unicode="&#xc0;" horiz-adv-x="547" d="M438 856Q437 866 431 873T417 883T397 882Q387 879 383 871T378 852T381 834L417 755H453L438 856ZM527 0L448 700H395L21 0H81L212 245H439L468 0H527ZM238 300L402 614L436 300H238Z" />
<glyph unicode="&#xc1;" horiz-adv-x="547" d="M517 834Q525 843 528 851T530 868T520 881Q513 886 504 885T487 878T473 862L412 755H447L517 834ZM527 0L448 700H395L21 0H81L212 245H439L468 0H527ZM238 300L402 614L436 300H238Z" />
<glyph unicode="&#xc2;" horiz-adv-x="547" d="M569 774L467 901L308 773L339 735L455 828L525 740L569 774ZM527 0L448 700H395L21 0H81L212 245H439L468 0H527ZM238 300L402 614L436 300H238Z" />
<glyph unicode="&#xc3;" horiz-adv-x="547" d="M530 869L526 851Q524 840 518 830T500 819Q494 819 485 825T469 837Q460 844 451 851T431 863Q415 871 395 870T358 857Q346 849 338 838T325 814T318 790L315 772H365L368 790Q369 795 372 804T380 818Q388 823
396 820T411 812Q418 807 425 801T441 790Q452 783 464 776T492 769Q527 769 548 794T576 851L580 869H530ZM527 0L448 700H395L21 0H81L212 245H439L468 0H527ZM238 300L402 614L436 300H238Z" />
<glyph unicode="&#xc4;" horiz-adv-x="547" d="M375 852Q362 852 350 842T335 818Q332 805 340 795T361 785Q375 785 387 795T402 818Q405 832 397 842T375 852ZM532 852Q519 852 507 842T491 818Q488 804 496 795T517 785Q531 785 543 794T558 818Q561 832 554
842T532 852ZM527 0L448 700H395L21 0H81L212 245H439L468 0H527ZM238 300L402 614L436 300H238Z" />
<glyph unicode="&#xc5;" horiz-adv-x="547" d="M464 895Q433 895 404 880T353 840T325 782Q318 750 328 724T361 683T415 668Q446 668 475 683T525 724T553 782Q560 814 550 839T517 880T464 895ZM454 851Q486 851 502 827Q513 808 509 782Q506 769 499 757T482
735Q470 725 456 719T424 712Q408 712 396 718T376 737Q370 746 368 757T369 782Q372 797 380 810T401 832Q412 841 426 846T454 851ZM527 0L448 700H395L21 0H81L212 245H439L468 0H527ZM238 300L402 614L436 300H238Z" />
<glyph unicode="&#xc6;" horiz-adv-x="752" d="M384 0H718L729 50H452L517 356H690L721 414H530L579 647H859L870 700H441L20 0H79L225 244H436L384 0ZM258 300L468 647H522L448 300H258Z" />
<glyph unicode="&#xc7;" horiz-adv-x="423" d="M256 10H205L151 -59L158 -88Q172 -86 185 -85T210 -82T233 -81Q260 -80 274 -88T282 -123Q278 -140 266 -151T237 -168T200 -174Q187 -174 174 -173T147 -169T119 -163L97 -212Q98 -212 113 -215T151 -221T196 -224Q240
-224 281 -200T332 -125Q340 -88 319 -59T247 -32Q240 -32 233 -32T220 -34L256 10ZM490 639L515 677Q487 694 453 702T380 710Q325 710 277 689T193 624T143 510L73 184Q59 117 73 75T129 11T233 -10Q271 -10 313 -2T401 23L399 69Q369 60 342 54T291 44T247 40Q197
40 168 54T129 101T130 186L200 514Q211 567 236 599T300 645T387 660Q413 660 439 655T490 639Z" />
<glyph unicode="&#xc8;" horiz-adv-x="406" d="M368 857Q367 867 361 874T347 884T327 883Q317 880 313 872T308 853T311 835L347 756H383L368 857ZM41 0H373L384 50H108L173 357H349L376 412H185L235 648H513L524 700H190L41 0Z" />
<glyph unicode="&#xc9;" horiz-adv-x="406" d="M443 834Q451 843 454 851T456 868T446 881Q439 886 430 885T413 878T399 862L338 755H373L443 834ZM41 0H373L384 50H108L173 357H349L376 412H185L235 648H513L524 700H190L41 0Z" />
<glyph unicode="&#xca;" horiz-adv-x="406" d="M499 774L397 901L238 773L269 735L385 828L455 740L499 774ZM41 0H373L384 50H108L173 357H349L376 412H185L235 648H513L524 700H190L41 0Z" />
<glyph unicode="&#xcb;" horiz-adv-x="406" d="M305 852Q292 852 280 842T265 818Q262 805 270 795T291 785Q305 785 317 795T332 818Q335 832 327 842T305 852ZM462 852Q449 852 437 842T421 818Q418 804 426 795T447 785Q461 785 473 794T488 818Q491 832 484
842T462 852ZM41 0H373L384 50H108L173 357H349L376 412H185L235 648H513L524 700H190L41 0Z" />
<glyph unicode="&#xcc;" horiz-adv-x="187" d="M265 859Q264 869 258 876T244 886T224 885Q214 882 210 874T205 855T208 837L244 758H280L265 859ZM159 651L226 649L88 0H144L293 700H169L159 651Z" />
<glyph unicode="&#xcd;" horiz-adv-x="187" d="M364 834Q372 843 375 851T377 868T367 881Q360 886 351 885T334 878T320 862L259 755H294L364 834ZM159 651L226 649L88 0H144L293 700H169L159 651Z" />
<glyph unicode="&#xce;" horiz-adv-x="187" d="M410 774L308 901L149 773L180 735L296 828L366 740L410 774ZM159 651L226 649L88 0H144L293 700H169L159 651Z" />
<glyph unicode="&#xcf;" horiz-adv-x="187" d="M221 852Q208 852 196 842T181 818Q178 805 186 795T207 785Q221 785 233 795T248 818Q251 832 243 842T221 852ZM378 852Q365 852 353 842T337 818Q334 804 342 795T363 785Q377 785 389 794T404 818Q407 832 400
842T378 852ZM159 651L226 649L88 0H144L293 700H169L159 651Z" />
<glyph unicode="&#xd0;" horiz-adv-x="497" d="M143 357H346L376 412H155L143 357ZM379 700H190L41 0H250Q321 0 373 22T457 89T504 200L562 475Q577 543 562 593T501 672T379 700ZM243 50H108L235 650H378Q437 650 469 628T510 570T509 490L445 190Q438 156 422
130T381 86T321 59T243 50Z" />
<glyph unicode="&#xd1;" horiz-adv-x="577" d="M545 869L541 851Q539 840 533 830T515 819Q509 819 500 825T484 837Q475 844 466 851T446 863Q430 871 410 870T373 857Q361 849 353 838T340 814T333 790L330 772H380L383 790Q384 795 387 804T395 818Q403 823
411 820T426 812Q433 807 440 801T456 790Q467 783 479 776T507 769Q542 769 563 794T591 851L595 869H545ZM683 700H627L500 103L247 700H190L41 0H98L225 597L478 0H534L683 700Z" />
<glyph unicode="&#xd2;" horiz-adv-x="492" d="M411 858Q410 868 404 875T390 885T370 884Q360 881 356 873T351 854T354 836L390 757H426L411 858ZM142 508L76 191Q63 126 81 81T142 13T243 -11Q305 -11 357 13T446 81T495 186L563 507Q584 605 540 660T395 716Q296
716 230 663T142 508ZM130 187L200 517Q211 566 237 598T301 646T385 663Q433 663 464 647T508 598T510 517L440 192Q430 143 402 110T334 59T248 42Q204 42 174 58T132 107T130 187Z" />
<glyph unicode="&#xd3;" horiz-adv-x="492" d="M486 834Q494 843 497 851T499 868T489 881Q482 886 473 885T456 878T442 862L381 755H416L486 834ZM142 508L76 191Q63 126 81 81T142 13T243 -11Q305 -11 357 13T446 81T495 186L563 507Q584 605 540 660T395 716Q296
716 230 663T142 508ZM130 187L200 517Q211 566 237 598T301 646T385 663Q433 663 464 647T508 598T510 517L440 192Q430 143 402 110T334 59T248 42Q204 42 174 58T132 107T130 187Z" />
<glyph unicode="&#xd4;" horiz-adv-x="492" d="M542 774L440 901L281 773L312 735L428 828L498 740L542 774ZM142 508L76 191Q63 126 81 81T142 13T243 -11Q305 -11 357 13T446 81T495 186L563 507Q584 605 540 660T395 716Q296 716 230 663T142 508ZM130 187L200
517Q211 566 237 598T301 646T385 663Q433 663 464 647T508 598T510 517L440 192Q430 143 402 110T334 59T248 42Q204 42 174 58T132 107T130 187Z" />
<glyph unicode="&#xd5;" horiz-adv-x="492" d="M503 869L499 851Q497 840 491 830T473 819Q467 819 458 825T442 837Q433 844 424 851T404 863Q388 871 368 870T331 857Q319 849 311 838T298 814T291 790L288 772H338L341 790Q342 795 345 804T353 818Q361 823
369 820T384 812Q391 807 398 801T414 790Q425 783 437 776T465 769Q500 769 521 794T549 851L553 869H503ZM142 508L76 191Q63 126 81 81T142 13T243 -11Q305 -11 357 13T446 81T495 186L563 507Q584 605 540 660T395 716Q296 716 230 663T142 508ZM130 187L200
517Q211 566 237 598T301 646T385 663Q433 663 464 647T508 598T510 517L440 192Q430 143 402 110T334 59T248 42Q204 42 174 58T132 107T130 187Z" />
<glyph unicode="&#xd6;" horiz-adv-x="492" d="M348 852Q335 852 323 842T308 818Q305 805 313 795T334 785Q348 785 360 795T375 818Q378 832 370 842T348 852ZM505 852Q492 852 480 842T464 818Q461 804 469 795T490 785Q504 785 516 794T531 818Q534 832 527
842T505 852ZM142 508L76 191Q63 126 81 81T142 13T243 -11Q305 -11 357 13T446 81T495 186L563 507Q584 605 540 660T395 716Q296 716 230 663T142 508ZM130 187L200 517Q211 566 237 598T301 646T385 663Q433 663 464 647T508 598T510 517L440 192Q430 143 402
110T334 59T248 42Q204 42 174 58T132 107T130 187Z" />
<glyph unicode="&#xd7;" horiz-adv-x="347" d="M253 375L177 497L130 463L207 333L75 206L109 168L235 290L310 168L359 206L280 333L413 463L379 497L253 375Z" />
<glyph unicode="&#xd8;" horiz-adv-x="492" d="M35 -1H97L617 701H561L35 -1ZM142 508L76 191Q63 126 81 81T142 13T243 -11Q305 -11 357 13T446 81T495 186L563 507Q584 605 540 660T395 716Q296 716 230 663T142 508ZM130 187L200 517Q211 566 237 598T301 646T385
663Q433 663 464 647T508 598T510 517L440 192Q430 143 402 110T334 59T248 42Q204 42 174 58T132 107T130 187Z" />
<glyph unicode="&#xd9;" horiz-adv-x="498" d="M414 857Q413 867 407 874T393 884T373 883Q363 880 359 872T354 853T357 835L393 756H429L414 857ZM497 186L606 700H551L442 187Q432 140 406 108T342 59T257 42Q211 42 180 58T136 107T133 187L242 700H187L78
186Q64 122 81 78T141 12T246 -11Q310 -11 361 12T448 79T497 186Z" />
<glyph unicode="&#xda;" horiz-adv-x="498" d="M489 834Q497 843 500 851T502 868T492 881Q485 886 476 885T459 878T445 862L384 755H419L489 834ZM497 186L606 700H551L442 187Q432 140 406 108T342 59T257 42Q211 42 180 58T136 107T133 187L242 700H187L78
186Q64 122 81 78T141 12T246 -11Q310 -11 361 12T448 79T497 186Z" />
<glyph unicode="&#xdb;" horiz-adv-x="498" d="M545 774L443 901L284 773L315 735L431 828L501 740L545 774ZM497 186L606 700H551L442 187Q432 140 406 108T342 59T257 42Q211 42 180 58T136 107T133 187L242 700H187L78 186Q64 122 81 78T141 12T246 -11Q310
-11 361 12T448 79T497 186Z" />
<glyph unicode="&#xdc;" horiz-adv-x="498" d="M351 852Q338 852 326 842T311 818Q308 805 316 795T337 785Q351 785 363 795T378 818Q381 832 373 842T351 852ZM508 852Q495 852 483 842T467 818Q464 804 472 795T493 785Q507 785 519 794T534 818Q537 832 530
842T508 852ZM497 186L606 700H551L442 187Q432 140 406 108T342 59T257 42Q211 42 180 58T136 107T133 187L242 700H187L78 186Q64 122 81 78T141 12T246 -11Q310 -11 361 12T448 79T497 186Z" />
<glyph unicode="&#xdd;" horiz-adv-x="515" d="M497 834Q505 843 508 851T510 868T500 881Q493 886 484 885T467 878T453 862L392 755H427L497 834ZM507 156L622 700H566L508 423Q501 387 480 363T430 326T368 306T303 300Q248 300 219 317T182 369T184 453L235
700H179L127 456Q113 391 126 344T182 272T297 246Q331 246 364 252T427 271T483 306L450 153Q444 128 436 108T418 73T393 47T362 30L368 -7Q419 0 455 41T507 156Z" />
<glyph unicode="&#xde;" horiz-adv-x="506" d="M408 617H229L248 700H190L41 0H98L132 162H311Q361 162 401 174T471 214T524 285T559 391Q573 455 569 498T545 568T491 605T408 617ZM144 217L218 564H402Q431 564 454 557T492 531T510 478T502 391Q490 334 472
299T432 247T383 223T328 217H144Z" />
<glyph unicode="&#xdf;" horiz-adv-x="466" d="M96 0L210 541Q218 576 232 599T267 635T316 647Q338 647 351 637T369 611T372 577Q370 560 361 544T337 518T298 508Q283 489 275 470T265 434Q262 407 272 383T302 337T343 293T382 248T410 200T412 144Q407 119
394 100T364 69T325 50T283 43Q268 43 255 44T228 48T202 58T174 77L141 36Q158 20 180 9T228 -7T281 -11Q312 -9 342 0T398 28T443 75T470 142Q478 178 470 208T445 264T406 314T366 358T335 399T324 440Q325 450 329 459T340 477Q340 477 344 477T355 477T365
477T370 477Q386 488 397 503T416 536T426 572Q432 605 423 634T390 683T323 700Q290 699 263 688T214 657T177 607T154 538L39 0H96Z" />
<glyph unicode="&#xe0;" horiz-adv-x="447" d="M350 912Q349 922 343 929T329 939T309 938Q299 935 295 927T290 908T293 890L329 811H365L350 912ZM429 350Q409 364 383 376T328 395T265 403Q235 403 206 395T151 370T108 323T80 252L62 169Q51 114 61 78T97
23T163 -4T251 -10Q266 -10 286 -9T329 -7T370 -4T400 -1T411 0L473 288Q485 348 485 390T467 459T411 497T311 509L300 466Q329 466 356 462T402 446T429 411T429 350ZM419 303L365 46Q365 46 360 46T346 45T324 43T294 40T257 38Q206 36 175 43T130 68T113 113T119
176L135 250Q142 284 156 304T186 336T220 351T250 355Q282 355 311 348T368 329T419 303Z" />
<glyph unicode="&#xe1;" horiz-adv-x="447" d="M427 889Q435 898 438 906T440 923T430 936Q423 941 414 940T397 933T383 917L322 810H357L427 889ZM429 350Q409 364 383 376T328 395T265 403Q235 403 206 395T151 370T108 323T80 252L62 169Q51 114 61 78T97
23T163 -4T251 -10Q266 -10 286 -9T329 -7T370 -4T400 -1T411 0L473 288Q485 348 485 390T467 459T411 497T311 509L300 466Q329 466 356 462T402 446T429 411T429 350ZM419 303L365 46Q365 46 360 46T346 45T324 43T294 40T257 38Q206 36 175 43T130 68T113 113T119
176L135 250Q142 284 156 304T186 336T220 351T250 355Q282 355 311 348T368 329T419 303Z" />
<glyph unicode="&#xe2;" horiz-adv-x="447" d="M481 845L379 972L220 844L251 806L367 899L437 811L481 845ZM429 350Q409 364 383 376T328 395T265 403Q235 403 206 395T151 370T108 323T80 252L62 169Q51 114 61 78T97 23T163 -4T251 -10Q266 -10 286 -9T329
-7T370 -4T400 -1T411 0L473 288Q485 348 485 390T467 459T411 497T311 509L300 466Q329 466 356 462T402 446T429 411T429 350ZM419 303L365 46Q365 46 360 46T346 45T324 43T294 40T257 38Q206 36 175 43T130 68T113 113T119 176L135 250Q142 284 156 304T186
336T220 351T250 355Q282 355 311 348T368 329T419 303Z" />
<glyph unicode="&#xe3;" horiz-adv-x="447" d="M440 930L436 912Q434 901 428 891T410 880Q404 880 395 886T379 898Q370 905 361 912T341 924Q325 932 305 931T268 918Q256 910 248 899T235 875T228 851L225 833H275L278 851Q279 856 282 865T290 879Q298 884
306 881T321 873Q328 868 335 862T351 851Q362 844 374 837T402 830Q437 830 458 855T486 912L490 930H440ZM429 350Q409 364 383 376T328 395T265 403Q235 403 206 395T151 370T108 323T80 252L62 169Q51 114 61 78T97 23T163 -4T251 -10Q266 -10 286 -9T329 -7T370
-4T400 -1T411 0L473 288Q485 348 485 390T467 459T411 497T311 509L300 466Q329 466 356 462T402 446T429 411T429 350ZM419 303L365 46Q365 46 360 46T346 45T324 43T294 40T257 38Q206 36 175 43T130 68T113 113T119 176L135 250Q142 284 156 304T186 336T220
351T250 355Q282 355 311 348T368 329T419 303Z" />
<glyph unicode="&#xe4;" horiz-adv-x="447" d="M284 913Q271 913 259 903T244 879Q241 866 249 856T270 846Q284 846 296 856T311 879Q314 893 306 903T284 913ZM441 913Q428 913 416 903T400 879Q397 865 405 856T426 846Q440 846 452 855T467 879Q470 893 463
903T441 913ZM429 350Q409 364 383 376T328 395T265 403Q235 403 206 395T151 370T108 323T80 252L62 169Q51 114 61 78T97 23T163 -4T251 -10Q266 -10 286 -9T329 -7T370 -4T400 -1T411 0L473 288Q485 348 485 390T467 459T411 497T311 509L300 466Q329 466 356
462T402 446T429 411T429 350ZM419 303L365 46Q365 46 360 46T346 45T324 43T294 40T257 38Q206 36 175 43T130 68T113 113T119 176L135 250Q142 284 156 304T186 336T220 351T250 355Q282 355 311 348T368 329T419 303Z" />
<glyph unicode="&#xe5;" horiz-adv-x="447" d="M370 946Q339 946 310 931T259 891T231 833Q224 801 234 775T267 734T321 719Q352 719 381 734T431 775T459 833Q466 865 456 890T423 931T370 946ZM360 902Q392 902 408 878Q419 859 415 833Q412 820 405 808T388
786Q376 776 362 770T330 763Q314 763 302 769T282 788Q276 797 274 808T275 833Q278 848 286 861T307 883Q318 892 332 897T360 902ZM429 350Q409 364 383 376T328 395T265 403Q235 403 206 395T151 370T108 323T80 252L62 169Q51 114 61 78T97 23T163 -4T251
-10Q266 -10 286 -9T329 -7T370 -4T400 -1T411 0L473 288Q485 348 485 390T467 459T411 497T311 509L300 466Q329 466 356 462T402 446T429 411T429 350ZM419 303L365 46Q365 46 360 46T346 45T324 43T294 40T257 38Q206 36 175 43T130 68T113 113T119 176L135
250Q142 284 156 304T186 336T220 351T250 355Q282 355 311 348T368 329T419 303Z" />
<glyph unicode="&#xe6;" horiz-adv-x="749" d="M429 350Q409 364 383 376T328 395T265 403Q235 403 206 395T151 370T108 323T80 252L62 169Q51 114 61 78T97 23T163 -4T251 -10Q266 -10 286 -9T329 -7T370 -4T400 -1T411 0L473 288Q485 348 485 390T467 459T411
497T311 509L300 466Q329 466 356 462T402 446T429 411T429 350ZM419 303L365 46Q365 46 360 46T346 45T324 43T294 40T257 38Q206 36 175 43T130 68T113 113T119 176L135 250Q142 284 156 304T186 336T220 351T250 355Q282 355 311 348T368 329T419 303ZM441 134L454
196L762 212L790 342Q802 397 786 434T733 490T640 510Q586 510 543 491T470 433T429 339L388 142Q379 100 385 71T410 23T458 -3T526 -12Q564 -12 610 0T700 35L687 78Q644 59 607 48T531 36Q507 36 488 41T457 58T440 89T441 134ZM735 349L717 262L466 251L484
338Q494 378 514 405T566 448T638 463Q673 463 697 449T732 410T735 349Z" />
<glyph unicode="&#xe7;" horiz-adv-x="381" d="M232 15H181L127 -54L134 -83Q148 -81 161 -80T186 -77T209 -76Q236 -75 250 -83T258 -118Q254 -135 242 -146T213 -163T176 -169Q163 -169 150 -168T123 -164T95 -158L73 -207Q74 -207 89 -210T127 -216T172 -219Q216
-219 257 -195T308 -120Q316 -83 295 -54T223 -27Q216 -27 209 -27T196 -29L232 15ZM427 433L451 478Q422 493 389 501T320 510Q254 510 209 485T136 417T97 319L66 174Q52 105 70 64T132 6T236 -11Q265 -10 294 -6T352 5V55Q352 55 342 54T315 49T278 44T236 41Q199
41 174 49T135 74T119 119T124 186L150 306Q159 350 180 384T236 439T318 458Q346 457 375 451T427 433Z" />
<glyph unicode="&#xe8;" horiz-adv-x="422" d="M337 912Q336 922 330 929T316 939T296 938Q286 935 282 927T277 908T280 890L316 811H352L337 912ZM116 134L129 196L437 212L465 342Q477 397 461 434T408 490T315 510Q261 510 218 491T145 433T104 339L63 142Q54
100 60 71T85 23T133 -3T201 -12Q239 -12 285 0T375 35L362 78Q319 59 282 48T206 36Q182 36 163 41T132 58T115 89T116 134ZM410 349L392 262L141 251L159 338Q169 378 189 405T241 448T313 463Q348 463 372 449T407 410T410 349Z" />
<glyph unicode="&#xe9;" horiz-adv-x="422" d="M412 901Q420 910 423 918T425 935T415 948Q408 953 399 952T382 945T368 929L307 822H342L412 901ZM116 134L129 196L437 212L465 342Q477 397 461 434T408 490T315 510Q261 510 218 491T145 433T104 339L63 142Q54
100 60 71T85 23T133 -3T201 -12Q239 -12 285 0T375 35L362 78Q319 59 282 48T206 36Q182 36 163 41T132 58T115 89T116 134ZM410 349L392 262L141 251L159 338Q169 378 189 405T241 448T313 463Q348 463 372 449T407 410T410 349Z" />
<glyph unicode="&#xea;" horiz-adv-x="422" d="M468 845L366 972L207 844L238 806L354 899L424 811L468 845ZM116 134L129 196L437 212L465 342Q477 397 461 434T408 490T315 510Q261 510 218 491T145 433T104 339L63 142Q54 100 60 71T85 23T133 -3T201 -12Q239
-12 285 0T375 35L362 78Q319 59 282 48T206 36Q182 36 163 41T132 58T115 89T116 134ZM410 349L392 262L141 251L159 338Q169 378 189 405T241 448T313 463Q348 463 372 449T407 410T410 349Z" />
<glyph unicode="&#xeb;" horiz-adv-x="422" d="M271 913Q258 913 246 903T231 879Q228 866 236 856T257 846Q271 846 283 856T298 879Q301 893 293 903T271 913ZM428 913Q415 913 403 903T387 879Q384 865 392 856T413 846Q427 846 439 855T454 879Q457 893 450
903T428 913ZM116 134L129 196L437 212L465 342Q477 397 461 434T408 490T315 510Q261 510 218 491T145 433T104 339L63 142Q54 100 60 71T85 23T133 -3T201 -12Q239 -12 285 0T375 35L362 78Q319 59 282 48T206 36Q182 36 163 41T132 58T115 89T116 134ZM410 349L392
262L141 251L159 338Q169 378 189 405T241 448T313 463Q348 463 372 449T407 410T410 349Z" />
<glyph unicode="&#xec;" horiz-adv-x="135" d="M449 932Q448 942 442 949T428 959T408 958Q398 955 394 947T389 928T392 910L428 831H464L449 932ZM38 0H95L201 501H145L38 0Z" />
<glyph unicode="&#xed;" horiz-adv-x="135" d="M534 905Q542 914 545 922T547 939T537 952Q530 957 521 956T504 949T490 933L429 826H464L534 905ZM38 0H95L201 501H145L38 0Z" />
<glyph unicode="&#xee;" horiz-adv-x="135" d="M580 845L478 972L319 844L350 806L466 899L536 811L580 845ZM38 0H95L201 501H145L38 0Z" />
<glyph unicode="&#xef;" horiz-adv-x="135" d="M384 913Q371 913 359 903T344 879Q341 866 349 856T370 846Q384 846 396 856T411 879Q414 893 406 903T384 913ZM541 913Q528 913 516 903T500 879Q497 865 505 856T526 846Q540 846 552 855T567 879Q570 893 563
903T541 913ZM38 0H95L201 501H145L38 0Z" />
<glyph unicode="&#xf0;" horiz-adv-x="425" d="M446 659Q426 676 399 686T339 701L324 670Q332 668 346 664T376 650T407 627L282 524L304 496L430 599Q442 578 447 549T443 481L418 360Q413 376 401 389T372 413T334 428T290 434Q208 434 154 386T80 246L68 188Q49
97 85 44T210 -9Q299 -9 358 42T438 188L498 471Q505 502 505 529T497 581T471 633L522 675L500 703L446 659ZM218 43Q176 43 152 59T121 107T124 188L139 254Q148 296 167 324T216 367T284 381Q313 381 336 373T374 347T395 306T394 249L381 188Q371 139 349 107T295
59T218 43Z" />
<glyph unicode="&#xf1;" d="M436 930L432 912Q430 901 424 891T406 880Q400 880 391 886T375 898Q366 905 357 912T337 924Q321 932 301 931T264 918Q252 910 244 899T231 875T224 851L221 833H271L274 851Q275 856 278 865T286 879Q294 884 302 881T317 873Q324
868 331 862T347 851Q358 844 370 837T398 830Q433 830 454 855T482 912L486 930H436ZM425 342L352 0H407L480 345Q487 376 485 402T473 448T445 481T400 502T341 509Q316 509 291 504T241 490T193 466L201 500H144L38 0H94L185 425Q208 437 230 444T275 455T319
459Q343 459 365 454T403 435T425 399T425 342Z" />
<glyph unicode="&#xf2;" horiz-adv-x="430" d="M341 932Q340 942 334 949T320 959T300 958Q290 955 286 947T281 928T284 910L320 831H356L341 932ZM438 185L467 316Q486 408 450 460T325 512Q265 512 219 490T142 424T97 316L68 185Q57 131 68 87T117 17T216
-10Q308 -10 364 44T438 185ZM410 316L380 175Q372 134 352 104T300 57T226 40Q186 40 160 57T125 104T123 175L153 316Q163 364 184 396T239 445T316 462Q360 462 384 446T414 397T410 316Z" />
<glyph unicode="&#xf3;" horiz-adv-x="430" d="M419 907Q427 916 430 924T432 941T422 954Q415 959 406 958T389 951T375 935L314 828H349L419 907ZM438 185L467 316Q486 408 450 460T325 512Q265 512 219 490T142 424T97 316L68 185Q57 131 68 87T117 17T216
-10Q308 -10 364 44T438 185ZM410 316L380 175Q372 134 352 104T300 57T226 40Q186 40 160 57T125 104T123 175L153 316Q163 364 184 396T239 445T316 462Q360 462 384 446T414 397T410 316Z" />
<glyph unicode="&#xf4;" horiz-adv-x="430" d="M472 845L370 972L211 844L242 806L358 899L428 811L472 845ZM438 185L467 316Q486 408 450 460T325 512Q265 512 219 490T142 424T97 316L68 185Q57 131 68 87T117 17T216 -10Q308 -10 364 44T438 185ZM410 316L380
175Q372 134 352 104T300 57T226 40Q186 40 160 57T125 104T123 175L153 316Q163 364 184 396T239 445T316 462Q360 462 384 446T414 397T410 316Z" />
<glyph unicode="&#xf5;" horiz-adv-x="430" d="M431 930L427 912Q425 901 419 891T401 880Q395 880 386 886T370 898Q361 905 352 912T332 924Q316 932 296 931T259 918Q247 910 239 899T226 875T219 851L216 833H266L269 851Q270 856 273 865T281 879Q289 884
297 881T312 873Q319 868 326 862T342 851Q353 844 365 837T393 830Q428 830 449 855T477 912L481 930H431ZM438 185L467 316Q486 408 450 460T325 512Q265 512 219 490T142 424T97 316L68 185Q57 131 68 87T117 17T216 -10Q308 -10 364 44T438 185ZM410 316L380
175Q372 134 352 104T300 57T226 40Q186 40 160 57T125 104T123 175L153 316Q163 364 184 396T239 445T316 462Q360 462 384 446T414 397T410 316Z" />
<glyph unicode="&#xf6;" horiz-adv-x="430" d="M277 913Q264 913 252 903T237 879Q234 866 242 856T263 846Q277 846 289 856T304 879Q307 893 299 903T277 913ZM434 913Q421 913 409 903T393 879Q390 865 398 856T419 846Q433 846 445 855T460 879Q463 893 456
903T434 913ZM438 185L467 316Q486 408 450 460T325 512Q265 512 219 490T142 424T97 316L68 185Q57 131 68 87T117 17T216 -10Q308 -10 364 44T438 185ZM410 316L380 175Q372 134 352 104T300 57T226 40Q186 40 160 57T125 104T123 175L153 316Q163 364 184 396T239
445T316 462Q360 462 384 446T414 397T410 316Z" />
<glyph unicode="&#xf7;" horiz-adv-x="379" d="M104 356H424L435 410H116L104 356ZM305 546Q291 546 279 536T264 512Q261 499 269 489T291 479Q305 479 317 489T332 512Q335 526 327 536T305 546ZM250 288Q235 289 225 280T211 257Q207 244 213 233T236 222Q250
222 262 231T277 255Q280 269 272 278T250 288Z" />
<glyph unicode="&#xf8;" horiz-adv-x="430" d="M470 514H412L68 -20H125L470 514ZM438 185L467 316Q486 408 450 460T325 512Q265 512 219 490T142 424T97 316L68 185Q57 131 68 87T117 17T216 -10Q308 -10 364 44T438 185ZM410 316L380 175Q372 134 352 104T300
57T226 40Q186 40 160 57T125 104T123 175L153 316Q163 364 184 396T239 445T316 462Q360 462 384 446T414 397T410 316Z" />
<glyph unicode="&#xf9;" horiz-adv-x="445" d="M349 929Q348 939 342 946T328 956T308 955Q298 952 294 944T289 925T292 907L328 828H364L349 929ZM359 48L349 0H405L512 501H456L386 173Q380 146 366 124T330 85T283 58T231 44Q190 41 163 51T126 87T126 160L198
501H142L68 157Q61 123 63 96T77 49T107 16T151 -3T208 -10Q234 -10 261 -4T313 16T359 48Z" />
<glyph unicode="&#xfa;" horiz-adv-x="445" d="M424 905Q432 914 435 922T437 939T427 952Q420 957 411 956T394 949T380 933L319 826H354L424 905ZM359 48L349 0H405L512 501H456L386 173Q380 146 366 124T330 85T283 58T231 44Q190 41 163 51T126 87T126 160L198
501H142L68 157Q61 123 63 96T77 49T107 16T151 -3T208 -10Q234 -10 261 -4T313 16T359 48Z" />
<glyph unicode="&#xfb;" horiz-adv-x="445" d="M480 845L378 972L219 844L250 806L366 899L436 811L480 845ZM359 48L349 0H405L512 501H456L386 173Q380 146 366 124T330 85T283 58T231 44Q190 41 163 51T126 87T126 160L198 501H142L68 157Q61 123 63 96T77
49T107 16T151 -3T208 -10Q234 -10 261 -4T313 16T359 48Z" />
<glyph unicode="&#xfc;" horiz-adv-x="445" d="M283 913Q270 913 258 903T243 879Q240 866 248 856T269 846Q283 846 295 856T310 879Q313 893 305 903T283 913ZM440 913Q427 913 415 903T399 879Q396 865 404 856T425 846Q439 846 451 855T466 879Q469 893 462
903T440 913ZM359 48L349 0H405L512 501H456L386 173Q380 146 366 124T330 85T283 58T231 44Q190 41 163 51T126 87T126 160L198 501H142L68 157Q61 123 63 96T77 49T107 16T151 -3T208 -10Q234 -10 261 -4T313 16T359 48Z" />
<glyph unicode="&#xfd;" horiz-adv-x="469" d="M435 905Q443 914 446 922T448 939T438 952Q431 957 422 956T405 949T391 933L330 826H365L435 905ZM538 470L527 512Q502 504 483 489T453 453T436 409L386 174Q380 148 366 125T330 83T284 55T231 44Q208 44 186
49T148 68T126 104T126 162L198 501H142L69 158Q60 115 65 84T88 32T136 1T208 -9Q234 -9 261 -3T313 17T360 50L336 -61Q332 -80 325 -96T307 -126T282 -149T249 -166L256 -209Q296 -196 323 -178T366 -132T392 -62L492 408Q499 440 511 452T538 470Z" />
<glyph unicode="&#xfe;" horiz-adv-x="442" d="M446 176L483 346Q494 399 483 436T438 493T347 510Q323 509 297 503T245 484T193 453L245 700H188L-1 -188L51 -213L110 61Q118 41 136 24T179 -2T236 -12Q319 -12 373 36T446 176ZM425 343L388 167Q379 124 360
96T311 54T244 40Q215 40 192 49T154 75T133 117T134 174L180 393Q199 414 224 428T276 450T325 460Q349 462 370 457T406 438T426 401T425 343Z" />
<glyph unicode="&#xff;" horiz-adv-x="469" d="M294 913Q281 913 269 903T254 879Q251 866 259 856T280 846Q294 846 306 856T321 879Q324 893 316 903T294 913ZM451 913Q438 913 426 903T410 879Q407 865 415 856T436 846Q450 846 462 855T477 879Q480 893 473
903T451 913ZM538 470L527 512Q502 504 483 489T453 453T436 409L386 174Q380 148 366 125T330 83T284 55T231 44Q208 44 186 49T148 68T126 104T126 162L198 501H142L69 158Q60 115 65 84T88 32T136 1T208 -9Q234 -9 261 -3T313 17T360 50L336 -61Q332 -80 325
-96T307 -126T282 -149T249 -166L256 -209Q296 -196 323 -178T366 -132T392 -62L492 408Q499 440 511 452T538 470Z" />
<glyph unicode="&#x2013;" d="M110 356H480L492 414H122L110 356Z" />
<glyph unicode="&#x2014;" horiz-adv-x="717" d="M110 356H750L762 414H122L110 356Z" />
<glyph unicode="&#x2018;" horiz-adv-x="128" d="M247 702L231 714Q223 707 212 697T190 671T169 637T154 594Q150 579 158 570T180 561Q194 561 206 570T221 594Q223 606 217 615T199 627Q204 644 215 663T247 702Z" />
<glyph unicode="&#x2019;" horiz-adv-x="129" d="M148 559L163 546Q172 553 184 564T207 590T227 624T242 666Q245 681 237 690T215 700Q202 700 190 690T175 666Q172 654 178 645T195 633Q191 617 180 598T148 559Z" />
<glyph unicode="&#x201a;" horiz-adv-x="140" d="M20 -65L35 -77Q44 -71 55 -60T78 -34T99 0T114 43Q116 58 109 67T86 76Q73 76 61 67T46 43Q44 30 50 21T66 10Q62 -6 51 -25T20 -65Z" />
<glyph unicode="&#x201c;" horiz-adv-x="307" d="M426 702L412 714Q403 707 392 697T370 671T348 637T333 594Q330 579 338 570T359 561Q373 561 385 570T400 594Q402 606 397 615T378 627Q385 644 395 663T426 702ZM247 702L231 714Q223 707 212 697T190 671T169
637T154 594Q150 579 158 570T180 561Q194 561 206 570T221 594Q223 606 217 615T199 627Q204 644 215 663T247 702Z" />
<glyph unicode="&#x201d;" horiz-adv-x="308" d="M148 559L163 546Q172 552 183 563T206 589T227 624T242 666Q244 681 237 690T215 700Q201 700 190 690T175 666Q172 654 178 645T195 633Q191 617 180 598T148 559ZM329 559L343 546Q352 553 363 564T386 590T407
624T421 666Q425 681 417 690T395 700Q382 700 370 690T354 666Q352 654 358 645T375 633Q370 617 360 598T329 559Z" />
<glyph unicode="&#x201e;" horiz-adv-x="319" d="M20 -65L35 -77Q44 -71 55 -60T78 -34T99 0T114 43Q116 58 109 67T86 76Q73 76 61 67T46 43Q44 30 50 21T66 10Q62 -6 51 -25T20 -65ZM200 -65L215 -77Q224 -70 235 -60T257 -34T278 0T293 43Q297 58 289 67T266
76Q253 76 241 67T226 43Q223 30 229 21T247 10Q243 -6 232 -25T200 -65Z" />
<glyph unicode="&#x2022;" horiz-adv-x="343" d="M362 436Q329 478 271 478Q216 478 163 436Q113 395 101 336Q95 308 100 283T121 238Q154 196 211 196Q241 196 268 206T320 238Q345 258 361 283T382 336Q395 394 362 436Z" />
<glyph unicode="&#x2039;" horiz-adv-x="284" d="M84 267L231 79L273 114L157 267L340 417L311 455L84 267Z" />
<glyph unicode="&#x203a;" horiz-adv-x="284" d="M237 267L57 114L85 79L312 267L165 455L120 417L237 267Z" />
</font>
</defs>
</svg>
