<?xml version="1.0" standalone="no"?>
<!DOCTYPE svg PUBLIC "-//W3C//DTD SVG 1.1//EN" "http://www.w3.org/Graphics/SVG/1.1/DTD/svg11.dtd">
<svg xmlns="http://www.w3.org/2000/svg">
<defs >
<font id="AdventPro" horiz-adv-x="443" ><font-face
    font-family="Advent Pro SemiBold"
    units-per-em="1000"
    panose-1="0 0 0 0 0 0 0 0 0 0"
    ascent="964"
    descent="-232"
    alphabetic="0" />
<glyph unicode=" " horiz-adv-x="280" />
<glyph unicode="!" horiz-adv-x="179" d="M178 652L81 121H147L278 653Q285 682 275 696T239 710Q215 710 200 696T178 652ZM109 93Q88 93 71 79T48 43Q44 21 54 6T88 -10Q110 -10 127 5T148 41Q153 63 142 78T109 93Z" />
<glyph unicode="&quot;" horiz-adv-x="278" d="M314 698L304 589H359L396 698Q401 719 391 729T364 739T333 729T314 698ZM178 698L169 589H223L260 698Q265 719 255 729T228 739T197 729T178 698Z" />
<glyph unicode="#" horiz-adv-x="616" d="M493 261L544 376H662L682 471H587L691 700H595L492 471H374L476 700H388L286 471H132L112 376H243L192 261H88L69 175H153L74 0H164L241 175H359L282 0H376L454 175H619L638 261H493ZM399 261H280L331 376H451L399 261Z" />
<glyph unicode="$" horiz-adv-x="541" d="M212 -115H304L502 819H410L212 -115ZM551 595L591 673Q570 685 544 693T490 706T434 710Q395 710 355 702T278 675T215 624T178 546Q169 503 177 472T206 418T253 378T310 346T368 317T418 287T449 248T453 197Q447 165
430 142T389 105T338 83T282 75Q248 75 216 83T157 108T112 148L50 90Q72 57 106 34T181 0T267 -12Q315 -12 361 -1T447 36T513 100T553 193Q563 238 555 271T527 328T479 371T421 404T362 431T311 460T278 494T273 540Q278 565 294 581T333 606T378 620T422 624Q444
624 467 621T512 611T551 595Z" />
<glyph unicode="%" horiz-adv-x="724" d="M39 0H139L827 700H727L39 0ZM336 715Q296 715 258 696T194 643T158 569Q150 529 162 496T204 443T274 423Q313 423 350 443T414 496T450 569Q459 610 446 643T405 695T336 715ZM319 636Q337 636 350 627T369 603T371
569Q367 552 355 537T326 512T291 503Q272 503 259 512T239 536T237 569Q242 587 254 602T283 627T319 636ZM603 278Q564 278 526 259T462 206T426 132Q418 92 430 59T472 6T542 -14Q582 -14 619 5T683 58T718 132Q727 173 714 206T673 258T603 278ZM587 199Q605
199 618 190T636 166T638 132Q635 114 623 99T594 74T559 65Q541 65 528 74T509 98T507 132Q511 150 523 165T552 190T587 199Z" />
<glyph unicode="&amp;" horiz-adv-x="530" d="M513 611L555 703H387Q341 703 302 684T235 632T199 555Q193 526 197 498T217 446T256 404H241Q214 404 189 396T144 369T108 323T85 256L65 161Q57 125 60 98T75 51T106 20T148 3T197 -3Q218 -3 243 3T294 22T342
53Q353 26 379 11T446 -8L488 65Q455 69 439 85T429 137L469 321H545L585 404H486L508 508H417L395 404H370Q350 412 333 426T303 458T286 497T288 542Q297 578 323 594T382 611H513ZM377 324L345 171Q340 145 323 126T282 95T230 83Q202 81 184 91T159 120T158
165L177 257Q182 278 191 291T213 311T239 321T265 324H377Z" />
<glyph unicode="&apos;" horiz-adv-x="188" d="M200 699L191 589H246L283 699Q287 719 277 729T250 739T220 729T200 699Z" />
<glyph unicode="(" horiz-adv-x="221" d="M357 747L329 819Q282 795 250 764T200 695T171 613L59 87Q51 50 51 21T60 -33T86 -78T131 -118L188 -50Q181 -44 172 -34T156 -8T147 31T152 90L264 618Q271 649 283 671T309 709T336 734T357 747Z" />
<glyph unicode=")" horiz-adv-x="221" d="M241 819L183 747Q189 743 198 734T214 710T225 672T221 618L109 90Q102 56 90 32T63 -8T35 -35T13 -50L42 -118Q77 -99 103 -78T148 -33T180 20T200 87L312 613Q319 646 319 675T312 730T287 778T241 819Z" />
<glyph unicode="*" horiz-adv-x="372" d="M195 646L145 561L254 542L155 462L223 404L294 516L318 404L412 461L343 541L464 560L446 646L336 588L382 700H284L282 588L195 646Z" />
<glyph unicode="+" horiz-adv-x="381" d="M348 531H255L231 413H117L98 324H211L187 211H280L305 324H418L437 413H323L348 531Z" />
<glyph unicode="," horiz-adv-x="214" d="M58 -72L77 -88Q79 -86 91 -77T118 -52T147 -13T167 41Q171 62 160 77T128 92Q106 92 88 77T66 41Q62 23 70 9T95 -9Q88 -24 80 -40T58 -72Z" />
<glyph unicode="-" horiz-adv-x="393" d="M103 323H423L443 414H123L103 323Z" />
<glyph unicode="." horiz-adv-x="172" d="M105 88Q84 88 66 74T43 37Q38 16 50 1T83 -14Q104 -14 123 1T146 37Q150 59 138 73T105 88Z" />
<glyph unicode="/" horiz-adv-x="459" d="M1 -115H86L611 819H524L1 -115Z" />
<glyph unicode="0" horiz-adv-x="494" d="M143 508L77 192Q64 127 82 82T143 13T244 -11Q308 -11 360 12T447 80T496 186L564 502Q585 600 542 658T398 717Q299 717 232 664T143 508ZM172 199L233 487Q243 532 262 561T311 606T378 621Q420 621 442 606T470 561T466
486L405 202Q398 165 378 138T327 97T260 82Q223 82 201 96T172 136T172 199Z" />
<glyph unicode="1" horiz-adv-x="269" d="M150 627L160 550Q164 550 176 553T204 561T234 572T259 584L135 0H226L375 700H284Q265 680 242 666T197 644T163 631T150 627Z" />
<glyph unicode="2" horiz-adv-x="432" d="M172 590L242 552Q256 575 273 590T311 613T351 621Q372 621 389 611T414 582T417 534Q414 520 408 506T389 473T350 424L50 86L31 0H397L416 85H156L415 380Q455 425 478 464T510 544Q522 599 505 635T451 691T371 710Q333
710 296 696T227 656T172 590Z" />
<glyph unicode="3" horiz-adv-x="448" d="M316 404L313 405L493 610L512 700H221L202 608H381L138 323H248Q285 323 314 307T358 261T363 193Q354 158 332 133T280 93T216 79Q180 79 154 92T109 138L40 79Q65 36 110 12T208 -12Q258 -12 300 3T374 46T429 111T460
193Q472 247 457 292T405 368T316 404Z" />
<glyph unicode="4" horiz-adv-x="524" d="M333 0H426L495 323H546L585 414H515L575 700H482L421 414H258L452 700H358L87 323H402L333 0Z" />
<glyph unicode="5" d="M251 412L306 608H488L507 700H241L134 326H239Q288 326 319 312T363 271T366 204Q361 177 347 155T313 116T269 90T217 80Q184 80 159 86T117 101T91 115T82 122L32 42Q32 43 44 35T79 16T132 -3T200 -12Q252 -12 295 7T372 58T428 126T457
200Q470 262 454 309T392 384T275 412H251Z" />
<glyph unicode="6" horiz-adv-x="487" d="M404 616H443L461 700H427Q352 700 291 671T189 588T132 462L77 204Q65 146 82 97T141 19T244 -10Q289 -10 331 7T409 53T468 121T502 204Q515 265 497 312T435 386T329 414Q309 414 286 409T241 395T203 372L218 444Q228
491 252 530T315 592T404 616ZM315 324Q340 324 360 315T393 288T411 250T410 203Q405 178 391 156T357 117T312 91T263 81Q230 81 206 97T171 142T167 203Q173 228 187 249T221 288T266 314T315 324Z" />
<glyph unicode="7" horiz-adv-x="456" d="M133 0L564 608L583 700H190L170 608H459L30 0H133Z" />
<glyph unicode="8" horiz-adv-x="486" d="M394 710Q344 710 300 686T224 623T182 534Q176 506 178 480T191 432T225 390Q189 373 157 344T103 278T71 202Q59 144 76 96T136 18T239 -12Q299 -12 354 17T447 94T498 202Q507 239 501 274T476 338T425 389Q468 414
495 449T533 534Q543 582 528 622T479 686T394 710ZM337 449Q314 449 297 461T273 493T271 535Q276 559 291 578T329 608T374 619Q398 619 414 608T438 578T441 535Q436 512 420 493T383 461T337 449ZM258 79Q225 79 201 95T166 140T162 202Q168 226 182 248T216
287T260 314T311 324Q346 324 370 308T404 263T407 202Q400 168 378 140T324 96T258 79Z" />
<glyph unicode="9" horiz-adv-x="485" d="M389 710Q343 710 301 694T224 648T165 581T131 498Q119 438 136 390T196 314T300 286Q333 286 358 294T402 312T428 328L413 257Q403 211 379 172T317 109T228 85H189L171 -1H206Q280 -1 341 29T444 113T500 239L555
498Q568 557 551 605T492 681T389 710ZM370 619Q404 619 427 603T461 560T464 498Q459 473 445 451T411 412T368 386T318 377Q293 377 273 386T240 412T222 451T222 498Q227 523 241 545T276 583T320 609T370 619Z" />
<glyph unicode=":" horiz-adv-x="179" d="M170 144Q174 165 162 180T129 196Q108 196 91 181T68 144Q64 123 75 108T108 93Q129 93 147 108T170 144ZM222 386Q226 406 214 421T180 436Q159 436 142 421T120 386Q115 365 126 350T159 334Q180 334 198 349T222 386Z" />
<glyph unicode=";" horiz-adv-x="181" d="M61 30L81 15Q83 17 95 26T122 51T150 90T170 144Q174 166 163 180T131 194Q109 194 92 180T69 144Q66 127 74 113T98 94Q93 80 84 63T61 30ZM224 386Q228 406 216 421T183 436Q162 436 145 421T122 386Q117 365 128 350T161
334Q183 334 201 349T224 386Z" />
<glyph unicode="&lt;" horiz-adv-x="400" d="M103 359L321 80L394 138L221 358L490 578L439 638L103 359Z" />
<glyph unicode="=" horiz-adv-x="394" d="M111 357H432L451 446H131L111 357ZM83 221H403L422 309H101L83 221Z" />
<glyph unicode="&gt;" horiz-adv-x="402" d="M155 578L329 358L62 138L110 80L449 359L229 638L155 578Z" />
<glyph unicode="?" horiz-adv-x="420" d="M139 533H234Q239 555 249 572T274 600T305 616T338 622Q364 622 382 610T408 577T410 530Q405 504 390 482T354 440T309 397Q291 380 274 362T241 321T213 272T194 213L174 120H264L283 210Q289 238 298 258T319 296T349
329T389 366Q416 391 439 415T479 466T502 528Q511 570 504 603T476 660T425 696T357 710Q324 710 290 700T225 668T172 613T139 533ZM213 88Q192 88 174 74T150 37Q146 16 158 1T191 -14Q212 -14 230 1T252 37Q257 59 246 73T213 88Z" />
<glyph unicode="@" horiz-adv-x="786" d="M848 428L835 488Q793 480 767 461T727 415T705 354L665 163Q657 121 633 90T571 39T486 9T380 -1Q314 -1 268 11T196 49T162 116T167 215L193 335Q202 378 219 411T263 468T328 502T416 514Q486 514 521 500T549 444H419Q391
444 364 436T314 409T273 361T246 287L234 235Q226 193 230 161T251 106T297 73T370 61Q394 61 420 62T471 65T517 68T550 71T562 72L623 360H669L690 444H637Q645 486 635 515T596 563T526 589T429 597Q365 597 312 581T216 531T146 447T103 329L72 189Q58 121
72 70T126 -16T225 -68T359 -85Q445 -85 512 -66T630 -11T711 73T754 176L791 351Q795 370 801 384T818 409T848 428ZM420 360H534L489 145Q482 144 472 144T449 142T422 141T393 140Q347 140 331 159T326 232L337 284Q344 317 359 333T390 354T420 360Z" />
<glyph unicode="A" horiz-adv-x="546" d="M524 0L481 700H360L23 0H126L223 204H406L416 0H524ZM266 301L393 576L405 301H266Z" />
<glyph unicode="B" horiz-adv-x="506" d="M383 700H190L41 0H265Q335 0 387 25T472 98T519 207Q529 254 522 289T496 349T454 385Q479 401 498 420T530 464T550 519Q562 575 546 616T488 678T383 700ZM308 413H222L263 609H354Q391 609 413 600T443 569T444 515Q437
480 420 457T376 424T308 413ZM263 86H152L202 324H313Q356 324 381 310T414 271T415 210Q406 163 382 136T327 98T263 86Z" />
<glyph unicode="C" horiz-adv-x="426" d="M476 604L516 677Q486 695 448 703T373 711Q318 711 272 689T192 623T144 511L74 184Q61 121 75 78T129 12T232 -11Q270 -11 312 -2T402 23L405 108Q392 105 367 98T313 86T256 81Q220 81 198 91T168 125T167 186L237
514Q246 552 263 576T310 611T382 623Q406 623 431 618T476 604Z" />
<glyph unicode="D" horiz-adv-x="498" d="M379 700H191L41 0H250Q321 0 373 23T459 93T506 205L563 475Q578 545 562 595T499 673T379 700ZM252 85H151L263 609H369Q415 609 440 594T474 552T473 487L411 195Q407 173 397 154T370 119T323 94T252 85Z" />
<glyph unicode="E" horiz-adv-x="409" d="M41 0H374L392 84H151L202 325H338L377 413H222L263 609H506L525 700H190L41 0Z" />
<glyph unicode="F" horiz-adv-x="394" d="M525 700H190L41 0H134L202 325H339L377 413H222L263 609H506L525 700Z" />
<glyph unicode="G" horiz-adv-x="481" d="M487 603L524 677Q505 687 484 694T440 704T391 708Q326 708 275 686T191 618T142 504L74 183Q60 116 78 73T138 10T236 -10Q257 -10 283 -6T335 9T382 34L380 0H448L512 301H308L321 212H402L396 187Q391 163 378 144T345
110T302 89T255 81Q219 81 197 92T168 128T168 188L237 512Q245 553 267 576T322 611T393 622Q408 622 424 620T456 614T487 603Z" />
<glyph unicode="H" horiz-adv-x="516" d="M469 413H222L283 700H190L41 0H134L202 325H450L380 0H473L621 700H529L469 413Z" />
<glyph unicode="I" horiz-adv-x="222" d="M153 614L217 612L87 0H179L328 700H171L153 614Z" />
<glyph unicode="J" horiz-adv-x="257" d="M244 133L365 700H211L193 614L255 612L156 143Q148 108 132 85T91 50T35 38L47 -37Q87 -36 119 -24T177 11T219 64T244 133Z" />
<glyph unicode="K" horiz-adv-x="497" d="M231 433L287 700H190L41 0H138L195 266L246 326L364 0H475L316 405L580 700H466L231 433Z" />
<glyph unicode="L" horiz-adv-x="427" d="M41 0H403L421 84H151L282 700H190L41 0Z" />
<glyph unicode="M" horiz-adv-x="622" d="M283 700H190L41 0H134L224 425L271 0H347L577 426L487 0H579L728 700H635L344 167L283 700Z" />
<glyph unicode="N" horiz-adv-x="578" d="M683 700H590L479 175L282 700H190L41 0H133L243 514L441 0H534L683 700Z" />
<glyph unicode="O" horiz-adv-x="494" d="M143 508L77 192Q64 127 82 82T143 13T244 -11Q308 -11 360 12T447 80T496 186L564 502Q585 600 542 658T398 717Q299 717 232 664T143 508ZM172 199L233 487Q243 532 262 561T311 606T378 621Q420 621 442 606T470 561T466
486L405 202Q398 165 378 138T327 97T260 82Q223 82 201 96T172 136T172 199Z" />
<glyph unicode="P" horiz-adv-x="508" d="M414 700H190L41 0H134L179 212H310Q354 212 394 223T470 261T532 336T575 460Q590 531 583 577T551 651T492 689T414 700ZM198 301L263 609H368Q404 609 430 604T471 584T489 539T482 460Q471 407 455 376T417 328T367
306T303 301H198Z" />
<glyph unicode="Q" horiz-adv-x="494" d="M298 47L325 174H241L211 38Q204 4 207 -24T227 -73T278 -104T367 -115L395 -35Q361 -35 340 -30T309 -16T296 10T298 47ZM143 508L77 192Q64 127 82 82T143 13T244 -11Q308 -11 360 12T447 80T496 186L564 502Q585 600
542 658T398 717Q299 717 232 664T143 508ZM172 199L233 487Q243 532 262 561T311 606T378 621Q420 621 442 606T470 561T466 486L405 202Q398 165 378 138T327 97T260 82Q223 82 201 96T172 136T172 199Z" />
<glyph unicode="R" horiz-adv-x="512" d="M414 700H190L41 0H133L178 212H310Q317 212 324 212T338 213T353 215L384 0H480L444 244Q473 260 498 288T543 359T574 459Q589 531 582 577T551 651T492 689T414 700ZM303 301H197L263 609H368Q404 609 430 604T471
584T489 539T481 459Q470 407 454 375T417 327T367 306T303 301Z" />
<glyph unicode="S" horiz-adv-x="541" d="M550 595L589 673Q568 685 542 693T488 706T433 710Q393 710 353 702T276 675T213 624T177 546Q168 503 176 472T204 418T251 378T309 346T367 317T416 287T448 248T452 197Q445 165 428 142T388 105T336 83T280 75Q247
75 215 83T156 108T110 148L48 90Q71 57 104 34T179 0T265 -12Q314 -12 360 -1T445 36T512 100T552 193Q561 238 554 271T526 328T478 371T420 404T360 431T309 460T277 494T272 540Q277 565 293 581T331 606T377 620T420 624Q443 624 466 621T510 611T550 595Z"
/>
<glyph unicode="T" horiz-adv-x="427" d="M386 609H544L563 700H160L140 609H295L164 0H257L386 609Z" />
<glyph unicode="U" horiz-adv-x="500" d="M499 186L608 700H516L410 200Q403 165 383 138T334 97T267 82Q230 82 206 95T174 135T173 199L280 700H188L79 186Q65 122 82 78T142 12T247 -11Q311 -11 363 12T450 79T499 186Z" />
<glyph unicode="V" horiz-adv-x="514" d="M165 700L201 0H312L645 700H539L291 168L269 700H165Z" />
<glyph unicode="W" horiz-adv-x="739" d="M553 700H475L262 185V700H160V0H275L457 428L467 0H573L866 700H761L553 200V700Z" />
<glyph unicode="X" horiz-adv-x="605" d="M397 447L296 700H183L322 355L28 0H153L363 255L467 0H579L439 346L728 700H604L397 447Z" />
<glyph unicode="Y" horiz-adv-x="518" d="M510 157L625 700H533L473 412Q467 385 452 365T416 330T370 308T319 299Q271 297 245 310T212 353T213 426L272 700H180L123 428Q110 368 123 320T177 244T293 215Q321 215 348 220T399 235T440 261L419 161Q413 135
404 116T383 85T357 65T325 53L338 -15Q411 -7 452 36T510 157Z" />
<glyph unicode="Z" horiz-adv-x="554" d="M191 700L172 611L525 610L505 589L47 84L29 0H518L536 86L162 87L181 107L638 610L658 700H191Z" />
<glyph unicode="[" horiz-adv-x="230" d="M288 723L359 733L378 819H216L18 -115H180L198 -29L131 -19L288 723Z" />
<glyph unicode="\" horiz-adv-x="457" d="M317 -115H416L289 819H190L317 -115Z" />
<glyph unicode="]" horiz-adv-x="232" d="M3 -115H165L362 819H201L183 733L250 723L92 -19L21 -29L3 -115Z" />
<glyph unicode="^" horiz-adv-x="267" d="M428 773L327 901L168 772L205 724L308 810L369 726L428 773Z" />
<glyph unicode="_" horiz-adv-x="384" d="M18 -70H338L353 0H33L18 -70Z" />
<glyph unicode="`" horiz-adv-x="267" d="M277 708Q277 720 269 729T249 740T223 736Q209 730 204 719T199 696T204 673L244 596H285L277 708Z" />
<glyph unicode="a" horiz-adv-x="450" d="M394 340Q380 360 358 373T309 394T255 402Q227 402 200 393T149 367T108 321T82 253L62 160Q52 110 61 77T95 24T157 -3T238 -11Q257 -11 276 -10T316 -9T354 -7T387 -3T414 0L478 301Q490 359 488 399T467 463T410 499T314
510L293 445Q322 445 344 440T379 424T396 392T394 340ZM379 270L338 79Q338 79 334 79T321 78T303 76T282 75T261 73Q221 73 198 79T165 99T154 131T158 175L172 243Q177 263 186 276T206 297T230 307T255 310Q281 310 305 303T348 287T379 270Z" />
<glyph unicode="b" horiz-adv-x="458" d="M235 480L283 700H190L41 0Q53 -1 68 -2T101 -4T137 -7T174 -10T209 -11Q254 -11 294 -4T368 23T426 75T461 160L503 360Q511 399 504 427T479 473T434 499T379 508Q354 508 330 505T283 496T235 480ZM151 79L216 388Q230
395 249 401T291 413T341 418Q353 418 366 415T391 405T408 384T409 349L371 175Q366 151 357 132T332 99T290 80T224 74Q212 74 199 75T175 77T158 78T151 79Z" />
<glyph unicode="c" horiz-adv-x="384" d="M417 407L453 479Q425 493 394 502T329 511Q261 513 215 489T140 421T99 320L67 174Q54 109 70 68T126 8T225 -12Q258 -12 290 -8T354 5L353 82Q353 82 345 81T322 76T290 72T254 70Q226 70 206 76T173 95T158 129T160
179L191 323Q198 358 216 382T262 418T323 430Q348 429 373 423T417 407Z" />
<glyph unicode="d" horiz-adv-x="460" d="M416 0L565 700H473L426 479Q398 494 366 501T294 509Q266 509 237 501T181 474T135 428T107 360L67 170Q56 122 65 88T100 32T162 0T243 -11Q261 -11 280 -10T319 -9T356 -7T390 -3T416 0ZM407 388L341 78Q341 78 337
78T324 77T305 76T285 75T264 73Q225 73 202 79T168 99T156 131T160 174L197 349Q202 370 213 383T238 404T268 414T295 417Q334 417 362 407T407 388Z" />
<glyph unicode="e" horiz-adv-x="425" d="M156 144L164 181L435 195L466 343Q478 398 463 435T411 491T320 511Q266 511 222 491T147 433T105 340L62 137Q54 98 60 70T85 23T133 -4T198 -13Q240 -13 287 0T376 35L359 113Q321 96 284 85T216 73Q199 73 186 77T166
91T155 113T156 144ZM370 325L359 277L182 267L194 322Q202 354 215 376T250 411T306 424Q338 426 353 412T371 374T370 325Z" />
<glyph unicode="f" horiz-adv-x="269" d="M359 625L391 708Q384 710 375 710T357 711T339 712Q311 712 283 703T229 675T185 625T157 550L40 0H135L222 414H295L337 501H241L253 557Q257 575 263 588T279 611T299 624T325 629Q334 629 343 628T359 625Z" />
<glyph unicode="g" horiz-adv-x="442" d="M388 -64L509 500H416L410 469Q395 483 378 492T342 505T303 510Q251 511 211 492T144 435T106 346L69 176Q50 85 83 37T200 -12Q216 -12 232 -9T263 -1T292 11T316 28L298 -56Q293 -76 285 -90T264 -115T238 -130T209
-138L217 -211Q263 -207 297 -191T355 -144T388 -64ZM393 389L342 150Q339 135 329 121T304 96T268 79T225 72Q197 71 180 82T158 114T158 161L196 340Q202 365 213 382T239 410T272 424T306 427Q320 427 334 423T361 413T382 401T393 389Z" />
<glyph unicode="h" horiz-adv-x="445" d="M234 474L282 700H190L41 0H133L218 400Q238 409 255 415T289 424T320 427Q339 427 354 422T379 406T394 380T393 344L320 0H412L486 346Q493 383 491 410T477 456T447 487T405 505T354 511Q333 511 311 506T268 492T234 474Z" />
<glyph unicode="i" horiz-adv-x="178" d="M42 0H135L241 501H149L42 0ZM239 710Q218 710 201 696T178 660Q174 639 185 624T218 609Q239 609 257 624T280 660Q284 682 273 696T239 710Z" />
<glyph unicode="j" horiz-adv-x="239" d="M178 -62L297 501H135L119 424L188 417L87 -54Q82 -79 70 -95T40 -122T-1 -140L9 -214Q53 -210 87 -190T145 -137T178 -62ZM338 659Q342 681 331 695T298 710Q276 710 258 696T235 659Q231 639 243 624T276 609Q297 609
315 624T338 659Z" />
<glyph unicode="k" horiz-adv-x="459" d="M299 336L465 456L411 520L211 367L282 700H190L41 0H133L187 252L219 276L328 0H439L299 336Z" />
<glyph unicode="l" horiz-adv-x="177" d="M41 0H133L282 700H190L41 0Z" />
<glyph unicode="m" horiz-adv-x="720" d="M665 342L592 0H683L756 345Q766 390 760 421T734 472T687 500T624 509Q603 509 576 502T521 484T469 458Q458 476 440 487T398 504T349 509Q329 509 309 505T270 492T232 473L238 501H146L39 0H132L215 398Q235 407 252
413T284 423T315 426Q334 426 349 421T375 405T389 379T389 342L316 0H406L480 345Q483 359 484 372T485 396Q506 406 525 413T561 423T589 426Q608 426 624 421T650 405T665 379T665 342Z" />
<glyph unicode="n" horiz-adv-x="445" d="M390 343L317 -1H408L482 346Q490 381 487 408T473 455T444 486T403 503T352 509Q329 509 307 504T265 490T231 473L237 500H145L39 -1H130L215 399Q235 409 252 415T286 423T317 426Q336 426 351 421T376 406T391 379T390 343Z" />
<glyph unicode="o" horiz-adv-x="432" d="M439 185L468 317Q488 409 452 460T327 512Q266 512 220 490T143 424T98 317L69 185Q59 133 69 89T116 17T217 -10Q309 -10 365 43T439 185ZM375 321L344 176Q338 148 324 126T288 92T235 79Q203 79 185 92T162 127T161
176L192 321Q199 354 214 376T253 409T307 421Q338 421 355 410T377 376T375 321Z" />
<glyph unicode="p" d="M447 177L484 346Q495 398 484 435T441 492T356 511Q336 510 312 505T267 490T232 470L239 501H147L-1 -191L87 -215L139 28Q149 17 164 8T197 -7T237 -12Q320 -12 374 36T447 177ZM390 340L352 162Q346 134 333 114T298 83T251 72Q233 72
217 77T187 91T167 116T165 151L215 389Q224 397 241 405T279 420T318 427Q335 428 350 424T376 410T391 383T390 340Z" />
<glyph unicode="q" horiz-adv-x="442" d="M316 29L270 -189L357 -215L509 501H416L410 471Q396 484 379 493T343 506T305 512Q252 513 211 493T144 436T106 346L70 177Q57 116 67 74T111 11T200 -11Q221 -11 242 -6T283 9T316 29ZM393 390L342 152Q339 135 330
121T305 97T269 80T225 73Q196 73 180 84T159 117T159 164L197 341Q203 366 214 383T240 411T273 425T307 428Q321 428 334 424T360 415T381 403T393 390Z" />
<glyph unicode="r" horiz-adv-x="360" d="M414 427L442 503Q433 507 416 510T376 514Q338 513 302 504T233 476L238 500H145L39 0H131L215 396Q232 404 251 410T289 421T328 429T366 432Q390 432 402 430T414 427Z" />
<glyph unicode="s" horiz-adv-x="424" d="M403 404L449 477Q433 490 411 497T365 508T320 512Q285 512 252 503T191 474T146 426T129 360Q129 330 140 309T168 273T207 247T250 227T289 207T318 184T329 153Q329 133 319 118T294 92T260 76T224 70Q200 70 179
77T139 96T106 125L42 69Q68 30 115 7T216 -16Q256 -16 294 -3T362 34T410 92T427 169Q427 196 416 216T387 251T347 277T303 298T263 318T234 339T222 366Q222 383 231 394T254 412T285 422T315 425Q332 426 348 424T378 416T403 404Z" />
<glyph unicode="t" horiz-adv-x="265" d="M162 132L222 415H302L343 500H240L282 700H189L68 132Q54 66 80 30T174 -13L217 60Q195 63 181 70T162 93T162 132Z" />
<glyph unicode="u" horiz-adv-x="446" d="M322 33L314 0H406L513 501H421L351 175Q347 154 336 138T309 108T274 88T235 78Q203 75 185 84T163 113T164 160L236 501H143L70 158Q62 120 65 93T79 46T109 15T151 -2T200 -8Q223 -8 246 -2T290 13T322 33Z" />
<glyph unicode="v" horiz-adv-x="456" d="M127 501L178 0H274L538 501H437L250 131L223 501H127Z" />
<glyph unicode="w" horiz-adv-x="721" d="M506 500H423L258 149L227 500H126L179 0H277L426 314L440 0H537L803 500H703L524 149L506 500Z" />
<glyph unicode="x" horiz-adv-x="488" d="M311 330L236 501H138L244 250L31 0H152L285 160L352 0H454L350 238L572 501H454L311 330Z" />
<glyph unicode="y" horiz-adv-x="479" d="M544 446L528 512Q490 509 463 492T421 450T399 398L352 176Q347 156 337 138T310 107T275 86T235 78Q217 78 202 83T177 98T163 125T163 162L235 502H143L70 159Q60 112 66 81T91 30T138 2T199 -7Q223 -7 246 -1T289
14T322 35L303 -52Q300 -69 292 -83T273 -109T248 -128T216 -139L225 -212Q271 -208 305 -190T362 -138T394 -60L487 378Q493 406 505 423T544 446Z" />
<glyph unicode="z" horiz-adv-x="433" d="M494 501H148L130 417L353 416L51 87L32 0H401L420 87L173 88L477 418L494 501Z" />
<glyph unicode="{" horiz-adv-x="281" d="M308 518L332 631Q338 654 345 672T360 703T378 726T397 741T416 752L391 824Q390 823 378 818T347 801T307 768T269 713T240 631L216 518Q212 496 205 476T188 436Q178 417 160 399T113 361L102 353L110 346Q130 328
140 309T153 271Q155 252 154 232T147 190L123 76Q112 28 115 -6T130 -61T154 -95T178 -113T191 -118L248 -45Q240 -41 233 -35T221 -19T212 3T209 34T214 76L238 190Q243 211 245 232T246 274Q245 314 207 353Q234 373 252 393T280 433Q290 454 297 475T308 518Z"
/>
<glyph unicode="|" horiz-adv-x="178" d="M18 -115H110L308 819H216L18 -115Z" />
<glyph unicode="}" horiz-adv-x="286" d="M241 824L185 752Q193 748 200 742T212 726T221 704T224 673T218 631L194 518Q188 490 186 462T192 406T226 353Q189 328 170 301T141 247T125 190L101 76Q96 52 89 34T73 3T54 -19T35 -34T15 -45L41 -118Q42 -118 55
-113T87 -96T126 -62T165 -6T193 76L217 190Q223 218 233 244T263 296T320 346L332 353L323 361Q296 386 287 411T279 463T287 518L311 631Q321 679 318 712T303 768T277 802T253 818T241 824Z" />
<glyph unicode="~" horiz-adv-x="267" d="M355 302L336 353Q317 340 300 334T268 327Q246 327 227 335T188 351T144 359Q119 359 94 348T44 318L63 267Q84 280 102 286T135 291Q157 291 175 284T212 268T253 259Q280 259 305 271T355 302Z" />
<glyph unicode="&#xa0;" horiz-adv-x="280" />
<glyph unicode="&#xa1;" horiz-adv-x="179" d="M151 57L247 590H181L52 58Q46 29 55 15T88 0Q114 0 129 14T151 57ZM282 669Q286 691 275 705T243 720Q222 720 204 706T181 669Q177 648 188 634T221 619Q243 619 260 633T282 669Z" />
<glyph unicode="&#xa2;" horiz-adv-x="384" d="M168 -114H244L401 624H325L168 -114ZM417 407L453 479Q425 493 394 502T329 511Q261 513 215 489T140 421T99 320L67 174Q54 109 70 68T126 8T225 -12Q258 -12 290 -8T354 5L353 82Q353 82 345 81T322 76T290 72T254
70Q226 70 206 76T173 95T158 129T160 179L191 323Q198 358 216 382T262 418T323 430Q348 429 373 423T417 407Z" />
<glyph unicode="&#xa3;" horiz-adv-x="431" d="M146 85H54L35 0H396L414 85H304Q338 110 361 146T391 224Q394 248 391 271T378 316L368 341H469L487 428H327L303 470Q295 487 288 501T279 529T279 560Q283 580 295 593T325 613T359 622Q389 623 414 616T460 597L506
673Q490 685 469 693T425 705T383 709Q348 709 315 700T255 672T208 626T183 562Q178 533 184 505T203 450L213 428H127L108 341H256L271 313Q278 299 283 284T290 253T291 222Q289 192 277 167T245 124T200 95T146 85Z" />
<glyph unicode="&#xa4;" horiz-adv-x="488" d="M445 355L548 441L506 495L402 408Q389 418 372 423T335 429Q315 429 296 424T258 408L192 495L126 441L193 355Q181 341 172 322T159 284Q154 263 155 246T163 212L59 127L102 72L205 158Q219 149 236 144T273 138Q292
138 311 143T348 158L416 72L482 127L414 212Q426 228 436 245T450 284Q454 304 453 322T445 355ZM290 218Q272 218 259 226T240 250T238 284Q242 303 254 317T283 340T318 349Q336 349 349 341T368 318T369 284Q366 266 354 251T325 227T290 218Z" />
<glyph unicode="&#xa5;" horiz-adv-x="517" d="M372 325L643 700H542L346 425L269 700H170L279 324L210 0H303L372 325ZM139 197H460L479 286H159L139 197ZM111 61H431L450 149H129L111 61Z" />
<glyph unicode="&#xa7;" horiz-adv-x="442" d="M443 591L489 664Q473 677 451 684T405 695T360 699Q325 699 291 690T230 661T186 613T169 547Q168 524 174 507T192 476Q160 455 145 425T129 360Q129 330 140 309T168 273T207 247T250 227T289 207T318 184T329
153Q329 133 319 118T294 92T260 76T224 70Q200 70 179 77T139 96T106 125L42 69Q68 30 115 7T216 -16Q256 -16 294 -3T362 34T410 92T427 168Q427 186 422 200T409 227Q434 251 451 284T467 356Q467 383 456 403T426 438T387 464T343 485T303 505T274 526T262
553Q262 570 271 581T294 599T325 609T355 612Q372 613 388 611T418 603T443 591ZM338 282Q322 290 306 297T274 312T248 327T229 344T222 366Q222 381 228 392T245 410T268 423Q282 416 296 409T324 396T347 381T363 363T369 340Q369 323 360 308T338 282Z" />
<glyph unicode="&#xa8;" horiz-adv-x="267" d="M216 760Q195 760 177 745T154 709Q150 688 161 673T194 658Q216 658 233 673T256 709Q261 730 249 745T216 760ZM374 760Q353 760 335 745T312 709Q308 688 319 673T352 658Q373 658 391 673T414 709Q419 730 408
745T374 760Z" />
<glyph unicode="&#xa9;" horiz-adv-x="755" d="M763 187L793 327Q807 394 793 445T739 530T640 581T504 598Q429 598 362 581T242 530T153 445T102 327L72 187Q57 119 72 68T126 -18T224 -69T359 -86Q435 -86 501 -69T622 -18T712 68T763 187ZM698 294L681 219Q667
154 641 111T575 44T487 10T377 0Q309 0 263 10T190 44T159 111T167 219L182 294Q196 359 221 402T283 469T371 503T487 513Q555 513 601 504T674 470T705 402T698 294ZM583 349L623 422Q595 437 561 446T489 456Q438 456 397 440T325 394Q297 368 278 332T249
250Q238 197 246 158T282 95Q302 76 333 67T406 57Q446 57 489 66T577 92L560 169Q552 166 539 162T507 155T469 149T427 146Q402 146 384 151T355 167Q342 181 339 203T343 256Q349 284 360 304T389 340Q407 354 431 361T487 369Q503 369 518 367T547 361T569
355T583 349Z" />
<glyph unicode="&#xaa;" horiz-adv-x="330" d="M378 391Q379 396 382 412T391 451T400 495T408 534T413 556Q423 602 420 634T397 685Q384 699 365 704T323 711T280 710L260 655Q279 656 293 655T316 652Q339 648 345 639T348 605Q327 619 306 625T265 632Q232
633 206 618T162 577T136 520Q127 478 132 451T153 409T195 386T254 379Q281 379 312 383T378 391ZM333 538L314 451Q312 451 305 450T288 449T268 449T250 451Q234 454 223 460T207 478T205 511Q209 528 216 540T234 559T259 566Q279 566 298 558T333 538Z" />
<glyph unicode="&#xab;" horiz-adv-x="555" d="M427 268L528 137L457 80L309 268L537 456L585 395L427 268ZM207 268L308 137L236 80L89 268L316 456L364 395L207 268Z" />
<glyph unicode="&#xad;" horiz-adv-x="393" d="M171 323H491L511 414H191L171 323Z" />
<glyph unicode="&#xae;" horiz-adv-x="755" d="M763 187L793 327Q807 394 793 445T739 530T639 581T504 598Q428 598 362 581T242 530T152 445T102 327L72 187Q57 119 72 68T126 -18T224 -69T358 -86Q435 -86 501 -69T622 -18T712 68T763 187ZM696 293L681 219Q666
154 643 111T583 44T496 10T377 0Q309 0 263 10T190 44T159 111T167 219L182 293Q197 359 220 402T280 469T367 503T486 513Q554 513 600 503T673 469T704 402T696 293ZM509 444H309L228 60H319L337 145H436L458 60H564L529 163Q559 177 582 208T615 293Q624 337
621 366T604 412T566 436T509 444ZM459 234H356L381 352H484Q505 352 515 346T528 327T525 293Q518 257 501 246T459 234Z" />
<glyph unicode="&#xaf;" horiz-adv-x="267" d="M525 699H303L286 621H507L525 699Z" />
<glyph unicode="&#xb0;" horiz-adv-x="350" d="M441 566Q450 606 437 639T396 691T326 711Q286 711 249 692T185 639T149 566Q141 526 153 493T195 440T264 420Q305 420 342 440T406 493T441 566ZM309 633Q327 633 340 624T359 600T362 566Q358 548 346 533T316
509T281 500Q263 500 250 509T231 533T228 566Q232 584 244 599T274 624T309 633Z" />
<glyph unicode="&#xb1;" horiz-adv-x="388" d="M111 359H224L200 247H86L67 161H387L406 247H294L317 359H430L450 448H336L361 566H268L243 448H129L111 359Z" />
<glyph unicode="&#xb4;" horiz-adv-x="267" d="M348 677Q359 688 363 699T366 722T354 739Q344 747 331 745T308 734T291 713L234 600H275L348 677Z" />
<glyph unicode="&#xb5;" horiz-adv-x="465" d="M432 106L518 510L422 497L352 163Q347 139 333 120T299 88T249 74Q226 73 204 81T171 108T164 153L238 500H146L-1 -190L87 -214L140 37Q145 29 154 22T177 7T206 -5T242 -10Q262 -10 280 -5T312 9T335 30Q337 24
341 17T351 5T361 -3L439 25Q438 28 434 36T428 61T432 106Z" />
<glyph unicode="&#xb6;" horiz-adv-x="659" d="M287 213H418L373 1H465L595 611H654L524 1H616L765 702H390Q348 702 308 691T233 652T172 579T129 461Q114 387 120 338T149 262T208 224T287 213ZM397 611H503L437 301H331Q297 301 271 306T230 328T213 376T221
461Q236 527 259 558T316 600T397 611Z" />
<glyph unicode="&#xb7;" horiz-adv-x="183" d="M165 348Q144 348 126 334T103 297Q98 276 110 261T143 246Q164 246 183 261T206 297Q210 319 198 333T165 348Z" />
<glyph unicode="&#xb8;" horiz-adv-x="267" d="M173 3H112L52 -70L61 -105Q81 -103 96 -102T125 -99T148 -98Q170 -98 178 -106T183 -133Q181 -144 173 -152T153 -165T125 -170Q108 -170 88 -168T53 -164T32 -160L8 -220Q9 -220 24 -223T61 -229T107 -232Q163
-232 199 -205T245 -130Q253 -95 234 -67T167 -39Q163 -39 157 -39T139 -39L173 3Z" />
<glyph unicode="&#xba;" horiz-adv-x="334" d="M405 504L423 587Q436 646 411 678T318 711Q249 711 208 680T154 587L136 504Q129 471 136 442T170 396T245 379Q314 379 354 413T405 504ZM346 579L331 510Q326 485 311 469T261 453Q239 453 227 460T213 480T213
510L227 579Q234 608 254 623T301 638Q322 638 333 631T347 611T346 579Z" />
<glyph unicode="&#xbb;" horiz-adv-x="530" d="M218 268L62 137L109 80L337 268L189 456L116 395L218 268ZM439 268L283 137L330 80L557 268L410 456L337 395L439 268Z" />
<glyph unicode="&#xbf;" horiz-adv-x="422" d="M426 162H333Q328 140 318 123T292 95T260 77T225 72Q204 73 186 83T160 114T157 165Q163 191 178 212T214 253T257 295Q275 312 292 331T326 373T354 422T373 482L393 575H303L284 486Q278 457 270 436T248 399T218
366T178 328Q152 304 129 280T89 228T64 166Q55 124 64 91T94 34T145 -1T206 -15Q247 -16 282 -4T347 31T397 87T426 162ZM376 708Q355 708 337 694T315 657Q310 636 321 621T354 605Q376 605 393 620T416 657Q420 679 409 693T376 708Z" />
<glyph unicode="&#xc0;" horiz-adv-x="546" d="M447 863Q447 875 439 884T419 895T393 891Q379 885 374 874T369 851T374 828L414 751H455L447 863ZM524 0L481 700H360L23 0H126L223 204H406L416 0H524ZM266 301L393 576L405 301H266Z" />
<glyph unicode="&#xc1;" horiz-adv-x="546" d="M520 827Q531 838 535 849T538 872T526 889Q516 897 503 895T480 884T463 863L406 750H447L520 827ZM524 0L481 700H360L23 0H126L223 204H406L416 0H524ZM266 301L393 576L405 301H266Z" />
<glyph unicode="&#xc2;" horiz-adv-x="546" d="M571 788L470 915L310 787L348 740L452 826L514 743L571 788ZM524 0L481 700H360L23 0H126L223 204H406L416 0H524ZM266 301L393 576L405 301H266Z" />
<glyph unicode="&#xc3;" horiz-adv-x="546" d="M523 863L520 852Q518 842 514 832T498 822Q492 822 484 827T471 836Q462 843 456 848T440 857Q425 865 407 865T371 859Q353 852 340 840T320 811T309 777L308 766H369L371 777Q372 786 375 794T389 804Q395 806
402 803T415 795Q421 792 429 785T444 775Q453 770 463 766T485 761Q524 761 549 789T581 852L584 863H523ZM524 0L481 700H360L23 0H126L223 204H406L416 0H524ZM266 301L393 576L405 301H266Z" />
<glyph unicode="&#xc4;" horiz-adv-x="546" d="M379 870Q358 870 340 855T317 819Q313 798 324 783T357 768Q379 768 396 783T419 819Q424 840 412 855T379 870ZM537 870Q516 870 498 855T475 819Q471 798 482 783T515 768Q536 768 554 783T577 819Q582 840 571
855T537 870ZM524 0L481 700H360L23 0H126L223 204H406L416 0H524ZM266 301L393 576L405 301H266Z" />
<glyph unicode="&#xc5;" horiz-adv-x="546" d="M462 889Q431 889 402 874T351 834T323 776Q317 744 327 718T359 677T413 662Q445 662 474 677T524 718T552 776Q559 808 549 833T516 874T462 889ZM447 819Q468 819 477 804Q484 792 482 776Q480 767 475 759T463
745Q456 739 447 735T427 731Q419 731 412 735T399 745Q394 752 393 759T393 776Q395 785 400 793T414 808Q421 813 430 816T447 819ZM524 0L481 700H360L23 0H126L223 204H406L416 0H524ZM266 301L393 576L405 301H266Z" />
<glyph unicode="&#xc6;" horiz-adv-x="756" d="M387 0H720L738 84H496L547 323H683L732 414H567L608 609H852L871 700H442L21 0H127L251 211H431L387 0ZM303 301L485 609H516L451 301H303Z" />
<glyph unicode="&#xc7;" horiz-adv-x="426" d="M256 3H195L135 -70L144 -105Q164 -103 179 -102T208 -99T231 -98Q253 -98 261 -106T266 -133Q264 -144 256 -152T236 -165T208 -170Q191 -170 171 -168T136 -164T115 -160L91 -220Q92 -220 107 -223T144 -229T190
-232Q246 -232 282 -205T328 -130Q336 -95 317 -67T250 -39Q246 -39 240 -39T222 -39L256 3ZM476 604L516 677Q486 695 448 703T373 711Q318 711 272 689T192 623T144 511L74 184Q61 121 75 78T129 12T232 -11Q270 -11 312 -2T402 23L405 108Q392 105 367 98T313
86T256 81Q220 81 198 91T168 125T167 186L237 514Q246 552 263 576T310 611T382 623Q406 623 431 618T476 604Z" />
<glyph unicode="&#xc8;" horiz-adv-x="409" d="M380 863Q380 875 372 884T352 895T326 891Q312 885 307 874T302 851T307 828L347 751H388L380 863ZM41 0H374L392 84H151L202 325H338L377 413H222L263 609H506L525 700H190L41 0Z" />
<glyph unicode="&#xc9;" horiz-adv-x="409" d="M451 827Q462 838 466 849T469 872T457 889Q447 897 434 895T411 884T394 863L337 750H378L451 827ZM41 0H374L392 84H151L202 325H338L377 413H222L263 609H506L525 700H190L41 0Z" />
<glyph unicode="&#xca;" horiz-adv-x="409" d="M503 788L402 915L242 787L280 740L384 826L446 743L503 788ZM41 0H374L392 84H151L202 325H338L377 413H222L263 609H506L525 700H190L41 0Z" />
<glyph unicode="&#xcb;" horiz-adv-x="409" d="M314 870Q293 870 275 855T252 819Q248 798 259 783T292 768Q314 768 331 783T354 819Q359 840 347 855T314 870ZM472 870Q451 870 433 855T410 819Q406 798 417 783T450 768Q471 768 489 783T512 819Q517 840 506
855T472 870ZM41 0H374L392 84H151L202 325H338L377 413H222L263 609H506L525 700H190L41 0Z" />
<glyph unicode="&#xcc;" horiz-adv-x="222" d="M295 865Q295 877 287 886T267 897T241 893Q227 887 222 876T217 853T222 830L262 753H303L295 865ZM153 614L217 612L87 0H179L328 700H171L153 614Z" />
<glyph unicode="&#xcd;" horiz-adv-x="222" d="M381 827Q392 838 396 849T399 872T387 889Q377 897 364 895T341 884T324 863L267 750H308L381 827ZM153 614L217 612L87 0H179L328 700H171L153 614Z" />
<glyph unicode="&#xce;" horiz-adv-x="222" d="M419 788L318 915L158 787L196 740L300 826L362 743L419 788ZM153 614L217 612L87 0H179L328 700H171L153 614Z" />
<glyph unicode="&#xcf;" horiz-adv-x="222" d="M239 870Q218 870 200 855T177 819Q173 798 184 783T217 768Q239 768 256 783T279 819Q284 840 272 855T239 870ZM397 870Q376 870 358 855T335 819Q331 798 342 783T375 768Q396 768 414 783T437 819Q442 840 431
855T397 870ZM153 614L217 612L87 0H179L328 700H171L153 614Z" />
<glyph unicode="&#xd0;" horiz-adv-x="498" d="M172 325H331L377 413H192L172 325ZM379 700H191L41 0H250Q321 0 373 23T459 93T506 205L563 475Q578 545 562 595T499 673T379 700ZM252 85H151L263 609H369Q415 609 440 594T474 552T473 487L411 195Q407 173 397
154T370 119T323 94T252 85Z" />
<glyph unicode="&#xd1;" horiz-adv-x="577" d="M538 863L535 852Q533 842 529 832T513 822Q507 822 499 827T486 836Q477 843 471 848T455 857Q440 865 422 865T386 859Q368 852 355 840T335 811T324 777L323 766H384L386 777Q387 786 390 794T404 804Q410 806
417 803T430 795Q436 792 444 785T459 775Q468 770 478 766T500 761Q539 761 564 789T596 852L599 863H538ZM683 700H590L479 175L282 700H190L41 0H133L243 514L441 0H534L683 700Z" />
<glyph unicode="&#xd2;" horiz-adv-x="494" d="M422 864Q422 876 414 885T394 896T368 892Q354 886 349 875T344 852T349 829L389 752H430L422 864ZM143 508L77 192Q64 127 82 82T143 13T244 -11Q308 -11 360 12T447 80T496 186L564 502Q585 600 542 658T398 717Q299
717 232 664T143 508ZM172 199L233 487Q243 532 262 561T311 606T378 621Q420 621 442 606T470 561T466 486L405 202Q398 165 378 138T327 97T260 82Q223 82 201 96T172 136T172 199Z" />
<glyph unicode="&#xd3;" horiz-adv-x="494" d="M492 827Q503 838 507 849T510 872T498 889Q488 897 475 895T452 884T435 863L378 750H419L492 827ZM143 508L77 192Q64 127 82 82T143 13T244 -11Q308 -11 360 12T447 80T496 186L564 502Q585 600 542 658T398 717Q299
717 232 664T143 508ZM172 199L233 487Q243 532 262 561T311 606T378 621Q420 621 442 606T470 561T466 486L405 202Q398 165 378 138T327 97T260 82Q223 82 201 96T172 136T172 199Z" />
<glyph unicode="&#xd4;" horiz-adv-x="494" d="M544 788L443 915L283 787L321 740L425 826L487 743L544 788ZM143 508L77 192Q64 127 82 82T143 13T244 -11Q308 -11 360 12T447 80T496 186L564 502Q585 600 542 658T398 717Q299 717 232 664T143 508ZM172 199L233
487Q243 532 262 561T311 606T378 621Q420 621 442 606T470 561T466 486L405 202Q398 165 378 138T327 97T260 82Q223 82 201 96T172 136T172 199Z" />
<glyph unicode="&#xd5;" horiz-adv-x="494" d="M496 863L493 852Q491 842 487 832T471 822Q465 822 457 827T444 836Q435 843 429 848T413 857Q398 865 380 865T344 859Q326 852 313 840T293 811T282 777L281 766H342L344 777Q345 786 348 794T362 804Q368 806
375 803T388 795Q394 792 402 785T417 775Q426 770 436 766T458 761Q497 761 522 789T554 852L557 863H496ZM143 508L77 192Q64 127 82 82T143 13T244 -11Q308 -11 360 12T447 80T496 186L564 502Q585 600 542 658T398 717Q299 717 232 664T143 508ZM172 199L233
487Q243 532 262 561T311 606T378 621Q420 621 442 606T470 561T466 486L405 202Q398 165 378 138T327 97T260 82Q223 82 201 96T172 136T172 199Z" />
<glyph unicode="&#xd6;" horiz-adv-x="494" d="M352 870Q331 870 313 855T290 819Q286 798 297 783T330 768Q352 768 369 783T392 819Q397 840 385 855T352 870ZM510 870Q489 870 471 855T448 819Q444 798 455 783T488 768Q509 768 527 783T550 819Q555 840 544
855T510 870ZM143 508L77 192Q64 127 82 82T143 13T244 -11Q308 -11 360 12T447 80T496 186L564 502Q585 600 542 658T398 717Q299 717 232 664T143 508ZM172 199L233 487Q243 532 262 561T311 606T378 621Q420 621 442 606T470 561T466 486L405 202Q398 165 378
138T327 97T260 82Q223 82 201 96T172 136T172 199Z" />
<glyph unicode="&#xd7;" horiz-adv-x="367" d="M267 395L199 505L127 454L202 333L78 215L126 161L240 271L309 161L381 215L306 333L432 456L381 506L267 395Z" />
<glyph unicode="&#xd8;" horiz-adv-x="494" d="M22 0H108L622 701H537L22 0ZM143 508L77 192Q64 127 82 82T143 13T244 -11Q308 -11 360 12T447 80T496 186L564 502Q585 600 542 658T398 717Q299 717 232 664T143 508ZM172 199L233 487Q243 532 262 561T311 606T378
621Q420 621 442 606T470 561T466 486L405 202Q398 165 378 138T327 97T260 82Q223 82 201 96T172 136T172 199Z" />
<glyph unicode="&#xd9;" horiz-adv-x="500" d="M425 864Q425 876 417 885T397 896T371 892Q357 886 352 875T347 852T352 829L392 752H433L425 864ZM499 186L608 700H516L410 200Q403 165 383 138T334 97T267 82Q230 82 206 95T174 135T173 199L280 700H188L79
186Q65 122 82 78T142 12T247 -11Q311 -11 363 12T450 79T499 186Z" />
<glyph unicode="&#xda;" horiz-adv-x="500" d="M495 827Q506 838 510 849T513 872T501 889Q491 897 478 895T455 884T438 863L381 750H422L495 827ZM499 186L608 700H516L410 200Q403 165 383 138T334 97T267 82Q230 82 206 95T174 135T173 199L280 700H188L79
186Q65 122 82 78T142 12T247 -11Q311 -11 363 12T450 79T499 186Z" />
<glyph unicode="&#xdb;" horiz-adv-x="500" d="M547 788L446 915L286 787L324 740L428 826L490 743L547 788ZM499 186L608 700H516L410 200Q403 165 383 138T334 97T267 82Q230 82 206 95T174 135T173 199L280 700H188L79 186Q65 122 82 78T142 12T247 -11Q311
-11 363 12T450 79T499 186Z" />
<glyph unicode="&#xdc;" horiz-adv-x="500" d="M355 870Q334 870 316 855T293 819Q289 798 300 783T333 768Q355 768 372 783T395 819Q400 840 388 855T355 870ZM513 870Q492 870 474 855T451 819Q447 798 458 783T491 768Q512 768 530 783T553 819Q558 840 547
855T513 870ZM499 186L608 700H516L410 200Q403 165 383 138T334 97T267 82Q230 82 206 95T174 135T173 199L280 700H188L79 186Q65 122 82 78T142 12T247 -11Q311 -11 363 12T450 79T499 186Z" />
<glyph unicode="&#xdd;" horiz-adv-x="518" d="M504 827Q515 838 519 849T522 872T510 889Q500 897 487 895T464 884T447 863L390 750H431L504 827ZM510 157L625 700H533L473 412Q467 385 452 365T416 330T370 308T319 299Q271 297 245 310T212 353T213 426L272
700H180L123 428Q110 368 123 320T177 244T293 215Q321 215 348 220T399 235T440 261L419 161Q413 135 404 116T383 85T357 65T325 53L338 -15Q411 -7 452 36T510 157Z" />
<glyph unicode="&#xde;" horiz-adv-x="508" d="M395 613H264L283 700H190L41 0H134L161 125H292Q336 125 376 136T452 174T514 249T556 373Q572 444 565 490T533 564T473 602T395 613ZM179 214L245 522H350Q386 522 411 517T452 497T470 452T463 373Q452 320 436
289T398 241T348 219T285 214H179Z" />
<glyph unicode="&#xdf;" horiz-adv-x="500" d="M133 0L242 518Q249 550 261 571T290 603T331 614Q348 614 358 607T371 589T372 564Q370 551 362 538T340 517T307 508Q292 490 284 473T272 438Q267 409 276 384T302 337T340 292T377 248T404 202T407 150Q404 133
395 119T372 96T344 82T314 76Q303 76 291 77T265 80T239 89T214 106L167 37Q183 21 204 10T250 -6T302 -12Q336 -11 368 0T429 31T476 81T503 147Q512 185 505 216T480 274T443 322T404 365T375 404T368 443Q370 452 374 460T385 478Q385 478 388 478T397 478T405
478T408 478Q429 494 441 514T460 557T465 599Q465 629 449 652T406 688T342 701Q311 701 281 691T226 661T182 611T155 538L40 0H133Z" />
<glyph unicode="&#xe0;" horiz-adv-x="450" d="M361 922Q361 934 353 943T333 954T307 950Q293 944 288 933T283 910T288 887L328 810H369L361 922ZM394 340Q380 360 358 373T309 394T255 402Q227 402 200 393T149 367T108 321T82 253L62 160Q52 110 61 77T95
24T157 -3T238 -11Q257 -11 276 -10T316 -9T354 -7T387 -3T414 0L478 301Q490 359 488 399T467 463T410 499T314 510L293 445Q322 445 344 440T379 424T396 392T394 340ZM379 270L338 79Q338 79 334 79T321 78T303 76T282 75T261 73Q221 73 198 79T165 99T154 131T158
175L172 243Q177 263 186 276T206 297T230 307T255 310Q281 310 305 303T348 287T379 270Z" />
<glyph unicode="&#xe1;" horiz-adv-x="450" d="M438 887Q449 898 453 909T456 932T444 949Q434 957 421 955T398 944T381 923L324 810H365L438 887ZM394 340Q380 360 358 373T309 394T255 402Q227 402 200 393T149 367T108 321T82 253L62 160Q52 110 61 77T95
24T157 -3T238 -11Q257 -11 276 -10T316 -9T354 -7T387 -3T414 0L478 301Q490 359 488 399T467 463T410 499T314 510L293 445Q322 445 344 440T379 424T396 392T394 340ZM379 270L338 79Q338 79 334 79T321 78T303 76T282 75T261 73Q221 73 198 79T165 99T154 131T158
175L172 243Q177 263 186 276T206 297T230 307T255 310Q281 310 305 303T348 287T379 270Z" />
<glyph unicode="&#xe2;" horiz-adv-x="450" d="M483 859L382 986L222 858L260 811L364 897L426 814L483 859ZM394 340Q380 360 358 373T309 394T255 402Q227 402 200 393T149 367T108 321T82 253L62 160Q52 110 61 77T95 24T157 -3T238 -11Q257 -11 276 -10T316
-9T354 -7T387 -3T414 0L478 301Q490 359 488 399T467 463T410 499T314 510L293 445Q322 445 344 440T379 424T396 392T394 340ZM379 270L338 79Q338 79 334 79T321 78T303 76T282 75T261 73Q221 73 198 79T165 99T154 131T158 175L172 243Q177 263 186 276T206
297T230 307T255 310Q281 310 305 303T348 287T379 270Z" />
<glyph unicode="&#xe3;" horiz-adv-x="450" d="M434 924L431 913Q429 903 425 893T409 883Q403 883 395 888T382 897Q373 904 367 909T351 918Q336 926 318 926T282 920Q264 913 251 901T231 872T220 838L219 827H280L282 838Q283 847 286 855T300 865Q306 867
313 864T326 856Q332 853 340 846T355 836Q364 831 374 827T396 822Q435 822 460 850T492 913L495 924H434ZM394 340Q380 360 358 373T309 394T255 402Q227 402 200 393T149 367T108 321T82 253L62 160Q52 110 61 77T95 24T157 -3T238 -11Q257 -11 276 -10T316
-9T354 -7T387 -3T414 0L478 301Q490 359 488 399T467 463T410 499T314 510L293 445Q322 445 344 440T379 424T396 392T394 340ZM379 270L338 79Q338 79 334 79T321 78T303 76T282 75T261 73Q221 73 198 79T165 99T154 131T158 175L172 243Q177 263 186 276T206
297T230 307T255 310Q281 310 305 303T348 287T379 270Z" />
<glyph unicode="&#xe4;" horiz-adv-x="450" d="M289 931Q268 931 250 916T227 880Q223 859 234 844T267 829Q289 829 306 844T329 880Q334 901 322 916T289 931ZM447 931Q426 931 408 916T385 880Q381 859 392 844T425 829Q446 829 464 844T487 880Q492 901 481
916T447 931ZM394 340Q380 360 358 373T309 394T255 402Q227 402 200 393T149 367T108 321T82 253L62 160Q52 110 61 77T95 24T157 -3T238 -11Q257 -11 276 -10T316 -9T354 -7T387 -3T414 0L478 301Q490 359 488 399T467 463T410 499T314 510L293 445Q322 445 344
440T379 424T396 392T394 340ZM379 270L338 79Q338 79 334 79T321 78T303 76T282 75T261 73Q221 73 198 79T165 99T154 131T158 175L172 243Q177 263 186 276T206 297T230 307T255 310Q281 310 305 303T348 287T379 270Z" />
<glyph unicode="&#xe5;" horiz-adv-x="450" d="M367 924Q336 924 307 909T256 869T228 811Q222 779 232 753T264 712T318 697Q350 697 379 712T429 753T457 811Q464 843 454 868T421 909T367 924ZM352 854Q373 854 382 839Q389 827 387 811Q385 802 380 794T368
780Q361 774 352 770T332 766Q324 766 317 770T304 780Q299 787 298 794T298 811Q300 820 305 828T319 843Q326 848 335 851T352 854ZM394 340Q380 360 358 373T309 394T255 402Q227 402 200 393T149 367T108 321T82 253L62 160Q52 110 61 77T95 24T157 -3T238
-11Q257 -11 276 -10T316 -9T354 -7T387 -3T414 0L478 301Q490 359 488 399T467 463T410 499T314 510L293 445Q322 445 344 440T379 424T396 392T394 340ZM379 270L338 79Q338 79 334 79T321 78T303 76T282 75T261 73Q221 73 198 79T165 99T154 131T158 175L172
243Q177 263 186 276T206 297T230 307T255 310Q281 310 305 303T348 287T379 270Z" />
<glyph unicode="&#xe6;" horiz-adv-x="716" d="M394 340Q380 360 358 373T309 394T255 402Q227 402 200 393T149 367T108 321T82 253L62 160Q52 110 61 77T95 24T157 -3T238 -11Q257 -11 276 -10T316 -9T354 -7T387 -3T414 0L478 301Q490 359 488 399T467 463T410
499T314 510L293 445Q322 445 344 440T379 424T396 392T394 340ZM379 270L338 79Q338 79 334 79T321 78T303 76T282 75T261 73Q221 73 198 79T165 99T154 131T158 175L172 243Q177 263 186 276T206 297T230 307T255 310Q281 310 305 303T348 287T379 270ZM450 144L458
181L729 195L760 343Q772 398 757 435T705 491T614 511Q560 511 516 491T441 433T399 340L356 137Q348 98 354 70T379 23T427 -4T492 -13Q534 -13 581 0T670 35L653 113Q615 96 578 85T510 73Q493 73 480 77T460 91T449 113T450 144ZM664 325L653 277L476 267L488
322Q496 354 509 376T544 411T600 424Q632 426 647 412T665 374T664 325Z" />
<glyph unicode="&#xe7;" horiz-adv-x="384" d="M232 8H171L111 -65L120 -100Q140 -98 155 -97T184 -94T207 -93Q229 -93 237 -101T242 -128Q240 -139 232 -147T212 -160T184 -165Q167 -165 147 -163T112 -159T91 -155L67 -215Q68 -215 83 -218T120 -224T166 -227Q222
-227 258 -200T304 -125Q312 -90 293 -62T226 -34Q222 -34 216 -34T198 -34L232 8ZM417 407L453 479Q425 493 394 502T329 511Q261 513 215 489T140 421T99 320L67 174Q54 109 70 68T126 8T225 -12Q258 -12 290 -8T354 5L353 82Q353 82 345 81T322 76T290 72T254
70Q226 70 206 76T173 95T158 129T160 179L191 323Q198 358 216 382T262 418T323 430Q348 429 373 423T417 407Z" />
<glyph unicode="&#xe8;" horiz-adv-x="425" d="M348 929Q348 941 340 950T320 961T294 957Q280 951 275 940T270 917T275 894L315 817H356L348 929ZM156 144L164 181L435 195L466 343Q478 398 463 435T411 491T320 511Q266 511 222 491T147 433T105 340L62 137Q54
98 60 70T85 23T133 -4T198 -13Q240 -13 287 0T376 35L359 113Q321 96 284 85T216 73Q199 73 186 77T166 91T155 113T156 144ZM370 325L359 277L182 267L194 322Q202 354 215 376T250 411T306 424Q338 426 353 412T371 374T370 325Z" />
<glyph unicode="&#xe9;" horiz-adv-x="425" d="M419 897Q430 908 434 919T437 942T425 959Q415 967 402 965T379 954T362 933L305 820H346L419 897ZM156 144L164 181L435 195L466 343Q478 398 463 435T411 491T320 511Q266 511 222 491T147 433T105 340L62 137Q54
98 60 70T85 23T133 -4T198 -13Q240 -13 287 0T376 35L359 113Q321 96 284 85T216 73Q199 73 186 77T166 91T155 113T156 144ZM370 325L359 277L182 267L194 322Q202 354 215 376T250 411T306 424Q338 426 353 412T371 374T370 325Z" />
<glyph unicode="&#xea;" horiz-adv-x="425" d="M471 859L370 986L210 858L248 811L352 897L414 814L471 859ZM156 144L164 181L435 195L466 343Q478 398 463 435T411 491T320 511Q266 511 222 491T147 433T105 340L62 137Q54 98 60 70T85 23T133 -4T198 -13Q240
-13 287 0T376 35L359 113Q321 96 284 85T216 73Q199 73 186 77T166 91T155 113T156 144ZM370 325L359 277L182 267L194 322Q202 354 215 376T250 411T306 424Q338 426 353 412T371 374T370 325Z" />
<glyph unicode="&#xeb;" horiz-adv-x="425" d="M277 931Q256 931 238 916T215 880Q211 859 222 844T255 829Q277 829 294 844T317 880Q322 901 310 916T277 931ZM435 931Q414 931 396 916T373 880Q369 859 380 844T413 829Q434 829 452 844T475 880Q480 901 469
916T435 931ZM156 144L164 181L435 195L466 343Q478 398 463 435T411 491T320 511Q266 511 222 491T147 433T105 340L62 137Q54 98 60 70T85 23T133 -4T198 -13Q240 -13 287 0T376 35L359 113Q321 96 284 85T216 73Q199 73 186 77T166 91T155 113T156 144ZM370
325L359 277L182 267L194 322Q202 354 215 376T250 411T306 424Q338 426 353 412T371 374T370 325Z" />
<glyph unicode="&#xec;" horiz-adv-x="172" d="M470 936Q470 948 462 957T442 968T416 964Q402 958 397 947T392 924T397 901L437 824H478L470 936ZM39 0H132L238 501H146L39 0Z" />
<glyph unicode="&#xed;" horiz-adv-x="172" d="M553 898Q564 909 568 920T571 943T559 960Q549 968 536 966T513 955T496 934L439 821H480L553 898ZM39 0H132L238 501H146L39 0Z" />
<glyph unicode="&#xee;" horiz-adv-x="172" d="M599 859L498 986L338 858L376 811L480 897L542 814L599 859ZM39 0H132L238 501H146L39 0Z" />
<glyph unicode="&#xef;" horiz-adv-x="172" d="M407 931Q386 931 368 916T345 880Q341 859 352 844T385 829Q407 829 424 844T447 880Q452 901 440 916T407 931ZM565 931Q544 931 526 916T503 880Q499 859 510 844T543 829Q564 829 582 844T605 880Q610 901 599
916T565 931ZM39 0H132L238 501H146L39 0Z" />
<glyph unicode="&#xf0;" horiz-adv-x="424" d="M433 661Q413 675 389 685T338 701L305 645Q307 644 317 641T341 630T369 609L273 529L307 486L401 563Q408 547 410 527T406 481L388 393Q382 402 372 409T348 422T319 430T289 433Q206 433 153 386T79 246L67 187Q48
96 84 44T207 -9Q298 -9 357 41T437 187L499 478Q505 507 505 530T499 576T474 624L525 665L491 708L433 661ZM228 82Q198 82 181 94T157 128T158 183L174 259Q181 288 194 308T229 339T277 350Q294 350 311 345T341 331T360 306T362 271L344 183Q337 150 321 128T282
94T228 82Z" />
<glyph unicode="&#xf1;" horiz-adv-x="445" d="M429 924L426 913Q424 903 420 893T404 883Q398 883 390 888T377 897Q368 904 362 909T346 918Q331 926 313 926T277 920Q259 913 246 901T226 872T215 838L214 827H275L277 838Q278 847 281 855T295 865Q301 867
308 864T321 856Q327 853 335 846T350 836Q359 831 369 827T391 822Q430 822 455 850T487 913L490 924H429ZM390 343L317 -1H408L482 346Q490 381 487 408T473 455T444 486T403 503T352 509Q329 509 307 504T265 490T231 473L237 500H145L39 -1H130L215 399Q235
409 252 415T286 423T317 426Q336 426 351 421T376 406T391 379T390 343Z" />
<glyph unicode="&#xf2;" horiz-adv-x="432" d="M352 936Q352 948 344 957T324 968T298 964Q284 958 279 947T274 924T279 901L319 824H360L352 936ZM439 185L468 317Q488 409 452 460T327 512Q266 512 220 490T143 424T98 317L69 185Q59 133 69 89T116 17T217
-10Q309 -10 365 43T439 185ZM375 321L344 176Q338 148 324 126T288 92T235 79Q203 79 185 92T162 127T161 176L192 321Q199 354 214 376T253 409T307 421Q338 421 355 410T377 376T375 321Z" />
<glyph unicode="&#xf3;" horiz-adv-x="432" d="M424 899Q435 910 439 921T442 944T430 961Q420 969 407 967T384 956T367 935L310 822H351L424 899ZM439 185L468 317Q488 409 452 460T327 512Q266 512 220 490T143 424T98 317L69 185Q59 133 69 89T116 17T217
-10Q309 -10 365 43T439 185ZM375 321L344 176Q338 148 324 126T288 92T235 79Q203 79 185 92T162 127T161 176L192 321Q199 354 214 376T253 409T307 421Q338 421 355 410T377 376T375 321Z" />
<glyph unicode="&#xf4;" horiz-adv-x="432" d="M474 859L373 986L213 858L251 811L355 897L417 814L474 859ZM439 185L468 317Q488 409 452 460T327 512Q266 512 220 490T143 424T98 317L69 185Q59 133 69 89T116 17T217 -10Q309 -10 365 43T439 185ZM375 321L344
176Q338 148 324 126T288 92T235 79Q203 79 185 92T162 127T161 176L192 321Q199 354 214 376T253 409T307 421Q338 421 355 410T377 376T375 321Z" />
<glyph unicode="&#xf5;" horiz-adv-x="432" d="M425 924L422 913Q420 903 416 893T400 883Q394 883 386 888T373 897Q364 904 358 909T342 918Q327 926 309 926T273 920Q255 913 242 901T222 872T211 838L210 827H271L273 838Q274 847 277 855T291 865Q297 867
304 864T317 856Q323 853 331 846T346 836Q355 831 365 827T387 822Q426 822 451 850T483 913L486 924H425ZM439 185L468 317Q488 409 452 460T327 512Q266 512 220 490T143 424T98 317L69 185Q59 133 69 89T116 17T217 -10Q309 -10 365 43T439 185ZM375 321L344
176Q338 148 324 126T288 92T235 79Q203 79 185 92T162 127T161 176L192 321Q199 354 214 376T253 409T307 421Q338 421 355 410T377 376T375 321Z" />
<glyph unicode="&#xf6;" horiz-adv-x="432" d="M281 931Q260 931 242 916T219 880Q215 859 226 844T259 829Q281 829 298 844T321 880Q326 901 314 916T281 931ZM439 931Q418 931 400 916T377 880Q373 859 384 844T417 829Q438 829 456 844T479 880Q484 901 473
916T439 931ZM439 185L468 317Q488 409 452 460T327 512Q266 512 220 490T143 424T98 317L69 185Q59 133 69 89T116 17T217 -10Q309 -10 365 43T439 185ZM375 321L344 176Q338 148 324 126T288 92T235 79Q203 79 185 92T162 127T161 176L192 321Q199 354 214 376T253
409T307 421Q338 421 355 410T377 376T375 321Z" />
<glyph unicode="&#xf7;" horiz-adv-x="380" d="M103 346H423L439 421H119L103 346ZM310 564Q289 564 271 549T248 513Q243 492 255 477T288 462Q309 462 327 477T351 513Q355 533 343 548T310 564ZM255 305Q233 306 216 292T194 256Q189 235 200 220T233 205Q254
205 272 219T296 256Q301 278 289 291T255 305Z" />
<glyph unicode="&#xf8;" horiz-adv-x="432" d="M483 514H404L59 -20H134L483 514ZM439 185L468 317Q488 409 452 460T327 512Q266 512 220 490T143 424T98 317L69 185Q59 133 69 89T116 17T217 -10Q309 -10 365 43T439 185ZM375 321L344 176Q338 148 324 126T288
92T235 79Q203 79 185 92T162 127T161 176L192 321Q199 354 214 376T253 409T307 421Q338 421 355 410T377 376T375 321Z" />
<glyph unicode="&#xf9;" horiz-adv-x="446" d="M355 935Q355 947 347 956T327 967T301 963Q287 957 282 946T277 923T282 900L322 823H363L355 935ZM322 33L314 0H406L513 501H421L351 175Q347 154 336 138T309 108T274 88T235 78Q203 75 185 84T163 113T164 160L236
501H143L70 158Q62 120 65 93T79 46T109 15T151 -2T200 -8Q223 -8 246 -2T290 13T322 33Z" />
<glyph unicode="&#xfa;" horiz-adv-x="446" d="M429 898Q440 909 444 920T447 943T435 960Q425 968 412 966T389 955T372 934L315 821H356L429 898ZM322 33L314 0H406L513 501H421L351 175Q347 154 336 138T309 108T274 88T235 78Q203 75 185 84T163 113T164 160L236
501H143L70 158Q62 120 65 93T79 46T109 15T151 -2T200 -8Q223 -8 246 -2T290 13T322 33Z" />
<glyph unicode="&#xfb;" horiz-adv-x="446" d="M481 859L380 986L220 858L258 811L362 897L424 814L481 859ZM322 33L314 0H406L513 501H421L351 175Q347 154 336 138T309 108T274 88T235 78Q203 75 185 84T163 113T164 160L236 501H143L70 158Q62 120 65 93T79
46T109 15T151 -2T200 -8Q223 -8 246 -2T290 13T322 33Z" />
<glyph unicode="&#xfc;" horiz-adv-x="446" d="M286 931Q265 931 247 916T224 880Q220 859 231 844T264 829Q286 829 303 844T326 880Q331 901 319 916T286 931ZM444 931Q423 931 405 916T382 880Q378 859 389 844T422 829Q443 829 461 844T484 880Q489 901 478
916T444 931ZM322 33L314 0H406L513 501H421L351 175Q347 154 336 138T309 108T274 88T235 78Q203 75 185 84T163 113T164 160L236 501H143L70 158Q62 120 65 93T79 46T109 15T151 -2T200 -8Q223 -8 246 -2T290 13T322 33Z" />
<glyph unicode="&#xfd;" horiz-adv-x="479" d="M445 898Q456 909 460 920T463 943T451 960Q441 968 428 966T405 955T388 934L331 821H372L445 898ZM544 446L528 512Q490 509 463 492T421 450T399 398L352 176Q347 156 337 138T310 107T275 86T235 78Q217 78 202
83T177 98T163 125T163 162L235 502H143L70 159Q60 112 66 81T91 30T138 2T199 -7Q223 -7 246 -1T289 14T322 35L303 -52Q300 -69 292 -83T273 -109T248 -128T216 -139L225 -212Q271 -208 305 -190T362 -138T394 -60L487 378Q493 406 505 423T544 446Z" />
<glyph unicode="&#xfe;" d="M447 177L484 346Q495 398 484 435T441 492T356 511Q336 510 312 505T267 490T232 470L280 700H188L-1 -191L87 -215L139 28Q149 17 164 8T197 -7T237 -12Q320 -12 374 36T447 177ZM390 340L352 162Q346 134 333 114T298 83T251 72Q233
72 217 77T187 91T167 116T165 151L215 389Q224 397 241 405T279 420T318 427Q335 428 350 424T376 410T391 383T390 340Z" />
<glyph unicode="&#xff;" horiz-adv-x="479" d="M303 931Q282 931 264 916T241 880Q237 859 248 844T281 829Q303 829 320 844T343 880Q348 901 336 916T303 931ZM461 931Q440 931 422 916T399 880Q395 859 406 844T439 829Q460 829 478 844T501 880Q506 901 495
916T461 931ZM544 446L528 512Q490 509 463 492T421 450T399 398L352 176Q347 156 337 138T310 107T275 86T235 78Q217 78 202 83T177 98T163 125T163 162L235 502H143L70 159Q60 112 66 81T91 30T138 2T199 -7Q223 -7 246 -1T289 14T322 35L303 -52Q300 -69 292
-83T273 -109T248 -128T216 -139L225 -212Q271 -208 305 -190T362 -138T394 -60L487 378Q493 406 505 423T544 446Z" />
<glyph unicode="&#x2013;" horiz-adv-x="445" d="M103 323H473L493 414H123L103 323Z" />
<glyph unicode="&#x2014;" horiz-adv-x="720" d="M103 323H750L769 414H123L103 323Z" />
<glyph unicode="&#x2018;" horiz-adv-x="161" d="M264 707L244 723Q242 720 230 712T203 687T175 648T155 595Q150 573 162 558T195 543Q216 543 234 558T256 595Q260 612 252 625T227 644Q233 659 242 675T264 707Z" />
<glyph unicode="&#x2019;" horiz-adv-x="159" d="M163 554L182 538Q185 540 197 549T224 574T252 613T273 667Q277 688 266 703T232 718Q211 718 193 703T170 667Q167 650 175 636T200 618Q194 602 186 586T163 554Z" />
<glyph unicode="&#x201a;" horiz-adv-x="173" d="M38 -70L56 -85Q59 -83 71 -74T98 -50T126 -11T147 43Q151 65 140 79T106 94Q85 94 67 80T45 43Q41 25 49 11T73 -7Q69 -21 61 -37T38 -70Z" />
<glyph unicode="&#x201c;" horiz-adv-x="341" d="M443 707L424 723Q422 720 410 712T383 687T355 648T334 595Q330 573 341 558T374 543Q396 543 414 558T437 595Q441 612 433 625T408 644Q414 659 421 675T443 707ZM264 707L244 723Q242 720 230 712T203 687T175
648T155 595Q150 573 162 558T195 543Q216 543 234 558T256 595Q260 612 252 625T227 644Q233 659 241 675T264 707Z" />
<glyph unicode="&#x201d;" horiz-adv-x="339" d="M164 554L182 538Q185 540 196 549T223 574T252 613T273 667Q277 688 266 703T232 718Q211 718 193 703T170 667Q167 650 175 636T199 618Q194 602 186 586T164 554ZM344 554L362 538Q365 540 377 549T404 574T433
613T453 667Q458 688 446 703T412 718Q391 718 373 703T351 667Q347 650 355 636T379 618Q375 602 367 586T344 554Z" />
<glyph unicode="&#x201e;" horiz-adv-x="353" d="M37 -70L56 -85Q59 -83 71 -74T98 -50T126 -11T147 43Q151 65 139 79T106 94Q85 94 67 80T45 43Q41 25 49 11T73 -7Q69 -21 60 -37T37 -70ZM218 -70L238 -85Q240 -83 251 -74T278 -50T307 -11T327 43Q332 65 320
79T286 94Q265 94 247 80T225 43Q221 25 229 11T253 -7Q249 -21 241 -37T218 -70Z" />
<glyph unicode="&#x2022;" horiz-adv-x="392" d="M407 455Q370 503 302 503Q235 503 173 455Q115 406 100 337Q93 303 99 274T123 220Q162 171 230 171Q266 171 297 183T358 220Q388 244 407 273T433 337Q448 406 407 455Z" />
<glyph unicode="&#x2039;" horiz-adv-x="309" d="M84 268L232 80L304 137L202 268L360 395L312 456L84 268Z" />
<glyph unicode="&#x203a;" horiz-adv-x="309" d="M218 268L62 137L110 80L337 268L190 456L116 395L218 268Z" />
</font>
</defs>
</svg>
