<?xml version="1.0" standalone="no"?>
<!DOCTYPE svg PUBLIC "-//W3C//DTD SVG 1.1//EN" "http://www.w3.org/Graphics/SVG/1.1/DTD/svg11.dtd">
<svg xmlns="http://www.w3.org/2000/svg">
<defs >
<font id="AdventPro" horiz-adv-x="443" ><font-face
    font-family="Advent Pro Light"
    units-per-em="1000"
    panose-1="0 0 0 0 0 0 0 0 0 0"
    ascent="964"
    descent="-232"
    alphabetic="0" />
<glyph unicode=" " horiz-adv-x="280" />
<glyph unicode="!" horiz-adv-x="138" d="M41 679L50 121H87L96 680Q96 695 90 702T69 710Q56 710 49 703T41 679ZM74 51Q65 53 57 48T46 34Q44 25 49 17T62 6Q72 4 80 9T91 23Q94 32 89 40T74 51Z" />
<glyph unicode="&quot;" horiz-adv-x="252" d="M166 710L177 588H209L221 710Q221 724 213 731T194 738T175 731T166 710ZM30 710L41 588H73L85 710Q85 724 77 731T58 738T39 731T30 710Z" />
<glyph unicode="#" horiz-adv-x="610" d="M391 244L432 414H579V458H441L499 700H456L399 458H257L313 700H270L214 458H30V414H203L164 244H30V202H153L107 0H149L196 202H339L292 0H335L382 202H579V244H391ZM349 244H206L246 414H388L349 244Z" />
<glyph unicode="$" horiz-adv-x="528" d="M255 -114H298V818H255V-114ZM424 634L437 672Q414 685 389 693T337 705T283 709Q244 709 205 700T133 672T80 620T60 542Q60 502 77 473T122 423T185 386T257 356T329 327T392 292T436 246T453 182Q453 140 437 111T394
65T332 39T261 30Q224 30 185 40T110 70T52 121L25 94Q54 57 92 34T173 -1T264 -12Q308 -12 349 -2T425 32T479 90T499 176Q499 222 483 255T438 312T375 353T303 384T230 413T167 445T122 487T105 545Q105 580 122 603T165 641T223 662T282 668Q307 668 332 665T380
654T424 634Z" />
<glyph unicode="%" horiz-adv-x="712" d="M55 0H109L645 700H594L55 0ZM175 714Q135 714 102 695T48 642T28 568Q28 528 48 495T101 442T175 422Q215 422 248 442T300 495T320 568Q320 609 301 642T248 694T175 714ZM175 673Q204 673 227 659T265 621T280 568Q280
540 266 516T228 478T175 463Q146 463 122 477T84 516T69 568Q69 597 83 621T122 659T175 673ZM535 277Q496 277 463 258T410 205T390 132Q390 92 410 59T463 6T535 -14Q576 -14 608 5T660 58T680 132Q680 172 661 205T609 257T535 277ZM535 237Q565 237 589 223T627
186T641 132Q641 103 627 79T589 41T535 27Q507 27 484 41T446 79T431 132Q431 162 445 185T483 223T535 237Z" />
<glyph unicode="&amp;" horiz-adv-x="529" d="M384 663L404 704H241Q194 704 161 685T111 631T95 550Q96 528 105 501T133 448T185 403H165Q130 403 104 393T62 364T38 317T30 255V161Q30 122 39 94T66 46T106 16T157 -1T213 -5Q238 -5 268 4T325 31T369 77Q379
44 403 24T466 -9L476 25Q437 38 418 65T399 137V362H480L499 404H399V507H357V403H289Q262 403 236 414T187 445T152 491T139 549Q139 599 165 631T242 663H384ZM357 362V176Q357 139 341 110T295 61T221 38Q174 34 142 47T91 89T73 163V253Q73 286 82 307T107
340T142 357T184 362H357Z" />
<glyph unicode="&apos;" horiz-adv-x="207" d="M76 711L87 589H119L130 711Q130 725 122 732T103 739T84 732T76 711Z" />
<glyph unicode="(" horiz-adv-x="178" d="M161 787L146 817Q111 797 87 772T52 712T41 627V70Q41 25 49 -4T71 -54T105 -89T146 -120L162 -88Q147 -77 133 -64T109 -32T92 9T85 63V637Q85 664 90 686T104 726T128 759T161 787Z" />
<glyph unicode=")" horiz-adv-x="178" d="M17 787L33 817Q60 801 79 784T112 744T131 694T138 627V70Q138 25 130 -4T108 -54T74 -89T33 -120L17 -88Q32 -77 46 -64T70 -32T87 9T93 63V637Q93 664 88 686T74 726T51 759T17 787Z" />
<glyph unicode="*" horiz-adv-x="348" d="M37 623L23 584L137 543L66 448L103 422L172 523L246 422L278 448L207 543L323 584L307 623L192 579V700H149V579L37 623Z" />
<glyph unicode="+" horiz-adv-x="378" d="M210 530H167V392H28V349H167V210H210V349H348V392H210V530Z" />
<glyph unicode="," horiz-adv-x="215" d="M76 -76L90 -87Q95 -82 103 -73T119 -51T133 -21T139 20Q138 32 130 39T110 47Q99 47 91 40T83 20Q83 10 89 2T105 -8Q104 -22 98 -40T76 -76Z" />
<glyph unicode="-" horiz-adv-x="392" d="M34 369H354V414H34V369Z" />
<glyph unicode="." horiz-adv-x="126" d="M57 42Q48 40 43 32T40 15Q43 6 51 1T68 -2Q77 1 82 9T86 26Q83 35 75 40T57 42Z" />
<glyph unicode="/" horiz-adv-x="404" d="M18 -114H63L388 818H340L18 -114Z" />
<glyph unicode="0" horiz-adv-x="491" d="M34 508V186Q34 121 62 77T139 11T245 -11Q308 -11 355 13T428 81T455 186V507Q455 605 400 660T246 716Q147 716 91 663T34 508ZM78 186V514Q78 566 98 601T155 655T244 674Q297 674 334 656T391 602T411 515V186Q411
134 390 99T331 48T244 31Q197 31 160 48T100 100T78 186Z" />
<glyph unicode="1" horiz-adv-x="226" d="M11 617L22 586Q37 589 53 595T86 609T116 627T141 645V0H183V700H140Q126 681 107 666T67 641T32 625T11 617Z" />
<glyph unicode="2" horiz-adv-x="413" d="M41 590L83 575Q94 605 112 625T154 657T209 668Q242 668 270 653T316 610T333 543Q333 527 330 511T317 474T289 425L29 42V0H379V42H80L326 401Q356 448 367 483T379 550Q379 599 355 635T292 691T212 710Q175 710 142
697T83 658T41 590Z" />
<glyph unicode="3" horiz-adv-x="442" d="M202 414H187L359 661V700H69V655H306L106 369H209Q254 369 290 346T349 286T371 203Q371 155 349 116T288 55T200 32Q157 32 122 51T62 107L25 82Q54 39 100 14T202 -12Q247 -12 285 4T353 49T398 117T414 201Q414 262
386 310T310 386T202 414Z" />
<glyph unicode="4" horiz-adv-x="481" d="M336 0H381V369H438L454 413H381V700H336V413H91L248 700H202L16 369H336V0Z" />
<glyph unicode="5" horiz-adv-x="440" d="M105 412L130 655H357V700H92L56 369H172Q239 369 282 346T346 285T368 201Q368 161 354 130T316 77T262 44T200 32Q167 32 139 39T90 55T57 72T45 79L28 42Q28 43 41 35T78 16T134 -3T202 -12Q250 -12 288 5T354 53T397
120T412 199Q412 268 382 315T297 388T172 413L105 412Z" />
<glyph unicode="6" horiz-adv-x="483" d="M273 659H310V700H276Q204 700 149 671T62 588T31 463V203Q31 144 60 96T137 19T244 -10Q288 -10 326 6T394 52T441 120T458 203Q458 263 429 311T351 387T242 415Q209 415 179 406T122 377T74 328V456Q74 517 98 563T166
634T273 659ZM244 372Q279 372 309 359T363 322T400 269T413 203Q413 168 400 138T364 84T310 47T244 33Q198 33 160 56T98 118T74 203Q74 238 87 268T124 322T179 358T244 372Z" />
<glyph unicode="7" horiz-adv-x="433" d="M85 0L418 657V700H26V655H368L37 0H85Z" />
<glyph unicode="8" horiz-adv-x="479" d="M239 709Q190 709 151 686T89 624T66 535Q66 505 76 477T106 426T153 388Q116 372 87 343T43 277T27 198Q27 139 55 91T131 16T238 -12Q298 -12 345 16T421 91T449 198Q449 240 433 277T389 342T323 387Q366 411 388 448T411
535Q411 584 389 623T328 686T239 709ZM238 405Q203 405 174 423T126 472T108 536Q108 573 125 602T173 649T238 667Q275 667 304 650T350 603T368 536Q368 501 351 471T305 423T238 405ZM238 31Q192 31 154 53T94 114T71 197Q71 232 84 262T120 314T173 350T238
363Q285 363 323 341T383 282T405 197Q405 152 383 114T323 54T238 31Z" />
<glyph unicode="9" horiz-adv-x="482" d="M236 709Q191 709 153 693T85 647T40 580T23 497Q23 436 51 388T129 313T238 285Q272 285 302 294T358 323T405 372V246Q405 187 382 141T314 69T208 43H170V-1H205Q276 -1 331 29T417 113T448 241V497Q448 557 420 605T344
681T236 709ZM236 666Q283 666 321 644T382 583T405 497Q405 462 392 431T356 377T302 340T236 327Q201 327 171 340T117 376T80 431T66 497Q66 533 79 563T116 617T170 653T236 666Z" />
<glyph unicode=":" horiz-adv-x="133" d="M93 144Q93 156 85 163T64 171Q53 171 45 164T36 144Q36 132 44 125T64 117Q76 117 84 124T93 144ZM93 385Q93 397 85 404T64 412Q53 412 45 405T36 385Q36 374 44 366T64 357Q76 357 84 365T93 385Z" />
<glyph unicode=";" horiz-adv-x="141" d="M37 46L51 36Q56 40 64 49T80 71T94 102T100 143Q99 156 91 163T71 170Q60 170 52 162T44 143Q44 133 50 125T66 115Q65 101 59 83T37 46ZM102 385Q102 397 94 404T74 412Q63 412 54 405T45 385Q45 374 54 366T74 357Q85
357 93 365T102 385Z" />
<glyph unicode="&lt;" horiz-adv-x="367" d="M25 359L303 79L334 111L84 357L334 608L303 637L25 359Z" />
<glyph unicode="=" horiz-adv-x="390" d="M33 369H353V412H33V369ZM33 265H353V308H33V265Z" />
<glyph unicode="&gt;" horiz-adv-x="367" d="M30 608L280 357L30 111L60 79L338 359L60 637L30 608Z" />
<glyph unicode="?" horiz-adv-x="406" d="M25 532H69Q69 567 81 593T112 635T155 660T204 668Q239 667 269 651T316 606T334 536Q334 505 325 481T298 436T261 391Q243 370 227 351T198 312T178 266T171 204V120H211V203Q211 233 217 255T234 294T261 329T298
369Q319 393 337 418T366 473T377 538Q377 578 363 610T324 664T268 697T204 709Q171 709 139 699T82 667T41 612T25 532ZM193 48Q181 48 172 40T163 20Q163 9 172 1T193 -7Q203 -7 211 1T220 20Q220 32 212 40T193 48Z" />
<glyph unicode="@" horiz-adv-x="719" d="M690 459L677 491Q652 481 638 465T619 425T614 367V165Q614 116 592 81T531 22T445 -12T347 -23Q284 -23 235 -10T150 30T97 97T78 193V341Q78 393 94 431T140 493T208 530T289 542Q367 542 414 515T474 443H300Q272
443 246 436T200 411T167 363T155 289V230Q155 183 169 150T208 97T268 69T342 61Q359 61 381 62T427 64T470 66T502 68T515 69V401H569L579 443H511Q505 473 488 498T442 541T375 570T287 580Q225 580 178 562T97 511T48 434T31 337V190Q31 125 56 77T124 -2T222
-50T340 -66Q400 -66 456 -52T558 -8T630 66T657 171V383Q657 405 660 419T671 443T690 459ZM297 401H475V109Q475 109 463 108T429 106T381 103T329 101Q262 101 229 133T196 228V286Q196 333 211 358T249 392T297 401Z" />
<glyph unicode="A" horiz-adv-x="546" d="M527 0L293 700H253L21 0H67L153 257H393L480 0H527ZM166 300L272 629L381 300H166Z" />
<glyph unicode="B" horiz-adv-x="505" d="M261 700H41V0H271Q338 0 383 25T452 98T476 209Q476 256 462 293T421 357T360 396Q385 409 402 430T429 477T439 533Q439 590 418 626T357 681T261 700ZM273 412H85V658H255Q302 658 332 644T378 602T393 534Q393 498
379 471T339 428T273 412ZM270 42H85V369H282Q329 369 362 349T412 292T429 212Q429 157 411 119T358 62T270 42Z" />
<glyph unicode="C" horiz-adv-x="422" d="M357 646L371 677Q340 694 305 702T229 710Q176 710 132 690T61 626T34 511V184Q34 117 58 74T127 11T235 -10Q273 -10 313 -2T396 23L386 60Q358 50 332 43T282 33T239 29Q188 29 152 44T97 95T78 186V514Q78 569 97
603T153 654T242 670Q270 670 298 665T357 646Z" />
<glyph unicode="D" horiz-adv-x="497" d="M230 700H41V0H250Q321 0 368 22T438 89T462 200V475Q462 543 436 593T358 672T230 700ZM235 40H85V660H240Q302 660 341 637T398 573T417 483V198Q417 156 406 126T371 77T315 49T235 40Z" />
<glyph unicode="E" horiz-adv-x="405" d="M41 0H373V40H85V369H274L288 412H85V659H375V700H41V0Z" />
<glyph unicode="F" horiz-adv-x="390" d="M375 700H41V0H86V369H271L289 412H86V658H375V700Z" />
<glyph unicode="G" horiz-adv-x="478" d="M357 645L371 676Q350 687 327 694T280 705T229 709Q166 709 123 685T57 614T34 504V189Q34 124 58 80T125 13T229 -10Q265 -10 298 -1T359 25T403 64L405 0H446V300H244L260 257H404V186Q404 150 391 122T354 73T298
43T228 32Q180 32 147 50T96 103T78 187V507Q78 562 96 598T152 652T242 670Q260 670 279 668T317 660T357 645Z" />
<glyph unicode="H" horiz-adv-x="515" d="M428 412H85V700H41V0H85V369H428V0H472V700H428V412Z" />
<glyph unicode="I" horiz-adv-x="175" d="M18 662L93 660V0H136V700H18V662Z" />
<glyph unicode="J" horiz-adv-x="197" d="M156 120V700H39V662L112 660V116Q112 76 101 50T71 10T27 -6L37 -37Q72 -34 95 -21T131 14T150 63T156 120Z" />
<glyph unicode="K" horiz-adv-x="459" d="M85 347V700H41V0H85V273L149 364L386 0H438L178 405L386 700H335L85 347Z" />
<glyph unicode="L" horiz-adv-x="423" d="M41 0H402V40H85V700H41V0Z" />
<glyph unicode="M" horiz-adv-x="621" d="M85 700H41V0H85V573L285 0H332L535 573V0H578V700H535L308 67L85 700Z" />
<glyph unicode="N" horiz-adv-x="577" d="M534 700H491V79L85 700H41V0H85V621L491 0H534V700Z" />
<glyph unicode="O" horiz-adv-x="491" d="M34 508V186Q34 121 62 77T139 11T245 -11Q308 -11 355 13T428 81T455 186V507Q455 605 400 660T246 716Q147 716 91 663T34 508ZM78 186V514Q78 566 98 601T155 655T244 674Q297 674 334 656T391 602T411 515V186Q411
134 390 99T331 48T244 31Q197 31 160 48T100 100T78 186Z" />
<glyph unicode="P" horiz-adv-x="505" d="M282 700H41V0H85V257H279Q330 257 367 270T428 310T464 379T476 481Q476 539 464 581T427 649T366 687T282 700ZM85 300V658H285Q319 658 346 649T392 620T421 565T432 481Q432 427 422 392T392 336T345 308T282 300H85Z" />
<glyph unicode="Q" horiz-adv-x="491" d="M264 48V174H220V48Q220 8 230 -21T262 -68T316 -95T390 -104L395 -66Q363 -66 339 -60T298 -41T273 -5T264 48ZM34 508V186Q34 121 62 77T139 11T245 -11Q308 -11 355 13T428 81T455 186V507Q455 605 400 660T246 716Q147
716 91 663T34 508ZM78 186V514Q78 566 98 601T155 655T244 674Q297 674 334 656T391 602T411 515V186Q411 134 390 99T331 48T244 31Q197 31 160 48T100 100T78 186Z" />
<glyph unicode="R" horiz-adv-x="510" d="M282 700H41V0H85V257H279Q288 257 296 257T313 259T328 261L434 0H479L368 272Q406 286 429 313T464 381T476 481Q476 539 464 581T427 649T366 687T282 700ZM282 300H85V658H285Q319 658 346 649T392 620T421 565T432
481Q432 427 422 392T392 336T345 308T282 300Z" />
<glyph unicode="S" horiz-adv-x="528" d="M423 634L436 672Q413 685 388 693T336 705T282 709Q242 709 203 700T131 672T79 620T59 542Q59 502 75 473T120 423T183 386T255 356T327 327T391 292T435 246T452 182Q452 140 436 111T393 65T331 39T260 30Q223 30
184 40T109 70T51 121L24 94Q53 57 90 34T172 -1T263 -12Q306 -12 347 -2T423 32T478 90T498 176Q498 222 482 255T437 312T374 353T302 384T229 413T166 445T121 487T104 545Q104 580 120 603T164 641T221 662T281 668Q306 668 330 665T379 654T423 634Z" />
<glyph unicode="T" horiz-adv-x="414" d="M226 660H408V700H6V660H183V0H226V660Z" />
<glyph unicode="U" horiz-adv-x="498" d="M458 186V700H414V186Q414 135 393 100T335 48T248 31Q199 31 162 48T103 100T81 186V700H38V186Q38 121 64 77T139 11T249 -11Q311 -11 358 11T431 78T458 186Z" />
<glyph unicode="V" horiz-adv-x="510" d="M14 700L225 0H284L493 700H446L254 55L61 700H14Z" />
<glyph unicode="W" horiz-adv-x="732" d="M395 700H336L216 58L64 700H16L188 0H252L366 617L481 0H544L712 700H666L516 58L395 700Z" />
<glyph unicode="X" horiz-adv-x="557" d="M279 398L93 700H43L253 356L25 0H79L279 311L479 0H533L306 356L516 700H467L279 398Z" />
<glyph unicode="Y" horiz-adv-x="515" d="M474 153V700H429V426Q429 389 414 363T374 320T317 296T253 288Q197 288 157 306T95 362T74 455V700H30V455Q30 389 55 343T127 271T244 245Q286 245 322 255T386 283T429 321V153Q429 122 424 100T410 63T387 39T358
24L369 -7Q420 2 447 42T474 153Z" />
<glyph unicode="Z" horiz-adv-x="545" d="M40 700V661L454 660L436 636L28 39V0H515V39L81 40L99 63L508 661V700H40Z" />
<glyph unicode="[" horiz-adv-x="222" d="M86 774L204 781V818H42V-114H204V-78L86 -71V774Z" />
<glyph unicode="\" horiz-adv-x="402" d="M338 -114H385L60 818H16L338 -114Z" />
<glyph unicode="]" horiz-adv-x="223" d="M18 -114H180V818H18V781L137 774V-71L18 -78V-114Z" />
<glyph unicode="^" horiz-adv-x="267" d="M261 775L136 900L6 774L37 743L136 839L230 745L261 775Z" />
<glyph unicode="_" horiz-adv-x="384" d="M33 -44H353V0H33V-44Z" />
<glyph unicode="`" horiz-adv-x="267" d="M107 721Q104 729 98 734T85 741T69 738Q63 734 60 727T58 713T64 698L119 612H150L107 721Z" />
<glyph unicode="a" horiz-adv-x="446" d="M367 349Q342 363 312 375T249 395T182 403Q145 403 117 393T68 364T37 316T26 252V169Q26 117 41 82T85 27T154 -2T245 -10Q259 -10 280 -9T324 -7T367 -4T399 -1T411 0V304Q411 363 399 402T361 465T297 499T203 509L201
474Q233 474 263 469T316 451T353 413T367 349ZM367 310V37Q367 37 360 36T341 35T312 33T278 30T243 28Q190 27 156 36T102 65T76 111T68 172V250Q68 282 77 304T101 339T137 359T179 365Q212 365 244 358T307 338T367 310Z" />
<glyph unicode="b" horiz-adv-x="457" d="M85 473V700H41V0Q40 0 52 -1T85 -3T128 -6T172 -9T206 -10Q257 -11 297 -3T367 26T411 82T426 169V359Q426 395 414 423T378 470T324 500T256 510Q222 510 192 505T135 492T85 473ZM85 36V433Q112 445 139 454T196 468T259
473Q281 473 303 467T343 447T372 411T383 355V171Q383 138 376 112T350 66T297 37T210 28Q188 28 167 29T128 32T99 35T85 36Z" />
<glyph unicode="c" horiz-adv-x="380" d="M337 442L349 478Q317 493 283 501T214 510Q152 510 111 486T49 418T29 317V174Q29 110 52 70T119 10T220 -11Q253 -12 286 -8T351 5L342 45Q341 45 331 43T304 37T266 32T222 30Q185 31 157 39T110 66T81 113T72 183V312Q73
359 88 394T134 450T215 470Q245 469 277 462T337 442Z" />
<glyph unicode="d" horiz-adv-x="458" d="M414 0V700H371V473Q335 488 293 499T200 510Q163 510 132 500T78 471T42 423T29 359V169Q29 117 44 82T89 27T159 -2T250 -10Q263 -10 283 -9T327 -7T370 -4T402 -1T414 0ZM371 433V37Q371 37 364 36T344 34T315 32T282
29T247 28Q194 27 160 36T107 65T80 111T72 171V355Q72 388 83 410T113 447T153 467T197 473Q247 473 289 462T371 433Z" />
<glyph unicode="e" horiz-adv-x="421" d="M74 134V207L392 224V342Q392 398 370 435T309 491T216 510Q163 510 121 491T55 434T31 339V134Q31 92 43 64T79 19T135 -5T204 -12Q244 -12 286 0T366 35L349 69Q310 49 275 38T200 26Q174 26 151 32T111 50T84 83T74
134ZM348 347V263L74 250V336Q74 380 91 410T140 457T215 473Q254 473 283 458T330 415T348 347Z" />
<glyph unicode="f" horiz-adv-x="248" d="M217 669L224 707Q219 709 213 709T201 710T188 710Q163 710 137 703T89 677T53 628T39 550V0H83V459H192L210 500H83V550Q83 582 91 605T113 643T147 664T191 671Q197 671 203 671T217 669Z" />
<glyph unicode="g" horiz-adv-x="440" d="M400 -64V500H356V453Q333 471 307 483T254 502T203 510Q148 512 110 493T51 436T30 346V176Q30 85 75 37T203 -12Q226 -12 249 -6T294 10T331 35T356 67V-63Q356 -89 350 -108T333 -140T309 -161T280 -177L292 -211Q330
-199 354 -180T389 -133T400 -64ZM356 404V165Q356 132 343 106T308 63T258 38T200 29Q161 30 133 45T90 91T74 168V344Q74 380 85 405T116 444T158 465T206 470Q223 470 244 466T286 453T325 432T356 404Z" />
<glyph unicode="h" horiz-adv-x="444" d="M86 469V700H41V0H86V435Q106 446 128 454T175 466T224 472Q254 472 279 467T325 446T356 407T367 344V0H411V346Q411 383 402 410T377 457T338 488T287 505T227 510Q202 510 177 504T128 489T86 469Z" />
<glyph unicode="i" horiz-adv-x="121" d="M38 0H82V501H38V0ZM61 710Q50 710 42 702T33 682Q33 671 41 663T61 654Q73 654 81 662T89 682Q89 694 81 702T61 710Z" />
<glyph unicode="j" horiz-adv-x="194" d="M144 -65V501H29V460H100V-64Q100 -92 93 -114T69 -151T24 -177L37 -211Q75 -198 98 -180T133 -134T144 -65ZM152 682Q152 694 144 701T124 709Q112 709 104 702T95 682Q95 671 103 663T124 654Q136 654 144 662T152 682Z" />
<glyph unicode="k" horiz-adv-x="426" d="M185 361L329 491L298 520L86 324V700H41V0H86V274L153 333L356 0H408L185 361Z" />
<glyph unicode="l" horiz-adv-x="128" d="M41 0H85V700H41V0Z" />
<glyph unicode="m" horiz-adv-x="717" d="M640 343V0H681V344Q681 390 669 422T635 473T581 501T511 509Q485 508 457 501T402 482T354 454Q339 475 318 487T270 505T212 509Q187 508 164 503T121 488T82 468V500H38V0H82V433Q103 444 121 452T160 465T207 471Q236
472 260 466T302 445T330 405T340 343V0H382V344Q382 369 379 389T368 426Q391 440 414 449T460 464T506 471Q536 472 560 466T602 445T630 405T640 343Z" />
<glyph unicode="n" d="M364 343V0H407V345Q407 382 398 409T372 456T333 488T282 505T223 510Q199 510 174 505T126 490T82 469V501H38V0H82V435Q103 446 124 453T170 466T219 471Q249 472 275 466T321 445T353 405T364 343Z" />
<glyph unicode="o" horiz-adv-x="429" d="M398 185V316Q398 408 352 460T216 512Q157 512 115 490T50 424T28 316V185Q28 131 49 87T112 17T217 -10Q308 -10 353 43T398 185ZM355 317V178Q355 134 340 101T295 48T217 29Q171 29 139 48T89 101T72 178V317Q72 368
88 402T137 455T217 473Q263 473 293 456T339 404T355 317Z" />
<glyph unicode="p" horiz-adv-x="441" d="M409 176V346Q409 399 389 436T331 493T238 510Q212 509 186 502T134 482T84 451V500H39V-194L84 -212V67Q96 45 120 27T175 -2T238 -12Q321 -12 365 36T409 176ZM365 344V168Q365 122 351 92T308 45T240 28Q210 27 182
36T132 62T97 106T84 165V404Q102 425 127 439T181 462T234 471Q259 472 283 466T325 444T354 404T365 344Z" />
<glyph unicode="q" horiz-adv-x="438" d="M356 68V-195L400 -212V500H356V453Q331 472 305 484T253 503T203 511Q148 514 110 495T51 439T30 346V177Q30 116 50 74T109 11T203 -11Q234 -11 263 -2T317 26T356 68ZM356 405V166Q356 132 344 107T310 64T261 38T205
29Q164 29 135 45T90 92T74 169V346Q74 382 85 406T116 446T158 467T206 472Q225 472 247 467T289 453T327 432T356 405Z" />
<glyph unicode="r" horiz-adv-x="332" d="M307 471L310 509Q307 510 294 512T265 513Q215 511 172 498T82 464V501H38V0H82V417Q104 429 127 439T174 456T220 468T264 473Q279 474 291 473T307 471Z" />
<glyph unicode="s" horiz-adv-x="413" d="M324 446L342 477Q326 487 306 495T262 507T212 512Q183 512 155 505T103 481T65 442T51 387Q51 353 67 330T108 290T165 260T228 235T285 208T327 173T343 122Q343 96 331 78T299 47T256 29T210 23Q178 23 150 31T98
54T51 94L26 68Q61 27 109 5T210 -17Q242 -17 272 -9T328 17T369 61T384 124Q384 161 368 186T326 229T269 260T207 284T150 310T108 342T92 389Q92 412 103 428T134 455T175 470T219 475Q238 475 257 472T293 462T324 446Z" />
<glyph unicode="t" horiz-adv-x="232" d="M83 132V459H197L216 500H83V700H39V132Q39 74 64 39T144 -13L158 21Q132 31 116 45T91 81T83 132Z" />
<glyph unicode="u" horiz-adv-x="445" d="M361 65V0H405V501H361V172Q361 144 351 119T322 75T276 45T218 32Q174 31 143 44T96 87T79 166V501H35V157Q35 119 44 91T70 43T110 12T160 -5T216 -10Q244 -9 272 -1T323 24T361 65Z" />
<glyph unicode="v" horiz-adv-x="427" d="M18 501L182 0H238L403 501H357L211 51L63 501H18Z" />
<glyph unicode="w" horiz-adv-x="695" d="M366 499H325L205 50L64 499H19L176 0H232L344 421L456 0H512L672 499H626L485 50L366 499Z" />
<glyph unicode="x" horiz-adv-x="422" d="M213 288L83 500H32L187 250L30 0H82L213 210L341 0H392L238 249L393 500H344L213 288Z" />
<glyph unicode="y" horiz-adv-x="466" d="M435 480L418 512Q398 503 386 489T368 455T362 412V173Q362 145 352 120T323 76T279 46T224 33Q196 32 170 38T123 58T91 98T79 160V501H35V158Q35 110 49 78T88 26T146 -1T217 -9Q245 -8 272 0T323 25T362 67V-63Q362
-84 358 -102T344 -134T321 -158T287 -176L300 -210Q338 -197 361 -180T394 -134T405 -64V411Q405 444 413 458T435 480Z" />
<glyph unicode="z" horiz-adv-x="426" d="M377 501H39V463L321 462L30 40V0H398V39L85 40L377 462V501Z" />
<glyph unicode="{" horiz-adv-x="251" d="M150 517V630Q150 662 156 686T173 728T194 756T216 773T232 784L216 823Q215 822 204 817T176 801T144 768T117 713T106 630V517Q106 496 103 476T95 436Q89 417 75 398T36 361L25 353L36 345Q60 327 74 309T95 270Q100
251 103 231T106 190V76Q106 28 117 -5T144 -61T176 -95T203 -112T216 -118L233 -78Q227 -74 217 -68T195 -50T173 -22T157 19T150 76V190Q150 211 148 231T140 273Q130 314 83 353Q106 373 120 393T140 433Q145 454 147 475T150 517Z" />
<glyph unicode="|" horiz-adv-x="129" d="M42 -114H85V818H42V-114Z" />
<glyph unicode="}" horiz-adv-x="255" d="M35 823L19 784Q25 780 35 774T57 756T79 728T95 687T102 630V517Q102 489 106 461T124 406T169 353Q139 327 125 300T106 246T102 190V76Q102 44 96 20T79 -21T57 -50T35 -67T18 -78L34 -118Q36 -117 47 -112T75 -95T107
-61T134 -6T145 76V190Q145 218 149 244T168 295T215 345L226 353L215 361Q183 386 168 411T149 462T145 517V630Q145 678 135 711T108 767T76 801T48 817T35 823Z" />
<glyph unicode="~" horiz-adv-x="267" d="M286 307L266 339Q252 325 237 319T204 311Q181 312 158 321T112 339T62 349Q43 349 24 341T-18 310L1 277Q19 294 35 300T67 305Q90 305 113 296T159 278T206 268Q225 268 244 276T286 307Z" />
<glyph unicode="&#xa0;" horiz-adv-x="280" />
<glyph unicode="&#xa1;" horiz-adv-x="138" d="M96 30L87 590H50L40 31Q40 16 47 8T68 0Q82 0 89 7T96 30ZM96 682Q96 694 88 701T68 709Q57 709 48 702T39 682Q39 671 48 663T68 654Q79 654 87 662T96 682Z" />
<glyph unicode="&#xa2;" horiz-adv-x="380" d="M192 -114H235V623H192V-114ZM337 442L349 478Q317 493 283 501T214 510Q152 510 111 486T49 418T29 317V174Q29 110 52 70T119 10T220 -11Q253 -12 286 -8T351 5L342 45Q341 45 331 43T304 37T266 32T222 30Q185
31 157 39T110 66T81 113T72 183V312Q73 359 88 394T134 450T215 470Q245 469 277 462T337 442Z" />
<glyph unicode="&#xa3;" horiz-adv-x="427" d="M122 42H34V0H393V42H256Q293 62 314 101T334 182Q334 219 319 256T274 327L252 352H393V397H212L172 444Q157 461 142 481T118 525T109 571Q110 597 123 618T158 652T210 668Q244 671 279 662T346 632L360 670Q337
683 312 692T262 705T212 708Q183 707 156 697T108 669T76 626T64 570Q63 530 84 492T138 416L155 397H34V352H196L241 300Q258 281 269 261T285 221T291 181Q290 146 276 120T238 76T185 51T122 42Z" />
<glyph unicode="&#xa4;" horiz-adv-x="459" d="M344 370L426 454L398 481L316 398Q299 413 277 421T229 429Q204 429 182 422T140 398L59 481L31 454L113 370Q99 353 91 331T83 284Q83 259 91 237T113 196L31 114L59 85L141 168Q159 154 181 146T229 138Q254 138
275 146T315 168L398 85L426 114L344 196Q358 214 365 236T373 284Q373 308 366 330T344 370ZM229 178Q200 178 176 192T138 230T124 284Q124 313 138 336T176 374T229 388Q258 388 281 374T319 337T333 284Q333 255 319 231T282 192T229 178Z" />
<glyph unicode="&#xa5;" horiz-adv-x="516" d="M279 342L494 700H443L257 391L71 700H22L236 341V0H279V342ZM98 204H418V247H98V204ZM98 100H418V143H98V100Z" />
<glyph unicode="&#xa7;" horiz-adv-x="432" d="M323 633L341 664Q324 674 304 682T261 694T211 699Q182 699 154 692T102 668T64 629T50 574Q50 542 64 520T101 481Q78 465 65 442T51 387Q51 353 67 330T108 290T165 260T228 235T285 208T327 173T343 122Q343
96 331 78T299 47T256 29T210 23Q178 23 150 31T98 54T51 94L26 68Q61 27 109 5T210 -17Q242 -17 272 -9T328 17T369 61T384 124Q384 154 373 176T342 216Q361 234 372 257T383 311Q383 348 367 373T325 416T268 447T206 471T149 497T107 529T91 576Q91 599 102
615T133 642T174 657T218 662Q236 662 255 659T292 649T323 633ZM307 241Q281 256 252 267T195 290T143 314T106 345T92 389Q92 405 98 418T115 441T141 458Q166 445 194 435T248 413T296 388T329 354T342 309Q342 287 333 270T307 241Z" />
<glyph unicode="&#xa8;" horiz-adv-x="267" d="M54 736Q43 736 35 728T27 708Q27 697 35 689T54 681Q66 681 74 689T82 708Q82 720 74 728T54 736ZM213 736Q201 736 194 728T186 708Q186 697 193 689T213 681Q225 681 233 689T241 708Q241 720 233 728T213 736Z" />
<glyph unicode="&#xa9;" horiz-adv-x="696" d="M664 189V325Q664 389 641 437T575 518T474 567T347 583Q278 583 221 567T121 518T55 437T31 325V189Q31 125 54 77T120 -4T220 -52T347 -69Q416 -69 474 -53T574 -4T640 76T664 189ZM618 307V206Q618 145 601 101T549
29T463 -13T347 -27Q281 -27 231 -14T147 28T95 101T77 206V307Q77 369 94 413T146 485T231 527T347 541Q412 541 463 528T548 486T600 413T618 307ZM489 391L503 421Q472 438 436 446T360 455Q310 455 273 439T211 394Q189 368 178 332T167 250Q167 195 183 156T232
94Q257 76 290 67T365 58Q404 58 445 66T528 91L515 126Q494 119 474 114T436 105T402 100T370 98Q334 98 307 105T260 127Q236 145 224 177T212 255Q212 293 221 322T250 371Q271 393 302 404T373 415Q387 415 401 414T430 409T460 402T489 391Z" />
<glyph unicode="&#xaa;" horiz-adv-x="328" d="M292 390Q292 401 292 418T292 454T292 492T292 527T292 555Q292 599 282 629T252 676Q240 688 222 695T180 705T128 709L124 675Q157 675 181 671T221 654Q237 643 244 625T252 585Q216 608 185 619T126 631Q92
631 69 616T34 575T23 518Q23 484 32 458T59 415T108 388T178 379Q202 380 230 383T292 390ZM250 545V421Q242 420 225 419T186 416T144 417T108 427Q92 436 81 448T65 477T60 514Q60 537 67 555T88 583T123 594Q150 594 183 581T250 545Z" />
<glyph unicode="&#xab;" horiz-adv-x="523" d="M310 267L466 108L439 79L251 267L439 455L468 425L310 267ZM91 267L246 108L218 79L31 267L218 455L248 425L91 267Z" />
<glyph unicode="&#xad;" horiz-adv-x="392" d="M34 369H354V414H34V369Z" />
<glyph unicode="&#xae;" horiz-adv-x="696" d="M664 189V325Q664 389 641 437T575 518T474 567T347 583Q278 583 221 567T121 518T55 437T31 325V189Q31 125 54 77T120 -4T220 -52T347 -69Q416 -69 474 -53T574 -4T640 76T664 189ZM617 307V206Q617 145 600 101T548
29T463 -13T347 -27Q281 -27 231 -14T147 28T95 101T77 206V307Q77 369 94 413T146 485T231 527T347 541Q412 541 463 528T548 486T599 413T617 307ZM397 443H183V59H225V189H395L461 59H511L441 196Q484 206 502 237T520 318Q519 359 508 383T479 421T440 438T397
443ZM402 233H225V400H402Q430 400 447 392T471 365T479 317Q479 274 461 254T402 233Z" />
<glyph unicode="&#xaf;" horiz-adv-x="267" d="M244 677H23V633H244V677Z" />
<glyph unicode="&#xb0;" horiz-adv-x="348" d="M320 565Q320 605 301 638T248 690T175 710Q135 710 102 691T48 638T28 565Q28 525 48 492T101 439T175 419Q215 419 248 439T300 492T320 565ZM175 670Q204 670 227 656T264 618T279 565Q279 537 265 513T227 475T175
460Q146 460 122 474T83 513T68 565Q68 594 82 618T121 656T175 670Z" />
<glyph unicode="&#xb1;" horiz-adv-x="382" d="M31 384H170V247H30V202H350V247H213V384H351V426H213V565H170V426H31V384Z" />
<glyph unicode="&#xb4;" horiz-adv-x="267" d="M198 685Q203 693 204 700T203 714T192 725Q185 729 178 728T165 722T156 709L114 599H144L198 685Z" />
<glyph unicode="&#xb5;" horiz-adv-x="465" d="M409 87V510L365 501V147Q365 108 348 82T302 42T236 29Q186 29 152 47T101 93T84 152V501H39V-193L84 -210V56Q88 48 99 37T129 15T175 -5T238 -13Q268 -13 294 -5T340 17T371 50Q378 29 387 18T403 2T413 -5L434
21Q430 25 424 33T414 54T409 87Z" />
<glyph unicode="&#xb6;" horiz-adv-x="616" d="M225 259H420V1H464V660H529V1H573V702H223Q175 702 139 690T79 651T42 583T30 482Q30 424 42 382T78 312T139 272T225 259ZM220 660H420V301H223Q189 301 162 309T114 338T84 393T73 482Q73 550 91 588T142 643T220 660Z" />
<glyph unicode="&#xb7;" horiz-adv-x="126" d="M57 302Q48 300 43 292T40 275Q43 266 51 261T68 258Q77 261 82 269T86 286Q83 295 75 300T57 302Z" />
<glyph unicode="&#xb8;" horiz-adv-x="267" d="M161 7H121L84 -55L92 -82Q105 -80 117 -79T140 -78T161 -77Q189 -77 206 -89T224 -128Q224 -152 213 -164T186 -181T153 -186Q136 -187 119 -185T89 -180T65 -175L55 -213Q62 -214 77 -217T113 -222T157 -225Q199
-224 231 -200T264 -130Q264 -89 238 -62T162 -37Q156 -37 150 -37T135 -38L161 7Z" />
<glyph unicode="&#xba;" horiz-adv-x="340" d="M305 503V586Q305 645 271 678T172 711Q107 711 71 679T35 586V503Q35 469 50 441T95 396T173 379Q239 379 272 413T305 503ZM263 583V504Q263 466 242 443T173 419Q142 419 121 430T89 460T77 504V583Q77 626 101
648T173 671Q202 671 222 661T253 632T263 583Z" />
<glyph unicode="&#xbb;" horiz-adv-x="497" d="M189 267L33 108L60 79L248 267L60 455L31 425L189 267ZM408 267L253 108L281 79L468 267L281 455L251 425L408 267Z" />
<glyph unicode="&#xbf;" horiz-adv-x="410" d="M380 162H336Q336 127 325 101T295 58T252 33T203 26Q168 26 138 42T90 88T71 158Q71 189 81 213T107 259T145 303Q163 324 179 343T208 382T228 429T235 490V574H194V492Q194 461 188 439T171 400T145 365T109 325Q86
300 68 275T40 222T29 156Q29 114 44 83T84 29T142 -4T207 -15Q239 -15 270 -5T325 27T365 82T380 162ZM214 701Q203 701 195 693T186 673Q186 662 194 654T214 645Q226 645 234 653T242 673Q242 685 234 693T214 701Z" />
<glyph unicode="&#xc0;" horiz-adv-x="546" d="M246 868Q243 876 237 881T224 888T208 885Q202 881 199 874T197 860T203 845L258 759H289L246 868ZM527 0L293 700H253L21 0H67L153 257H393L480 0H527ZM166 300L272 629L381 300H166Z" />
<glyph unicode="&#xc1;" horiz-adv-x="546" d="M348 844Q353 852 354 859T353 873T342 884Q335 888 328 887T315 881T306 868L264 758H294L348 844ZM527 0L293 700H253L21 0H67L153 257H393L480 0H527ZM166 300L272 629L381 300H166Z" />
<glyph unicode="&#xc2;" horiz-adv-x="546" d="M400 770L274 894L145 769L175 739L274 834L368 741L400 770ZM527 0L293 700H253L21 0H67L153 257H393L480 0H527ZM166 300L272 629L381 300H166Z" />
<glyph unicode="&#xc3;" horiz-adv-x="546" d="M350 865V850Q350 837 346 825T328 814Q318 814 308 821T293 830Q283 838 273 844T252 856Q236 865 216 866T180 856Q170 849 165 838T157 815T155 792V777H195V792Q195 799 196 809T203 824Q212 829 221 827T239
819Q248 814 257 807T278 793Q290 786 302 780T330 774Q362 774 376 798T390 850V865H350ZM527 0L293 700H253L21 0H67L153 257H393L480 0H527ZM166 300L272 629L381 300H166Z" />
<glyph unicode="&#xc4;" horiz-adv-x="546" d="M193 846Q182 846 174 838T166 818Q166 807 174 799T193 791Q205 791 213 799T221 818Q221 830 213 838T193 846ZM352 846Q340 846 333 838T325 818Q325 807 332 799T352 791Q364 791 372 799T380 818Q380 830 372
838T352 846ZM527 0L293 700H253L21 0H67L153 257H393L480 0H527ZM166 300L272 629L381 300H166Z" />
<glyph unicode="&#xc5;" horiz-adv-x="546" d="M273 902Q242 902 216 887T174 847T158 789Q158 757 173 731T215 690T273 675Q304 675 329 690T370 731T386 789Q386 821 371 846T330 887T273 902ZM273 866Q305 866 328 843Q350 821 350 789Q350 773 344 759T328
733Q316 723 303 717T273 711Q257 711 243 717T218 733Q207 744 201 758T194 789Q194 805 200 819T216 844Q228 855 242 860T273 866ZM527 0L293 700H253L21 0H67L153 257H393L480 0H527ZM166 300L272 629L381 300H166Z" />
<glyph unicode="&#xc6;" horiz-adv-x="749" d="M384 0H719V40H428V369H617L633 414H428V658H719V700H292L20 0H66L166 256H384V0ZM182 300L321 658H384V300H182Z" />
<glyph unicode="&#xc7;" horiz-adv-x="422" d="M239 7H199L162 -55L170 -82Q183 -80 195 -79T218 -78T239 -77Q267 -77 284 -89T302 -128Q302 -152 291 -164T264 -181T231 -186Q214 -187 197 -185T167 -180T143 -175L133 -213Q140 -214 155 -217T191 -222T235
-225Q277 -224 309 -200T342 -130Q342 -89 316 -62T240 -37Q234 -37 228 -37T213 -38L239 7ZM357 646L371 677Q340 694 305 702T229 710Q176 710 132 690T61 626T34 511V184Q34 117 58 74T127 11T235 -10Q273 -10 313 -2T396 23L386 60Q358 50 332 43T282 33T239
29Q188 29 152 44T97 95T78 186V514Q78 569 97 603T153 654T242 670Q270 670 298 665T357 646Z" />
<glyph unicode="&#xc8;" horiz-adv-x="405" d="M176 867Q173 875 167 880T154 887T138 884Q132 880 129 873T127 859T133 844L188 758H219L176 867ZM41 0H373V40H85V369H274L288 412H85V659H375V700H41V0Z" />
<glyph unicode="&#xc9;" horiz-adv-x="405" d="M267 843Q272 851 273 858T272 872T261 883Q254 887 247 886T234 880T225 867L183 757H213L267 843ZM41 0H373V40H85V369H274L288 412H85V659H375V700H41V0Z" />
<glyph unicode="&#xca;" horiz-adv-x="405" d="M331 770L205 894L76 769L106 739L205 834L299 741L331 770ZM41 0H373V40H85V369H274L288 412H85V659H375V700H41V0Z" />
<glyph unicode="&#xcb;" horiz-adv-x="405" d="M123 846Q112 846 104 838T96 818Q96 807 104 799T123 791Q135 791 143 799T151 818Q151 830 143 838T123 846ZM282 846Q270 846 263 838T255 818Q255 807 262 799T282 791Q294 791 302 799T310 818Q310 830 302
838T282 846ZM41 0H373V40H85V369H274L288 412H85V659H375V700H41V0Z" />
<glyph unicode="&#xcc;" horiz-adv-x="179" d="M85 869Q82 877 76 882T63 889T47 886Q41 882 38 875T36 861T42 846L97 760H128L85 869ZM18 662L93 660V0H136V700H18V662Z" />
<glyph unicode="&#xcd;" horiz-adv-x="179" d="M184 844Q189 852 190 859T189 873T178 884Q171 888 164 887T151 881T142 868L100 758H130L184 844ZM18 662L93 660V0H136V700H18V662Z" />
<glyph unicode="&#xce;" horiz-adv-x="179" d="M240 770L114 894L-15 769L15 739L114 834L208 741L240 770ZM18 662L93 660V0H136V700H18V662Z" />
<glyph unicode="&#xcf;" horiz-adv-x="179" d="M285 846Q274 846 266 838T258 818Q258 807 266 799T285 791Q297 791 305 799T313 818Q313 830 305 838T285 846ZM444 846Q432 846 425 838T417 818Q417 807 424 799T444 791Q456 791 464 799T472 818Q472 830 464
838T444 846ZM18 662L93 660V0H136V700H18V662Z" />
<glyph unicode="&#xd0;" horiz-adv-x="497" d="M61 369H274L288 412H61V369ZM230 700H41V0H250Q321 0 368 22T438 89T462 200V475Q462 543 436 593T358 672T230 700ZM235 40H85V660H240Q302 660 341 637T398 573T417 483V198Q417 156 406 126T371 77T315 49T235 40Z" />
<glyph unicode="&#xd1;" horiz-adv-x="577" d="M365 865V850Q365 837 361 825T343 814Q333 814 323 821T308 830Q298 838 288 844T267 856Q251 865 231 866T195 856Q185 849 180 838T172 815T170 792V777H210V792Q210 799 211 809T218 824Q227 829 236 827T254
819Q263 814 272 807T293 793Q305 786 317 780T345 774Q377 774 391 798T405 850V865H365ZM534 700H491V79L85 700H41V0H85V621L491 0H534V700Z" />
<glyph unicode="&#xd2;" horiz-adv-x="491" d="M218 868Q215 876 209 881T196 888T180 885Q174 881 171 874T169 860T175 845L230 759H261L218 868ZM34 508V186Q34 121 62 77T139 11T245 -11Q308 -11 355 13T428 81T455 186V507Q455 605 400 660T246 716Q147 716
91 663T34 508ZM78 186V514Q78 566 98 601T155 655T244 674Q297 674 334 656T391 602T411 515V186Q411 134 390 99T331 48T244 31Q197 31 160 48T100 100T78 186Z" />
<glyph unicode="&#xd3;" horiz-adv-x="491" d="M309 844Q314 852 315 859T314 873T303 884Q296 888 289 887T276 881T267 868L225 758H255L309 844ZM34 508V186Q34 121 62 77T139 11T245 -11Q308 -11 355 13T428 81T455 186V507Q455 605 400 660T246 716Q147 716
91 663T34 508ZM78 186V514Q78 566 98 601T155 655T244 674Q297 674 334 656T391 602T411 515V186Q411 134 390 99T331 48T244 31Q197 31 160 48T100 100T78 186Z" />
<glyph unicode="&#xd4;" horiz-adv-x="491" d="M372 770L246 894L117 769L147 739L246 834L340 741L372 770ZM34 508V186Q34 121 62 77T139 11T245 -11Q308 -11 355 13T428 81T455 186V507Q455 605 400 660T246 716Q147 716 91 663T34 508ZM78 186V514Q78 566
98 601T155 655T244 674Q297 674 334 656T391 602T411 515V186Q411 134 390 99T331 48T244 31Q197 31 160 48T100 100T78 186Z" />
<glyph unicode="&#xd5;" horiz-adv-x="491" d="M322 865V850Q322 837 318 825T300 814Q290 814 280 821T265 830Q255 838 245 844T224 856Q208 865 188 866T152 856Q142 849 137 838T129 815T127 792V777H167V792Q167 799 168 809T175 824Q184 829 193 827T211
819Q220 814 229 807T250 793Q262 786 274 780T302 774Q334 774 348 798T362 850V865H322ZM34 508V186Q34 121 62 77T139 11T245 -11Q308 -11 355 13T428 81T455 186V507Q455 605 400 660T246 716Q147 716 91 663T34 508ZM78 186V514Q78 566 98 601T155 655T244
674Q297 674 334 656T391 602T411 515V186Q411 134 390 99T331 48T244 31Q197 31 160 48T100 100T78 186Z" />
<glyph unicode="&#xd6;" horiz-adv-x="491" d="M165 846Q154 846 146 838T138 818Q138 807 146 799T165 791Q177 791 185 799T193 818Q193 830 185 838T165 846ZM324 846Q312 846 305 838T297 818Q297 807 304 799T324 791Q336 791 344 799T352 818Q352 830 344
838T324 846ZM34 508V186Q34 121 62 77T139 11T245 -11Q308 -11 355 13T428 81T455 186V507Q455 605 400 660T246 716Q147 716 91 663T34 508ZM78 186V514Q78 566 98 601T155 655T244 674Q297 674 334 656T391 602T411 515V186Q411 134 390 99T331 48T244 31Q197
31 160 48T100 100T78 186Z" />
<glyph unicode="&#xd7;" horiz-adv-x="339" d="M170 365L62 493L31 467L141 332L32 201L64 172L170 299L273 172L306 202L198 332L307 466L275 493L170 365Z" />
<glyph unicode="&#xd8;" horiz-adv-x="491" d="M51 -1H99L434 700H389L51 -1ZM34 508V186Q34 121 62 77T139 11T245 -11Q308 -11 355 13T428 81T455 186V507Q455 605 400 660T246 716Q147 716 91 663T34 508ZM78 186V514Q78 566 98 601T155 655T244 674Q297 674
334 656T391 602T411 515V186Q411 134 390 99T331 48T244 31Q197 31 160 48T100 100T78 186Z" />
<glyph unicode="&#xd9;" horiz-adv-x="498" d="M222 868Q219 876 213 881T200 888T184 885Q178 881 175 874T173 860T179 845L234 759H265L222 868ZM458 186V700H414V186Q414 135 393 100T335 48T248 31Q199 31 162 48T103 100T81 186V700H38V186Q38 121 64 77T139
11T249 -11Q311 -11 358 11T431 78T458 186Z" />
<glyph unicode="&#xda;" horiz-adv-x="498" d="M313 838Q318 846 319 853T318 867T307 878Q300 882 293 881T280 875T271 862L229 752H259L313 838ZM458 186V700H414V186Q414 135 393 100T335 48T248 31Q199 31 162 48T103 100T81 186V700H38V186Q38 121 64 77T139
11T249 -11Q311 -11 358 11T431 78T458 186Z" />
<glyph unicode="&#xdb;" horiz-adv-x="498" d="M376 770L250 894L121 769L151 739L250 834L344 741L376 770ZM458 186V700H414V186Q414 135 393 100T335 48T248 31Q199 31 162 48T103 100T81 186V700H38V186Q38 121 64 77T139 11T249 -11Q311 -11 358 11T431 78T458 186Z" />
<glyph unicode="&#xdc;" horiz-adv-x="498" d="M169 846Q158 846 150 838T142 818Q142 807 150 799T169 791Q181 791 189 799T197 818Q197 830 189 838T169 846ZM328 846Q316 846 309 838T301 818Q301 807 308 799T328 791Q340 791 348 799T356 818Q356 830 348
838T328 846ZM458 186V700H414V186Q414 135 393 100T335 48T248 31Q199 31 162 48T103 100T81 186V700H38V186Q38 121 64 77T139 11T249 -11Q311 -11 358 11T431 78T458 186Z" />
<glyph unicode="&#xdd;" horiz-adv-x="515" d="M321 838Q326 846 327 853T326 867T315 878Q308 882 301 881T288 875T279 862L237 752H267L321 838ZM474 153V700H429V426Q429 389 414 363T374 320T317 296T253 288Q197 288 157 306T95 362T74 455V700H30V455Q30
389 55 343T127 271T244 245Q286 245 322 255T386 283T429 321V153Q429 122 424 100T410 63T387 39T358 24L369 -7Q420 2 447 42T474 153Z" />
<glyph unicode="&#xde;" horiz-adv-x="505" d="M282 615H85L86 700H41V0H85V172H279Q330 172 367 185T428 225T464 294T476 396Q476 455 464 496T427 564T366 603T282 615ZM85 215V573H285Q319 573 346 564T392 535T421 480T432 396Q432 342 422 307T392 252T345
224T282 215H85Z" />
<glyph unicode="&#xdf;" horiz-adv-x="465" d="M84 0V541Q84 580 94 606T124 645T175 658Q200 658 217 647T245 617T256 579Q257 561 251 545T229 518T190 508Q180 490 177 472T174 438Q176 409 192 385T233 339T286 296T338 252T377 202T393 142Q393 119 386
99T363 64T325 40T275 31Q255 31 237 34T204 43T177 55T155 69L134 36Q149 25 171 14T221 -5T283 -11Q316 -10 344 0T394 30T427 77T439 140Q439 178 424 209T385 265T333 313T280 355T238 396T218 441Q217 452 219 462T227 483Q228 483 231 483T239 483T247 483T251
483Q268 491 278 505T294 538T298 576Q298 607 283 635T240 682T171 700Q142 699 118 690T76 660T49 611T39 539V0H84Z" />
<glyph unicode="&#xe0;" horiz-adv-x="446" d="M196 920Q193 928 187 933T174 940T158 937Q152 933 149 926T147 912T153 897L208 811H239L196 920ZM367 349Q342 363 312 375T249 395T182 403Q145 403 117 393T68 364T37 316T26 252V169Q26 117 41 82T85 27T154
-2T245 -10Q259 -10 280 -9T324 -7T367 -4T399 -1T411 0V304Q411 363 399 402T361 465T297 499T203 509L201 474Q233 474 263 469T316 451T353 413T367 349ZM367 310V37Q367 37 360 36T341 35T312 33T278 30T243 28Q190 27 156 36T102 65T76 111T68 172V250Q68
282 77 304T101 339T137 359T179 365Q212 365 244 358T307 338T367 310Z" />
<glyph unicode="&#xe1;" horiz-adv-x="446" d="M288 895Q293 903 294 910T293 924T282 935Q275 939 268 938T255 932T246 919L204 809H234L288 895ZM367 349Q342 363 312 375T249 395T182 403Q145 403 117 393T68 364T37 316T26 252V169Q26 117 41 82T85 27T154
-2T245 -10Q259 -10 280 -9T324 -7T367 -4T399 -1T411 0V304Q411 363 399 402T361 465T297 499T203 509L201 474Q233 474 263 469T316 451T353 413T367 349ZM367 310V37Q367 37 360 36T341 35T312 33T278 30T243 28Q190 27 156 36T102 65T76 111T68 172V250Q68
282 77 304T101 339T137 359T179 365Q212 365 244 358T307 338T367 310Z" />
<glyph unicode="&#xe2;" horiz-adv-x="446" d="M348 842L222 966L93 841L123 811L222 906L316 813L348 842ZM367 349Q342 363 312 375T249 395T182 403Q145 403 117 393T68 364T37 316T26 252V169Q26 117 41 82T85 27T154 -2T245 -10Q259 -10 280 -9T324 -7T367
-4T399 -1T411 0V304Q411 363 399 402T361 465T297 499T203 509L201 474Q233 474 263 469T316 451T353 413T367 349ZM367 310V37Q367 37 360 36T341 35T312 33T278 30T243 28Q190 27 156 36T102 65T76 111T68 172V250Q68 282 77 304T101 339T137 359T179 365Q212
365 244 358T307 338T367 310Z" />
<glyph unicode="&#xe3;" horiz-adv-x="446" d="M301 926V911Q301 898 297 886T279 875Q269 875 259 882T244 891Q234 899 224 905T203 917Q187 926 167 927T131 917Q121 910 116 899T108 876T106 853V838H146V853Q146 860 147 870T154 885Q163 890 172 888T190
880Q199 875 208 868T229 854Q241 847 253 841T281 835Q313 835 327 859T341 911V926H301ZM367 349Q342 363 312 375T249 395T182 403Q145 403 117 393T68 364T37 316T26 252V169Q26 117 41 82T85 27T154 -2T245 -10Q259 -10 280 -9T324 -7T367 -4T399 -1T411 0V304Q411
363 399 402T361 465T297 499T203 509L201 474Q233 474 263 469T316 451T353 413T367 349ZM367 310V37Q367 37 360 36T341 35T312 33T278 30T243 28Q190 27 156 36T102 65T76 111T68 172V250Q68 282 77 304T101 339T137 359T179 365Q212 365 244 358T307 338T367
310Z" />
<glyph unicode="&#xe4;" horiz-adv-x="446" d="M144 907Q133 907 125 899T117 879Q117 868 125 860T144 852Q156 852 164 860T172 879Q172 891 164 899T144 907ZM303 907Q291 907 284 899T276 879Q276 868 283 860T303 852Q315 852 323 860T331 879Q331 891 323
899T303 907ZM367 349Q342 363 312 375T249 395T182 403Q145 403 117 393T68 364T37 316T26 252V169Q26 117 41 82T85 27T154 -2T245 -10Q259 -10 280 -9T324 -7T367 -4T399 -1T411 0V304Q411 363 399 402T361 465T297 499T203 509L201 474Q233 474 263 469T316
451T353 413T367 349ZM367 310V37Q367 37 360 36T341 35T312 33T278 30T243 28Q190 27 156 36T102 65T76 111T68 172V250Q68 282 77 304T101 339T137 359T179 365Q212 365 244 358T307 338T367 310Z" />
<glyph unicode="&#xe5;" horiz-adv-x="446" d="M221 955Q190 955 164 940T122 900T106 842Q106 810 121 784T163 743T221 728Q252 728 277 743T318 784T334 842Q334 874 319 899T278 940T221 955ZM221 919Q253 919 276 896Q298 874 298 842Q298 826 292 812T276
786Q264 776 251 770T221 764Q205 764 191 770T166 786Q155 797 149 811T142 842Q142 858 148 872T164 897Q176 908 190 913T221 919ZM367 349Q342 363 312 375T249 395T182 403Q145 403 117 393T68 364T37 316T26 252V169Q26 117 41 82T85 27T154 -2T245 -10Q259
-10 280 -9T324 -7T367 -4T399 -1T411 0V304Q411 363 399 402T361 465T297 499T203 509L201 474Q233 474 263 469T316 451T353 413T367 349ZM367 310V37Q367 37 360 36T341 35T312 33T278 30T243 28Q190 27 156 36T102 65T76 111T68 172V250Q68 282 77 304T101
339T137 359T179 365Q212 365 244 358T307 338T367 310Z" />
<glyph unicode="&#xe6;" horiz-adv-x="761" d="M367 349Q342 363 312 375T249 395T182 403Q145 403 117 393T68 364T37 316T26 252V169Q26 117 41 82T85 27T154 -2T245 -10Q259 -10 280 -9T324 -7T367 -4T399 -1T411 0V304Q411 363 399 402T361 465T297 499T203
509L201 474Q233 474 263 469T316 451T353 413T367 349ZM367 310V37Q367 37 360 36T341 35T312 33T278 30T243 28Q190 27 156 36T102 65T76 111T68 172V250Q68 282 77 304T101 339T137 359T179 365Q212 365 244 358T307 338T367 310ZM413 134V207L731 224V342Q731
398 709 435T648 491T555 510Q502 510 460 491T394 434T370 339V134Q370 92 382 64T418 19T474 -5T543 -12Q583 -12 625 0T705 35L688 69Q649 49 614 38T539 26Q513 26 490 32T450 50T423 83T413 134ZM687 347V263L413 250V336Q413 380 430 410T479 457T554 473Q593
473 622 458T669 415T687 347Z" />
<glyph unicode="&#xe7;" horiz-adv-x="380" d="M217 12H177L140 -50L148 -77Q161 -75 173 -74T196 -73T217 -72Q245 -72 262 -84T280 -123Q280 -147 269 -159T242 -176T209 -181Q192 -182 175 -180T145 -175T121 -170L111 -208Q118 -209 133 -212T169 -217T213
-220Q255 -219 287 -195T320 -125Q320 -84 294 -57T218 -32Q212 -32 206 -32T191 -33L217 12ZM337 442L349 478Q317 493 283 501T214 510Q152 510 111 486T49 418T29 317V174Q29 110 52 70T119 10T220 -11Q253 -12 286 -8T351 5L342 45Q341 45 331 43T304 37T266
32T222 30Q185 31 157 39T110 66T81 113T72 183V312Q73 359 88 394T134 450T215 470Q245 469 277 462T337 442Z" />
<glyph unicode="&#xe8;" horiz-adv-x="421" d="M184 920Q181 928 175 933T162 940T146 937Q140 933 137 926T135 912T141 897L196 811H227L184 920ZM74 134V207L392 224V342Q392 398 370 435T309 491T216 510Q163 510 121 491T55 434T31 339V134Q31 92 43 64T79
19T135 -5T204 -12Q244 -12 286 0T366 35L349 69Q310 49 275 38T200 26Q174 26 151 32T111 50T84 83T74 134ZM348 347V263L74 250V336Q74 380 91 410T140 457T215 473Q254 473 283 458T330 415T348 347Z" />
<glyph unicode="&#xe9;" horiz-adv-x="421" d="M274 906Q279 914 280 921T279 935T268 946Q261 950 254 949T241 943T232 930L190 820H220L274 906ZM74 134V207L392 224V342Q392 398 370 435T309 491T216 510Q163 510 121 491T55 434T31 339V134Q31 92 43 64T79
19T135 -5T204 -12Q244 -12 286 0T366 35L349 69Q310 49 275 38T200 26Q174 26 151 32T111 50T84 83T74 134ZM348 347V263L74 250V336Q74 380 91 410T140 457T215 473Q254 473 283 458T330 415T348 347Z" />
<glyph unicode="&#xea;" horiz-adv-x="421" d="M338 841L212 965L83 840L113 810L212 905L306 812L338 841ZM74 134V207L392 224V342Q392 398 370 435T309 491T216 510Q163 510 121 491T55 434T31 339V134Q31 92 43 64T79 19T135 -5T204 -12Q244 -12 286 0T366
35L349 69Q310 49 275 38T200 26Q174 26 151 32T111 50T84 83T74 134ZM348 347V263L74 250V336Q74 380 91 410T140 457T215 473Q254 473 283 458T330 415T348 347Z" />
<glyph unicode="&#xeb;" horiz-adv-x="421" d="M131 907Q120 907 112 899T104 879Q104 868 112 860T131 852Q143 852 151 860T159 879Q159 891 151 899T131 907ZM290 907Q278 907 271 899T263 879Q263 868 270 860T290 852Q302 852 310 860T318 879Q318 891 310
899T290 907ZM74 134V207L392 224V342Q392 398 370 435T309 491T216 510Q163 510 121 491T55 434T31 339V134Q31 92 43 64T79 19T135 -5T204 -12Q244 -12 286 0T366 35L349 69Q310 49 275 38T200 26Q174 26 151 32T111 50T84 83T74 134ZM348 347V263L74 250V336Q74
380 91 410T140 457T215 473Q254 473 283 458T330 415T348 347Z" />
<glyph unicode="&#xec;" horiz-adv-x="122" d="M290 934Q287 942 281 947T268 954T252 951Q246 947 243 940T241 926T247 911L302 825H333L290 934ZM38 0H82V500H38V0Z" />
<glyph unicode="&#xed;" horiz-adv-x="122" d="M388 906Q393 914 394 921T393 935T382 946Q375 950 368 949T355 943T346 930L304 820H334L388 906ZM38 0H82V500H38V0Z" />
<glyph unicode="&#xee;" horiz-adv-x="122" d="M444 841L318 965L189 840L219 810L318 905L412 812L444 841ZM38 0H82V500H38V0Z" />
<glyph unicode="&#xef;" horiz-adv-x="122" d="M238 907Q227 907 219 899T211 879Q211 868 219 860T238 852Q250 852 258 860T266 879Q266 891 258 899T238 907ZM397 907Q385 907 378 899T370 879Q370 868 377 860T397 852Q409 852 417 860T425 879Q425 891 417
899T397 907ZM38 0H82V500H38V0Z" />
<glyph unicode="&#xf0;" horiz-adv-x="423" d="M307 657Q283 675 254 686T188 701L181 676Q193 674 209 669T244 655T282 631L176 525L199 502L305 609Q325 587 338 555T352 478V353Q344 371 328 386T290 411T245 428T198 434Q116 434 71 386T26 246V188Q26 97
73 44T210 -9Q299 -9 347 42T396 188V471Q396 501 389 531T368 588T331 636L376 680L353 703L307 657ZM208 32Q164 32 134 49T87 101T70 186V253Q70 298 85 329T128 376T195 393Q225 394 253 386T303 360T339 317T352 257V186Q352 136 336 102T288 50T208 32Z"
/>
<glyph unicode="&#xf1;" d="M299 926V911Q299 898 295 886T277 875Q267 875 257 882T242 891Q232 899 222 905T201 917Q185 926 165 927T129 917Q119 910 114 899T106 876T104 853V838H144V853Q144 860 145 870T152 885Q161 890 170 888T188 880Q197 875 206 868T227
854Q239 847 251 841T279 835Q311 835 325 859T339 911V926H299ZM364 343V0H407V345Q407 382 398 409T372 456T333 488T282 505T223 510Q199 510 174 505T126 490T82 469V501H38V0H82V435Q103 446 124 453T170 466T219 471Q249 472 275 466T321 445T353 405T364
343Z" />
<glyph unicode="&#xf2;" horiz-adv-x="429" d="M187 942Q184 950 178 955T165 962T149 959Q143 955 140 948T138 934T144 919L199 833H230L187 942ZM398 185V316Q398 408 352 460T216 512Q157 512 115 490T50 424T28 316V185Q28 131 49 87T112 17T217 -10Q308
-10 353 43T398 185ZM355 317V178Q355 134 340 101T295 48T217 29Q171 29 139 48T89 101T72 178V317Q72 368 88 402T137 455T217 473Q263 473 293 456T339 404T355 317Z" />
<glyph unicode="&#xf3;" horiz-adv-x="429" d="M278 906Q283 914 284 921T283 935T272 946Q265 950 258 949T245 943T236 930L194 820H224L278 906ZM398 185V316Q398 408 352 460T216 512Q157 512 115 490T50 424T28 316V185Q28 131 49 87T112 17T217 -10Q308
-10 353 43T398 185ZM355 317V178Q355 134 340 101T295 48T217 29Q171 29 139 48T89 101T72 178V317Q72 368 88 402T137 455T217 473Q263 473 293 456T339 404T355 317Z" />
<glyph unicode="&#xf4;" horiz-adv-x="429" d="M342 841L216 965L87 840L117 810L216 905L310 812L342 841ZM398 185V316Q398 408 352 460T216 512Q157 512 115 490T50 424T28 316V185Q28 131 49 87T112 17T217 -10Q308 -10 353 43T398 185ZM355 317V178Q355 134
340 101T295 48T217 29Q171 29 139 48T89 101T72 178V317Q72 368 88 402T137 455T217 473Q263 473 293 456T339 404T355 317Z" />
<glyph unicode="&#xf5;" horiz-adv-x="429" d="M292 926V911Q292 898 288 886T270 875Q260 875 250 882T235 891Q225 899 215 905T194 917Q178 926 158 927T122 917Q112 910 107 899T99 876T97 853V838H137V853Q137 860 138 870T145 885Q154 890 163 888T181 880Q190
875 199 868T220 854Q232 847 244 841T272 835Q304 835 318 859T332 911V926H292ZM398 185V316Q398 408 352 460T216 512Q157 512 115 490T50 424T28 316V185Q28 131 49 87T112 17T217 -10Q308 -10 353 43T398 185ZM355 317V178Q355 134 340 101T295 48T217 29Q171
29 139 48T89 101T72 178V317Q72 368 88 402T137 455T217 473Q263 473 293 456T339 404T355 317Z" />
<glyph unicode="&#xf6;" horiz-adv-x="429" d="M134 907Q123 907 115 899T107 879Q107 868 115 860T134 852Q146 852 154 860T162 879Q162 891 154 899T134 907ZM293 907Q281 907 274 899T266 879Q266 868 273 860T293 852Q305 852 313 860T321 879Q321 891 313
899T293 907ZM398 185V316Q398 408 352 460T216 512Q157 512 115 490T50 424T28 316V185Q28 131 49 87T112 17T217 -10Q308 -10 353 43T398 185ZM355 317V178Q355 134 340 101T295 48T217 29Q171 29 139 48T89 101T72 178V317Q72 368 88 402T137 455T217 473Q263
473 293 456T339 404T355 317Z" />
<glyph unicode="&#xf7;" horiz-adv-x="381" d="M29 362H349V405H29V362ZM190 541Q178 541 170 533T162 512Q162 501 170 493T190 485Q202 485 210 493T218 512Q218 524 210 532T190 541ZM190 283Q178 283 170 275T162 255Q162 243 170 236T190 228Q202 228 210
235T218 255Q218 267 210 275T190 283Z" />
<glyph unicode="&#xf8;" horiz-adv-x="429" d="M356 514H310L77 -20H122L356 514ZM398 185V316Q398 408 352 460T216 512Q157 512 115 490T50 424T28 316V185Q28 131 49 87T112 17T217 -10Q308 -10 353 43T398 185ZM355 317V178Q355 134 340 101T295 48T217 29Q171
29 139 48T89 101T72 178V317Q72 368 88 402T137 455T217 473Q263 473 293 456T339 404T355 317Z" />
<glyph unicode="&#xf9;" horiz-adv-x="445" d="M195 940Q192 948 186 953T173 960T157 957Q151 953 148 946T146 932T152 917L207 831H238L195 940ZM361 65V0H405V501H361V172Q361 144 351 119T322 75T276 45T218 32Q174 31 143 44T96 87T79 166V501H35V157Q35
119 44 91T70 43T110 12T160 -5T216 -10Q244 -9 272 -1T323 24T361 65Z" />
<glyph unicode="&#xfa;" horiz-adv-x="445" d="M286 906Q291 914 292 921T291 935T280 946Q273 950 266 949T253 943T244 930L202 820H232L286 906ZM361 65V0H405V501H361V172Q361 144 351 119T322 75T276 45T218 32Q174 31 143 44T96 87T79 166V501H35V157Q35
119 44 91T70 43T110 12T160 -5T216 -10Q244 -9 272 -1T323 24T361 65Z" />
<glyph unicode="&#xfb;" horiz-adv-x="445" d="M349 841L223 965L94 840L124 810L223 905L317 812L349 841ZM361 65V0H405V501H361V172Q361 144 351 119T322 75T276 45T218 32Q174 31 143 44T96 87T79 166V501H35V157Q35 119 44 91T70 43T110 12T160 -5T216 -10Q244
-9 272 -1T323 24T361 65Z" />
<glyph unicode="&#xfc;" horiz-adv-x="445" d="M140 907Q129 907 121 899T113 879Q113 868 121 860T140 852Q152 852 160 860T168 879Q168 891 160 899T140 907ZM299 907Q287 907 280 899T272 879Q272 868 279 860T299 852Q311 852 319 860T327 879Q327 891 319
899T299 907ZM361 65V0H405V501H361V172Q361 144 351 119T322 75T276 45T218 32Q174 31 143 44T96 87T79 166V501H35V157Q35 119 44 91T70 43T110 12T160 -5T216 -10Q244 -9 272 -1T323 24T361 65Z" />
<glyph unicode="&#xfd;" horiz-adv-x="466" d="M296 906Q301 914 302 921T301 935T290 946Q283 950 276 949T263 943T254 930L212 820H242L296 906ZM435 480L418 512Q398 503 386 489T368 455T362 412V173Q362 145 352 120T323 76T279 46T224 33Q196 32 170 38T123
58T91 98T79 160V501H35V158Q35 110 49 78T88 26T146 -1T217 -9Q245 -8 272 0T323 25T362 67V-63Q362 -84 358 -102T344 -134T321 -158T287 -176L300 -210Q338 -197 361 -180T394 -134T405 -64V411Q405 444 413 458T435 480Z" />
<glyph unicode="&#xfe;" horiz-adv-x="441" d="M409 176V346Q409 399 389 436T331 493T238 510Q212 509 186 502T134 482T84 451V700H39V-194L84 -212V67Q96 45 120 27T175 -2T238 -12Q321 -12 365 36T409 176ZM365 344V168Q365 122 351 92T308 45T240 28Q210
27 182 36T132 62T97 106T84 165V404Q102 425 127 439T181 462T234 471Q259 472 283 466T325 444T354 404T365 344Z" />
<glyph unicode="&#xff;" horiz-adv-x="466" d="M153 907Q142 907 134 899T126 879Q126 868 134 860T153 852Q165 852 173 860T181 879Q181 891 173 899T153 907ZM312 907Q300 907 293 899T285 879Q285 868 292 860T312 852Q324 852 332 860T340 879Q340 891 332
899T312 907ZM435 480L418 512Q398 503 386 489T368 455T362 412V173Q362 145 352 120T323 76T279 46T224 33Q196 32 170 38T123 58T91 98T79 160V501H35V158Q35 110 49 78T88 26T146 -1T217 -9Q245 -8 272 0T323 25T362 67V-63Q362 -84 358 -102T344 -134T321
-158T287 -176L300 -210Q338 -197 361 -180T394 -134T405 -64V411Q405 444 413 458T435 480Z" />
<glyph unicode="&#x2013;" d="M34 369H409V414H34V369Z" />
<glyph unicode="&#x2014;" horiz-adv-x="717" d="M34 369H683V414H34V369Z" />
<glyph unicode="&#x2018;" horiz-adv-x="120" d="M90 690L74 701Q70 696 63 688T47 666T33 636T27 595Q27 583 35 576T54 568Q66 568 74 575T83 595Q83 605 77 612T59 622Q61 637 67 655T90 690Z" />
<glyph unicode="&#x2019;" horiz-adv-x="120" d="M28 570L43 560Q48 564 56 573T72 595T86 625T92 665Q92 678 84 686T63 694Q52 694 44 686T35 665Q35 655 42 648T57 638Q56 624 50 606T28 570Z" />
<glyph unicode="&#x201a;" horiz-adv-x="131" d="M33 -54L47 -64Q53 -60 61 -51T77 -29T90 1T96 42Q96 55 88 62T67 70Q56 70 48 62T40 42Q40 31 47 24T62 15Q61 1 55 -17T33 -54Z" />
<glyph unicode="&#x201c;" horiz-adv-x="299" d="M269 690L255 701Q250 696 242 688T226 666T213 636T207 595Q207 583 215 576T234 568Q246 568 254 575T263 595Q263 605 257 612T239 622Q242 637 248 655T269 690ZM90 690L74 701Q70 696 63 688T47 666T33 636T27
595Q27 583 35 576T54 568Q66 568 74 575T83 595Q83 605 77 612T59 622Q61 637 67 655T90 690Z" />
<glyph unicode="&#x201d;" horiz-adv-x="300" d="M28 570L43 560Q48 564 56 573T72 595T86 626T92 665Q91 678 83 686T63 694Q52 694 44 686T35 665Q35 655 42 648T57 638Q56 624 50 606T28 570ZM209 570L223 560Q228 564 236 573T252 595T265 625T271 665Q271
678 263 686T243 694Q232 694 224 686T215 665Q215 655 221 648T238 638Q236 624 230 606T209 570Z" />
<glyph unicode="&#x201e;" horiz-adv-x="310" d="M33 -54L47 -64Q53 -60 61 -51T77 -29T90 1T96 42Q96 55 88 62T67 70Q56 70 48 62T40 42Q40 31 47 24T62 15Q61 1 55 -17T33 -54ZM213 -54L228 -64Q233 -59 240 -51T256 -29T270 1T276 42Q276 55 268 62T248 70Q237
70 229 62T220 42Q220 31 226 24T242 15Q241 1 235 -17T213 -54Z" />
<glyph unicode="&#x2022;" horiz-adv-x="319" d="M248 427Q210 465 158 465Q106 465 67 427Q29 390 29 336Q29 310 38 288T67 247Q106 208 158 208Q184 208 207 217T248 247Q267 265 276 288T286 336Q286 389 248 427Z" />
<glyph unicode="&#x2039;" horiz-adv-x="277" d="M27 267L214 79L242 108L85 267L244 425L214 455L27 267Z" />
<glyph unicode="&#x203a;" horiz-adv-x="277" d="M189 267L33 108L61 79L248 267L61 455L31 425L189 267Z" />
</font>
</defs>
</svg>
