<?xml version="1.0" standalone="no"?>
<!DOCTYPE svg PUBLIC "-//W3C//DTD SVG 1.1//EN" "http://www.w3.org/Graphics/SVG/1.1/DTD/svg11.dtd">
<svg xmlns="http://www.w3.org/2000/svg">
<defs >
<font id="AdventPro" horiz-adv-x="443" ><font-face
    font-family="Advent Pro Black"
    units-per-em="1000"
    panose-1="0 0 0 0 0 0 0 0 0 0"
    ascent="964"
    descent="-232"
    alphabetic="0" />
<glyph unicode=" " horiz-adv-x="280" />
<glyph unicode="!" horiz-adv-x="195" d="M24 635L47 151H147L175 636Q175 671 156 692T98 714Q61 714 43 693T24 635ZM97 137Q64 137 42 115T19 60Q19 28 41 5T97 -18Q129 -18 152 5T175 60Q175 92 152 114T97 137Z" />
<glyph unicode="&quot;" horiz-adv-x="284" d="M6 705L24 589H109L127 705Q127 734 109 748T67 762T25 748T6 705ZM156 705L174 589H259L277 705Q277 734 259 748T217 762T175 748T156 705Z" />
<glyph unicode="#" horiz-adv-x="619" d="M460 270L480 357H584V471H509L563 700H447L393 471H275L328 700H224L171 471H33V357H144L123 270H33V167H99L58 0H165L203 167H321L283 0H396L435 167H584V270H460ZM346 270H227L248 357H367L346 270Z" />
<glyph unicode="$" horiz-adv-x="546" d="M230 -115H340V819H230V-115ZM421 527L453 673Q428 686 402 694T348 706T293 710Q255 710 214 700T136 667T78 605T56 508Q56 466 67 435T99 381T145 340T197 310T249 285T294 263T327 239T339 209Q339 193 333 182T315
163T289 152T254 148Q229 148 204 157T157 181T117 213L35 88Q63 55 100 33T180 0T267 -12Q316 -12 362 0T445 38T502 107T524 214Q524 255 512 286T478 340T431 380T376 410T322 434T275 455T241 478T229 506Q229 520 234 530T248 545T271 553T300 556Q322 556
342 552T381 542T421 527Z" />
<glyph unicode="%" horiz-adv-x="730" d="M35 0H150L691 700H574L35 0ZM188 715Q148 715 115 696T61 643T41 570Q41 530 61 497T114 443T188 423Q227 423 260 443T313 496T333 570Q333 610 313 643T260 695T188 715ZM188 622Q202 622 213 615T232 596T240 570Q240
556 233 544T214 524T188 517Q173 517 161 524T142 543T135 570Q135 584 142 596T161 615T188 622ZM549 278Q509 278 476 259T422 206T402 132Q402 92 422 59T475 6T549 -14Q589 -14 622 5T674 58T694 132Q694 173 675 206T622 258T549 278ZM549 185Q563 185 574
178T593 158T600 132Q600 118 593 106T575 86T549 79Q535 79 523 86T504 105T497 132Q497 146 504 158T523 177T549 185Z" />
<glyph unicode="&amp;" horiz-adv-x="531" d="M374 533L405 702H208Q163 702 131 684T81 632T63 556Q63 522 69 497T86 449T114 404H104Q92 404 79 399T55 383T38 353T31 307V120Q31 98 37 79T55 45T82 20T116 4T153 -2Q174 -2 199 1T250 15T294 42Q329 14 363
4T444 -8L478 140Q444 140 421 151T398 197V270H477L500 404H400V508H239V404H231Q226 413 223 424T217 446T213 469T212 492Q212 510 219 521T242 533H374ZM239 274V199Q239 193 238 189T234 182T226 179Q221 179 218 181T214 188T213 198V260Q213 264 214 266T216
270T220 273T225 274H239Z" />
<glyph unicode="&apos;" horiz-adv-x="149" d="M14 705L32 589H117L135 705Q135 734 117 748T75 762T33 748T14 705Z" />
<glyph unicode="(" horiz-adv-x="267" d="M265 731L160 819Q114 793 88 759T51 685T40 606V95Q40 64 45 35T63 -20T100 -71T161 -117L266 -35Q262 -30 255 -23T239 -1T226 39T220 104V608Q220 644 226 667T240 704T256 724T265 731Z" />
<glyph unicode=")" horiz-adv-x="267" d="M3 731L108 819Q143 800 166 775T202 723T222 666T228 606V95Q228 64 223 35T205 -20T168 -71T107 -117L2 -35Q5 -32 12 -25T28 -2T42 39T48 104V608Q48 644 42 667T28 703T13 723T3 731Z" />
<glyph unicode="*" horiz-adv-x="382" d="M65 655L26 552L105 533L52 468L151 397L189 484L227 397L329 466L272 531L354 551L309 656L240 620L250 700H130L141 620L65 655Z" />
<glyph unicode="+" horiz-adv-x="382" d="M245 531H134V420H29V314H134V211H245V314H350V420H245V531Z" />
<glyph unicode="," horiz-adv-x="188" d="M53 -61L83 -83Q82 -83 95 -76T125 -52T156 -8T170 57Q170 89 148 112T95 135Q62 135 39 112T16 57Q16 30 33 10T76 -17Q73 -24 67 -36T53 -61Z" />
<glyph unicode="-" horiz-adv-x="394" d="M35 277H355V414H35V277Z" />
<glyph unicode="." horiz-adv-x="190" d="M95 137Q62 137 40 115T17 60Q17 28 39 5T95 -18Q127 -18 150 5T173 60Q173 92 150 114T95 137Z" />
<glyph unicode="/" horiz-adv-x="481" d="M28 -115H127L455 819H356L28 -115Z" />
<glyph unicode="0" horiz-adv-x="495" d="M36 508V186Q36 121 64 77T141 11T248 -11Q311 -11 358 12T432 80T458 186V507Q458 605 403 661T249 717Q150 717 93 664T36 508ZM217 203V498Q217 520 220 532T230 548T247 553Q257 553 264 549T275 532T279 499V203Q279
185 276 173T265 155T248 149Q238 149 231 154T221 172T217 203Z" />
<glyph unicode="1" horiz-adv-x="352" d="M17 629L74 469Q73 469 79 470T94 473T114 480T132 489L131 0H313V700H132Q119 680 99 667T60 645T29 633T17 629Z" />
<glyph unicode="2" horiz-adv-x="442" d="M35 566L179 490Q182 502 186 509T197 519T210 523Q214 523 217 521T222 516T225 506Q225 503 225 500T222 492T216 480L31 160L32 0H406V168H231L352 373Q378 417 390 455T403 540Q403 597 378 634T312 691T226 710Q186
710 150 695T84 648T35 566Z" />
<glyph unicode="3" horiz-adv-x="451" d="M290 412L287 414L364 540V700H73V540H194L50 275H152Q173 275 193 270T226 251T240 215Q240 198 233 184T211 162T176 153Q156 153 134 160T95 186L11 60Q57 17 105 3T206 -12Q251 -12 289 6T357 55T403 127T420 212Q420
262 407 299T365 364T290 412Z" />
<glyph unicode="4" horiz-adv-x="542" d="M264 0H444V244H485L514 414H444V700H264V414H216L248 700H69L16 244H264V0Z" />
<glyph unicode="5" horiz-adv-x="470" d="M238 431L243 540H387V700H88L62 274H183Q208 274 226 269T255 250T266 212Q266 195 260 184T242 167T217 157T189 154Q171 154 151 159T115 170T88 181T77 186L21 47Q21 48 35 39T76 18T137 -3T214 -12Q272 -12 315 5T387
53T430 127T445 218Q445 278 421 326T351 402T241 431H238Z" />
<glyph unicode="6" horiz-adv-x="488" d="M287 542H313V702H278Q205 702 150 673T65 589T34 462V203Q34 144 62 96T138 19T246 -9Q291 -9 329 7T397 52T443 119T459 203Q459 264 431 311T355 386T246 414Q236 414 229 413T218 412T214 412V467Q214 492 222 508T246
533T287 542ZM247 236Q254 236 260 234T270 227T277 216T280 203Q280 196 278 190T271 180T260 173T247 170Q238 170 231 174T219 186T214 203Q214 210 216 216T223 226T234 233T247 236Z" />
<glyph unicode="7" horiz-adv-x="466" d="M214 0L442 540V700H48V540H258L27 0H214Z" />
<glyph unicode="8" horiz-adv-x="488" d="M244 710Q195 710 156 687T93 623T69 534Q69 503 77 477T102 430T144 390Q110 374 84 344T44 277T29 202Q29 143 58 95T135 17T243 -12Q302 -12 350 17T428 95T457 202Q457 241 443 277T403 342T343 389Q383 415 401 451T420
534Q420 583 396 622T333 686T244 710ZM243 502Q234 502 227 506T215 518T210 535Q210 545 214 552T226 563T243 567Q253 567 260 563T271 552T276 535Q276 527 272 519T260 507T243 502ZM243 165Q233 165 225 170T211 183T206 202Q206 210 209 216T217 228T228
236T243 239Q253 239 261 234T274 221T279 202Q279 192 274 184T261 170T243 165Z" />
<glyph unicode="9" horiz-adv-x="486" d="M239 710Q194 710 156 694T88 649T42 582T26 498Q26 437 54 390T130 315T239 287Q250 287 257 288T267 289T271 289V234Q271 210 263 193T239 168T198 159H172V-1H207Q280 -1 335 28T420 112T451 239V498Q451 558 423
606T347 682T239 710ZM238 531Q248 531 255 527T266 515T271 498Q271 491 269 485T262 475T251 468T238 465Q231 465 225 467T215 474T208 485T205 498Q205 505 207 511T214 521T225 528T238 531Z" />
<glyph unicode=":" horiz-adv-x="197" d="M176 144Q176 176 153 198T98 221Q65 221 43 199T20 144Q20 112 42 89T98 66Q130 66 153 89T176 144ZM176 384Q176 416 153 438T98 461Q65 461 43 439T20 384Q20 352 42 329T98 306Q130 306 153 329T176 384Z" />
<glyph unicode=";" horiz-adv-x="196" d="M56 25L86 3Q85 3 98 10T128 34T159 78T173 143Q173 175 151 198T98 221Q65 221 42 198T19 143Q19 116 36 96T79 69Q76 62 70 50T56 25ZM176 384Q176 416 153 438T98 461Q65 461 43 439T20 384Q20 352 42 329T98 306Q130
306 153 329T176 384Z" />
<glyph unicode="&lt;" horiz-adv-x="412" d="M26 359L305 80L376 147L167 359L379 567L305 638L26 359Z" />
<glyph unicode="=" horiz-adv-x="395" d="M36 347H357V463H36V347ZM36 205H357V320H36V205Z" />
<glyph unicode="&gt;" horiz-adv-x="415" d="M32 567L244 359L34 147L106 80L385 359L106 638L32 567Z" />
<glyph unicode="?" horiz-adv-x="427" d="M24 508H195Q195 517 196 523T200 532T204 536T209 537Q214 537 216 535T220 526T222 506Q222 492 214 477T193 443T163 401Q149 381 139 361T121 319T111 271T107 213V170H286V211Q286 227 286 243T290 276T303 313T329
356Q349 382 364 405T388 457T397 523Q397 568 383 603T344 662T283 698T205 710Q162 710 129 697T72 659T36 596T24 508ZM196 137Q163 137 141 115T118 60Q118 28 140 5T196 -18Q228 -18 251 5T274 60Q274 92 251 114T196 137Z" />
<glyph unicode="@" horiz-adv-x="880" d="M878 359L753 479Q704 449 683 406T658 314T654 218V129Q654 113 641 93T601 54T534 23T441 11Q387 11 345 21T274 54T229 110T214 191V323Q214 365 225 399T258 456T311 493T380 506Q414 506 430 498T447 479H381Q351
479 326 470T282 441T253 391T242 316V201Q242 167 250 138T280 86T339 52T438 40Q477 40 508 47T561 66T597 88T619 107T626 115V327H641L666 479L626 478Q626 518 613 552T569 612T491 652T375 667Q306 667 244 646T135 584T61 485T34 351V202Q34 132 53 69T117
-42T241 -119T438 -147Q536 -147 610 -124T733 -62T808 27T834 129V243Q834 262 836 285T848 328T878 359ZM437 319H448V202Q446 202 444 202T441 201T438 201T434 201Q428 201 425 206T421 219V298Q421 305 422 309T428 316T437 319Z" />
<glyph unicode="A" horiz-adv-x="545" d="M522 0L409 700H134L24 0H215L227 115H318L331 0H522ZM243 272L272 552L302 272H243Z" />
<glyph unicode="B" horiz-adv-x="507" d="M256 700H41V0H261Q331 0 378 25T451 97T476 206Q476 252 463 286T426 345T372 382Q397 396 414 415T440 460T449 523Q449 579 425 618T358 679T256 700ZM238 430H221V560H241Q253 560 260 553T271 531T275 494Q275 474
272 460T260 438T238 430ZM246 139H221V290H243Q253 290 261 284T275 261T281 214Q281 184 276 168T262 146T246 139Z" />
<glyph unicode="C" horiz-adv-x="427" d="M343 534L373 677Q337 695 301 703T229 712Q174 712 131 690T62 622T36 511V184Q36 121 59 77T127 11T234 -12Q272 -12 313 -3T397 23L381 173Q372 170 353 164T310 154T266 149Q256 149 244 151T223 162T214 192V494Q214
520 223 531T245 546T269 549Q292 549 308 545T343 534Z" />
<glyph unicode="D" horiz-adv-x="499" d="M230 702H41V0H250Q321 0 368 24T439 94T463 207V485Q463 557 435 605T354 678T230 702ZM246 160H221V543H248Q260 543 267 538T278 521T282 493V208Q282 195 280 186T274 171T262 163T246 160Z" />
<glyph unicode="E" horiz-adv-x="411" d="M41 0H374V160H221L220 280H298L349 439H221V540H376V700H41V0Z" />
<glyph unicode="F" horiz-adv-x="395" d="M376 700H41V0H221V280H297L349 438H221V540H376V700Z" />
<glyph unicode="G" horiz-adv-x="482" d="M365 535L405 677Q382 687 357 694T305 706T249 710Q183 710 136 688T62 620T36 504V190Q36 122 65 77T142 11T248 -10Q260 -9 277 -8T312 -2T341 13L345 0H449V385H232L242 227H269V209Q269 194 268 183T263 164T254
154T241 150Q232 150 226 156T218 176T215 209V482Q215 510 225 524T253 543T294 549Q305 549 316 547T340 542T365 535Z" />
<glyph unicode="H" horiz-adv-x="516" d="M293 438H221V700H41V0H221V280H293V0H473V700H293V438Z" />
<glyph unicode="I" horiz-adv-x="309" d="M19 552L87 550V0H267V700H19V552Z" />
<glyph unicode="J" horiz-adv-x="312" d="M271 166V700H23V552L91 550V209Q91 176 85 154T61 121T7 109L43 -37Q102 -37 145 -22T216 21T257 86T271 166Z" />
<glyph unicode="K" horiz-adv-x="516" d="M221 485V700H41V0H221V189L234 216L295 0H494L348 385L487 700H288L221 485Z" />
<glyph unicode="L" horiz-adv-x="429" d="M41 0H403V160H221V700H41V0Z" />
<glyph unicode="M" horiz-adv-x="622" d="M221 700H41L11 0H192V250L248 0H371L429 249V0H609L579 700H400L309 373L221 700Z" />
<glyph unicode="N" horiz-adv-x="578" d="M535 700H353V393L221 700H41V0L221 -1V295L349 0H535V700Z" />
<glyph unicode="O" horiz-adv-x="495" d="M36 508V186Q36 121 64 77T141 11T248 -11Q311 -11 358 12T432 80T458 186V507Q458 605 403 661T249 717Q150 717 93 664T36 508ZM217 203V498Q217 520 220 532T230 548T247 553Q257 553 264 549T275 532T279 499V203Q279
185 276 173T265 155T248 149Q238 149 231 154T221 172T217 203Z" />
<glyph unicode="P" horiz-adv-x="509" d="M259 700H41V0H221V172H259Q300 172 338 183T408 223T458 304T478 438Q479 516 460 567T409 647T338 688T259 700ZM221 332V537H244Q258 537 268 532T284 514T294 482T297 436Q297 407 294 387T285 355T268 338T244 332H221Z" />
<glyph unicode="Q" horiz-adv-x="495" d="M317 61V178H174L173 19Q173 -12 182 -42T215 -96T284 -136T401 -151L451 -8Q404 -17 377 -14T337 1T321 28T317 61ZM36 508V186Q36 121 64 77T141 11T248 -11Q311 -11 358 12T432 80T458 186V507Q458 605 403 661T249
717Q150 717 93 664T36 508ZM217 203V498Q217 520 220 532T230 548T247 553Q257 553 264 549T275 532T279 499V203Q279 185 276 173T265 155T248 149Q238 149 231 154T221 172T217 203Z" />
<glyph unicode="R" horiz-adv-x="513" d="M259 700H41V0H221V173H233Q235 173 239 173T249 173T258 174L296 0H482L413 247Q429 263 443 285T468 343T478 439Q478 519 459 570T408 649T337 689T259 700ZM244 332H221V535H244Q258 535 268 530T284 513T294 483T297
439Q297 408 294 388T285 355T268 338T244 332Z" />
<glyph unicode="S" horiz-adv-x="546" d="M419 527L451 673Q427 686 400 694T346 706T291 710Q253 710 212 700T135 667T77 605T54 508Q54 466 66 435T98 381T143 340T195 310T247 285T293 263T325 239T337 209Q337 193 331 182T314 163T287 152T252 148Q227 148
202 157T155 181T115 213L33 88Q62 55 99 33T179 0T265 -12Q315 -12 361 0T443 38T501 107T522 214Q522 255 510 286T476 340T429 380T375 410T321 434T273 455T240 478T227 506Q227 520 232 530T246 545T269 553T298 556Q320 556 340 552T380 542T419 527Z" />
<glyph unicode="T" horiz-adv-x="432" d="M303 539H417V700H13V539H125V0H303V539Z" />
<glyph unicode="U" horiz-adv-x="501" d="M461 186V700H281V195Q281 179 278 169T267 153T250 147Q240 147 233 152T223 167T219 195V700H39V186Q39 122 66 78T141 12T251 -11Q313 -11 360 11T434 78T461 186Z" />
<glyph unicode="V" horiz-adv-x="516" d="M16 700L153 0H355L497 700H317L257 219L194 700H16Z" />
<glyph unicode="W" horiz-adv-x="742" d="M456 700H287L243 425L203 700H20L145 0H325L370 231L414 0H594L719 700H536L497 425L456 700Z" />
<glyph unicode="X" horiz-adv-x="629" d="M315 521L230 700H38L217 364L26 0H214L315 199L417 0H605L413 364L591 700H397L315 521Z" />
<glyph unicode="Y" horiz-adv-x="520" d="M479 157V700H298V414Q298 403 295 394T287 377T274 365T258 361Q243 361 233 368T218 389T213 423V700H32V405Q32 339 57 294T124 226T213 203Q231 203 246 204T274 209T300 218V175Q300 161 295 151T282 135T262 125T237
120L297 -19Q394 -11 436 33T479 157Z" />
<glyph unicode="Z" horiz-adv-x="558" d="M42 700V521L295 520L273 493L28 176V0H518V179L244 180L263 204L508 520V700H42Z" />
<glyph unicode="[" horiz-adv-x="233" d="M153 703L204 713V819H42V-115H204V-9L153 1V703Z" />
<glyph unicode="\" horiz-adv-x="479" d="M344 -115H462L137 819H16L344 -115Z" />
<glyph unicode="]" horiz-adv-x="235" d="M31 -115H192V819H31V713L81 703V1L31 -9V-115Z" />
<glyph unicode="^" horiz-adv-x="267" d="M282 800L134 921L-14 803L55 723L136 785L211 724L282 800Z" />
<glyph unicode="_" horiz-adv-x="384" d="M33 -107H353V0H33V-107Z" />
<glyph unicode="`" horiz-adv-x="267" d="M152 706Q148 724 133 739T98 759T55 753Q35 743 29 725T27 689T42 656L94 589H183L152 706Z" />
<glyph unicode="a" horiz-adv-x="452" d="M232 371Q227 375 216 380T189 389T154 393Q127 393 104 385T64 358T38 312T29 246V156Q29 108 45 76T89 25T155 -3T235 -11Q255 -11 274 -11T311 -10T347 -8T382 -4T415 0V307Q415 365 404 404T367 466T299 500T197 510L171
420Q180 420 191 417T211 409T226 394T232 371ZM235 240V131Q235 131 234 131T232 130T229 130T226 129T222 128Q219 128 217 128T213 130T210 134T209 138V232Q209 235 209 237T211 241T215 244T220 245Q223 245 225 245T230 243T235 240Z" />
<glyph unicode="b" horiz-adv-x="459" d="M221 496V700H41V0Q59 -1 77 -2T112 -5T147 -8T182 -10T218 -11Q261 -11 298 -3T364 23T409 74T426 156V360Q426 398 418 426T393 473T355 501T304 510Q289 510 276 509T250 504T221 496ZM221 170V329Q223 330 225 330T230
330T236 331Q238 331 240 330T244 327T247 322T248 313V195Q248 189 248 185T245 177T240 171T230 169Q229 169 228 169T225 169T222 170T221 170Z" />
<glyph unicode="c" horiz-adv-x="385" d="M308 320L352 479Q321 493 288 502T222 512Q160 514 118 489T53 421T31 320V174Q31 110 55 70T122 10T223 -12Q257 -13 290 -8T354 5L316 176Q316 176 312 175T301 174T286 172T270 171Q259 171 250 173T235 181T225 195T221
215V291Q221 306 227 315T245 328T269 331Q280 330 290 328T308 320Z" />
<glyph unicode="d" horiz-adv-x="461" d="M416 0V700H236V496Q214 504 195 507T153 510Q125 510 103 501T64 474T40 427T31 360V156Q31 107 47 75T92 24T158 -3T239 -11Q257 -11 274 -10T309 -8T344 -6T380 -3T416 0ZM235 329L236 170Q236 170 236 170T234 170T232
170T229 169T226 169Q223 169 220 170T215 174T211 182T209 194V313Q209 317 209 320T211 326T215 329T220 331Q223 331 227 331T235 329Z" />
<glyph unicode="e" horiz-adv-x="445" d="M213 166V177L419 189V343Q419 399 396 436T330 492T231 511Q175 511 130 492T59 435T33 340V135Q33 97 46 69T84 23T140 -4T210 -13Q259 -13 307 0T392 35L349 169Q328 162 296 154T244 145Q235 145 229 146T220 150T215
157T213 166ZM239 333V315L213 313V334Q213 342 214 347T218 355T226 358Q231 358 234 355T238 347T239 333Z" />
<glyph unicode="f" horiz-adv-x="375" d="M305 532L342 697Q330 702 308 705T264 711T230 713Q173 713 136 699T78 660T49 600T40 523V0H221V319H287L326 501H221V518Q221 522 222 525T226 532T234 538T246 540Q257 540 277 538T305 532Z" />
<glyph unicode="g" horiz-adv-x="461" d="M420 -64V501H239V483Q229 494 216 500T189 508T158 511Q123 511 95 491T49 434T32 346V178Q32 86 71 37T167 -12Q176 -12 186 -11T206 -9T225 -5T240 0V-53Q240 -63 236 -70T224 -82T208 -88T190 -90L223 -211Q281 -211
325 -197T395 -150T420 -64ZM240 330V178Q240 177 239 176T236 173T231 170T224 169Q220 169 218 171T214 176T213 182V322Q213 326 214 328T216 331T220 333T225 334Q227 334 229 334T234 332T238 331T240 330Z" />
<glyph unicode="h" horiz-adv-x="464" d="M221 497V700H41V0H221V330Q224 332 226 333T230 334T234 335Q237 335 239 334T243 331T246 327T247 321V0H427V346Q427 385 421 413T404 460T376 490T338 506T290 511Q275 511 261 509T237 504T221 497Z" />
<glyph unicode="i" horiz-adv-x="270" d="M44 0H224V501H44V0ZM134 740Q95 740 70 716T44 652Q44 615 69 589T134 562Q172 562 198 588T224 652Q224 691 198 715T134 740Z" />
<glyph unicode="j" horiz-adv-x="322" d="M277 -21V501H28V361L97 353V-14Q97 -38 88 -54T62 -79T24 -90L54 -216Q126 -216 175 -191T251 -122T277 -21ZM274 651Q274 689 248 714T184 739Q146 739 120 714T93 651Q93 615 119 589T184 562Q221 562 247 588T274 651Z" />
<glyph unicode="k" horiz-adv-x="510" d="M367 267L469 447L302 521L221 337V700H41V0H221V131L235 145L281 0H486L367 267Z" />
<glyph unicode="l" horiz-adv-x="261" d="M41 0H220V700H41V0Z" />
<glyph unicode="m" horiz-adv-x="721" d="M505 312V0H684V345Q684 393 674 425T644 475T600 501T545 509Q524 509 504 503T465 486T429 461Q418 479 403 489T372 504T339 509Q325 509 302 505T256 494T219 477V501H39V0H219V323Q222 325 227 327T238 331T252 333Q257
333 261 332T268 328T272 322T274 313V0H451V312Q451 314 451 317T450 321Q453 323 459 326T472 331T485 333Q489 333 492 332T499 328T503 321T505 312Z" />
<glyph unicode="n" horiz-adv-x="464" d="M246 320V-1H426V346Q426 385 419 413T400 459T373 489T342 505T308 510Q283 510 265 506T236 496T219 486V501H39V-1H219V328Q222 330 224 331T229 332T233 333Q236 333 238 332T242 329T245 325T246 320Z" />
<glyph unicode="o" horiz-adv-x="450" d="M418 185V317Q418 409 369 460T228 512Q164 512 120 489T54 422T31 317V185Q31 126 51 82T113 14T225 -10Q320 -10 369 43T418 185ZM238 311V191Q238 185 237 180T233 172T225 169Q220 169 217 172T213 180T211 191V311Q211
318 212 323T217 330T225 333Q230 333 232 331T236 323T238 311Z" />
<glyph unicode="p" horiz-adv-x="464" d="M427 177V346Q427 397 416 434T380 491T310 511Q289 511 270 506T238 493T220 479V501H40V-192L220 -214V0Q229 -3 238 -6T260 -10T293 -12Q352 -12 389 36T427 177ZM247 318V183Q247 178 246 174T242 168T235 166Q233
166 231 167T226 169T222 173T220 178V329Q222 330 223 331T228 333T234 334Q236 334 238 334T243 331T246 326T247 318Z" />
<glyph unicode="q" horiz-adv-x="459" d="M239 0V-192L419 -213V501H239V479Q228 490 214 497T184 508T156 512Q118 512 90 492T47 435T32 346V177Q32 116 50 74T100 11T168 -11Q183 -11 196 -10T220 -6T239 0ZM239 319V179Q239 177 238 176T235 173T231 170T224
169Q220 169 217 171T213 176T212 182V306Q212 311 213 314T216 318T220 321T225 322Q227 322 229 322T232 322T236 321T239 319Z" />
<glyph unicode="r" horiz-adv-x="374" d="M338 319L348 501Q338 507 325 511T297 516Q276 516 256 507T219 481V501H39V0H219V298Q229 306 239 311T260 319T282 324T304 326Q321 326 329 323T338 319Z" />
<glyph unicode="s" d="M324 332L377 467Q360 479 336 490T284 507T226 514Q182 514 149 503T92 470T58 419T46 352Q46 318 55 293T80 249T114 219T151 198T184 185T209 175T219 165Q219 162 218 160T213 158T207 157T198 156Q183 156 165 161T129 174T101 191L25
77Q66 33 117 9T224 -15Q259 -15 293 -4T356 28T401 83T418 160Q418 197 408 222T380 265T343 294T302 311T264 323T237 332T226 343Q226 345 227 346T229 348T234 349T241 349Q256 349 272 346T303 339T324 332Z" />
<glyph unicode="t" horiz-adv-x="335" d="M220 204V321H282L307 500H220V700H40V169Q40 84 88 37T224 -13L289 153Q266 153 251 157T228 173T220 204Z" />
<glyph unicode="u" horiz-adv-x="460" d="M244 21V0H424V501H244V190Q244 185 243 181T240 174T234 169T228 167Q225 167 223 169T219 175T217 185V501H37V158Q37 119 44 91T63 44T92 14T127 -2T165 -7Q182 -7 198 -4T226 6T244 21Z" />
<glyph unicode="v" horiz-adv-x="470" d="M21 501L144 0H324L444 501H266L235 233L200 501H21Z" />
<glyph unicode="w" horiz-adv-x="728" d="M454 500H278L238 285L201 500H21L146 0H327L363 178L399 0H579L703 500H523L490 285L454 500Z" />
<glyph unicode="x" horiz-adv-x="541" d="M272 405L234 501H29L173 247L34 -1L234 0L273 87L310 -1L511 0L373 247L514 500L312 501L272 405Z" />
<glyph unicode="y" horiz-adv-x="500" d="M473 393L421 512Q374 512 333 496T267 442T242 338V189Q242 184 241 180T238 172T234 167T228 165Q225 165 223 166T219 170T216 177T215 185V503H36V159Q36 111 46 79T74 29T113 2T155 -6Q179 -6 194 -4T221 1T242 9V-19Q242
-27 239 -35T229 -49T215 -58T195 -62L253 -214Q303 -214 341 -195T401 -142T423 -59V322Q423 348 432 367T473 393Z" />
<glyph unicode="z" horiz-adv-x="435" d="M392 501H42V337L158 336L33 170V0H402V169L267 170L392 337V501Z" />
<glyph unicode="{" horiz-adv-x="292" d="M216 518V631Q216 653 219 669T226 698T237 718T251 731T266 741L216 824Q215 824 204 819T176 802T144 769T118 713T107 631V518Q107 496 104 476T95 436Q89 417 75 399T36 361L26 353L36 346Q60 328 74 309T95 271Q101
252 104 232T107 190V76Q107 28 117 -6T143 -62T175 -96T202 -113T216 -118L266 -34Q259 -30 252 -25T238 -11T227 9T219 37T216 76V190Q216 211 214 232T206 274Q196 315 150 353Q173 373 187 393T206 433Q211 454 213 475T216 518Z" />
<glyph unicode="|" horiz-adv-x="196" d="M42 -115H153V819H42V-115Z" />
<glyph unicode="}" horiz-adv-x="298" d="M78 824L27 741Q35 737 42 732T56 718T68 699T75 671T78 631V518Q78 490 81 462T99 406T145 353Q114 328 100 301T82 247T78 190V76Q78 54 76 37T68 9T57 -11T43 -24T27 -34L78 -118Q80 -118 91 -113T119 -96T151 -62T178
-6T189 76V190Q189 218 193 244T212 296T258 346L268 353L257 361Q226 386 212 411T193 463T189 518V631Q189 679 178 713T151 768T119 802T91 819T78 824Z" />
<glyph unicode="~" horiz-adv-x="267" d="M292 300L259 386Q241 373 226 368T196 362Q175 362 155 369T115 384T70 391Q42 391 19 379T-25 350L8 264Q26 276 42 281T74 287Q95 287 114 280T154 265T195 257Q225 257 249 270T292 300Z" />
<glyph unicode="&#xa0;" horiz-adv-x="280" />
<glyph unicode="&#xa1;" horiz-adv-x="195" d="M175 60L147 545H47L24 61Q24 25 42 4T98 -18Q136 -18 155 4T175 60ZM175 636Q175 668 152 691T97 714Q64 714 42 691T19 636Q19 605 41 582T97 559Q129 559 152 582T175 636Z" />
<glyph unicode="&#xa2;" horiz-adv-x="385" d="M194 -114H280V625H194V-114ZM308 320L352 479Q321 493 288 502T222 512Q160 514 118 489T53 421T31 320V174Q31 110 55 70T122 10T223 -12Q257 -13 290 -8T354 5L316 176Q316 176 312 175T301 174T286 172T270 171Q259
171 250 173T235 181T225 195T221 215V291Q221 306 227 315T245 328T269 331Q280 330 290 328T308 320Z" />
<glyph unicode="&#xa3;" horiz-adv-x="433" d="M113 158H36V0H397V158H319Q337 172 345 191T354 232Q355 250 353 264T343 296L329 332H397V461H274L264 480Q259 490 256 497T251 512T250 526Q251 532 254 535T263 539T273 540Q293 540 314 536T349 526L363 674Q347
686 325 694T280 706T239 710Q205 710 173 701T115 675T72 632T55 571Q54 551 58 532T72 487L82 461H36V332H141L149 311Q156 293 160 281T166 258T169 234Q169 221 167 208T159 183T141 165T113 158Z" />
<glyph unicode="&#xa4;" horiz-adv-x="499" d="M378 350L466 436L401 500L315 412Q300 420 284 424T249 429Q231 429 215 425T183 412L97 500L33 436L120 349Q113 336 109 319T104 284Q104 265 108 249T120 218L33 132L97 68L183 155Q198 148 214 143T249 138Q266
138 283 142T314 154L401 68L466 132L378 218Q386 233 390 249T395 284Q395 302 391 318T378 350ZM249 232Q235 232 224 239T205 258T198 284Q198 299 205 310T223 328T249 335Q264 335 275 329T294 311T301 284Q301 270 294 258T276 239T249 232Z" />
<glyph unicode="&#xa5;" horiz-adv-x="518" d="M345 316L493 700H295L256 484L217 700H20L167 316V0H345V316ZM96 188H417V304H96V188ZM96 46H417V161H96V46Z" />
<glyph unicode="&#xa7;" horiz-adv-x="467" d="M325 519L378 654Q361 666 337 677T285 694T227 701Q183 701 150 690T93 657T59 606T47 539Q47 511 54 489T74 450Q60 430 53 406T46 352Q46 318 55 293T80 249T114 219T150 198T184 185T209 175T219 165Q219 162
218 160T213 158T206 157T198 156Q183 156 165 161T129 174T101 191L25 77Q65 33 117 9T224 -15Q259 -15 293 -4T356 28T401 83T418 160Q418 190 411 212T391 252Q404 271 411 295T419 347Q419 384 409 409T381 452T344 481T303 498T265 510T238 519T227 530Q227
532 227 533T230 535T235 536T242 536Q256 536 273 533T304 526T325 519ZM257 323Q254 325 249 327T237 332T226 338T217 343T214 348Q214 350 215 352T217 356T223 359Q226 357 231 355T243 350T254 344T262 339T266 335Q266 329 263 327T257 323Z" />
<glyph unicode="&#xa8;" horiz-adv-x="267" d="M44 788Q12 788 -11 765T-35 710Q-35 678 -12 655T44 631Q77 631 100 654T123 710Q123 742 100 765T44 788ZM223 787Q190 787 168 765T145 710Q145 678 167 655T223 632Q255 632 278 655T301 710Q301 742 278 764T223 787Z" />
<glyph unicode="&#xa9;" horiz-adv-x="870" d="M837 177V347Q837 424 808 483T724 584T597 646T434 667Q346 667 272 646T145 584T62 484T32 347V177Q32 93 61 32T144 -69T272 -127T434 -146Q523 -146 596 -127T724 -69T807 31T837 177ZM655 290V223Q655 157 643
115T604 51T535 20T433 11Q374 11 332 23T264 60T225 126T212 223V290Q212 350 224 391T263 457T332 493T433 505Q493 505 535 497T603 466T642 401T655 290ZM567 300L604 440Q572 456 533 467T453 478Q398 478 357 461T289 411Q265 382 253 342T240 252Q240 198
256 156T305 86Q329 64 363 53T440 41Q490 41 533 55T608 85L571 222Q560 219 550 217T529 214T507 212T485 211Q472 211 461 213T441 221Q431 227 426 237T420 261Q420 276 426 285T441 300Q452 305 465 307T492 309Q505 309 515 308T534 306T551 304T567 300Z"
/>
<glyph unicode="&#xaa;" horiz-adv-x="330" d="M296 392Q296 391 296 407T296 448T296 498T296 540T296 556Q296 603 287 636T252 689Q235 703 214 708T170 713T130 710L120 649Q133 651 143 651T162 652Q189 652 198 645T208 611Q189 622 170 627T132 633Q98
633 75 618T40 577T26 520Q26 478 36 451T67 408T114 386T175 379Q201 379 232 383T296 392ZM208 535V462Q204 462 200 462T192 461T183 461T172 460Q157 460 143 463T120 477T110 509Q110 522 114 533T126 550T147 557Q163 557 179 550T208 535Z" />
<glyph unicode="&#xab;" horiz-adv-x="568" d="M393 268L512 149L440 80L253 268L440 456L513 384L393 268ZM172 268L291 149L220 80L32 268L220 456L292 384L172 268Z" />
<glyph unicode="&#xad;" horiz-adv-x="394" d="M35 277H355V414H35V277Z" />
<glyph unicode="&#xae;" horiz-adv-x="866" d="M838 177V347Q838 423 809 482T725 583T598 645T435 667Q347 667 273 646T146 583T63 483T33 347V177Q33 93 62 32T145 -69T273 -127T435 -146Q524 -146 597 -127T725 -69T808 31T838 177ZM656 290V223Q656 162 644
121T605 56T536 21T434 11Q375 11 333 23T265 60T226 126T213 223V290Q213 350 225 391T264 457T333 493T434 505Q494 505 536 495T604 461T643 395T656 290ZM455 444H269V61H421V129H438L449 61H601L576 149Q600 169 608 201T616 284Q616 320 607 349T578 400T528
432T455 444ZM429 250H420V318H429Q432 318 436 316T444 307T448 284Q448 261 441 256T429 250Z" />
<glyph unicode="&#xaf;" horiz-adv-x="267" d="M244 744H22V620H244V744Z" />
<glyph unicode="&#xb0;" horiz-adv-x="351" d="M321 566Q321 607 302 640T249 692T175 712Q135 712 102 693T48 640T28 567Q28 526 48 493T101 440T175 420Q216 420 249 440T301 493T321 566ZM175 619Q189 619 201 612T220 593T228 566Q228 552 221 540T201 521T175
514Q161 514 149 521T130 540T123 566Q123 581 130 593T149 612T175 619Z" />
<glyph unicode="&#xb1;" horiz-adv-x="391" d="M35 350H140V247H34V147H355V247H251V350H356V456H251V566H140V456H35V350Z" />
<glyph unicode="&#xb4;" horiz-adv-x="267" d="M226 665Q237 679 241 697T240 734T213 762Q191 774 171 769T136 748T116 715L85 598H174L226 665Z" />
<glyph unicode="&#xb5;" horiz-adv-x="477" d="M429 188V511L248 498V188Q248 183 247 179T242 172T234 169Q230 169 227 171T221 176T219 186V501H40V-192L219 -216L211 6Q214 2 220 0T235 -5T251 -8T265 -9Q284 -9 301 -6T330 1T347 13Q355 6 369 2T399 -2T427
-1L464 131Q462 132 453 137T437 155T429 188Z" />
<glyph unicode="&#xb6;" horiz-adv-x="746" d="M260 196H310V1H490V536H520V1H700V702H260Q219 702 179 691T105 652T51 576T31 454Q31 373 50 322T103 244T177 206T260 196ZM300 536H310V360H300Q271 360 252 363T222 377T206 405T201 453Q201 489 209 507T240
530T300 536Z" />
<glyph unicode="&#xb7;" horiz-adv-x="190" d="M95 397Q62 397 40 375T17 320Q17 288 39 265T95 242Q127 242 150 265T173 320Q173 352 150 374T95 397Z" />
<glyph unicode="&#xb8;" horiz-adv-x="267" d="M173 0H87L60 -50L76 -122Q86 -121 106 -121T146 -119T169 -118Q178 -118 182 -120T186 -130Q186 -134 184 -136T179 -140T168 -141Q143 -141 118 -140T77 -138T59 -137L43 -219Q48 -221 64 -224T104 -229T153 -232Q215
-232 247 -205T279 -129Q279 -90 253 -60T177 -30Q174 -30 168 -30T156 -31L173 0Z" />
<glyph unicode="&#xba;" horiz-adv-x="338" d="M304 503V587Q304 646 270 678T171 711Q104 711 69 680T34 587V503Q34 471 48 443T93 397T171 379Q238 379 271 413T304 503ZM216 583V506Q216 486 206 473T170 460Q153 460 142 466T127 483T122 506V583Q122 605
134 616T170 628Q186 628 196 623T211 607T216 583Z" />
<glyph unicode="&#xbb;" horiz-adv-x="543" d="M152 268L33 149L105 80L292 268L105 456L32 384L152 268ZM373 268L254 149L325 80L513 268L325 456L253 384L373 268Z" />
<glyph unicode="&#xbf;" horiz-adv-x="429" d="M397 184H226Q226 175 225 169T221 160T217 156T212 155Q208 155 205 157T201 166T199 186Q199 200 207 215T228 249T258 291Q272 311 282 331T300 373T310 421T314 479V522H135V481Q135 465 135 449T131 416T118
379T92 336Q73 310 58 287T33 235T24 169Q24 124 38 89T77 30T138 -6T216 -18Q259 -18 292 -5T349 33T385 97T397 184ZM225 710Q193 710 170 687T147 632Q147 601 170 578T225 555Q258 555 280 578T303 632Q303 664 281 687T225 710Z" />
<glyph unicode="&#xc0;" horiz-adv-x="545" d="M290 866Q286 884 271 899T236 919T193 913Q173 903 167 885T165 849T180 816L232 749H321L290 866ZM522 0L409 700H134L24 0H215L227 115H318L331 0H522ZM243 272L272 552L302 272H243Z" />
<glyph unicode="&#xc1;" horiz-adv-x="545" d="M367 816Q378 830 382 848T381 885T354 913Q332 925 312 920T277 899T257 866L226 749H315L367 816ZM522 0L409 700H134L24 0H215L227 115H318L331 0H522ZM243 272L272 552L302 272H243Z" />
<glyph unicode="&#xc2;" horiz-adv-x="545" d="M421 820L273 941L125 823L194 743L275 805L350 744L421 820ZM522 0L409 700H134L24 0H215L227 115H318L331 0H522ZM243 272L272 552L302 272H243Z" />
<glyph unicode="&#xc3;" horiz-adv-x="545" d="M335 890V877Q335 870 334 864T321 857Q312 857 306 859T293 865Q283 870 277 873T260 880Q228 893 205 892T164 882Q139 871 128 852T113 812T110 771V753H207V767Q207 775 209 781T222 788Q227 788 234 786T249
780Q254 778 265 773T281 766Q292 762 305 758T340 754Q391 754 411 784T432 852V890H335ZM522 0L409 700H134L24 0H215L227 115H318L331 0H522ZM243 272L272 552L302 272H243Z" />
<glyph unicode="&#xc4;" horiz-adv-x="545" d="M184 898Q152 898 129 875T105 820Q105 788 128 765T184 741Q217 741 240 764T263 820Q263 852 240 875T184 898ZM363 897Q330 897 308 875T285 820Q285 788 307 765T363 742Q395 742 418 765T441 820Q441 852 418
874T363 897ZM522 0L409 700H134L24 0H215L227 115H318L331 0H522ZM243 272L272 552L302 272H243Z" />
<glyph unicode="&#xc5;" horiz-adv-x="545" d="M274 904Q237 904 207 887T158 840T140 773Q140 737 158 707T206 659T273 641Q310 641 339 659T387 707T405 773Q405 810 387 839T340 886T274 904ZM273 790Q280 790 286 784Q290 780 290 773Q290 769 289 766T284
760Q282 759 279 757T273 755Q270 755 267 756T261 760Q259 762 258 765T256 773Q256 777 257 780T261 785Q264 787 267 788T273 790ZM522 0L409 700H134L24 0H215L227 115H318L331 0H522ZM243 272L272 552L302 272H243Z" />
<glyph unicode="&#xc6;" horiz-adv-x="766" d="M399 0H732V179H578V280H646L680 438H578V540H734V700H293L21 0H213L267 148H399V0ZM323 306L394 495H398V306H323Z" />
<glyph unicode="&#xc7;" horiz-adv-x="427" d="M253 0H167L140 -50L156 -122Q166 -121 186 -121T226 -119T249 -118Q258 -118 262 -120T266 -130Q266 -134 264 -136T259 -140T248 -141Q223 -141 198 -140T157 -138T139 -137L123 -219Q128 -221 144 -224T184 -229T233
-232Q295 -232 327 -205T359 -129Q359 -90 333 -60T257 -30Q254 -30 248 -30T236 -31L253 0ZM343 534L373 677Q337 695 301 703T229 712Q174 712 131 690T62 622T36 511V184Q36 121 59 77T127 11T234 -12Q272 -12 313 -3T397 23L381 173Q372 170 353 164T310 154T266
149Q256 149 244 151T223 162T214 192V494Q214 520 223 531T245 546T269 549Q292 549 308 545T343 534Z" />
<glyph unicode="&#xc8;" horiz-adv-x="411" d="M224 866Q220 884 205 899T170 919T127 913Q107 903 101 885T99 849T114 816L166 749H255L224 866ZM41 0H374V160H221L220 280H298L349 439H221V540H376V700H41V0Z" />
<glyph unicode="&#xc9;" horiz-adv-x="411" d="M298 815Q309 829 313 847T312 884T285 912Q263 924 243 919T208 898T188 865L157 748H246L298 815ZM41 0H374V160H221L220 280H298L349 439H221V540H376V700H41V0Z" />
<glyph unicode="&#xca;" horiz-adv-x="411" d="M354 820L206 941L58 823L127 743L208 805L283 744L354 820ZM41 0H374V160H221L220 280H298L349 439H221V540H376V700H41V0Z" />
<glyph unicode="&#xcb;" horiz-adv-x="411" d="M116 898Q84 898 61 875T37 820Q37 788 60 765T116 741Q149 741 172 764T195 820Q195 852 172 875T116 898ZM295 897Q262 897 240 875T217 820Q217 788 239 765T295 742Q327 742 350 765T373 820Q373 852 350 874T295
897ZM41 0H374V160H221L220 280H298L349 439H221V540H376V700H41V0Z" />
<glyph unicode="&#xcc;" horiz-adv-x="309" d="M189 866Q185 884 170 899T135 919T92 913Q72 903 66 885T64 849T79 816L131 749H220L189 866ZM19 552L87 550V0H267V700H19V552Z" />
<glyph unicode="&#xcd;" horiz-adv-x="309" d="M272 815Q283 829 287 847T286 884T259 912Q237 924 217 919T182 898T162 865L131 748H220L272 815ZM19 552L87 550V0H267V700H19V552Z" />
<glyph unicode="&#xce;" horiz-adv-x="309" d="M324 820L176 941L28 823L97 743L178 805L253 744L324 820ZM19 552L87 550V0H267V700H19V552Z" />
<glyph unicode="&#xcf;" horiz-adv-x="309" d="M76 898Q44 898 21 875T-3 820Q-3 788 20 765T76 741Q109 741 132 764T155 820Q155 852 132 875T76 898ZM255 897Q222 897 200 875T177 820Q177 788 199 765T255 742Q287 742 310 765T333 820Q333 852 310 874T255
897ZM20 552L88 550V0H268V700H20V552Z" />
<glyph unicode="&#xd0;" horiz-adv-x="499" d="M184 269H249L262 414H184V269ZM230 702H41V0H250Q321 0 368 24T439 94T463 207V485Q463 557 435 605T354 678T230 702ZM246 160H221V543H248Q260 543 267 538T278 521T282 493V208Q282 195 280 186T274 171T262
163T246 160Z" />
<glyph unicode="&#xd1;" horiz-adv-x="577" d="M353 890V877Q353 870 352 864T339 857Q330 857 324 859T311 865Q301 870 295 873T278 880Q246 893 223 892T182 882Q157 871 146 852T131 812T128 771V753H225V767Q225 775 227 781T240 788Q245 788 252 786T267
780Q272 778 283 773T299 766Q310 762 323 758T358 754Q409 754 429 784T450 852V890H353ZM535 700H353V393L221 700H41V0L221 -1V295L349 0H535V700Z" />
<glyph unicode="&#xd2;" horiz-adv-x="495" d="M265 866Q261 884 246 899T211 919T168 913Q148 903 142 885T140 849T155 816L207 749H296L265 866ZM36 508V186Q36 121 64 77T141 11T248 -11Q311 -11 358 12T432 80T458 186V507Q458 605 403 661T249 717Q150 717
93 664T36 508ZM217 203V498Q217 520 220 532T230 548T247 553Q257 553 264 549T275 532T279 499V203Q279 185 276 173T265 155T248 149Q238 149 231 154T221 172T217 203Z" />
<glyph unicode="&#xd3;" horiz-adv-x="495" d="M339 816Q350 830 354 848T353 885T326 913Q304 925 284 920T249 899T229 866L198 749H287L339 816ZM36 508V186Q36 121 64 77T141 11T248 -11Q311 -11 358 12T432 80T458 186V507Q458 605 403 661T249 717Q150 717
93 664T36 508ZM217 203V498Q217 520 220 532T230 548T247 553Q257 553 264 549T275 532T279 499V203Q279 185 276 173T265 155T248 149Q238 149 231 154T221 172T217 203Z" />
<glyph unicode="&#xd4;" horiz-adv-x="495" d="M394 820L246 941L98 823L167 743L248 805L323 744L394 820ZM36 508V186Q36 121 64 77T141 11T248 -11Q311 -11 358 12T432 80T458 186V507Q458 605 403 661T249 717Q150 717 93 664T36 508ZM217 203V498Q217 520
220 532T230 548T247 553Q257 553 264 549T275 532T279 499V203Q279 185 276 173T265 155T248 149Q238 149 231 154T221 172T217 203Z" />
<glyph unicode="&#xd5;" horiz-adv-x="495" d="M312 890V877Q312 870 311 864T298 857Q289 857 283 859T270 865Q260 870 254 873T237 880Q205 893 182 892T141 882Q116 871 105 852T90 812T87 771V753H184V767Q184 775 186 781T199 788Q204 788 211 786T226 780Q231
778 242 773T258 766Q269 762 282 758T317 754Q368 754 388 784T409 852V890H312ZM36 508V186Q36 121 64 77T141 11T248 -11Q311 -11 358 12T432 80T458 186V507Q458 605 403 661T249 717Q150 717 93 664T36 508ZM217 203V498Q217 520 220 532T230 548T247 553Q257
553 264 549T275 532T279 499V203Q279 185 276 173T265 155T248 149Q238 149 231 154T221 172T217 203Z" />
<glyph unicode="&#xd6;" horiz-adv-x="495" d="M158 898Q126 898 103 875T79 820Q79 788 102 765T158 741Q191 741 214 764T237 820Q237 852 214 875T158 898ZM337 897Q304 897 282 875T259 820Q259 788 281 765T337 742Q369 742 392 765T415 820Q415 852 392
874T337 897ZM36 508V186Q36 121 64 77T141 11T248 -11Q311 -11 358 12T432 80T458 186V507Q458 605 403 661T249 717Q150 717 93 664T36 508ZM217 203V498Q217 520 220 532T230 548T247 553Q257 553 264 549T275 532T279 499V203Q279 185 276 173T265 155T248
149Q238 149 231 154T221 172T217 203Z" />
<glyph unicode="&#xd7;" horiz-adv-x="377" d="M188 405L102 509L30 449L129 333L33 219L102 157L188 261L275 158L345 219L248 333L346 452L274 510L188 405Z" />
<glyph unicode="&#xd8;" horiz-adv-x="495" d="M30 0H127L491 701H391L30 0ZM36 508V186Q36 121 64 77T141 11T248 -11Q311 -11 358 12T432 80T458 186V507Q458 605 403 661T249 717Q150 717 93 664T36 508ZM217 203V498Q217 520 220 532T230 548T247 553Q257
553 264 549T275 532T279 499V203Q279 185 276 173T265 155T248 149Q238 149 231 154T221 172T217 203Z" />
<glyph unicode="&#xd9;" horiz-adv-x="501" d="M268 866Q264 884 249 899T214 919T171 913Q151 903 145 885T143 849T158 816L210 749H299L268 866ZM461 186V700H281V195Q281 179 278 169T267 153T250 147Q240 147 233 152T223 167T219 195V700H39V186Q39 122
66 78T141 12T251 -11Q313 -11 360 11T434 78T461 186Z" />
<glyph unicode="&#xda;" horiz-adv-x="501" d="M341 815Q352 829 356 847T355 884T328 912Q306 924 286 919T251 898T231 865L200 748H289L341 815ZM461 186V700H281V195Q281 179 278 169T267 153T250 147Q240 147 233 152T223 167T219 195V700H39V186Q39 122
66 78T141 12T251 -11Q313 -11 360 11T434 78T461 186Z" />
<glyph unicode="&#xdb;" horiz-adv-x="501" d="M399 820L251 941L103 823L172 743L253 805L328 744L399 820ZM461 186V700H281V195Q281 179 278 169T267 153T250 147Q240 147 233 152T223 167T219 195V700H39V186Q39 122 66 78T141 12T251 -11Q313 -11 360 11T434
78T461 186Z" />
<glyph unicode="&#xdc;" horiz-adv-x="501" d="M159 898Q127 898 104 875T80 820Q80 788 103 765T159 741Q192 741 215 764T238 820Q238 852 215 875T159 898ZM338 897Q305 897 283 875T260 820Q260 788 282 765T338 742Q370 742 393 765T416 820Q416 852 393
874T338 897ZM461 186V700H281V195Q281 179 278 169T267 153T250 147Q240 147 233 152T223 167T219 195V700H39V186Q39 122 66 78T141 12T251 -11Q313 -11 360 11T434 78T461 186Z" />
<glyph unicode="&#xdd;" horiz-adv-x="520" d="M351 815Q362 829 366 847T365 884T338 912Q316 924 296 919T261 898T241 865L210 748H299L351 815ZM479 157V700H298V414Q298 403 295 394T287 377T274 365T258 361Q243 361 233 368T218 389T213 423V700H32V405Q32
339 57 294T124 226T213 203Q231 203 246 204T274 209T300 218V175Q300 161 295 151T282 135T262 125T237 120L297 -19Q394 -11 436 33T479 157Z" />
<glyph unicode="&#xde;" horiz-adv-x="509" d="M259 614H221V700H41V0H221V86H259Q300 86 338 97T408 137T458 218T478 352Q479 430 460 481T409 561T338 602T259 614ZM221 246V451H244Q258 451 268 446T284 428T294 396T297 350Q297 321 294 301T285 269T268
252T244 246H221Z" />
<glyph unicode="&#xdf;" horiz-adv-x="596" d="M218 0V475Q218 497 225 511T245 533T275 541Q289 541 299 537T316 526T322 511Q322 503 318 495T304 481T275 475Q268 463 263 439T258 387Q258 350 267 321T291 270T323 231T354 203T378 183T388 167Q388 164 387
161T385 156T381 152T375 151Q368 151 361 152T345 156T328 163T310 175L247 39Q264 22 288 10T341 -8T404 -15Q433 -15 462 -4T514 30T552 85T567 160Q567 194 557 218T531 261T498 296T464 328T438 365T428 412Q428 426 431 436T442 453Q442 453 445 453T454
453T462 453T466 453Q484 479 485 512T479 574T461 617Q443 642 420 662T358 695T254 707Q206 707 167 693T99 652T55 590T40 510V0H218Z" />
<glyph unicode="&#xe0;" horiz-adv-x="452" d="M243 927Q239 945 224 960T189 980T146 974Q126 964 120 946T118 910T133 877L185 810H274L243 927ZM232 371Q227 375 216 380T189 389T154 393Q127 393 104 385T64 358T38 312T29 246V156Q29 108 45 76T89 25T155
-3T235 -11Q255 -11 274 -11T311 -10T347 -8T382 -4T415 0V307Q415 365 404 404T367 466T299 500T197 510L171 420Q180 420 191 417T211 409T226 394T232 371ZM235 240V131Q235 131 234 131T232 130T229 130T226 129T222 128Q219 128 217 128T213 130T210 134T209
138V232Q209 235 209 237T211 241T215 244T220 245Q223 245 225 245T230 243T235 240Z" />
<glyph unicode="&#xe1;" horiz-adv-x="452" d="M332 877Q343 891 347 909T346 946T319 974Q297 986 277 981T242 960T222 927L191 810H280L332 877ZM232 371Q227 375 216 380T189 389T154 393Q127 393 104 385T64 358T38 312T29 246V156Q29 108 45 76T89 25T155
-3T235 -11Q255 -11 274 -11T311 -10T347 -8T382 -4T415 0V307Q415 365 404 404T367 466T299 500T197 510L171 420Q180 420 191 417T211 409T226 394T232 371ZM235 240V131Q235 131 234 131T232 130T229 130T226 129T222 128Q219 128 217 128T213 130T210 134T209
138V232Q209 235 209 237T211 241T215 244T220 245Q223 245 225 245T230 243T235 240Z" />
<glyph unicode="&#xe2;" horiz-adv-x="452" d="M373 891L225 1012L77 894L146 814L227 876L302 815L373 891ZM232 371Q227 375 216 380T189 389T154 393Q127 393 104 385T64 358T38 312T29 246V156Q29 108 45 76T89 25T155 -3T235 -11Q255 -11 274 -11T311 -10T347
-8T382 -4T415 0V307Q415 365 404 404T367 466T299 500T197 510L171 420Q180 420 191 417T211 409T226 394T232 371ZM235 240V131Q235 131 234 131T232 130T229 130T226 129T222 128Q219 128 217 128T213 130T210 134T209 138V232Q209 235 209 237T211 241T215
244T220 245Q223 245 225 245T230 243T235 240Z" />
<glyph unicode="&#xe3;" horiz-adv-x="452" d="M286 951V938Q286 931 285 925T272 918Q263 918 257 920T244 926Q234 931 228 934T211 941Q179 954 156 953T115 943Q90 932 79 913T64 873T61 832V814H158V828Q158 836 160 842T173 849Q178 849 185 847T200 841Q205
839 216 834T232 827Q243 823 256 819T291 815Q342 815 362 845T383 913V951H286ZM232 371Q227 375 216 380T189 389T154 393Q127 393 104 385T64 358T38 312T29 246V156Q29 108 45 76T89 25T155 -3T235 -11Q255 -11 274 -11T311 -10T347 -8T382 -4T415 0V307Q415
365 404 404T367 466T299 500T197 510L171 420Q180 420 191 417T211 409T226 394T232 371ZM235 240V131Q235 131 234 131T232 130T229 130T226 129T222 128Q219 128 217 128T213 130T210 134T209 138V232Q209 235 209 237T211 241T215 244T220 245Q223 245 225
245T230 243T235 240Z" />
<glyph unicode="&#xe4;" horiz-adv-x="452" d="M136 959Q104 959 81 936T57 881Q57 849 80 826T136 802Q169 802 192 825T215 881Q215 913 192 936T136 959ZM315 958Q282 958 260 936T237 881Q237 849 259 826T315 803Q347 803 370 826T393 881Q393 913 370 935T315
958ZM232 371Q227 375 216 380T189 389T154 393Q127 393 104 385T64 358T38 312T29 246V156Q29 108 45 76T89 25T155 -3T235 -11Q255 -11 274 -11T311 -10T347 -8T382 -4T415 0V307Q415 365 404 404T367 466T299 500T197 510L171 420Q180 420 191 417T211 409T226
394T232 371ZM235 240V131Q235 131 234 131T232 130T229 130T226 129T222 128Q219 128 217 128T213 130T210 134T209 138V232Q209 235 209 237T211 241T215 244T220 245Q223 245 225 245T230 243T235 240Z" />
<glyph unicode="&#xe5;" horiz-adv-x="452" d="M208 932Q171 932 141 915T92 868T74 801Q74 765 92 735T140 687T207 669Q244 669 273 687T321 735T339 801Q339 838 321 867T274 914T208 932ZM207 818Q214 818 220 812Q224 808 224 801Q224 797 223 794T218 788Q216
787 213 785T207 783Q204 783 201 784T195 788Q193 790 192 793T190 801Q190 805 191 808T195 813Q198 815 201 816T207 818ZM232 371Q227 375 216 380T189 389T154 393Q127 393 104 385T64 358T38 312T29 246V156Q29 108 45 76T89 25T155 -3T235 -11Q255 -11 274
-11T311 -10T347 -8T382 -4T415 0V307Q415 365 404 404T367 466T299 500T197 510L171 420Q180 420 191 417T211 409T226 394T232 371ZM235 240V131Q235 131 234 131T232 130T229 130T226 129T222 128Q219 128 217 128T213 130T210 134T209 138V232Q209 235 209
237T211 241T215 244T220 245Q223 245 225 245T230 243T235 240Z" />
<glyph unicode="&#xe6;" horiz-adv-x="652" d="M232 371Q227 375 216 380T189 389T154 393Q127 393 104 385T64 358T38 312T29 246V156Q29 108 45 76T89 25T155 -3T235 -11Q255 -11 274 -11T311 -10T347 -8T382 -4T415 0V307Q415 365 404 404T367 466T299 500T197
510L171 420Q180 420 191 417T211 409T226 394T232 371ZM235 240V131Q235 131 234 131T232 130T229 130T226 129T222 128Q219 128 217 128T213 130T210 134T209 138V232Q209 235 209 237T211 241T215 244T220 245Q223 245 225 245T230 243T235 240ZM419 166V177L625
189V343Q625 399 602 436T536 492T437 511Q381 511 336 492T265 435T239 340V135Q239 97 252 69T290 23T346 -4T416 -13Q465 -13 513 0T598 35L555 169Q534 162 502 154T450 145Q441 145 435 146T426 150T421 157T419 166ZM445 333V315L419 313V334Q419 342 420
347T424 355T432 358Q437 358 440 355T444 347T445 333Z" />
<glyph unicode="&#xe7;" horiz-adv-x="385" d="M232 5H146L119 -45L135 -117Q145 -116 165 -116T205 -114T228 -113Q237 -113 241 -115T245 -125Q245 -129 243 -131T238 -135T227 -136Q202 -136 177 -135T136 -133T118 -132L102 -214Q107 -216 123 -219T163 -224T212
-227Q274 -227 306 -200T338 -124Q338 -85 312 -55T236 -25Q233 -25 227 -25T215 -26L232 5ZM308 320L352 479Q321 493 288 502T222 512Q160 514 118 489T53 421T31 320V174Q31 110 55 70T122 10T223 -12Q257 -13 290 -8T354 5L316 176Q316 176 312 175T301 174T286
172T270 171Q259 171 250 173T235 181T225 195T221 215V291Q221 306 227 315T245 328T269 331Q280 330 290 328T308 320Z" />
<glyph unicode="&#xe8;" horiz-adv-x="426" d="M238 928Q234 946 219 961T184 981T141 975Q121 965 115 947T113 911T128 878L180 811H269L238 928ZM213 166V177L419 189V343Q419 399 396 436T330 492T231 511Q175 511 130 492T59 435T33 340V135Q33 97 46 69T84
23T140 -4T210 -13Q259 -13 307 0T392 35L349 169Q328 162 296 154T244 145Q235 145 229 146T220 150T215 157T213 166ZM239 333V315L213 313V334Q213 342 214 347T218 355T226 358Q231 358 234 355T238 347T239 333Z" />
<glyph unicode="&#xe9;" horiz-adv-x="426" d="M324 886Q335 900 339 918T338 955T311 983Q289 995 269 990T234 969T214 936L183 819H272L324 886ZM213 166V177L419 189V343Q419 399 396 436T330 492T231 511Q175 511 130 492T59 435T33 340V135Q33 97 46 69T84
23T140 -4T210 -13Q259 -13 307 0T392 35L349 169Q328 162 296 154T244 145Q235 145 229 146T220 150T215 157T213 166ZM239 333V315L213 313V334Q213 342 214 347T218 355T226 358Q231 358 234 355T238 347T239 333Z" />
<glyph unicode="&#xea;" horiz-adv-x="426" d="M371 891L223 1012L75 894L144 814L225 876L300 815L371 891ZM213 166V177L419 189V343Q419 399 396 436T330 492T231 511Q175 511 130 492T59 435T33 340V135Q33 97 46 69T84 23T140 -4T210 -13Q259 -13 307 0T392
35L349 169Q328 162 296 154T244 145Q235 145 229 146T220 150T215 157T213 166ZM239 333V315L213 313V334Q213 342 214 347T218 355T226 358Q231 358 234 355T238 347T239 333Z" />
<glyph unicode="&#xeb;" horiz-adv-x="426" d="M134 959Q102 959 79 936T55 881Q55 849 78 826T134 802Q167 802 190 825T213 881Q213 913 190 936T134 959ZM313 958Q280 958 258 936T235 881Q235 849 257 826T313 803Q345 803 368 826T391 881Q391 913 368 935T313
958ZM213 166V177L419 189V343Q419 399 396 436T330 492T231 511Q175 511 130 492T59 435T33 340V135Q33 97 46 69T84 23T140 -4T210 -13Q259 -13 307 0T392 35L349 169Q328 162 296 154T244 145Q235 145 229 146T220 150T215 157T213 166ZM239 333V315L213 313V334Q213
342 214 347T218 355T226 358Q231 358 234 355T238 347T239 333Z" />
<glyph unicode="&#xec;" horiz-adv-x="258" d="M397 937Q393 955 378 970T343 990T300 984Q280 974 274 956T272 920T287 887L339 820H428L397 937ZM39 0H219V500H39V0Z" />
<glyph unicode="&#xed;" horiz-adv-x="258" d="M226 886Q237 900 241 918T240 955T213 983Q191 995 171 990T136 969T116 936L85 819H174L226 886ZM39 0H219V500H39V0Z" />
<glyph unicode="&#xee;" horiz-adv-x="258" d="M531 891L383 1012L235 894L304 814L385 876L460 815L531 891ZM39 0H219V500H39V0Z" />
<glyph unicode="&#xef;" horiz-adv-x="258" d="M295 959Q263 959 240 936T216 881Q216 849 239 826T295 802Q328 802 351 825T374 881Q374 913 351 936T295 959ZM474 958Q441 958 419 936T396 881Q396 849 418 826T474 803Q506 803 529 826T552 881Q552 913 529
935T474 958ZM39 0H219V500H39V0Z" />
<glyph unicode="&#xf0;" d="M287 668Q264 679 238 687T186 702L145 589Q145 589 150 587T166 580T186 567L150 531L201 480L231 510Q233 503 234 496T235 481V423Q229 426 221 427T205 430T188 432T170 433Q103 433 66 386T28 246V187Q28 96 77 44T217 -9Q314
-9 364 41T415 187V481Q415 511 407 538T385 588T349 629L379 659L329 710L287 668ZM221 174Q217 174 214 177T209 185T207 197V263Q207 269 209 273T214 279T221 281Q224 281 227 280T231 277T234 272T235 263V197Q235 190 234 185T229 177T221 174Z" />
<glyph unicode="&#xf1;" horiz-adv-x="446" d="M294 951V938Q294 931 293 925T280 918Q271 918 265 920T252 926Q242 931 236 934T219 941Q187 954 164 953T123 943Q98 932 87 913T72 873T69 832V814H166V828Q166 836 168 842T181 849Q186 849 193 847T208 841Q213
839 224 834T240 827Q251 823 264 819T299 815Q350 815 370 845T391 913V951H294ZM246 320V-1H426V346Q426 385 419 413T400 459T373 489T342 505T308 510Q283 510 265 506T236 496T219 486V501H39V-1H219V328Q222 330 224 331T229 332T233 333Q236 333 238 332T242
329T245 325T246 320Z" />
<glyph unicode="&#xf2;" horiz-adv-x="450" d="M240 937Q236 955 221 970T186 990T143 984Q123 974 117 956T115 920T130 887L182 820H271L240 937ZM418 185V317Q418 409 369 460T228 512Q164 512 120 489T54 422T31 317V185Q31 126 51 82T113 14T225 -10Q320
-10 369 43T418 185ZM238 311V191Q238 185 237 180T233 172T225 169Q220 169 217 172T213 180T211 191V311Q211 318 212 323T217 330T225 333Q230 333 232 331T236 323T238 311Z" />
<glyph unicode="&#xf3;" horiz-adv-x="450" d="M321 886Q332 900 336 918T335 955T308 983Q286 995 266 990T231 969T211 936L180 819H269L321 886ZM418 185V317Q418 409 369 460T228 512Q164 512 120 489T54 422T31 317V185Q31 126 51 82T113 14T225 -10Q320
-10 369 43T418 185ZM238 311V191Q238 185 237 180T233 172T225 169Q220 169 217 172T213 180T211 191V311Q211 318 212 323T217 330T225 333Q230 333 232 331T236 323T238 311Z" />
<glyph unicode="&#xf4;" horiz-adv-x="450" d="M371 891L223 1012L75 894L144 814L225 876L300 815L371 891ZM418 185V317Q418 409 369 460T228 512Q164 512 120 489T54 422T31 317V185Q31 126 51 82T113 14T225 -10Q320 -10 369 43T418 185ZM238 311V191Q238
185 237 180T233 172T225 169Q220 169 217 172T213 180T211 191V311Q211 318 212 323T217 330T225 333Q230 333 232 331T236 323T238 311Z" />
<glyph unicode="&#xf5;" horiz-adv-x="450" d="M288 951V938Q288 931 287 925T274 918Q265 918 259 920T246 926Q236 931 230 934T213 941Q181 954 158 953T117 943Q92 932 81 913T66 873T63 832V814H160V828Q160 836 162 842T175 849Q180 849 187 847T202 841Q207
839 218 834T234 827Q245 823 258 819T293 815Q344 815 364 845T385 913V951H288ZM418 185V317Q418 409 369 460T228 512Q164 512 120 489T54 422T31 317V185Q31 126 51 82T113 14T225 -10Q320 -10 369 43T418 185ZM238 311V191Q238 185 237 180T233 172T225 169Q220
169 217 172T213 180T211 191V311Q211 318 212 323T217 330T225 333Q230 333 232 331T236 323T238 311Z" />
<glyph unicode="&#xf6;" horiz-adv-x="450" d="M135 959Q103 959 80 936T56 881Q56 849 79 826T135 802Q168 802 191 825T214 881Q214 913 191 936T135 959ZM314 958Q281 958 259 936T236 881Q236 849 258 826T314 803Q346 803 369 826T392 881Q392 913 369 935T314
958ZM418 185V317Q418 409 369 460T228 512Q164 512 120 489T54 422T31 317V185Q31 126 51 82T113 14T225 -10Q320 -10 369 43T418 185ZM238 311V191Q238 185 237 180T233 172T225 169Q220 169 217 172T213 180T211 191V311Q211 318 212 323T217 330T225 333Q230
333 232 331T236 323T238 311Z" />
<glyph unicode="&#xf7;" horiz-adv-x="381" d="M29 321H350V437H29V321ZM190 638Q153 638 127 614T101 553Q101 516 127 490T190 464Q227 464 253 490T279 553Q279 590 253 614T190 638ZM190 296Q153 296 127 272T101 211Q101 174 127 148T190 122Q227 122 253
148T279 211Q279 248 253 272T190 296Z" />
<glyph unicode="&#xf8;" horiz-adv-x="450" d="M379 514H291L58 -20H144L379 514ZM418 185V317Q418 409 369 460T228 512Q164 512 120 489T54 422T31 317V185Q31 126 51 82T113 14T225 -10Q320 -10 369 43T418 185ZM238 311V191Q238 185 237 180T233 172T225 169Q220
169 217 172T213 180T211 191V311Q211 318 212 323T217 330T225 333Q230 333 232 331T236 323T238 311Z" />
<glyph unicode="&#xf9;" horiz-adv-x="460" d="M238 937Q234 955 219 970T184 990T141 984Q121 974 115 956T113 920T128 887L180 820H269L238 937ZM244 21V0H424V501H244V190Q244 185 243 181T240 174T234 169T228 167Q225 167 223 169T219 175T217 185V501H37V158Q37
119 44 91T63 44T92 14T127 -2T165 -7Q182 -7 198 -4T226 6T244 21Z" />
<glyph unicode="&#xfa;" horiz-adv-x="460" d="M323 886Q334 900 338 918T337 955T310 983Q288 995 268 990T233 969T213 936L182 819H271L323 886ZM244 21V0H424V501H244V190Q244 185 243 181T240 174T234 169T228 167Q225 167 223 169T219 175T217 185V501H37V158Q37
119 44 91T63 44T92 14T127 -2T165 -7Q182 -7 198 -4T226 6T244 21Z" />
<glyph unicode="&#xfb;" horiz-adv-x="460" d="M374 891L226 1012L78 894L147 814L228 876L303 815L374 891ZM244 21V0H424V501H244V190Q244 185 243 181T240 174T234 169T228 167Q225 167 223 169T219 175T217 185V501H37V158Q37 119 44 91T63 44T92 14T127 -2T165
-7Q182 -7 198 -4T226 6T244 21Z" />
<glyph unicode="&#xfc;" horiz-adv-x="460" d="M141 959Q109 959 86 936T62 881Q62 849 85 826T141 802Q174 802 197 825T220 881Q220 913 197 936T141 959ZM320 958Q287 958 265 936T242 881Q242 849 264 826T320 803Q352 803 375 826T398 881Q398 913 375 935T320
958ZM244 21V0H424V501H244V190Q244 185 243 181T240 174T234 169T228 167Q225 167 223 169T219 175T217 185V501H37V158Q37 119 44 91T63 44T92 14T127 -2T165 -7Q182 -7 198 -4T226 6T244 21Z" />
<glyph unicode="&#xfd;" horiz-adv-x="500" d="M328 886Q339 900 343 918T342 955T315 983Q293 995 273 990T238 969T218 936L187 819H276L328 886ZM473 393L421 512Q374 512 333 496T267 442T242 338V189Q242 184 241 180T238 172T234 167T228 165Q225 165 223
166T219 170T216 177T215 185V503H36V159Q36 111 46 79T74 29T113 2T155 -6Q179 -6 194 -4T221 1T242 9V-19Q242 -27 239 -35T229 -49T215 -58T195 -62L253 -214Q303 -214 341 -195T401 -142T423 -59V322Q423 348 432 367T473 393Z" />
<glyph unicode="&#xfe;" horiz-adv-x="464" d="M427 177V346Q427 397 416 434T380 491T310 511Q289 511 270 506T238 493T220 479L221 700H40V-192L220 -214V0Q229 -3 238 -6T260 -10T293 -12Q352 -12 389 36T427 177ZM247 318V183Q247 178 246 174T242 168T235
166Q233 166 231 167T226 169T222 173T220 178V329Q222 330 223 331T228 333T234 334Q236 334 238 334T243 331T246 326T247 318Z" />
<glyph unicode="&#xff;" horiz-adv-x="500" d="M141 959Q109 959 86 936T62 881Q62 849 85 826T141 802Q174 802 197 825T220 881Q220 913 197 936T141 959ZM320 958Q287 958 265 936T242 881Q242 849 264 826T320 803Q352 803 375 826T398 881Q398 913 375 935T320
958ZM473 393L421 512Q374 512 333 496T267 442T242 338V189Q242 184 241 180T238 172T234 167T228 165Q225 165 223 166T219 170T216 177T215 185V503H36V159Q36 111 46 79T74 29T113 2T155 -6Q179 -6 194 -4T221 1T242 9V-19Q242 -27 239 -35T229 -49T215 -58T195
-62L253 -214Q303 -214 341 -195T401 -142T423 -59V322Q423 348 432 367T473 393Z" />
<glyph unicode="&#x2013;" horiz-adv-x="464" d="M35 277H429V414H35V277Z" />
<glyph unicode="&#x2014;" horiz-adv-x="721" d="M35 277H686V414H35V277Z" />
<glyph unicode="&#x2018;" horiz-adv-x="177" d="M130 713L100 735Q101 735 88 728T58 704T27 660T13 595Q13 563 35 540T88 517Q121 517 144 540T167 595Q167 622 150 642T107 669Q110 677 116 689T130 713Z" />
<glyph unicode="&#x2019;" horiz-adv-x="174" d="M50 539L80 517Q79 517 92 524T122 548T153 592T167 657Q167 689 145 712T92 735Q59 735 36 712T13 657Q13 630 30 610T73 583Q70 576 64 564T50 539Z" />
<glyph unicode="&#x201a;" horiz-adv-x="189" d="M53 -61L83 -83Q82 -83 95 -76T125 -52T156 -8T170 57Q170 89 148 112T95 135Q62 135 39 112T16 57Q16 30 33 10T76 -17Q73 -24 67 -36T53 -61Z" />
<glyph unicode="&#x201c;" horiz-adv-x="358" d="M310 713L280 735Q281 735 268 728T238 704T207 660T193 595Q193 563 215 540T268 517Q301 517 324 540T347 595Q347 622 330 642T287 669Q290 677 296 689T310 713ZM130 713L100 735Q101 735 88 728T58 704T27
660T13 595Q13 563 35 540T88 517Q121 517 144 540T167 595Q167 622 150 642T107 669Q110 677 116 689T130 713Z" />
<glyph unicode="&#x201d;" horiz-adv-x="355" d="M48 539L78 517Q77 517 90 524T120 548T151 592T165 657Q165 689 143 712T90 735Q57 735 34 712T11 657Q11 630 28 610T71 583Q68 576 62 564T48 539ZM228 539L258 517Q257 517 270 524T300 548T331 592T345 657Q345
689 323 712T270 735Q237 735 214 712T191 657Q191 630 208 610T251 583Q248 576 242 564T228 539Z" />
<glyph unicode="&#x201e;" horiz-adv-x="370" d="M53 -61L83 -83Q82 -83 95 -76T125 -52T156 -8T170 57Q170 89 148 112T95 135Q62 135 39 112T16 57Q16 30 33 10T76 -17Q73 -24 67 -36T53 -61ZM233 -61L263 -83Q262 -83 275 -76T305 -52T336 -8T350 57Q350 89
328 112T275 135Q242 135 219 112T196 57Q196 30 213 10T256 -17Q253 -24 247 -36T233 -61Z" />
<glyph unicode="&#x2022;" horiz-adv-x="417" d="M332 464Q280 516 207 516Q131 516 79 464Q28 414 28 338Q28 301 41 269T79 211Q132 159 207 159Q244 159 275 172T332 211Q358 237 372 269T386 338Q386 412 332 464Z" />
<glyph unicode="&#x2039;" horiz-adv-x="321" d="M27 268L215 80L287 149L168 268L288 384L215 456L27 268Z" />
<glyph unicode="&#x203a;" horiz-adv-x="322" d="M152 268L33 149L106 80L292 268L106 456L32 384L152 268Z" />
</font>
</defs>
</svg>
