<?xml version="1.0" standalone="no"?>
<!DOCTYPE svg PUBLIC "-//W3C//DTD SVG 1.1//EN" "http://www.w3.org/Graphics/SVG/1.1/DTD/svg11.dtd">
<svg xmlns="http://www.w3.org/2000/svg">
<defs >
<font id="AdventPro" horiz-adv-x="443" ><font-face
    font-family="Advent Pro Black"
    units-per-em="1000"
    panose-1="0 0 0 0 0 0 0 0 0 0"
    ascent="964"
    descent="-232"
    alphabetic="0" />
<glyph unicode=" " horiz-adv-x="280" />
<glyph unicode="!" horiz-adv-x="195" d="M159 635L79 151H179L310 636Q318 671 303 692T250 714Q213 714 190 693T159 635ZM126 137Q93 137 66 115T32 60Q25 28 42 5T93 -18Q125 -18 153 5T188 60Q195 92 177 114T126 137Z" />
<glyph unicode="&quot;" horiz-adv-x="284" d="M156 705L149 589H234L277 705Q283 734 268 748T229 762T184 748T156 705ZM306 705L299 589H384L427 705Q433 734 418 748T379 762T334 748T306 705Z" />
<glyph unicode="#" horiz-adv-x="619" d="M517 270L556 357H660L684 471H609L712 700H596L493 471H375L477 700H373L271 471H133L109 357H220L180 270H90L68 167H134L58 0H165L238 167H356L283 0H396L470 167H619L641 270H517ZM403 270H284L324 357H443L403 270Z" />
<glyph unicode="$" horiz-adv-x="546" d="M206 -115H316L514 819H404L206 -115ZM533 527L596 673Q574 686 550 694T498 706T444 710Q405 710 362 700T278 667T207 605T164 508Q155 466 160 435T180 381T217 340T263 310T310 285T350 263T377 239T383 209Q379 193
371 182T349 163T320 152T285 148Q260 148 237 157T195 181T163 213L54 88Q75 55 108 33T181 0T264 -12Q314 -12 362 0T453 38T525 107T570 214Q578 255 572 286T550 340T511 380T463 410T414 434T371 455T342 478T336 506Q339 520 346 530T364 545T388 553T418
556Q440 556 459 552T496 542T533 527Z" />
<glyph unicode="%" horiz-adv-x="730" d="M35 0H150L840 700H723L35 0ZM340 715Q300 715 262 696T198 643T162 570Q154 530 166 497T208 443T278 423Q317 423 354 443T418 496T454 570Q463 610 450 643T408 695T340 715ZM320 622Q334 622 344 615T359 596T361
570Q358 556 348 544T325 524T298 517Q283 517 273 524T258 543T256 570Q259 584 268 596T291 615T320 622ZM608 278Q568 278 530 259T466 206T430 132Q422 92 434 59T476 6T546 -14Q586 -14 623 5T687 58T722 132Q731 173 718 206T677 258T608 278ZM588 185Q602
185 612 178T626 158T628 132Q625 118 616 106T593 86T566 79Q552 79 542 86T527 105T525 132Q528 146 537 158T560 177T588 185Z" />
<glyph unicode="&amp;" horiz-adv-x="531" d="M487 533L554 702H357Q312 702 276 684T215 632T181 556Q174 522 175 497T182 449T200 404H190Q178 404 164 399T137 383T113 353T96 307L57 120Q52 98 54 79T65 45T87 20T117 4T153 -2Q174 -2 200 1T253 15T303 42Q332
14 364 4T442 -8L508 140Q474 140 453 151T439 197L454 270H534L586 404H486L508 508H347L325 404H317Q314 413 313 424T311 446T312 469T317 492Q321 510 330 521T355 533H487ZM297 274L281 199Q280 193 278 189T272 182T264 179Q259 179 257 181T255 188T255
198L268 260Q269 264 270 266T273 270T277 273T283 274H297Z" />
<glyph unicode="&apos;" horiz-adv-x="149" d="M164 705L157 589H242L285 705Q291 734 276 748T237 762T192 748T164 705Z" />
<glyph unicode="(" horiz-adv-x="267" d="M425 731L334 819Q283 793 250 759T197 685T169 606L60 95Q54 64 53 35T59 -20T84 -71T136 -117L260 -35Q256 -30 250 -22T239 0T234 40T243 104L354 608Q362 644 371 666T391 700T410 719T425 731Z" />
<glyph unicode=")" horiz-adv-x="267" d="M158 731L282 819Q312 800 330 775T356 723T364 666T357 606L248 95Q242 64 231 35T200 -20T153 -71T82 -117L-5 -35Q1 -31 10 -23T30 -1T51 39T70 104L177 608Q185 644 185 667T179 703T167 722T158 731Z" />
<glyph unicode="*" horiz-adv-x="382" d="M204 655L143 552L218 533L151 468L235 397L292 484L311 397L428 466L385 531L471 551L448 656L372 620L399 700H279L273 620L204 655Z" />
<glyph unicode="+" horiz-adv-x="382" d="M358 531H247L223 420H118L96 314H201L179 211H290L312 314H417L439 420H334L358 531Z" />
<glyph unicode="," horiz-adv-x="188" d="M40 -61L65 -83Q64 -83 79 -76T114 -52T154 -8T182 57Q189 89 172 112T124 135Q91 135 63 112T28 57Q22 30 34 10T72 -17Q68 -24 59 -36T40 -61Z" />
<glyph unicode="-" horiz-adv-x="394" d="M94 277H414L443 414H123L94 277Z" />
<glyph unicode="." horiz-adv-x="190" d="M124 137Q91 137 64 115T30 60Q23 28 40 5T91 -18Q123 -18 151 5T186 60Q193 92 175 114T124 137Z" />
<glyph unicode="/" horiz-adv-x="481" d="M4 -115H103L629 819H530L4 -115Z" />
<glyph unicode="0" horiz-adv-x="495" d="M144 508L76 186Q62 121 81 77T143 11T246 -11Q309 -11 361 12T449 80T498 186L566 507Q587 605 544 661T401 717Q302 717 234 664T144 508ZM259 203L323 498Q328 520 334 532T347 548T365 553Q375 553 381 549T388 532T385
499L321 203Q317 185 311 173T297 155T279 149Q269 149 263 154T256 172T259 203Z" />
<glyph unicode="1" horiz-adv-x="352" d="M151 629L174 469Q173 469 179 470T195 473T216 480T236 489L131 0H313L462 700H281Q263 680 241 667T198 645T164 633T151 629Z" />
<glyph unicode="2" horiz-adv-x="442" d="M155 566L283 490Q288 502 294 509T308 519T321 523Q325 523 328 521T332 516T333 506Q332 503 331 500T327 492T318 480L65 160L32 0H406L442 168H267L431 373Q466 417 487 455T518 540Q530 597 513 634T459 691T377
710Q337 710 297 695T221 648T155 566Z" />
<glyph unicode="3" horiz-adv-x="451" d="M378 412L375 414L479 540L513 700H222L188 540H309L108 275H210Q231 275 250 270T280 251T286 215Q282 198 272 184T245 162T209 153Q189 153 168 160T135 186L24 60Q61 17 105 3T203 -12Q248 -12 290 6T369 55T430 127T465
212Q476 262 470 299T442 364T378 412Z" />
<glyph unicode="4" horiz-adv-x="542" d="M264 0H444L496 244H537L602 414H532L593 700H413L352 414H304L397 700H218L68 244H316L264 0Z" />
<glyph unicode="5" horiz-adv-x="470" d="M330 431L358 540H502L536 700H237L120 274H241Q266 274 283 269T308 250T311 212Q307 195 297 184T272 167T242 157T212 154Q190 154 171 159T138 170T115 181T107 186L31 47Q31 48 44 39T82 18T141 -3T217 -12Q282 -12
329 4T409 51T461 122T491 213Q504 273 490 322T436 401T333 431H330Z" />
<glyph unicode="6" horiz-adv-x="488" d="M402 542H428L462 702H427Q354 702 293 673T190 589T132 462L77 203Q65 144 82 96T142 19T244 -9Q289 -9 331 7T408 52T468 119T502 203Q515 264 498 311T438 386T334 414Q324 414 317 413T306 412T302 412L313 467Q319
492 330 508T359 533T402 542ZM297 236Q304 236 309 234T318 227T323 216T323 203Q322 196 318 190T309 180T297 173T283 170Q274 170 267 174T258 186T257 203Q259 210 262 216T271 226T283 233T297 236Z" />
<glyph unicode="7" horiz-adv-x="466" d="M214 0L557 540L591 700H197L163 540H373L27 0H214Z" />
<glyph unicode="8" horiz-adv-x="488" d="M395 710Q346 710 302 687T225 623T183 534Q176 503 178 477T193 430T227 390Q189 374 157 344T103 277T72 202Q60 143 78 95T138 17T240 -12Q299 -12 353 17T448 95T500 202Q508 241 502 277T476 342T426 389Q471 415
497 451T534 534Q544 583 529 622T479 686T395 710ZM350 502Q341 502 335 506T325 518T324 535Q326 545 332 552T346 563T364 567Q374 567 380 563T389 552T390 535Q388 527 382 519T367 507T350 502ZM278 165Q268 165 261 170T250 183T249 202Q251 210 255 216T265
228T278 236T294 239Q304 239 311 234T321 221T322 202Q320 192 314 184T298 170T278 165Z" />
<glyph unicode="9" horiz-adv-x="486" d="M390 710Q345 710 303 694T226 649T166 582T132 498Q119 437 136 390T196 315T300 287Q311 287 318 288T329 289T332 289L321 234Q316 210 305 193T275 168T232 159H206L172 -1H207Q280 -1 341 28T444 112T502 239L557
498Q570 558 552 606T492 682T390 710ZM351 531Q361 531 367 527T376 515T377 498Q376 491 372 485T363 475T351 468T337 465Q330 465 325 467T316 474T311 485T311 498Q313 505 316 511T325 521T337 528T351 531Z" />
<glyph unicode=":" horiz-adv-x="197" d="M207 144Q214 176 196 198T145 221Q112 221 85 199T51 144Q44 112 61 89T112 66Q144 66 172 89T207 144ZM258 384Q265 416 247 438T196 461Q163 461 136 439T102 384Q95 352 112 329T163 306Q195 306 223 329T258 384Z" />
<glyph unicode=";" horiz-adv-x="196" d="M61 25L87 3Q86 3 100 10T136 34T176 78T203 143Q211 175 194 198T145 221Q112 221 85 198T49 143Q44 116 56 96T94 69Q90 62 81 50T61 25ZM258 384Q265 416 247 438T196 461Q163 461 136 439T102 384Q95 352 112 329T163
306Q195 306 223 329T258 384Z" />
<glyph unicode="&lt;" horiz-adv-x="412" d="M102 359L322 80L407 147L243 359L500 567L441 638L102 359Z" />
<glyph unicode="=" horiz-adv-x="395" d="M110 347H431L455 463H134L110 347ZM80 205H401L425 320H104L80 205Z" />
<glyph unicode="&gt;" horiz-adv-x="415" d="M153 567L320 359L65 147L123 80L461 359L242 638L153 567Z" />
<glyph unicode="?" horiz-adv-x="427" d="M132 508H303Q305 517 307 523T312 532T318 536T323 537Q328 537 330 535T332 526T330 506Q327 492 316 477T287 443T248 401Q230 381 215 361T189 319T168 271T152 213L143 170H322L331 211Q334 227 338 243T349 276T370
313T405 356Q430 382 450 405T485 457T508 523Q518 568 512 603T485 662T432 698T356 710Q313 710 277 697T212 659T163 596T132 508ZM225 137Q192 137 165 115T131 60Q124 28 141 5T192 -18Q224 -18 252 5T287 60Q294 92 276 114T225 137Z" />
<glyph unicode="@" horiz-adv-x="880" d="M954 359L855 479Q799 449 769 406T725 314T700 218L681 129Q678 113 660 93T612 54T539 23T443 11Q389 11 349 21T285 54T253 110T255 191L283 323Q292 365 310 399T356 456T416 493T488 506Q522 506 536 498T549 479H483Q453
479 426 470T376 441T336 391T309 316L285 201Q278 167 280 138T298 86T351 52T447 40Q486 40 518 47T575 66T616 88T641 107T650 115L696 327H711L768 479L728 478Q736 518 730 552T699 612T630 652T517 667Q448 667 382 646T259 584T164 485T109 351L77 202Q62
132 68 69T109 -42T216 -119T407 -147Q505 -147 583 -124T720 -62T814 27T861 129L886 243Q890 262 897 285T918 328T954 359ZM505 319H516L491 202Q489 202 487 202T484 201T481 201T477 201Q471 201 469 206T468 219L484 298Q486 305 488 309T495 316T505 319Z"
/>
<glyph unicode="A" horiz-adv-x="545" d="M522 0L558 700H283L24 0H215L251 115H342L331 0H522ZM301 272L389 552L360 272H301Z" />
<glyph unicode="B" horiz-adv-x="507" d="M405 700H190L41 0H261Q331 0 384 25T472 97T520 206Q530 252 524 286T499 345T453 382Q481 396 502 415T538 460T560 523Q572 579 557 618T502 679T405 700ZM329 430H312L340 560H360Q372 560 378 553T384 531T380 494Q376
474 369 460T353 438T329 430ZM276 139H251L283 290H305Q315 290 322 284T331 261T326 214Q320 184 312 168T294 146T276 139Z" />
<glyph unicode="C" horiz-adv-x="427" d="M457 534L517 677Q485 695 451 703T380 712Q325 712 277 690T194 622T145 511L75 184Q62 121 76 77T129 11T231 -12Q269 -12 312 -3T402 23L418 173Q408 170 388 164T343 154T298 149Q288 149 276 151T258 162T255 192L319
494Q325 520 336 531T361 546T386 549Q409 549 423 545T457 534Z" />
<glyph unicode="D" horiz-adv-x="499" d="M379 702H190L41 0H250Q321 0 373 24T459 94T507 207L566 485Q582 557 564 605T498 678T379 702ZM280 160H255L336 543H363Q375 543 381 538T389 521T387 493L326 208Q323 195 319 186T310 171T297 163T280 160Z" />
<glyph unicode="E" horiz-adv-x="411" d="M41 0H374L408 160H255L280 280H358L442 439H314L336 540H491L525 700H190L41 0Z" />
<glyph unicode="F" horiz-adv-x="395" d="M525 700H190L41 0H221L281 280H357L442 438H314L336 540H491L525 700Z" />
<glyph unicode="G" horiz-adv-x="482" d="M478 535L549 677Q528 687 504 694T455 706T400 710Q334 710 282 688T194 620T143 504L77 190Q62 122 81 77T145 11T246 -10Q258 -9 275 -8T311 -2T344 13L345 0H449L531 385H314L290 227H317L314 209Q310 194 306 183T297
164T286 154T273 150Q264 150 260 156T255 176T260 209L318 482Q324 510 336 524T368 543T410 549Q421 549 432 547T455 542T478 535Z" />
<glyph unicode="H" horiz-adv-x="516" d="M386 438H314L370 700H190L41 0H221L281 280H353L293 0H473L622 700H442L386 438Z" />
<glyph unicode="I" horiz-adv-x="309" d="M136 552L204 550L87 0H267L416 700H168L136 552Z" />
<glyph unicode="J" horiz-adv-x="312" d="M306 166L420 700H172L140 552L208 550L135 209Q128 176 117 154T86 121T30 109L35 -37Q94 -37 140 -22T220 21T275 86T306 166Z" />
<glyph unicode="K" horiz-adv-x="516" d="M324 485L370 700H190L41 0H221L261 189L280 216L295 0H494L430 385L636 700H437L324 485Z" />
<glyph unicode="L" horiz-adv-x="429" d="M41 0H403L437 160H255L370 700H190L41 0Z" />
<glyph unicode="M" horiz-adv-x="622" d="M370 700H190L11 0H192L245 250L248 0H371L482 249L429 0H609L728 700H549L388 373L370 700Z" />
<glyph unicode="N" horiz-adv-x="578" d="M684 700H502L437 393L370 700H190L41 0L221 -1L284 295L349 0H535L684 700Z" />
<glyph unicode="O" horiz-adv-x="495" d="M144 508L76 186Q62 121 81 77T143 11T246 -11Q309 -11 361 12T449 80T498 186L566 507Q587 605 544 661T401 717Q302 717 234 664T144 508ZM259 203L323 498Q328 520 334 532T347 548T365 553Q375 553 381 549T388 532T385
499L321 203Q317 185 311 173T297 155T279 149Q269 149 263 154T256 172T259 203Z" />
<glyph unicode="P" horiz-adv-x="509" d="M408 700H190L41 0H221L258 172H296Q337 172 378 183T456 223T523 304T571 438Q588 516 580 567T546 647T484 688T408 700ZM292 332L335 537H358Q372 537 381 532T393 514T397 482T390 436Q384 407 377 387T361 355T341
338T315 332H292Z" />
<glyph unicode="Q" horiz-adv-x="495" d="M330 61L355 178H212L177 19Q170 -12 173 -42T195 -96T255 -136T369 -151L449 -8Q400 -17 374 -14T337 1T327 28T330 61ZM144 508L76 186Q62 121 81 77T143 11T246 -11Q309 -11 361 12T449 80T498 186L566 507Q587 605
544 661T401 717Q302 717 234 664T144 508ZM259 203L323 498Q328 520 334 532T347 548T365 553Q375 553 381 549T388 532T385 499L321 203Q317 185 311 173T297 155T279 149Q269 149 263 154T256 172T259 203Z" />
<glyph unicode="R" horiz-adv-x="513" d="M408 700H190L41 0H221L258 173H270Q272 173 276 173T286 173T295 174L296 0H482L466 247Q485 263 504 285T541 343T571 439Q588 519 580 570T546 649T484 689T408 700ZM315 332H292L335 535H358Q372 535 381 530T393
513T397 483T390 439Q384 408 377 388T360 355T340 338T315 332Z" />
<glyph unicode="S" horiz-adv-x="546" d="M531 527L594 673Q573 686 548 694T497 706T442 710Q404 710 361 700T276 667T205 605T162 508Q153 466 158 435T179 381T215 340T261 310T308 285T349 263T376 239T381 209Q378 193 370 182T348 163T319 152T283 148Q258
148 235 157T194 181T161 213L52 88Q74 55 106 33T179 0T262 -12Q312 -12 361 0T452 38T524 107T568 214Q577 255 571 286T549 340T510 380T462 410T412 434T369 455T341 478T334 506Q337 520 344 530T362 545T386 553T416 556Q438 556 457 552T495 542T531 527Z"
/>
<glyph unicode="T" horiz-adv-x="432" d="M418 539H532L566 700H162L128 539H240L125 0H303L418 539Z" />
<glyph unicode="U" horiz-adv-x="501" d="M501 186L610 700H430L322 195Q319 179 313 169T299 153T281 147Q271 147 265 152T258 167T260 195L368 700H188L79 186Q65 122 83 78T144 12T249 -11Q311 -11 363 11T451 78T501 186Z" />
<glyph unicode="V" horiz-adv-x="516" d="M165 700L153 0H355L646 700H466L304 219L343 700H165Z" />
<glyph unicode="W" horiz-adv-x="742" d="M605 700H436L333 425L352 700H169L145 0H325L419 231L414 0H594L868 700H685L587 425L605 700Z" />
<glyph unicode="X" horiz-adv-x="629" d="M426 521L379 700H187L294 364L26 0H214L357 199L417 0H605L490 364L740 700H546L426 521Z" />
<glyph unicode="Y" horiz-adv-x="520" d="M512 157L628 700H447L386 414Q384 403 379 394T367 377T351 365T335 361Q320 361 311 368T301 389T303 423L362 700H181L118 405Q104 339 119 294T171 226T256 203Q274 203 289 204T318 209T346 218L337 175Q334 161
327 151T310 135T288 125T263 120L293 -19Q391 -11 443 33T512 157Z" />
<glyph unicode="Z" horiz-adv-x="558" d="M190 700L152 521L405 520L391 506L64 176L27 0H517L555 179L281 180L295 193L618 520L656 700H190Z" />
<glyph unicode="[" horiz-adv-x="233" d="M302 703L356 713L378 819H216L18 -115H180L202 -9L153 1L302 703Z" />
<glyph unicode="\" horiz-adv-x="479" d="M320 -115H438L311 819H190L320 -115Z" />
<glyph unicode="]" horiz-adv-x="235" d="M7 -115H168L366 819H205L183 713L230 703L81 1L29 -9L7 -115Z" />
<glyph unicode="^" horiz-adv-x="267" d="M452 800L330 921L157 803L209 723L303 785L365 724L452 800Z" />
<glyph unicode="_" horiz-adv-x="384" d="M10 -107H330L353 0H33L10 -107Z" />
<glyph unicode="`" horiz-adv-x="267" d="M152 706Q148 724 133 739T98 759T55 753Q35 743 29 725T27 689T42 656L94 589H183L152 706Z" />
<glyph unicode="a" horiz-adv-x="452" d="M311 371Q307 375 297 380T272 389T238 393Q211 393 186 385T141 358T105 312T81 246L62 156Q52 108 61 76T94 25T154 -3T233 -11Q253 -11 272 -11T309 -10T345 -8T380 -4T415 0L480 307Q492 365 489 404T466 466T405
500T305 510L260 420Q269 420 279 417T297 409T310 394T311 371ZM286 240L263 131Q263 131 262 131T260 130T257 130T253 129T249 128Q246 128 244 128T241 130T239 134T238 138L258 232Q259 235 260 237T263 241T267 244T272 245Q275 245 277 245T282 243T286
240Z" />
<glyph unicode="b" horiz-adv-x="459" d="M326 496L370 700H190L41 0Q59 -1 76 -2T111 -5T146 -8T180 -10T216 -11Q259 -11 298 -3T369 23T425 74T459 156L503 360Q511 398 509 426T494 473T461 501T412 510Q397 510 384 509T357 504T326 496ZM257 170L291 329Q293
330 295 330T300 330T306 331Q308 331 310 330T313 327T315 322T315 313L289 195Q288 189 287 185T282 177T276 171T266 169Q265 169 264 169T261 169T258 170T257 170Z" />
<glyph unicode="c" horiz-adv-x="385" d="M376 320L454 479Q426 493 395 502T331 512Q269 514 221 489T142 421T99 320L68 174Q55 110 70 70T124 10T220 -12Q254 -13 288 -8T355 5L353 176Q353 176 349 175T338 174T322 172T306 171Q295 171 287 173T273 181T266
195T267 215L283 291Q286 306 294 315T314 328T339 331Q350 330 359 328T376 320Z" />
<glyph unicode="d" horiz-adv-x="461" d="M416 0L565 700H385L341 496Q321 504 303 507T261 510Q233 510 209 501T164 474T130 427T108 360L64 156Q54 107 63 75T97 24T158 -3T237 -11Q255 -11 272 -10T308 -8T344 -6T380 -3T416 0ZM305 329L272 170Q272 170 272
170T270 170T268 170T265 169T262 169Q259 169 257 170T252 174T250 182T250 194L276 313Q277 317 278 320T280 326T284 329T290 331Q293 331 297 331T305 329Z" />
<glyph unicode="e" horiz-adv-x="445" d="M248 166L251 177L459 189L492 343Q504 399 489 436T435 492T340 511Q284 511 235 492T152 435T105 340L62 135Q54 97 61 69T89 23T139 -4T207 -13Q256 -13 307 0T399 35L385 169Q363 162 329 154T275 145Q266 145 261
146T252 150T248 157T248 166ZM310 333L306 315L280 313L284 334Q286 342 288 347T293 355T302 358Q307 358 309 355T311 347T310 333Z" />
<glyph unicode="f" horiz-adv-x="375" d="M418 532L490 697Q479 702 458 705T415 711T382 713Q325 713 285 699T219 660T176 600T151 523L40 0H221L289 319H355L432 501H327L331 518Q332 522 334 525T339 532T348 538T361 540Q372 540 391 538T418 532Z" />
<glyph unicode="g" horiz-adv-x="461" d="M406 -64L526 501H345L342 483Q334 494 323 500T297 508T267 511Q232 511 199 491T142 434T106 346L70 178Q51 86 79 37T164 -12Q173 -12 183 -11T204 -9T224 -5T240 0L229 -53Q227 -63 221 -70T207 -82T189 -88T171 -90L178
-211Q236 -211 283 -197T363 -150T406 -64ZM310 330L278 178Q278 177 277 176T273 173T267 170T260 169Q256 169 254 171T252 176T252 182L281 322Q282 326 283 328T287 331T291 333T296 334Q298 334 300 334T305 332T308 331T310 330Z" />
<glyph unicode="h" horiz-adv-x="464" d="M327 497L370 700H190L41 0H221L291 330Q294 332 296 333T301 334T305 335Q308 335 310 334T313 331T315 327T315 321L247 0H427L501 346Q509 385 509 413T502 460T480 490T446 506T399 511Q384 511 370 509T344 504T327 497Z" />
<glyph unicode="i" horiz-adv-x="270" d="M44 0H224L330 501H150L44 0ZM291 740Q252 740 222 716T183 652Q175 615 194 589T253 562Q291 562 323 588T363 652Q371 691 350 715T291 740Z" />
<glyph unicode="j" horiz-adv-x="322" d="M273 -21L383 501H134L105 361L172 353L94 -14Q89 -38 76 -54T45 -79T5 -90L8 -216Q80 -216 135 -191T225 -122T273 -21ZM412 651Q420 689 399 714T341 739Q303 739 271 714T231 651Q224 615 244 589T303 562Q340 562
372 588T412 651Z" />
<glyph unicode="k" horiz-adv-x="510" d="M424 267L564 447L413 521L293 337L370 700H190L41 0H221L249 131L266 145L281 0H486L424 267Z" />
<glyph unicode="l" horiz-adv-x="261" d="M41 0H220L369 700H190L41 0Z" />
<glyph unicode="m" horiz-adv-x="721" d="M571 312L505 0H684L757 345Q768 393 764 425T745 475T707 501T653 509Q632 509 611 503T568 486T527 461Q520 479 507 489T479 504T447 509Q433 509 409 505T361 494T320 477L325 501H145L39 0H219L288 323Q291 325 296
327T309 331T323 333Q328 333 331 332T337 328T341 322T341 313L274 0H451L517 312Q518 314 518 317T518 321Q522 323 528 326T542 331T556 333Q560 333 563 332T569 328T571 321T571 312Z" />
<glyph unicode="n" horiz-adv-x="464" d="M314 320L246 -1H426L500 346Q508 385 507 413T498 459T477 489T449 505T416 510Q391 510 372 506T341 496T322 486L325 501H145L39 -1H219L289 328Q292 330 294 331T299 332T304 333Q307 333 309 332T312 329T314 325T314 320Z" />
<glyph unicode="o" horiz-adv-x="450" d="M457 185L485 317Q505 409 467 460T337 512Q273 512 224 489T143 422T98 317L70 185Q58 126 68 82T116 14T223 -10Q318 -10 378 43T457 185ZM304 311L279 191Q278 185 276 180T270 172T261 169Q256 169 254 172T251 180T252
191L277 311Q279 318 281 323T288 330T296 333Q301 333 303 331T305 323T304 311Z" />
<glyph unicode="p" horiz-adv-x="464" d="M465 177L501 346Q512 397 509 434T484 491T419 511Q398 511 378 506T343 493T322 479L326 501H146L-1 -192L175 -214L220 0Q228 -3 236 -6T257 -10T290 -12Q349 -12 397 36T465 177ZM315 318L286 183Q285 178 283 174T278
168T270 166Q268 166 266 167T261 169T258 173T258 178L290 329Q292 330 294 331T299 333T305 334Q307 334 309 334T313 331T315 326T315 318Z" />
<glyph unicode="q" horiz-adv-x="459" d="M239 0L198 -192L374 -213L525 501H345L341 479Q332 490 319 497T292 508T265 512Q227 512 195 492T140 435T106 346L70 177Q57 116 66 74T102 11T166 -11Q181 -11 194 -10T218 -6T239 0ZM307 319L277 179Q277 177 276
176T272 173T267 170T260 169Q256 169 254 171T251 176T251 182L277 306Q278 311 280 314T284 318T288 321T293 322Q295 322 297 322T300 322T304 321T307 319Z" />
<glyph unicode="r" horiz-adv-x="374" d="M406 319L454 501Q445 507 434 511T407 516Q386 516 364 507T321 481L325 501H145L39 0H219L282 298Q294 306 305 311T328 319T351 324T373 326Q390 326 398 323T406 319Z" />
<glyph unicode="s" d="M395 332L476 467Q462 479 440 490T392 507T335 514Q291 514 255 503T192 470T147 419T121 352Q114 318 118 293T133 249T160 219T193 198T224 185T246 175T254 165Q253 162 251 160T246 158T240 157T231 156Q216 156 199 161T166 174T142
191L41 77Q73 33 119 9T221 -15Q256 -15 293 -4T362 28T419 83T452 160Q460 197 455 222T437 265T405 294T368 311T333 323T307 332T299 343Q299 345 300 346T303 348T308 349T315 349Q330 349 346 346T375 339T395 332Z" />
<glyph unicode="t" horiz-adv-x="335" d="M263 204L288 321H350L413 500H326L368 700H189L76 169Q58 84 96 37T221 -13L321 153Q298 153 284 157T264 173T263 204Z" />
<glyph unicode="u" horiz-adv-x="460" d="M248 21L244 0H424L531 501H351L284 190Q283 185 281 181T276 174T270 169T263 167Q260 167 258 169T255 175T256 185L324 501H144L71 158Q63 119 64 91T73 44T95 14T127 -2T164 -7Q181 -7 197 -4T226 6T248 21Z" />
<glyph unicode="v" horiz-adv-x="470" d="M127 501L144 0H324L550 501H372L285 233L306 501H127Z" />
<glyph unicode="w" horiz-adv-x="728" d="M561 500H384L298 285L307 500H127L146 0H327L401 178L399 0H579L809 500H630L551 285L561 500Z" />
<glyph unicode="x" horiz-adv-x="541" d="M348 395L320 501H135L236 263L34 -1L234 0L301 96L330 -1L511 0L414 242L620 500L418 501L348 395Z" />
<glyph unicode="y" horiz-adv-x="500" d="M557 393L530 512Q483 512 439 496T362 442T314 338L282 189Q281 184 279 180T275 172T269 167T263 165Q260 165 258 166T255 170T254 177T254 185L322 503H143L70 159Q60 111 63 79T81 29T114 2T154 -6Q178 -6 193 -4T221
1T244 9L238 -19Q236 -27 231 -35T219 -49T202 -58T182 -62L208 -214Q258 -214 300 -195T371 -142T410 -59L491 322Q497 348 511 367T557 393Z" />
<glyph unicode="z" horiz-adv-x="435" d="M498 501H148L113 337L229 336L69 170L33 0H402L438 169L303 170L464 337L498 501Z" />
<glyph unicode="{" horiz-adv-x="292" d="M326 518L350 631Q355 653 361 669T374 698T390 718T407 731T424 741L391 824Q390 824 378 819T347 802T308 769T269 713T241 631L217 518Q213 496 206 476T188 436Q178 417 160 399T113 361L101 353L110 346Q130 328
140 309T153 271Q155 252 154 232T147 190L123 76Q113 28 116 -6T130 -62T154 -96T178 -113T191 -118L259 -34Q252 -30 246 -25T236 -11T229 9T226 37T232 76L256 190Q261 211 262 232T264 274Q263 315 225 353Q252 373 270 393T298 433Q307 454 314 475T326 518Z"
/>
<glyph unicode="|" horiz-adv-x="196" d="M18 -115H129L327 819H216L18 -115Z" />
<glyph unicode="}" horiz-adv-x="298" d="M253 824L185 741Q192 737 198 732T209 718T216 699T218 671T212 631L188 518Q182 490 180 462T185 406T220 353Q183 328 164 301T135 247T118 190L94 76Q89 54 83 37T70 9T54 -11T38 -24T20 -34L53 -118Q54 -118 67 -113T99
-96T138 -62T177 -6T205 76L229 190Q235 218 245 244T275 296T332 346L343 353L334 361Q308 386 299 411T291 463T299 518L323 631Q333 679 330 713T315 768T289 802T265 819T253 824Z" />
<glyph unicode="~" horiz-adv-x="267" d="M356 300L341 386Q320 373 304 368T273 362Q252 362 234 369T196 384T153 391Q125 391 99 379T49 350L64 264Q85 276 102 281T135 287Q156 287 174 280T210 265T250 257Q280 257 306 270T356 300Z" />
<glyph unicode="&#xa0;" horiz-adv-x="280" />
<glyph unicode="&#xa1;" horiz-adv-x="195" d="M188 60L263 545H163L37 61Q30 25 43 4T94 -18Q132 -18 156 4T188 60ZM310 636Q317 668 299 691T249 714Q216 714 189 691T154 636Q147 605 165 582T216 559Q248 559 275 582T310 636Z" />
<glyph unicode="&#xa2;" horiz-adv-x="385" d="M170 -114H256L413 625H327L170 -114ZM376 320L454 479Q426 493 395 502T331 512Q269 514 221 489T142 421T99 320L68 174Q55 110 70 70T124 10T220 -12Q254 -13 288 -8T355 5L353 176Q353 176 349 175T338 174T322
172T306 171Q295 171 287 173T273 181T266 195T267 215L283 291Q286 306 294 315T314 328T339 331Q350 330 359 328T376 320Z" />
<glyph unicode="&#xa3;" horiz-adv-x="433" d="M147 158H70L36 0H397L431 158H353Q374 172 386 191T403 232Q408 250 408 264T406 296L400 332H468L495 461H372L366 480Q363 490 361 497T359 512T362 526Q364 532 368 535T378 539T388 540Q408 540 428 536T461
526L506 674Q492 686 472 694T430 706T390 710Q356 710 322 701T258 675T207 632T176 571Q172 551 172 532T176 487L180 461H134L107 332H212L215 311Q218 293 219 281T221 258T219 234Q216 221 211 208T198 183T177 165T147 158Z" />
<glyph unicode="&#xa4;" horiz-adv-x="499" d="M452 350L559 436L507 500L403 412Q390 420 374 424T340 429Q322 429 305 425T271 412L203 500L126 436L194 349Q184 336 176 319T164 284Q160 265 161 249T166 218L61 132L111 68L216 155Q230 148 245 143T278 138Q295
138 313 142T347 154L415 68L494 132L424 218Q436 233 443 249T455 284Q459 302 458 318T452 350ZM298 232Q284 232 274 239T260 258T258 284Q262 299 271 310T293 328T320 335Q335 335 345 329T360 311T361 284Q358 270 349 258T327 239T298 232Z" />
<glyph unicode="&#xa5;" horiz-adv-x="518" d="M412 316L642 700H444L359 484L366 700H169L234 316L167 0H345L412 316ZM136 188H457L481 304H160L136 188ZM106 46H427L451 161H130L106 46Z" />
<glyph unicode="&#xa7;" horiz-adv-x="467" d="M435 519L516 654Q501 666 480 677T432 694T375 701Q331 701 295 690T232 657T187 606T161 539Q155 511 158 489T170 449Q152 430 140 406T121 352Q114 317 118 292T133 249T160 219T193 198T224 185T246 175T254
165Q253 162 251 160T246 158T239 157T231 156Q216 156 199 161T166 174T142 191L41 77Q72 33 119 9T221 -15Q256 -15 293 -4T362 28T419 83T452 160Q458 190 456 213T444 253Q461 272 473 295T492 347Q499 384 495 409T477 452T445 481T407 498T372 509T347 518T339
530Q339 532 340 533T343 535T348 536T355 536Q369 536 385 533T415 526T435 519ZM326 324Q322 325 318 327T308 332T299 337T292 342T290 347Q290 349 291 350T295 353T300 355Q303 354 308 352T318 347T327 342T333 337T336 333Q335 329 332 327T326 324Z" />
<glyph unicode="&#xa8;" horiz-adv-x="267" d="M212 788Q180 788 152 765T116 710Q109 678 127 655T178 631Q211 631 239 654T274 710Q281 742 263 765T212 788ZM390 787Q357 787 330 765T296 710Q289 678 306 655T357 632Q389 632 417 655T452 710Q459 742 441
764T390 787Z" />
<glyph unicode="&#xa9;" horiz-adv-x="870" d="M875 177L911 347Q926 419 909 478T847 579T734 644T576 667Q488 667 410 646T269 584T165 484T106 347L70 177Q54 99 72 39T136 -63T251 -125T403 -146Q492 -146 569 -127T709 -69T814 31T875 177ZM717 290L702
223Q688 157 667 115T615 51T539 20T435 11Q376 11 337 23T276 60T251 126T259 223L274 290Q286 350 307 391T360 457T436 493T540 505Q600 505 640 497T702 466T727 401T717 290ZM631 300L698 440Q669 456 633 467T555 478Q500 478 455 461T376 411Q346 382 325
342T294 252Q283 198 290 156T323 86Q343 64 374 53T449 41Q499 41 544 55T626 85L618 222Q607 219 596 217T575 214T553 212T530 211Q517 211 507 213T488 221Q479 227 476 237T475 261Q478 276 486 285T505 300Q517 305 531 307T558 309Q571 309 581 309T598
307T614 304T631 300Z" />
<glyph unicode="&#xaa;" horiz-adv-x="330" d="M379 392Q379 391 382 407T391 448T402 498T410 540T414 556Q424 603 422 636T398 689Q384 703 364 708T322 713T281 710L258 649Q272 651 282 651T301 652Q328 652 336 645T338 611Q321 622 303 627T267 633Q233
633 207 618T163 577T137 520Q128 478 133 451T154 408T197 386T256 379Q282 379 313 383T379 392ZM322 535L306 462Q302 462 298 462T290 461T281 461T270 460Q255 460 242 463T221 477T218 509Q221 522 227 533T242 550T265 557Q281 557 296 550T322 535Z" />
<glyph unicode="&#xab;" horiz-adv-x="568" d="M450 268L544 149L457 80L310 268L537 456L595 384L450 268ZM229 268L323 149L237 80L89 268L317 456L374 384L229 268Z" />
<glyph unicode="&#xad;" horiz-adv-x="394" d="M94 277H414L443 414H123L94 277Z" />
<glyph unicode="&#xae;" horiz-adv-x="866" d="M876 177L912 347Q927 419 910 478T848 579T735 644T577 667Q489 667 411 646T270 583T165 483T107 347L71 177Q55 104 74 44T139 -58T253 -123T404 -146Q493 -146 570 -127T710 -69T815 31T876 177ZM718 290L703
223Q690 162 669 121T617 56T541 21T436 11Q373 11 333 23T273 60T251 126T260 223L275 290Q287 350 308 391T361 457T437 493T541 505Q601 505 641 495T702 461T727 395T718 290ZM549 444H363L282 61H434L448 129H465L462 61H614L608 149Q636 169 651 201T676
284Q684 320 681 349T663 400T619 432T549 444ZM482 250H473L488 318H497Q500 318 504 316T510 307T508 284Q504 261 496 256T482 250Z" />
<glyph unicode="&#xaf;" horiz-adv-x="267" d="M534 744H312L286 620H508L534 744Z" />
<glyph unicode="&#xb0;" horiz-adv-x="351" d="M441 566Q450 607 438 640T396 692T326 712Q286 712 249 693T184 640T148 567Q140 526 152 493T194 440T264 420Q305 420 342 440T406 493T441 566ZM307 619Q321 619 331 612T347 593T348 566Q345 552 335 540T312
521T284 514Q270 514 260 521T245 540T243 566Q247 581 256 593T279 612T307 619Z" />
<glyph unicode="&#xb1;" horiz-adv-x="391" d="M109 350H214L193 247H87L65 147H386L408 247H304L325 350H430L453 456H348L371 566H260L237 456H132L109 350Z" />
<glyph unicode="&#xb4;" horiz-adv-x="267" d="M367 665Q381 679 389 697T396 734T375 762Q356 774 334 769T294 748T268 715L212 598H301L367 665Z" />
<glyph unicode="&#xb5;" horiz-adv-x="477" d="M469 188L538 511L354 498L288 188Q287 183 285 179T279 172T270 169Q266 169 263 171T259 176T259 186L325 501H146L-1 -192L173 -216L212 6Q214 2 220 0T234 -5T249 -8T263 -9Q282 -9 299 -6T330 1T350 13Q357
6 370 2T398 -2T427 -1L492 131Q490 132 483 137T470 155T469 188Z" />
<glyph unicode="&#xb6;" horiz-adv-x="746" d="M302 196H352L310 1H490L604 536H634L520 1H700L849 702H409Q368 702 325 691T243 652T174 576T128 454Q110 373 119 322T155 244T221 206T302 196ZM414 536H424L387 360H377Q348 360 330 363T302 377T292 405T297
453Q305 489 317 507T353 530T414 536Z" />
<glyph unicode="&#xb7;" horiz-adv-x="210" d="M184 397Q151 397 124 375T90 320Q83 288 100 265T151 242Q183 242 211 265T246 320Q253 352 235 374T184 397Z" />
<glyph unicode="&#xb8;" horiz-adv-x="267" d="M173 0H87L49 -50L50 -122Q60 -121 81 -121T121 -119T144 -118Q153 -118 156 -120T158 -130Q158 -134 156 -136T149 -140T138 -141Q113 -141 89 -140T48 -138T30 -137L-4 -219Q1 -221 17 -224T56 -229T104 -232Q166
-232 204 -205T252 -129Q260 -90 240 -60T171 -30Q168 -30 162 -30T149 -31L173 0Z" />
<glyph unicode="&#xba;" horiz-adv-x="341" d="M409 504L426 588Q438 646 413 678T320 711Q250 711 209 680T155 588L138 504Q132 472 139 443T172 397T248 379Q317 379 357 413T409 504ZM339 584L324 507Q320 489 307 477T266 465Q249 465 239 470T226 485T225
507L240 584Q244 605 262 615T299 626Q317 626 326 621T339 607T339 584Z" />
<glyph unicode="&#xbb;" horiz-adv-x="543" d="M209 268L65 149L122 80L349 268L202 456L114 384L209 268ZM430 268L286 149L342 80L570 268L422 456L335 384L430 268Z" />
<glyph unicode="&#xbf;" horiz-adv-x="429" d="M436 184H265Q263 175 261 169T256 160T250 156T245 155Q241 155 239 157T236 166T239 186Q242 200 253 215T281 249T320 291Q338 311 353 331T379 373T400 421T416 479L425 522H246L237 481Q234 465 230 449T219
416T198 379T163 336Q138 310 118 287T83 235T60 169Q50 124 56 89T83 30T136 -6T212 -18Q255 -18 291 -5T356 33T405 97T436 184ZM376 710Q344 710 316 687T281 632Q274 601 292 578T343 555Q376 555 403 578T437 632Q444 664 427 687T376 710Z" />
<glyph unicode="&#xc0;" horiz-adv-x="545" d="M474 866Q473 884 462 899T431 919T387 913Q364 903 355 885T345 849T353 816L391 749H480L474 866ZM522 0L558 700H283L24 0H215L251 115H342L331 0H522ZM301 272L389 552L360 272H301Z" />
<glyph unicode="&#xc1;" horiz-adv-x="545" d="M542 815Q556 829 564 847T571 884T550 912Q531 924 509 919T469 898T443 865L387 748H476L542 815ZM522 0L558 700H283L24 0H215L251 115H342L331 0H522ZM301 272L389 552L360 272H301Z" />
<glyph unicode="&#xc2;" horiz-adv-x="545" d="M595 820L473 941L300 823L352 743L446 805L508 744L595 820ZM522 0L558 700H283L24 0H215L251 115H342L331 0H522ZM301 272L389 552L360 272H301Z" />
<glyph unicode="&#xc3;" horiz-adv-x="545" d="M525 890L523 877Q522 870 519 864T504 857Q495 857 490 859T478 865Q468 870 463 873T448 880Q419 893 396 892T353 882Q325 871 310 852T287 812T275 771L271 753H368L371 767Q373 775 376 781T391 788Q396 788
402 786T416 780Q420 778 430 773T445 766Q455 762 467 758T501 754Q552 754 579 784T614 852L622 890H525ZM522 0L558 700H283L24 0H215L251 115H342L331 0H522ZM301 272L389 552L360 272H301Z" />
<glyph unicode="&#xc4;" horiz-adv-x="545" d="M373 898Q341 898 313 875T277 820Q270 788 288 765T339 741Q372 741 400 764T435 820Q442 852 424 875T373 898ZM551 897Q518 897 491 875T457 820Q450 788 467 765T518 742Q550 742 578 765T613 820Q620 852 602
874T551 897ZM522 0L558 700H283L24 0H215L251 115H342L331 0H522ZM301 272L389 552L360 272H301Z" />
<glyph unicode="&#xc5;" horiz-adv-x="545" d="M466 904Q429 904 395 887T337 840T304 773Q297 737 308 707T346 659T409 641Q446 641 479 659T537 707T569 773Q577 810 566 839T528 886T466 904ZM441 790Q448 790 452 784Q456 780 454 773Q453 769 451 766T445
760Q443 759 440 757T433 755Q430 755 427 756T422 760Q421 762 420 765T420 773Q421 777 423 780T428 785Q431 787 434 788T441 790ZM522 0L558 700H283L24 0H215L251 115H342L331 0H522ZM301 272L389 552L360 272H301Z" />
<glyph unicode="&#xc6;" horiz-adv-x="766" d="M399 0H732L770 179H616L638 280H706L773 438H671L693 540H849L883 700H442L21 0H213L298 148H430L399 0ZM388 306L499 495H503L463 306H388Z" />
<glyph unicode="&#xc7;" horiz-adv-x="427" d="M253 0H167L129 -50L130 -122Q140 -121 161 -121T201 -119T224 -118Q233 -118 236 -120T238 -130Q238 -134 236 -136T229 -140T218 -141Q193 -141 169 -140T128 -138T110 -137L76 -219Q81 -221 97 -224T136 -229T184
-232Q246 -232 284 -205T332 -129Q340 -90 320 -60T251 -30Q248 -30 242 -30T229 -31L253 0ZM457 534L517 677Q485 695 451 703T380 712Q325 712 277 690T194 622T145 511L75 184Q62 121 76 77T129 11T231 -12Q269 -12 312 -3T402 23L418 173Q408 170 388 164T343
154T298 149Q288 149 276 151T258 162T255 192L319 494Q325 520 336 531T361 546T386 549Q409 549 423 545T457 534Z" />
<glyph unicode="&#xc8;" horiz-adv-x="411" d="M408 866Q407 884 396 899T365 919T321 913Q298 903 289 885T279 849T287 816L325 749H414L408 866ZM41 0H374L408 160H255L280 280H358L442 439H314L336 540H491L525 700H190L41 0Z" />
<glyph unicode="&#xc9;" horiz-adv-x="411" d="M471 815Q485 829 493 847T500 884T479 912Q460 924 438 919T398 898T372 865L316 748H405L471 815ZM41 0H374L408 160H255L280 280H358L442 439H314L336 540H491L525 700H190L41 0Z" />
<glyph unicode="&#xca;" horiz-adv-x="411" d="M528 820L406 941L233 823L285 743L379 805L441 744L528 820ZM41 0H374L408 160H255L280 280H358L442 439H314L336 540H491L525 700H190L41 0Z" />
<glyph unicode="&#xcb;" horiz-adv-x="411" d="M307 898Q275 898 247 875T211 820Q204 788 222 765T273 741Q306 741 334 764T369 820Q376 852 358 875T307 898ZM485 897Q452 897 425 875T391 820Q384 788 401 765T452 742Q484 742 512 765T547 820Q554 852 536
874T485 897ZM41 0H374L408 160H255L280 280H358L442 439H314L336 540H491L525 700H190L41 0Z" />
<glyph unicode="&#xcc;" horiz-adv-x="309" d="M332 866Q331 884 320 899T289 919T245 913Q222 903 213 885T203 849T211 816L249 749H338L332 866ZM391 552L459 550L342 0H522L671 700H423L391 552Z" />
<glyph unicode="&#xcd;" horiz-adv-x="309" d="M405 815Q419 829 427 847T434 884T413 912Q394 924 372 919T332 898T306 865L250 748H339L405 815ZM390 552L458 550L341 0H521L670 700H422L390 552Z" />
<glyph unicode="&#xce;" horiz-adv-x="309" d="M447 820L325 941L152 823L204 743L298 805L360 744L447 820ZM391 552L459 550L342 0H522L671 700H423L391 552Z" />
<glyph unicode="&#xcf;" horiz-adv-x="309" d="M243 898Q211 898 183 875T147 820Q140 788 158 765T209 741Q242 741 270 764T305 820Q312 852 294 875T243 898ZM421 897Q388 897 361 875T327 820Q320 788 337 765T388 742Q420 742 448 765T483 820Q490 852 472
874T421 897ZM391 552L459 550L342 0H522L671 700H423L391 552Z" />
<glyph unicode="&#xd0;" horiz-adv-x="499" d="M241 269H306L350 414H272L241 269ZM379 702H190L41 0H250Q321 0 373 24T459 94T507 207L566 485Q582 557 564 605T498 678T379 702ZM280 160H255L336 543H363Q375 543 381 538T389 521T387 493L326 208Q323 195
319 186T310 171T297 163T280 160Z" />
<glyph unicode="&#xd1;" horiz-adv-x="577" d="M542 890L540 877Q539 870 536 864T521 857Q512 857 507 859T495 865Q485 870 480 873T465 880Q436 893 413 892T370 882Q342 871 327 852T304 812T292 771L288 753H385L388 767Q390 775 393 781T408 788Q413 788
419 786T433 780Q437 778 447 773T462 766Q472 762 484 758T518 754Q569 754 596 784T631 852L639 890H542ZM684 700H502L437 393L370 700H190L41 0L221 -1L284 295L349 0H535L684 700Z" />
<glyph unicode="&#xd2;" horiz-adv-x="495" d="M449 866Q448 884 437 899T406 919T362 913Q339 903 330 885T320 849T328 816L366 749H455L449 866ZM144 508L76 186Q62 121 81 77T143 11T246 -11Q309 -11 361 12T449 80T498 186L566 507Q587 605 544 661T401 717Q302
717 234 664T144 508ZM259 203L323 498Q328 520 334 532T347 548T365 553Q375 553 381 549T388 532T385 499L321 203Q317 185 311 173T297 155T279 149Q269 149 263 154T256 172T259 203Z" />
<glyph unicode="&#xd3;" horiz-adv-x="495" d="M512 816Q526 830 534 848T541 885T520 913Q501 925 479 920T439 899T413 866L357 749H446L512 816ZM144 508L76 186Q62 121 81 77T143 11T246 -11Q309 -11 361 12T449 80T498 186L566 507Q587 605 544 661T401 717Q302
717 234 664T144 508ZM259 203L323 498Q328 520 334 532T347 548T365 553Q375 553 381 549T388 532T385 499L321 203Q317 185 311 173T297 155T279 149Q269 149 263 154T256 172T259 203Z" />
<glyph unicode="&#xd4;" horiz-adv-x="495" d="M568 820L446 941L273 823L325 743L419 805L481 744L568 820ZM144 508L76 186Q62 121 81 77T143 11T246 -11Q309 -11 361 12T449 80T498 186L566 507Q587 605 544 661T401 717Q302 717 234 664T144 508ZM259 203L323
498Q328 520 334 532T347 548T365 553Q375 553 381 549T388 532T385 499L321 203Q317 185 311 173T297 155T279 149Q269 149 263 154T256 172T259 203Z" />
<glyph unicode="&#xd5;" horiz-adv-x="495" d="M501 890L499 877Q498 870 495 864T480 857Q471 857 466 859T454 865Q444 870 439 873T424 880Q395 893 372 892T329 882Q301 871 286 852T263 812T251 771L247 753H344L347 767Q349 775 352 781T367 788Q372 788
378 786T392 780Q396 778 406 773T421 766Q431 762 443 758T477 754Q528 754 555 784T590 852L598 890H501ZM144 508L76 186Q62 121 81 77T143 11T246 -11Q309 -11 361 12T449 80T498 186L566 507Q587 605 544 661T401 717Q302 717 234 664T144 508ZM259 203L323
498Q328 520 334 532T347 548T365 553Q375 553 381 549T388 532T385 499L321 203Q317 185 311 173T297 155T279 149Q269 149 263 154T256 172T259 203Z" />
<glyph unicode="&#xd6;" horiz-adv-x="495" d="M348 898Q316 898 288 875T252 820Q245 788 263 765T314 741Q347 741 375 764T410 820Q417 852 399 875T348 898ZM526 897Q493 897 466 875T432 820Q425 788 442 765T493 742Q525 742 553 765T588 820Q595 852 577
874T526 897ZM144 508L76 186Q62 121 81 77T143 11T246 -11Q309 -11 361 12T449 80T498 186L566 507Q587 605 544 661T401 717Q302 717 234 664T144 508ZM259 203L323 498Q328 520 334 532T347 548T365 553Q375 553 381 549T388 532T385 499L321 203Q317 185 311
173T297 155T279 149Q269 149 263 154T256 172T259 203Z" />
<glyph unicode="&#xd7;" horiz-adv-x="377" d="M274 405L210 509L125 449L200 333L80 219L135 157L243 261L309 158L392 219L319 333L442 452L382 510L274 405Z" />
<glyph unicode="&#xd8;" horiz-adv-x="495" d="M30 0H127L640 701H540L30 0ZM144 508L76 186Q62 121 81 77T143 11T246 -11Q309 -11 361 12T449 80T498 186L566 507Q587 605 544 661T401 717Q302 717 234 664T144 508ZM259 203L323 498Q328 520 334 532T347 548T365
553Q375 553 381 549T388 532T385 499L321 203Q317 185 311 173T297 155T279 149Q269 149 263 154T256 172T259 203Z" />
<glyph unicode="&#xd9;" horiz-adv-x="501" d="M452 866Q451 884 440 899T409 919T365 913Q342 903 333 885T323 849T331 816L369 749H458L452 866ZM501 186L610 700H430L322 195Q319 179 313 169T299 153T281 147Q271 147 265 152T258 167T260 195L368 700H188L79
186Q65 122 83 78T144 12T249 -11Q311 -11 363 11T451 78T501 186Z" />
<glyph unicode="&#xda;" horiz-adv-x="501" d="M514 815Q528 829 536 847T543 884T522 912Q503 924 481 919T441 898T415 865L359 748H448L514 815ZM501 186L610 700H430L322 195Q319 179 313 169T299 153T281 147Q271 147 265 152T258 167T260 195L368 700H188L79
186Q65 122 83 78T144 12T249 -11Q311 -11 363 11T451 78T501 186Z" />
<glyph unicode="&#xdb;" horiz-adv-x="501" d="M573 820L451 941L278 823L330 743L424 805L486 744L573 820ZM501 186L610 700H430L322 195Q319 179 313 169T299 153T281 147Q271 147 265 152T258 167T260 195L368 700H188L79 186Q65 122 83 78T144 12T249 -11Q311
-11 363 11T451 78T501 186Z" />
<glyph unicode="&#xdc;" horiz-adv-x="501" d="M351 898Q319 898 291 875T255 820Q248 788 266 765T317 741Q350 741 378 764T413 820Q420 852 402 875T351 898ZM529 897Q496 897 469 875T435 820Q428 788 445 765T496 742Q528 742 556 765T591 820Q598 852 580
874T529 897ZM501 186L610 700H430L322 195Q319 179 313 169T299 153T281 147Q271 147 265 152T258 167T260 195L368 700H188L79 186Q65 122 83 78T144 12T249 -11Q311 -11 363 11T451 78T501 186Z" />
<glyph unicode="&#xdd;" horiz-adv-x="520" d="M524 815Q538 829 546 847T553 884T532 912Q513 924 491 919T451 898T425 865L369 748H458L524 815ZM512 157L628 700H447L386 414Q384 403 379 394T367 377T351 365T335 361Q320 361 311 368T301 389T303 423L362
700H181L118 405Q104 339 119 294T171 226T256 203Q274 203 289 204T318 209T346 218L337 175Q334 161 327 151T310 135T288 125T263 120L293 -19Q391 -11 443 33T512 157Z" />
<glyph unicode="&#xde;" horiz-adv-x="509" d="M390 614H352L370 700H190L41 0H221L240 86H278Q319 86 360 97T438 137T505 218T553 352Q570 430 562 481T528 561T466 602T390 614ZM274 246L317 451H340Q354 451 363 446T375 428T379 396T372 350Q366 321 359
301T343 269T323 252T297 246H274Z" />
<glyph unicode="&#xdf;" horiz-adv-x="596" d="M218 0L319 475Q324 497 334 511T358 533T390 541Q404 541 413 537T428 526T431 511Q429 503 423 495T406 481T376 475Q367 463 357 439T340 387Q332 350 335 321T349 269T372 231T397 202T417 182T423 167Q423 164
422 161T418 156T413 152T407 151Q400 151 393 152T378 156T362 163T347 175L255 39Q268 22 289 10T339 -8T401 -15Q430 -15 461 -4T520 30T570 85T601 160Q608 194 604 218T587 261T561 296T534 328T516 365T516 412Q519 426 524 436T538 453Q538 453 541 453T550
453T558 453T562 453Q585 479 593 512T601 574T592 617Q580 642 561 662T505 695T404 707Q356 707 314 693T237 652T180 590T148 510L40 0H218Z" />
<glyph unicode="&#xe0;" horiz-adv-x="452" d="M386 927Q385 945 374 960T343 980T299 974Q276 964 267 946T257 910T265 877L303 810H392L386 927ZM311 371Q307 375 297 380T272 389T238 393Q211 393 186 385T141 358T105 312T81 246L62 156Q52 108 61 76T94
25T154 -3T233 -11Q253 -11 272 -11T309 -10T345 -8T380 -4T415 0L480 307Q492 365 489 404T466 466T405 500T305 510L260 420Q269 420 279 417T297 409T310 394T311 371ZM286 240L263 131Q263 131 262 131T260 130T257 130T253 129T249 128Q246 128 244 128T241
130T239 134T238 138L258 232Q259 235 260 237T263 241T267 244T272 245Q275 245 277 245T282 243T286 240Z" />
<glyph unicode="&#xe1;" horiz-adv-x="452" d="M464 877Q478 891 486 909T493 946T472 974Q453 986 431 981T391 960T365 927L309 810H398L464 877ZM311 371Q307 375 297 380T272 389T238 393Q211 393 186 385T141 358T105 312T81 246L62 156Q52 108 61 76T94
25T154 -3T233 -11Q253 -11 272 -11T309 -10T345 -8T380 -4T415 0L480 307Q492 365 489 404T466 466T405 500T305 510L260 420Q269 420 279 417T297 409T310 394T311 371ZM286 240L263 131Q263 131 262 131T260 130T257 130T253 129T249 128Q246 128 244 128T241
130T239 134T238 138L258 232Q259 235 260 237T263 241T267 244T272 245Q275 245 277 245T282 243T286 240Z" />
<glyph unicode="&#xe2;" horiz-adv-x="452" d="M507 891L385 1012L212 894L264 814L358 876L420 815L507 891ZM311 371Q307 375 297 380T272 389T238 393Q211 393 186 385T141 358T105 312T81 246L62 156Q52 108 61 76T94 25T154 -3T233 -11Q253 -11 272 -11T309
-10T345 -8T380 -4T415 0L480 307Q492 365 489 404T466 466T405 500T305 510L260 420Q269 420 279 417T297 409T310 394T311 371ZM286 240L263 131Q263 131 262 131T260 130T257 130T253 129T249 128Q246 128 244 128T241 130T239 134T238 138L258 232Q259 235
260 237T263 241T267 244T272 245Q275 245 277 245T282 243T286 240Z" />
<glyph unicode="&#xe3;" horiz-adv-x="452" d="M433 951L431 938Q430 931 427 925T412 918Q403 918 398 920T386 926Q376 931 371 934T356 941Q327 954 304 953T261 943Q233 932 218 913T195 873T183 832L179 814H276L279 828Q281 836 284 842T299 849Q304 849
310 847T324 841Q328 839 338 834T353 827Q363 823 375 819T409 815Q460 815 487 845T522 913L530 951H433ZM311 371Q307 375 297 380T272 389T238 393Q211 393 186 385T141 358T105 312T81 246L62 156Q52 108 61 76T94 25T154 -3T233 -11Q253 -11 272 -11T309
-10T345 -8T380 -4T415 0L480 307Q492 365 489 404T466 466T405 500T305 510L260 420Q269 420 279 417T297 409T310 394T311 371ZM286 240L263 131Q263 131 262 131T260 130T257 130T253 129T249 128Q246 128 244 128T241 130T239 134T238 138L258 232Q259 235
260 237T263 241T267 244T272 245Q275 245 277 245T282 243T286 240Z" />
<glyph unicode="&#xe4;" horiz-adv-x="452" d="M286 959Q254 959 226 936T190 881Q183 849 201 826T252 802Q285 802 313 825T348 881Q355 913 337 936T286 959ZM464 958Q431 958 404 936T370 881Q363 849 380 826T431 803Q463 803 491 826T526 881Q533 913 515
935T464 958ZM311 371Q307 375 297 380T272 389T238 393Q211 393 186 385T141 358T105 312T81 246L62 156Q52 108 61 76T94 25T154 -3T233 -11Q253 -11 272 -11T309 -10T345 -8T380 -4T415 0L480 307Q492 365 489 404T466 466T405 500T305 510L260 420Q269 420
279 417T297 409T310 394T311 371ZM286 240L263 131Q263 131 262 131T260 130T257 130T253 129T249 128Q246 128 244 128T241 130T239 134T238 138L258 232Q259 235 260 237T263 241T267 244T272 245Q275 245 277 245T282 243T286 240Z" />
<glyph unicode="&#xe5;" horiz-adv-x="452" d="M371 930Q334 930 300 913T242 866T209 799Q202 763 213 733T251 685T314 667Q351 667 384 685T442 733T474 799Q482 836 471 865T433 912T371 930ZM346 816Q353 816 357 810Q361 806 359 799Q358 795 356 792T350
786Q348 785 345 783T338 781Q335 781 332 782T327 786Q326 788 325 791T325 799Q326 803 328 806T333 811Q336 813 339 814T346 816ZM311 371Q307 375 297 380T272 389T238 393Q211 393 186 385T141 358T105 312T81 246L62 156Q52 108 61 76T94 25T154 -3T233
-11Q253 -11 272 -11T309 -10T345 -8T380 -4T415 0L480 307Q492 365 489 404T466 466T405 500T305 510L260 420Q269 420 279 417T297 409T310 394T311 371ZM286 240L263 131Q263 131 262 131T260 130T257 130T253 129T249 128Q246 128 244 128T241 130T239 134T238
138L258 232Q259 235 260 237T263 241T267 244T272 245Q275 245 277 245T282 243T286 240Z" />
<glyph unicode="&#xe6;" horiz-adv-x="652" d="M311 371Q307 375 297 380T272 389T238 393Q211 393 186 385T141 358T105 312T81 246L62 156Q52 108 61 76T94 25T154 -3T233 -11Q253 -11 272 -11T309 -10T345 -8T380 -4T415 0L480 307Q492 365 489 404T466 466T405
500T305 510L260 420Q269 420 279 417T297 409T310 394T311 371ZM286 240L263 131Q263 131 262 131T260 130T257 130T253 129T249 128Q246 128 244 128T241 130T239 134T238 138L258 232Q259 235 260 237T263 241T267 244T272 245Q275 245 277 245T282 243T286
240ZM454 166L457 177L665 189L698 343Q710 399 695 436T641 492T546 511Q490 511 441 492T358 435T311 340L268 135Q260 97 267 69T295 23T345 -4T413 -13Q462 -13 513 0T605 35L591 169Q569 162 535 154T481 145Q472 145 467 146T458 150T454 157T454 166ZM516
333L512 315L486 313L490 334Q492 342 494 347T499 355T508 358Q513 358 515 355T517 347T516 333Z" />
<glyph unicode="&#xe7;" horiz-adv-x="385" d="M233 5H147L109 -45L110 -117Q120 -116 141 -116T181 -114T204 -113Q213 -113 216 -115T218 -125Q218 -129 216 -131T209 -135T198 -136Q173 -136 149 -135T108 -133T90 -132L56 -214Q61 -216 77 -219T116 -224T164
-227Q226 -227 264 -200T312 -124Q320 -85 300 -55T231 -25Q228 -25 222 -25T209 -26L233 5ZM376 320L454 479Q426 493 395 502T331 512Q269 514 221 489T142 421T99 320L68 174Q55 110 70 70T124 10T220 -12Q254 -13 288 -8T355 5L353 176Q353 176 349 175T338
174T322 172T306 171Q295 171 287 173T273 181T266 195T267 215L283 291Q286 306 294 315T314 328T339 331Q350 330 359 328T376 320Z" />
<glyph unicode="&#xe8;" horiz-adv-x="426" d="M369 928Q368 946 357 961T326 981T282 975Q259 965 250 947T240 911T248 878L286 811H375L369 928ZM248 166L251 177L459 189L492 343Q504 399 489 436T435 492T340 511Q284 511 235 492T152 435T105 340L62 135Q54
97 61 69T89 23T139 -4T207 -13Q256 -13 307 0T399 35L385 169Q363 162 329 154T275 145Q266 145 261 146T252 150T248 157T248 166ZM310 333L306 315L280 313L284 334Q286 342 288 347T293 355T302 358Q307 358 309 355T311 347T310 333Z" />
<glyph unicode="&#xe9;" horiz-adv-x="426" d="M438 886Q452 900 460 918T467 955T446 983Q427 995 405 990T365 969T339 936L283 819H372L438 886ZM248 166L251 177L459 189L492 343Q504 399 489 436T435 492T340 511Q284 511 235 492T152 435T105 340L62 135Q54
97 61 69T89 23T139 -4T207 -13Q256 -13 307 0T399 35L385 169Q363 162 329 154T275 145Q266 145 261 146T252 150T248 157T248 166ZM310 333L306 315L280 313L284 334Q286 342 288 347T293 355T302 358Q307 358 309 355T311 347T310 333Z" />
<glyph unicode="&#xea;" horiz-adv-x="426" d="M496 891L374 1012L201 894L253 814L347 876L409 815L496 891ZM248 166L251 177L459 189L492 343Q504 399 489 436T435 492T340 511Q284 511 235 492T152 435T105 340L62 135Q54 97 61 69T89 23T139 -4T207 -13Q256
-13 307 0T399 35L385 169Q363 162 329 154T275 145Q266 145 261 146T252 150T248 157T248 166ZM310 333L306 315L280 313L284 334Q286 342 288 347T293 355T302 358Q307 358 309 355T311 347T310 333Z" />
<glyph unicode="&#xeb;" horiz-adv-x="426" d="M274 959Q242 959 214 936T178 881Q171 849 189 826T240 802Q273 802 301 825T336 881Q343 913 325 936T274 959ZM452 958Q419 958 392 936T358 881Q351 849 368 826T419 803Q451 803 479 826T514 881Q521 913 503
935T452 958ZM248 166L251 177L459 189L492 343Q504 399 489 436T435 492T340 511Q284 511 235 492T152 435T105 340L62 135Q54 97 61 69T89 23T139 -4T207 -13Q256 -13 307 0T399 35L385 169Q363 162 329 154T275 145Q266 145 261 146T252 150T248 157T248 166ZM310
333L306 315L280 313L284 334Q286 342 288 347T293 355T302 358Q307 358 309 355T311 347T310 333Z" />
<glyph unicode="&#xec;" horiz-adv-x="258" d="M510 937Q509 955 498 970T467 990T423 984Q400 974 391 956T381 920T389 887L427 820H516L510 937ZM39 0H219L325 500H145L39 0Z" />
<glyph unicode="&#xed;" horiz-adv-x="258" d="M590 886Q604 900 612 918T619 955T598 983Q579 995 557 990T517 969T491 936L435 819H524L590 886ZM39 0H219L325 500H145L39 0Z" />
<glyph unicode="&#xee;" horiz-adv-x="258" d="M634 891L512 1012L339 894L391 814L485 876L547 815L634 891ZM39 0H219L325 500H145L39 0Z" />
<glyph unicode="&#xef;" horiz-adv-x="258" d="M411 959Q379 959 351 936T315 881Q308 849 326 826T377 802Q410 802 438 825T473 881Q480 913 462 936T411 959ZM589 958Q556 958 529 936T495 881Q488 849 505 826T556 803Q588 803 616 826T651 881Q658 913 640
935T589 958ZM39 0H219L325 500H145L39 0Z" />
<glyph unicode="&#xf0;" d="M428 669Q407 680 384 688T335 702L270 589Q270 589 275 587T288 581T306 568L260 530L300 479L339 511Q340 504 340 497T337 481L325 423Q319 426 312 427T296 430T280 432T262 433Q195 433 148 386T80 246L68 187Q49 96 86 44T215
-9Q312 -9 373 41T455 187L517 481Q524 511 522 538T509 589T482 630L516 658L477 709L428 669ZM258 174Q254 174 252 177T249 185T249 197L263 263Q264 269 267 273T273 279T281 281Q284 281 286 280T290 277T292 272T291 263L277 197Q276 190 273 185T267 177T258
174Z" />
<glyph unicode="&#xf1;" horiz-adv-x="446" d="M431 951L429 938Q428 931 425 925T410 918Q401 918 396 920T384 926Q374 931 369 934T354 941Q325 954 302 953T259 943Q231 932 216 913T193 873T181 832L177 814H274L277 828Q279 836 282 842T297 849Q302 849
308 847T322 841Q326 839 336 834T351 827Q361 823 373 819T407 815Q458 815 485 845T520 913L528 951H431ZM314 320L246 -1H426L500 346Q508 385 507 413T498 459T477 489T449 505T416 510Q391 510 372 506T341 496T322 486L325 501H145L39 -1H219L289 328Q292
330 294 331T299 332T304 333Q307 333 309 332T312 329T314 325T314 320Z" />
<glyph unicode="&#xf2;" horiz-adv-x="450" d="M379 937Q378 955 367 970T336 990T292 984Q269 974 260 956T250 920T258 887L296 820H385L379 937ZM457 185L485 317Q505 409 467 460T337 512Q273 512 224 489T143 422T98 317L70 185Q58 126 68 82T116 14T223
-10Q318 -10 378 43T457 185ZM304 311L279 191Q278 185 276 180T270 172T261 169Q256 169 254 172T251 180T252 191L277 311Q279 318 281 323T288 330T296 333Q301 333 303 331T305 323T304 311Z" />
<glyph unicode="&#xf3;" horiz-adv-x="450" d="M442 886Q456 900 464 918T471 955T450 983Q431 995 409 990T369 969T343 936L287 819H376L442 886ZM457 185L485 317Q505 409 467 460T337 512Q273 512 224 489T143 422T98 317L70 185Q58 126 68 82T116 14T223
-10Q318 -10 378 43T457 185ZM304 311L279 191Q278 185 276 180T270 172T261 169Q256 169 254 172T251 180T252 191L277 311Q279 318 281 323T288 330T296 333Q301 333 303 331T305 323T304 311Z" />
<glyph unicode="&#xf4;" horiz-adv-x="450" d="M500 891L378 1012L205 894L257 814L351 876L413 815L500 891ZM457 185L485 317Q505 409 467 460T337 512Q273 512 224 489T143 422T98 317L70 185Q58 126 68 82T116 14T223 -10Q318 -10 378 43T457 185ZM304 311L279
191Q278 185 276 180T270 172T261 169Q256 169 254 172T251 180T252 191L277 311Q279 318 281 323T288 330T296 333Q301 333 303 331T305 323T304 311Z" />
<glyph unicode="&#xf5;" horiz-adv-x="450" d="M426 951L424 938Q423 931 420 925T405 918Q396 918 391 920T379 926Q369 931 364 934T349 941Q320 954 297 953T254 943Q226 932 211 913T188 873T176 832L172 814H269L272 828Q274 836 277 842T292 849Q297 849
303 847T317 841Q321 839 331 834T346 827Q356 823 368 819T402 815Q453 815 480 845T515 913L523 951H426ZM457 185L485 317Q505 409 467 460T337 512Q273 512 224 489T143 422T98 317L70 185Q58 126 68 82T116 14T223 -10Q318 -10 378 43T457 185ZM304 311L279
191Q278 185 276 180T270 172T261 169Q256 169 254 172T251 180T252 191L277 311Q279 318 281 323T288 330T296 333Q301 333 303 331T305 323T304 311Z" />
<glyph unicode="&#xf6;" horiz-adv-x="450" d="M269 959Q237 959 209 936T173 881Q166 849 184 826T235 802Q268 802 296 825T331 881Q338 913 320 936T269 959ZM447 958Q414 958 387 936T353 881Q346 849 363 826T414 803Q446 803 474 826T509 881Q516 913 498
935T447 958ZM457 185L485 317Q505 409 467 460T337 512Q273 512 224 489T143 422T98 317L70 185Q58 126 68 82T116 14T223 -10Q318 -10 378 43T457 185ZM304 311L279 191Q278 185 276 180T270 172T261 169Q256 169 254 172T251 180T252 191L277 311Q279 318 281
323T288 330T296 333Q301 333 303 331T305 323T304 311Z" />
<glyph unicode="&#xf7;" horiz-adv-x="381" d="M97 321H418L443 437H122L97 321ZM326 638Q289 638 258 614T219 553Q211 516 231 490T289 464Q326 464 357 490T397 553Q405 590 384 614T326 638ZM253 296Q216 296 185 272T146 211Q138 174 158 148T216 122Q253
122 284 148T324 211Q332 248 311 272T253 296Z" />
<glyph unicode="&#xf8;" horiz-adv-x="450" d="M488 514H400L54 -20H140L488 514ZM457 185L485 317Q505 409 467 460T337 512Q273 512 224 489T143 422T98 317L70 185Q58 126 68 82T116 14T223 -10Q318 -10 378 43T457 185ZM304 311L279 191Q278 185 276 180T270
172T261 169Q256 169 254 172T251 180T252 191L277 311Q279 318 281 323T288 330T296 333Q301 333 303 331T305 323T304 311Z" />
<glyph unicode="&#xf9;" horiz-adv-x="460" d="M383 937Q382 955 371 970T340 990T296 984Q273 974 264 956T254 920T262 887L300 820H389L383 937ZM248 21L244 0H424L531 501H351L284 190Q283 185 281 181T276 174T270 169T263 167Q260 167 258 169T255 175T256
185L324 501H144L71 158Q63 119 64 91T73 44T95 14T127 -2T164 -7Q181 -7 197 -4T226 6T248 21Z" />
<glyph unicode="&#xfa;" horiz-adv-x="460" d="M457 886Q471 900 479 918T486 955T465 983Q446 995 424 990T384 969T358 936L302 819H391L457 886ZM248 21L244 0H424L531 501H351L284 190Q283 185 281 181T276 174T270 169T263 167Q260 167 258 169T255 175T256
185L324 501H144L71 158Q63 119 64 91T73 44T95 14T127 -2T164 -7Q181 -7 197 -4T226 6T248 21Z" />
<glyph unicode="&#xfb;" horiz-adv-x="460" d="M504 891L382 1012L209 894L261 814L355 876L417 815L504 891ZM248 21L244 0H424L531 501H351L284 190Q283 185 281 181T276 174T270 169T263 167Q260 167 258 169T255 175T256 185L324 501H144L71 158Q63 119 64
91T73 44T95 14T127 -2T164 -7Q181 -7 197 -4T226 6T248 21Z" />
<glyph unicode="&#xfc;" horiz-adv-x="460" d="M281 959Q249 959 221 936T185 881Q178 849 196 826T247 802Q280 802 308 825T343 881Q350 913 332 936T281 959ZM459 958Q426 958 399 936T365 881Q358 849 375 826T426 803Q458 803 486 826T521 881Q528 913 510
935T459 958ZM248 21L244 0H424L531 501H351L284 190Q283 185 281 181T276 174T270 169T263 167Q260 167 258 169T255 175T256 185L324 501H144L71 158Q63 119 64 91T73 44T95 14T127 -2T164 -7Q181 -7 197 -4T226 6T248 21Z" />
<glyph unicode="&#xfd;" horiz-adv-x="500" d="M466 886Q480 900 488 918T495 955T474 983Q455 995 433 990T393 969T367 936L311 819H400L466 886ZM557 393L530 512Q483 512 439 496T362 442T314 338L282 189Q281 184 279 180T275 172T269 167T263 165Q260 165
258 166T255 170T254 177T254 185L322 503H143L70 159Q60 111 63 79T81 29T114 2T154 -6Q178 -6 193 -4T221 1T244 9L238 -19Q236 -27 231 -35T219 -49T202 -58T182 -62L208 -214Q258 -214 300 -195T371 -142T410 -59L491 322Q497 348 511 367T557 393Z" />
<glyph unicode="&#xfe;" horiz-adv-x="464" d="M465 177L501 346Q512 397 509 434T484 491T419 511Q398 511 378 506T343 493T322 479L368 700H188L-1 -192L175 -214L220 0Q228 -3 236 -6T257 -10T290 -12Q349 -12 397 36T465 177ZM315 318L286 183Q285 178 283
174T278 168T270 166Q268 166 266 167T261 169T258 173T258 178L290 329Q292 330 294 331T299 333T305 334Q307 334 309 334T313 331T315 326T315 318Z" />
<glyph unicode="&#xff;" horiz-adv-x="500" d="M303 959Q271 959 243 936T207 881Q200 849 218 826T269 802Q302 802 330 825T365 881Q372 913 354 936T303 959ZM481 958Q448 958 421 936T387 881Q380 849 397 826T448 803Q480 803 508 826T543 881Q550 913 532
935T481 958ZM557 393L530 512Q483 512 439 496T362 442T314 338L282 189Q281 184 279 180T275 172T269 167T263 165Q260 165 258 166T255 170T254 177T254 185L322 503H143L70 159Q60 111 63 79T81 29T114 2T154 -6Q178 -6 193 -4T221 1T244 9L238 -19Q236 -27
231 -35T219 -49T202 -58T182 -62L208 -214Q258 -214 300 -195T371 -142T410 -59L491 322Q497 348 511 367T557 393Z" />
<glyph unicode="&#x2013;" horiz-adv-x="464" d="M94 277H494L523 414H123L94 277Z" />
<glyph unicode="&#x2014;" horiz-adv-x="721" d="M94 277H754L783 414H123L94 277Z" />
<glyph unicode="&#x2018;" horiz-adv-x="177" d="M282 713L256 735Q257 735 242 728T207 704T167 660T139 595Q132 563 149 540T198 517Q231 517 258 540T293 595Q299 622 287 642T249 669Q254 677 263 689T282 713Z" />
<glyph unicode="&#x2019;" horiz-adv-x="174" d="M165 539L190 517Q189 517 204 524T239 548T279 592T307 657Q314 689 297 712T248 735Q215 735 188 712T153 657Q147 630 159 610T197 583Q193 576 184 564T165 539Z" />
<glyph unicode="&#x201a;" horiz-adv-x="189" d="M40 -61L65 -83Q64 -83 79 -76T114 -52T154 -8T182 57Q189 89 172 112T124 135Q91 135 63 112T28 57Q22 30 34 10T72 -17Q68 -24 59 -36T40 -61Z" />
<glyph unicode="&#x201c;" horiz-adv-x="358" d="M462 713L436 735Q437 735 422 728T387 704T347 660T319 595Q312 563 329 540T378 517Q411 517 438 540T473 595Q479 622 467 642T429 669Q434 677 443 689T462 713ZM282 713L256 735Q257 735 242 728T207 704T167
660T139 595Q132 563 149 540T198 517Q231 517 258 540T293 595Q299 622 287 642T249 669Q254 677 263 689T282 713Z" />
<glyph unicode="&#x201d;" horiz-adv-x="355" d="M163 539L188 517Q187 517 202 524T237 548T277 592T305 657Q312 689 295 712T246 735Q213 735 186 712T151 657Q145 630 157 610T195 583Q191 576 182 564T163 539ZM343 539L368 517Q367 517 382 524T417 548T457
592T485 657Q492 689 475 712T426 735Q393 735 366 712T331 657Q325 630 337 610T375 583Q371 576 362 564T343 539Z" />
<glyph unicode="&#x201e;" horiz-adv-x="370" d="M40 -61L65 -83Q64 -83 79 -76T114 -52T154 -8T182 57Q189 89 172 112T124 135Q91 135 63 112T28 57Q22 30 34 10T72 -17Q68 -24 59 -36T40 -61ZM220 -61L245 -83Q244 -83 259 -76T294 -52T334 -8T362 57Q369 89
352 112T304 135Q271 135 243 112T208 57Q202 30 214 10T252 -17Q248 -24 239 -36T220 -61Z" />
<glyph unicode="&#x2022;" horiz-adv-x="417" d="M431 464Q390 516 317 516Q242 516 178 464Q115 413 100 338Q92 301 98 269T124 211Q166 159 241 159Q278 159 312 172T377 211Q409 237 429 269T458 338Q473 412 431 464Z" />
<glyph unicode="&#x2039;" horiz-adv-x="321" d="M84 268L232 80L319 149L225 268L370 384L312 456L84 268Z" />
<glyph unicode="&#x203a;" horiz-adv-x="322" d="M209 268L65 149L123 80L349 268L203 456L114 384L209 268Z" />
</font>
</defs>
</svg>
