<?xml version="1.0" standalone="no"?>
<!DOCTYPE svg PUBLIC "-//W3C//DTD SVG 1.1//EN" "http://www.w3.org/Graphics/SVG/1.1/DTD/svg11.dtd">
<svg xmlns="http://www.w3.org/2000/svg">
<defs >
<font id="AdventPro" horiz-adv-x="443" ><font-face
    font-family="Advent Pro"
    units-per-em="1000"
    panose-1="0 0 0 0 0 0 0 0 0 0"
    ascent="964"
    descent="-232"
    alphabetic="0" />
<glyph unicode=" " horiz-adv-x="280" />
<glyph unicode="!" horiz-adv-x="195" d="M176 642L83 121H159L292 643Q300 677 289 693T246 710Q218 710 201 694T176 642ZM120 106Q96 106 75 89T48 45Q43 20 56 3T95 -15Q120 -15 140 2T166 45Q171 71 158 88T120 106Z" />
<glyph unicode="&quot;" horiz-adv-x="284" d="M313 696L303 589H366L402 696Q407 718 396 728T367 739T334 728T313 696ZM176 696L168 589H230L266 696Q271 718 260 728T230 739T197 728T176 696Z" />
<glyph unicode="#" horiz-adv-x="619" d="M517 270L555 357H660L684 471H608L712 700H596L493 471H375L477 700H373L271 471H133L109 357H219L180 270H91L69 167H134L58 0H165L238 167H357L283 0H396L471 167H619L641 270H517ZM403 270H284L324 357H443L403 270Z" />
<glyph unicode="$" horiz-adv-x="546" d="M206 -115H316L514 819H404L206 -115ZM548 581L596 673Q574 686 547 694T490 706T433 710Q394 710 354 702T277 674T215 623T179 545Q170 502 177 471T204 416T248 375T302 343T358 314T405 285T435 249T439 201Q434 174
419 154T383 120T337 99T288 92Q255 92 225 99T168 121T124 159L52 89Q74 57 108 35T184 0T269 -12Q319 -12 366 0T453 38T520 103T560 199Q570 243 563 276T536 334T491 378T435 411T379 439T330 466T297 497T291 536Q295 557 309 571T343 593T382 604T420 608Q442
608 465 605T509 596T548 581Z" />
<glyph unicode="%" horiz-adv-x="730" d="M35 0H150L840 700H723L35 0ZM340 715Q300 715 262 696T198 643T162 570Q154 530 166 497T208 443T278 423Q317 423 354 443T418 496T454 570Q463 610 450 643T409 695T340 715ZM320 622Q334 622 344 615T359 596T361
570Q358 556 348 544T325 524T298 517Q283 517 272 524T257 543T255 570Q259 584 268 596T291 615T320 622ZM608 278Q568 278 530 259T466 206T430 132Q422 92 434 59T476 6T546 -14Q586 -14 623 5T687 58T722 132Q731 173 718 206T677 258T608 278ZM588 185Q602
185 612 178T626 158T628 132Q625 118 616 106T593 86T566 79Q552 79 542 86T527 105T525 132Q528 146 537 158T560 177T588 185Z" />
<glyph unicode="&amp;" horiz-adv-x="531" d="M510 590L555 702H386Q341 702 300 684T230 634T192 559Q185 525 191 496T215 444T255 404H241Q214 404 190 396T145 369T109 324T86 257L65 162Q57 124 60 96T76 49T107 19T148 3T192 -2Q213 -2 236 4T282 21T325
48Q339 21 368 7T443 -8L495 80Q461 80 442 91T430 137L467 307H542L585 404H486L508 508H398L376 404H364Q349 417 335 432T310 464T296 501T298 541Q307 570 331 580T383 590H510ZM356 311L326 168Q322 146 307 131T271 107T231 99Q210 99 196 107T177 131T176
165L196 259Q199 273 206 283T223 299T244 308T268 311H356Z" />
<glyph unicode="&apos;" horiz-adv-x="149" d="M176 696L168 589H230L266 696Q271 718 260 728T230 739T197 728T176 696Z" />
<glyph unicode="(" horiz-adv-x="241" d="M370 731L334 819Q283 793 250 759T197 685T169 606L60 95Q54 64 53 35T59 -20T84 -71T136 -117L208 -35Q205 -32 196 -25T179 -2T167 38T172 104L279 608Q287 644 301 667T330 704T357 724T370 731Z" />
<glyph unicode=")" horiz-adv-x="241" d="M256 819L183 731Q185 730 193 724T211 705T225 668T222 608L115 104Q107 65 93 39T63 -2T35 -25T19 -35L57 -117Q99 -96 127 -72T174 -21T204 35T222 95L331 606Q337 636 337 665T331 722T305 774T256 819Z" />
<glyph unicode="*" horiz-adv-x="382" d="M205 655L144 552L259 542L152 468L235 397L299 516L311 397L428 466L348 541L471 551L449 656L341 588L399 700H279L288 588L205 655Z" />
<glyph unicode="+" horiz-adv-x="382" d="M358 531H246L223 420H119L96 314H200L178 211H290L312 314H417L439 420H334L358 531Z" />
<glyph unicode="," horiz-adv-x="188" d="M47 -66L68 -83Q67 -83 79 -75T108 -51T141 -9T163 50Q168 74 155 92T118 110Q93 110 72 92T45 50Q41 29 50 13T78 -8Q71 -23 65 -37T47 -66Z" />
<glyph unicode="-" horiz-adv-x="394" d="M100 307H420L443 414H123L100 307Z" />
<glyph unicode="." horiz-adv-x="190" d="M117 104Q92 104 71 87T44 43Q39 18 52 1T91 -17Q116 -17 138 0T165 43Q170 69 156 86T117 104Z" />
<glyph unicode="/" horiz-adv-x="481" d="M4 -115H103L629 819H530L4 -115Z" />
<glyph unicode="0" horiz-adv-x="495" d="M144 508L78 193Q65 128 83 83T143 13T245 -11Q309 -11 361 12T448 80T497 186L564 499Q585 597 543 657T400 717Q301 717 233 664T144 508ZM193 205L250 472Q259 515 275 543T315 586T374 600Q413 600 431 586T451 543T444
471L388 207Q382 176 365 152T323 115T266 102Q233 102 215 114T191 150T193 205Z" />
<glyph unicode="1" horiz-adv-x="286" d="M152 629L165 533Q164 533 173 534T198 539T227 548T251 559L132 0H243L392 700H282Q264 680 242 667T199 645T165 633T152 629Z" />
<glyph unicode="2" horiz-adv-x="442" d="M174 590L255 543Q267 562 282 575T316 596T353 603Q371 603 385 595T406 571T408 531Q405 517 400 503T381 471T342 423L54 102L32 0H406L428 101H181L419 373Q456 415 482 454T518 540Q530 597 513 634T459 691T377
710Q337 710 299 696T229 655T174 590Z" />
<glyph unicode="3" horiz-adv-x="451" d="M328 399L325 401L490 590L513 700H222L199 590H357L120 307H229Q263 307 293 293T338 253T343 188Q334 157 315 137T271 106T218 96Q185 96 160 107T115 150L38 78Q66 35 113 12T212 -12Q262 -12 303 3T377 45T430 109T461
190Q472 242 458 286T410 360T328 399Z" />
<glyph unicode="4" horiz-adv-x="542" d="M334 0H444L510 307H560L602 414H533L593 700H483L422 414H286L469 700H357L84 307H399L334 0Z" />
<glyph unicode="5" horiz-adv-x="445" d="M274 412L320 590H485L508 700H241L136 311H236Q279 311 307 301T347 267T350 205Q345 183 334 164T307 130T269 107T221 98Q189 98 164 104T123 118T98 132T89 138L29 42Q29 43 41 35T76 16T130 -3T200 -12Q253 -12 297
8T374 59T429 128T458 200Q470 257 457 305T401 382T284 412H274Z" />
<glyph unicode="6" horiz-adv-x="488" d="M401 600H440L462 700H428Q352 700 291 671T190 589T133 462L78 205Q66 146 83 97T142 19T245 -10Q290 -10 332 7T410 53T469 122T503 205Q516 266 498 313T435 387T329 414Q314 414 294 410T254 400T224 385L236 438Q245
481 266 517T321 577T401 600ZM312 306Q333 306 350 298T378 276T393 243T393 203Q389 182 377 163T348 130T310 107T268 99Q240 99 220 113T190 151T186 203Q191 224 203 242T232 275T270 298T312 306Z" />
<glyph unicode="7" horiz-adv-x="466" d="M149 0L568 590L591 700H197L174 590H443L27 0H149Z" />
<glyph unicode="8" horiz-adv-x="488" d="M395 710Q345 710 301 686T225 623T183 534Q177 505 178 480T191 432T226 390Q190 374 158 344T104 278T72 202Q60 144 77 96T137 18T240 -12Q300 -12 355 17T448 95T499 202Q508 239 502 274T477 339T426 389Q469 414
496 449T534 534Q544 582 529 622T480 686T395 710ZM342 468Q324 468 311 477T292 502T290 535Q294 554 306 569T335 592T371 601Q390 601 403 593T422 569T424 535Q420 518 407 503T377 478T342 468ZM263 97Q234 97 213 111T183 149T180 202Q185 223 197 242T226
275T265 298T308 307Q338 307 358 293T387 255T390 202Q384 173 365 149T319 111T263 97Z" />
<glyph unicode="9" horiz-adv-x="486" d="M390 710Q344 710 302 694T225 649T166 582T132 498Q120 438 137 391T195 315T300 287Q334 287 358 294T395 309T408 316L397 263Q388 221 368 184T314 124T232 101H193L172 -1H207Q282 -1 343 29T445 113T501 239L556
498Q569 557 552 605T493 681T390 710ZM367 601Q396 601 416 588T445 551T447 499Q443 478 431 459T402 426T365 403T323 395Q302 395 285 403T256 425T240 459T240 499Q245 520 257 538T287 571T325 593T367 601Z" />
<glyph unicode=":" horiz-adv-x="197" d="M188 144Q193 169 179 187T140 205Q115 205 95 187T69 144Q64 119 77 102T115 84Q140 84 161 101T188 144ZM240 386Q245 410 231 427T191 445Q166 445 146 428T121 386Q115 361 128 343T166 325Q191 325 212 343T240 386Z" />
<glyph unicode=";" horiz-adv-x="196" d="M69 28L91 11Q90 11 102 19T131 43T163 85T186 144Q191 169 178 186T140 203Q115 203 94 186T68 144Q64 124 73 107T101 85Q96 72 88 57T69 28ZM240 386Q245 410 231 427T191 445Q166 445 146 428T121 386Q115 361 128
343T166 325Q191 325 212 343T240 386Z" />
<glyph unicode="&lt;" horiz-adv-x="412" d="M103 359L322 80L407 147L243 359L500 567L440 638L103 359Z" />
<glyph unicode="=" horiz-adv-x="395" d="M112 357H433L456 463H135L112 357ZM80 205H401L423 310H102L80 205Z" />
<glyph unicode="&gt;" horiz-adv-x="415" d="M153 567L320 359L65 147L123 80L462 359L241 638L153 567Z" />
<glyph unicode="?" horiz-adv-x="427" d="M140 533H253Q257 551 265 564T285 587T310 600T336 605Q360 605 375 594T396 565T398 527Q393 505 379 485T344 444T301 401Q283 384 266 365T232 322T204 272T185 213L165 120H275L294 211Q300 238 307 257T326 293T355
327T397 366Q424 390 446 413T485 463T508 523Q517 566 510 600T481 659T429 697T358 710Q325 710 291 700T226 668T172 613T140 533ZM217 104Q192 104 171 87T144 43Q139 18 152 1T191 -17Q216 -17 237 0T263 43Q268 69 255 86T217 104Z" />
<glyph unicode="@" horiz-adv-x="820" d="M879 416L863 486Q814 477 785 458T741 411T719 349L680 163Q672 124 651 94T594 45T511 15T400 5Q329 5 282 18T210 57T179 126T185 227L207 331Q216 373 230 405T268 460T329 494T422 506Q487 506 520 496T545 444H433Q404
444 377 436T327 409T287 360T260 286L249 235Q242 201 243 170T258 114T300 75T374 61Q398 61 425 62T479 64T527 66T562 69T575 70L634 346H674L698 444H651Q662 495 651 526T610 575T537 599T440 606Q374 606 319 590T221 540T148 453T102 324L72 185Q57 115
72 63T129 -25T233 -77T375 -95Q473 -95 545 -72T666 -11T744 77T784 179L818 336Q822 355 827 369T845 394T879 416ZM441 346H527L487 157Q477 156 467 156T448 155T431 154T413 154Q379 154 365 169T360 234L370 283Q376 308 388 321T415 340T441 346Z" />
<glyph unicode="A" horiz-adv-x="545" d="M522 0L498 700H343L24 0H149L228 184H389L390 0H522ZM280 301L388 557L389 301H280Z" />
<glyph unicode="B" horiz-adv-x="507" d="M374 700H190L41 0H261Q331 0 384 25T471 97T519 206Q529 252 521 287T495 347T454 382Q479 398 498 417T530 460T549 514Q561 570 544 612T483 677T374 700ZM288 414H240L277 590H335Q369 590 390 582T418 556T419 507Q412
472 396 452T354 423T288 414ZM253 102H173L217 308H288Q331 308 356 297T391 264T393 208Q384 165 360 142T307 111T253 102Z" />
<glyph unicode="C" horiz-adv-x="427" d="M469 587L517 677Q485 695 446 703T370 712Q315 712 269 689T191 622T145 511L75 184Q62 123 76 79T129 12T231 -12Q270 -12 312 -3T402 23L408 128Q403 127 380 120T324 107T261 101Q232 101 213 109T187 136T186 186L256
514Q263 545 277 565T316 595T379 605Q402 605 426 600T469 587Z" />
<glyph unicode="D" horiz-adv-x="499" d="M379 700H191L41 0H250Q321 0 373 24T459 94T507 207L563 475Q578 546 561 596T498 673T379 700ZM256 102H173L277 588H365Q404 588 426 577T456 544T455 485L394 197Q391 182 385 166T364 135T324 111T256 102Z" />
<glyph unicode="E" horiz-adv-x="411" d="M41 0H374L396 101H173L217 309H332L377 414H240L277 590H502L525 700H190L41 0Z" />
<glyph unicode="F" horiz-adv-x="395" d="M525 700H190L41 0H152L217 309H332L377 414H240L277 590H502L525 700Z" />
<glyph unicode="G" horiz-adv-x="482" d="M486 585L528 677Q510 687 489 694T445 704T397 708Q331 708 279 686T193 619T143 504L74 180Q60 112 80 70T143 9T243 -10Q258 -10 280 -7T328 5T373 28L372 0H449L513 301H309L323 196H380L377 187Q373 168 363 152T339
124T306 106T268 99Q236 99 216 108T188 137T187 188L256 512Q263 547 284 566T334 594T395 603Q410 603 425 601T456 595T486 585Z" />
<glyph unicode="H" horiz-adv-x="516" d="M452 414H240L301 700H190L41 0H152L217 309H429L363 0H473L621 700H512L452 414Z" />
<glyph unicode="I" horiz-adv-x="240" d="M150 595L212 593L86 0H197L346 700H172L150 595Z" />
<glyph unicode="J" horiz-adv-x="282" d="M271 140L390 700H221L199 595L259 593L167 157Q160 124 144 102T101 69T39 57L55 -37Q97 -35 132 -23T196 11T243 65T271 140Z" />
<glyph unicode="K" horiz-adv-x="516" d="M258 462L308 700H190L41 0H159L216 265L257 313L359 0H493L341 409L602 700H466L258 462Z" />
<glyph unicode="L" horiz-adv-x="429" d="M41 0H403L425 101H173L300 700H190L41 0Z" />
<glyph unicode="M" horiz-adv-x="622" d="M301 700H190L41 0H152L230 370L268 0H351L547 371L469 0H579L728 700H617L353 208L301 700Z" />
<glyph unicode="N" horiz-adv-x="578" d="M683 700H572L468 211L300 700H190L41 0H151L252 473L423 0H534L683 700Z" />
<glyph unicode="O" horiz-adv-x="495" d="M144 508L78 193Q65 128 83 83T143 13T245 -11Q309 -11 361 12T448 80T497 186L564 499Q585 597 543 657T400 717Q301 717 233 664T144 508ZM193 205L250 472Q259 515 275 543T315 586T374 600Q413 600 431 586T451 543T444
471L388 207Q382 176 365 152T323 115T266 102Q233 102 215 114T191 150T193 205Z" />
<glyph unicode="P" horiz-adv-x="509" d="M408 700H190L41 0H152L193 196H301Q341 196 382 206T460 243T527 321T574 453Q590 527 581 575T546 651T484 689T408 700ZM216 301L277 590H343Q382 590 409 586T451 569T470 528T463 453Q452 402 437 372T401 327T350
306T282 301H216Z" />
<glyph unicode="Q" horiz-adv-x="495" d="M306 45L333 174H235L204 31Q198 1 200 -26T218 -74T270 -106T366 -118L401 -22Q365 -22 345 -18T315 -5T304 16T306 45ZM144 508L78 193Q65 128 83 83T143 13T245 -11Q309 -11 361 12T448 80T497 186L564 499Q585 597
543 657T400 717Q301 717 233 664T144 508ZM193 205L250 472Q259 515 275 543T315 586T374 600Q413 600 431 586T451 543T444 471L388 207Q382 176 365 152T323 115T266 102Q233 102 215 114T191 150T193 205Z" />
<glyph unicode="R" horiz-adv-x="513" d="M408 700H190L41 0H151L193 196H300Q306 196 312 196T324 196T337 197L364 0H481L446 233Q473 250 497 279T541 351T573 452Q589 527 581 575T546 650T484 689T408 700ZM282 301H215L277 590H343Q382 590 409 586T451
569T469 528T462 452Q451 402 436 372T400 326T350 306T282 301Z" />
<glyph unicode="S" horiz-adv-x="546" d="M547 581L594 673Q572 686 545 694T489 706T432 710Q392 710 352 702T275 674T214 623T178 545Q169 502 176 471T202 416T247 375T301 343T356 314T403 285T434 249T438 201Q432 174 417 154T381 120T336 99T286 92Q254
92 224 99T167 121T122 159L50 89Q73 57 107 35T182 0T267 -12Q318 -12 365 0T451 38T519 103T559 199Q568 243 561 276T535 334T489 378T434 411T377 439T328 466T296 497T290 536Q294 557 308 571T341 593T381 604T418 608Q441 608 463 605T507 596T547 581Z"
/>
<glyph unicode="T" horiz-adv-x="432" d="M394 589H542L566 700H162L138 589H284L158 0H269L394 589Z" />
<glyph unicode="U" horiz-adv-x="501" d="M500 186L609 700H499L394 207Q388 177 371 153T329 116T272 102Q239 102 219 114T193 149T193 205L299 700H188L79 186Q66 122 83 78T143 12T248 -11Q312 -11 364 12T451 79T500 186Z" />
<glyph unicode="V" horiz-adv-x="516" d="M166 700L193 0H321L646 700H518L303 217L291 700H166Z" />
<glyph unicode="W" horiz-adv-x="742" d="M561 700H480L277 243V700H153V0H283L445 354L460 0H584L868 700H740L561 253V700Z" />
<glyph unicode="X" horiz-adv-x="629" d="M412 465L316 700H178L320 352L30 0H179L370 233L466 0H603L462 343L754 700H605L412 465Z" />
<glyph unicode="Y" horiz-adv-x="520" d="M512 157L627 700H517L455 406Q450 384 438 365T409 332T371 309T327 299Q282 296 258 307T227 345T228 413L291 700H181L121 414Q109 357 121 308T175 229T291 199Q316 199 340 203T385 217T418 238L403 165Q397 138
388 120T366 91T338 73T306 65L323 -19Q407 -11 451 33T512 157Z" />
<glyph unicode="Z" horiz-adv-x="558" d="M192 700L169 591L500 590L481 571L51 102L29 0H519L541 105L189 106L207 124L634 590L658 700H192Z" />
<glyph unicode="[" horiz-adv-x="233" d="M302 703L355 713L378 819H216L18 -115H180L202 -9L153 1L302 703Z" />
<glyph unicode="\" horiz-adv-x="479" d="M320 -115H437L311 819H190L320 -115Z" />
<glyph unicode="]" horiz-adv-x="235" d="M7 -115H168L366 819H205L183 713L231 703L81 1L29 -9L7 -115Z" />
<glyph unicode="^" horiz-adv-x="267" d="M428 774L327 901L168 773L208 720L307 803L363 721L428 774Z" />
<glyph unicode="_" horiz-adv-x="384" d="M17 -77H337L353 0H33L17 -77Z" />
<glyph unicode="`" horiz-adv-x="267" d="M282 706Q282 720 273 729T251 741T222 736Q206 728 200 716T194 690T201 665L243 589H287L282 706Z" />
<glyph unicode="a" horiz-adv-x="452" d="M376 335Q366 358 345 372T299 394T250 401Q223 401 197 392T148 365T109 319T83 253L62 156Q52 108 61 76T94 25T154 -2T232 -11Q252 -11 271 -11T309 -10T346 -8T381 -4T415 0L481 307Q493 364 490 403T468 465T410
499T315 510L290 434Q319 434 338 429T368 413T380 382T376 335ZM359 253L325 95Q325 95 321 95T309 94T293 93T276 92T263 91Q229 91 210 97T182 114T174 140T178 174L191 239Q194 253 200 262T216 277T235 285T257 288Q280 288 301 281T338 265T359 253Z" />
<glyph unicode="b" horiz-adv-x="459" d="M254 484L301 700H190L41 0Q59 -1 76 -2T110 -5T145 -8T180 -10T215 -11Q258 -11 297 -4T370 23T426 74T460 156L503 360Q511 398 505 426T481 472T438 498T385 507Q363 507 342 505T299 498T254 484ZM172 95L230 371Q236
375 251 380T287 390T331 395Q342 395 353 393T374 385T388 370T390 346L353 175Q349 156 342 141T322 115T287 98T230 92Q224 92 215 92T195 93T179 94T172 95Z" />
<glyph unicode="c" horiz-adv-x="385" d="M412 394L454 479Q427 493 397 502T334 512Q265 514 218 490T142 422T100 320L68 174Q55 111 70 70T124 9T220 -12Q254 -13 288 -8T355 5L354 95Q354 95 346 94T325 90T296 86T263 84Q240 84 222 89T193 106T177 134T178
175L211 332Q217 362 234 380T275 407T326 416Q349 415 371 410T412 394Z" />
<glyph unicode="d" horiz-adv-x="461" d="M417 0L566 700H456L410 483Q382 497 353 503T289 509Q262 509 234 500T179 473T135 426T108 360L68 171Q58 127 67 93T100 36T159 1T237 -11Q257 -11 276 -11T313 -10T348 -8T383 -4T417 0ZM386 371L327 94Q327 94 323
94T311 93T295 93T279 92T266 91Q232 91 213 97T185 113T176 139T179 174L216 346Q219 360 227 369T248 384T273 392T297 395Q332 395 355 386T386 371Z" />
<glyph unicode="e" horiz-adv-x="426" d="M176 149L182 174L434 187L467 343Q479 399 464 436T413 492T322 511Q268 511 224 491T149 433T106 340L62 135Q54 97 60 69T85 23T132 -4T196 -13Q241 -13 289 0T377 35L357 131Q322 115 285 103T221 91Q208 91 198 95T183
107T175 125T176 149ZM350 313L343 284L203 275L211 314Q218 342 227 361T254 392T303 405Q333 407 343 393T354 356T350 313Z" />
<glyph unicode="f" horiz-adv-x="279" d="M361 608L400 708Q391 710 381 711T360 712T339 713Q309 713 281 704T227 674T184 623T157 550L40 0H154L238 397H301L347 501H260L273 560Q276 574 280 584T291 600T306 610T323 614Q334 614 344 612T361 608Z" />
<glyph unicode="g" d="M389 -64L510 500H399L395 478Q382 489 367 496T335 507T299 510Q248 510 209 491T143 434T106 346L70 176Q50 85 83 37T200 -12Q212 -12 225 -11T250 -6T274 1T295 12L282 -53Q277 -73 268 -86T246 -108T220 -120T193 -124L202 -211Q250
-211 288 -197T352 -150T389 -64ZM375 387L322 139Q321 131 314 123T296 107T268 94T230 88Q207 87 194 97T176 123T176 159L214 338Q219 359 228 373T249 396T276 407T304 411Q316 411 329 408T352 399T369 391T375 387Z" />
<glyph unicode="h" horiz-adv-x="446" d="M252 478L300 700H190L41 0H151L233 387Q251 395 266 400T294 407T318 410Q334 410 346 405T366 391T376 370T376 344L303 0H412L486 346Q494 385 491 413T476 460T446 490T405 506T359 511Q339 511 318 506T280 492T252 478Z" />
<glyph unicode="i" horiz-adv-x="201" d="M44 0H155L261 501H151L44 0ZM250 710Q225 710 205 694T179 652Q174 627 187 610T225 592Q250 592 271 609T298 652Q303 678 290 694T250 710Z" />
<glyph unicode="j" horiz-adv-x="259" d="M199 -61L318 501H135L116 411L187 401L91 -50Q86 -75 74 -89T43 -112T3 -126L14 -216Q60 -216 98 -196T163 -140T199 -61ZM356 651Q361 677 348 693T309 710Q284 710 263 694T236 651Q231 627 245 610T284 592Q309 592
330 609T356 651Z" />
<glyph unicode="k" horiz-adv-x="475" d="M317 328L477 444L412 520L233 383L300 700H190L41 0H151L203 241L220 255L321 0H455L317 328Z" />
<glyph unicode="l" horiz-adv-x="195" d="M41 0H151L300 700H190L41 0Z" />
<glyph unicode="m" horiz-adv-x="721" d="M647 342L574 0H684L757 345Q768 393 760 425T731 475T682 501T624 509Q602 509 575 502T521 483T476 461Q464 479 445 489T404 504T357 509Q340 509 321 505T285 494T251 477L256 501H146L39 0H150L231 385Q248 393 263
398T292 406T317 409Q333 409 346 404T367 391T379 370T379 342L306 0H416L490 345Q492 356 493 366T495 385Q512 393 529 398T560 406T582 409Q598 409 611 404T634 391T646 370T647 342Z" />
<glyph unicode="n" horiz-adv-x="446" d="M373 343L300 -1H409L483 346Q491 384 488 412T474 459T444 489T404 504T357 509Q336 509 316 504T278 491T250 477L255 500H145L39 -1H148L230 386Q248 395 263 400T292 408T316 410Q332 410 344 405T363 391T373 370T373 343Z" />
<glyph unicode="o" horiz-adv-x="433" d="M440 185L469 317Q489 409 452 460T328 512Q267 512 221 490T144 424T99 317L70 185Q60 134 70 90T115 18T217 -10Q309 -10 365 43T440 185ZM357 323L326 177Q321 155 310 137T282 109T239 99Q212 99 198 110T180 139T180
177L211 323Q217 349 229 366T260 392T303 401Q327 401 340 392T358 365T357 323Z" />
<glyph unicode="p" horiz-adv-x="444" d="M448 177L484 346Q495 397 485 434T443 491T361 511Q342 511 320 506T279 493T252 479L257 501H147L-1 -192L105 -216L153 12Q164 5 177 0T206 -9T238 -12Q321 -12 375 36T448 177ZM372 338L334 160Q330 139 319 123T292
97T254 88Q242 88 229 91T203 100T184 116T180 140L233 387Q236 389 249 394T280 405T314 411Q328 411 340 408T361 396T373 374T372 338Z" />
<glyph unicode="q" d="M296 13L253 -190L358 -216L510 501H399L395 479Q383 490 368 497T336 508T302 512Q250 512 210 492T143 435T106 346L70 177Q57 116 67 74T111 11T200 -11Q216 -11 233 -8T266 0T296 13ZM376 388L323 141Q321 132 315 124T297 108T269 95T231
89Q206 89 193 99T177 126T177 162L215 339Q220 360 229 374T250 397T277 408T304 412Q317 412 329 409T351 401T368 393T376 388Z" />
<glyph unicode="r" horiz-adv-x="374" d="M419 410L454 500Q440 506 421 510T378 515Q347 515 314 507T252 480L256 500H145L39 0H149L232 389Q250 397 267 402T301 410T335 415T368 417Q396 417 407 414T419 410Z" />
<glyph unicode="s" horiz-adv-x="427" d="M397 386L450 477Q436 489 414 497T368 509T323 513Q287 513 253 503T191 473T146 424T129 356Q129 327 139 306T165 271T201 245T241 225T277 206T304 185T314 156Q314 141 306 129T284 107T256 93T226 88Q205 88 186
94T150 112T120 137L42 70Q69 31 116 8T218 -15Q261 -15 300 -1T369 39T416 101T433 181Q433 206 423 225T395 260T358 286T317 306T280 325T253 343T242 365Q242 378 249 386T269 398T293 404T317 406Q333 406 347 404T374 397T397 386Z" />
<glyph unicode="t" horiz-adv-x="277" d="M181 132L237 399H309L354 500H259L301 700H189L68 132Q53 62 83 25T190 -13L242 75Q219 75 204 80T182 97T181 132Z" />
<glyph unicode="u" horiz-adv-x="447" d="M303 26L297 0H407L514 501H404L334 176Q330 158 321 144T299 120T270 103T237 95Q209 92 196 101T182 126T183 160L255 501H144L71 158Q63 119 66 91T81 44T111 14T151 -2T196 -7Q218 -7 239 -2T278 12T303 26Z" />
<glyph unicode="v" horiz-adv-x="470" d="M128 501L181 0H287L551 501H431L264 167L242 501H128Z" />
<glyph unicode="w" horiz-adv-x="728" d="M515 500H420L275 195L248 500H127L183 0H291L420 268L435 0H541L809 500H689L534 195L515 500Z" />
<glyph unicode="x" horiz-adv-x="513" d="M326 347L258 501H138L245 250L32 0H180L295 140L355 0H478L375 235L600 501H454L326 347Z" />
<glyph unicode="y" horiz-adv-x="484" d="M547 434L529 512Q484 512 453 494T405 449T381 393L335 177Q331 160 322 145T300 119T270 102T237 95Q222 95 210 100T191 114T182 135T182 162L254 503H143L70 159Q60 111 67 79T93 29T138 2T195 -6Q217 -6 238 -1T277
13T303 28L287 -48Q284 -63 276 -76T257 -101T231 -118T200 -125L210 -214Q259 -214 297 -195T360 -141T395 -59L485 363Q490 389 503 408T547 434Z" />
<glyph unicode="z" horiz-adv-x="435" d="M499 501H149L127 399L328 398L56 106L33 0H402L425 105L204 106L478 401L499 501Z" />
<glyph unicode="{" horiz-adv-x="292" d="M326 518L350 631Q355 653 361 669T374 698T390 718T406 731T423 741L391 824Q390 824 378 819T347 802T307 769T269 713T240 631L216 518Q212 496 205 476T188 436Q178 417 160 399T113 361L102 353L110 346Q130 328
140 309T153 271Q155 252 154 232T147 190L123 76Q113 28 116 -6T130 -62T154 -96T178 -113T191 -118L259 -34Q252 -30 246 -25T236 -11T229 9T226 37T232 76L256 190Q261 211 263 232T264 274Q263 315 225 353Q252 373 270 393T298 433Q308 454 315 475T326 518Z"
/>
<glyph unicode="|" horiz-adv-x="196" d="M18 -115H129L327 819H216L18 -115Z" />
<glyph unicode="}" horiz-adv-x="298" d="M253 824L185 741Q192 737 198 732T209 718T216 699T218 671T212 631L188 518Q182 490 180 462T185 406T220 353Q183 328 164 301T135 247T119 190L95 76Q90 54 84 37T71 9T55 -11T38 -24T20 -34L53 -118Q54 -118 67 -113T99
-96T138 -62T177 -6T205 76L229 190Q235 218 245 244T275 296T332 346L343 353L334 361Q308 386 299 411T291 463T299 518L323 631Q333 679 330 713T315 768T289 802T265 819T253 824Z" />
<glyph unicode="~" horiz-adv-x="267" d="M356 300L335 356Q314 343 297 338T266 332Q245 332 227 339T190 354T147 361Q119 361 93 349T43 320L64 264Q85 276 103 281T136 287Q157 287 174 280T210 266T249 257Q280 257 307 270T356 300Z" />
<glyph unicode="&#xa0;" horiz-adv-x="280" />
<glyph unicode="&#xa1;" horiz-adv-x="195" d="M170 68L259 590H183L54 69Q47 35 57 18T96 0Q126 0 144 17T170 68ZM298 666Q303 692 290 709T252 726Q228 726 207 709T180 666Q175 641 188 624T226 607Q252 607 272 624T298 666Z" />
<glyph unicode="&#xa2;" horiz-adv-x="385" d="M170 -114H256L413 625H327L170 -114ZM412 394L454 479Q427 493 397 502T334 512Q265 514 218 490T142 422T100 320L68 174Q55 111 70 70T124 9T220 -12Q254 -13 288 -8T355 5L354 95Q354 95 346 94T325 90T296 86T263
84Q240 84 222 89T193 106T177 134T178 175L211 332Q217 362 234 380T275 407T326 416Q349 415 371 410T412 394Z" />
<glyph unicode="&#xa3;" horiz-adv-x="433" d="M157 101H58L36 0H397L419 101H315Q346 127 366 159T393 232Q396 253 395 273T387 312L377 341H470L492 444H335L318 478Q309 497 303 511T295 539T299 568Q304 582 315 590T339 601T362 605Q391 605 413 599T453
584L507 674Q493 686 472 694T429 706T390 710Q356 710 323 701T262 675T213 632T183 571Q176 544 179 517T192 465L200 444H131L109 341H245L252 324Q258 309 262 293T269 261T271 229Q270 203 262 180T238 139T203 111T157 101Z" />
<glyph unicode="&#xa4;" horiz-adv-x="499" d="M453 350L558 436L508 500L403 412Q390 420 374 424T340 429Q323 429 306 425T271 412L203 500L126 436L194 349Q184 336 176 319T164 284Q160 265 161 249T166 218L61 132L111 68L215 155Q229 148 244 143T278 138Q295
138 313 142T347 154L416 68L494 132L424 218Q435 233 443 249T456 284Q460 302 459 318T453 350ZM298 232Q285 232 275 239T260 258T258 284Q261 299 270 310T293 328T320 335Q335 335 345 329T360 311T361 284Q358 270 349 258T327 239T298 232Z" />
<glyph unicode="&#xa5;" horiz-adv-x="518" d="M379 316L642 700H524L348 434L286 700H169L267 316L200 0H312L379 316ZM139 196H460L483 302H162L139 196ZM107 44H428L450 149H129L107 44Z" />
<glyph unicode="&#xa7;" horiz-adv-x="446" d="M437 573L490 664Q476 676 454 684T408 696T363 700Q327 700 293 690T230 660T186 611T169 543Q168 521 174 504T190 474Q159 452 144 422T129 356Q129 327 139 306T165 271T201 245T241 225T277 206T304 185T314
156Q314 141 306 129T284 107T256 93T226 88Q205 88 186 94T150 112T120 137L42 70Q69 31 116 8T218 -15Q261 -15 300 -1T369 39T416 101T433 180Q433 196 429 209T417 234Q443 260 458 293T473 368Q473 393 462 412T434 447T397 473T357 493T320 512T293 530T282
552Q282 565 289 573T308 585T333 591T357 593Q372 593 387 591T414 584T437 573ZM331 300Q318 306 305 312T281 325T261 337T247 350T242 365Q242 377 247 386T262 401T281 411Q293 406 303 400T323 389T339 376T350 361T354 343Q354 330 348 319T331 300Z" />
<glyph unicode="&#xa8;" horiz-adv-x="267" d="M218 769Q193 769 172 752T145 710Q140 685 153 668T192 650Q218 650 238 667T264 710Q270 734 257 751T218 769ZM376 769Q351 769 330 752T304 710Q299 685 312 668T351 650Q376 650 397 667T424 710Q429 734 416
751T376 769Z" />
<glyph unicode="&#xa9;" horiz-adv-x="785" d="M792 186L822 327Q837 396 822 448T765 535T662 587T521 605Q442 605 373 588T248 535T155 448T102 327L72 186Q57 116 72 64T129 -24T232 -77T372 -95Q451 -95 520 -77T646 -24T739 64T792 186ZM712 290L697 223Q682
155 655 113T588 47T500 16T394 7Q325 7 278 16T205 48T174 113T182 223L196 290Q210 357 235 399T298 465T386 496T500 505Q569 505 616 497T689 465T720 400T712 290ZM590 332L638 422Q610 437 577 447T505 457Q454 457 413 441T340 395Q312 368 293 332T264
250Q253 199 261 160T297 96Q317 76 348 66T420 56Q460 56 503 66T592 92L574 186Q574 186 563 183T533 175T491 168T444 164Q423 164 408 168T385 182Q374 194 372 212T375 256Q381 280 390 297T414 327Q430 339 450 345T498 351Q516 351 532 348T562 342T582
335T590 332Z" />
<glyph unicode="&#xaa;" horiz-adv-x="330" d="M379 392Q379 391 382 407T391 448T402 498T410 540T414 556Q424 603 422 636T398 689Q384 703 364 708T321 714T281 710L257 649Q271 651 282 651T300 652Q328 652 335 645T338 611Q321 622 303 627T266 633Q233
633 207 618T163 577T137 520Q128 478 133 451T154 408T196 386T255 379Q281 379 313 383T379 392ZM322 535L306 462Q302 462 298 462T290 461T281 461T270 460Q252 460 240 464T221 479T218 509Q221 522 227 533T242 550T265 557Q282 557 297 550T322 535Z" />
<glyph unicode="&#xab;" horiz-adv-x="568" d="M450 268L544 149L457 80L310 268L537 456L595 384L450 268ZM229 268L323 149L237 80L89 268L317 456L374 384L229 268Z" />
<glyph unicode="&#xad;" horiz-adv-x="394" d="M163 307H483L506 414H186L163 307Z" />
<glyph unicode="&#xae;" horiz-adv-x="785" d="M792 186L822 327Q837 396 822 448T765 535T662 587T520 605Q441 605 372 588T247 535T154 448T102 327L72 186Q57 116 72 64T128 -24T231 -77T371 -95Q451 -95 520 -77T646 -24T739 64T792 186ZM711 289L697 223Q682
155 659 113T600 47T513 16T393 7Q324 7 278 16T205 48T174 113T182 223L196 289Q211 357 234 399T292 465T379 496T499 505Q568 505 615 496T688 464T719 399T711 289ZM523 444H326L245 61H355L369 129H443L461 61H587L553 151Q582 168 602 201T632 284Q641 327
640 357T626 407T588 435T523 444ZM470 234H392L413 334H491Q509 334 517 329T526 312T523 284Q516 250 502 242T470 234Z" />
<glyph unicode="&#xaf;" horiz-adv-x="267" d="M527 710H305L286 620H507L527 710Z" />
<glyph unicode="&#xb0;" horiz-adv-x="351" d="M441 566Q450 607 438 640T396 692T326 712Q286 712 249 693T185 640T149 567Q141 526 153 493T195 440T264 420Q305 420 342 440T406 493T441 566ZM306 619Q320 619 330 612T346 593T348 566Q345 552 335 540T312
521T284 514Q270 514 260 521T245 540T243 566Q246 581 255 593T278 612T306 619Z" />
<glyph unicode="&#xb1;" horiz-adv-x="391" d="M110 350H214L192 247H87L65 147H386L408 247H304L325 350H430L453 456H348L371 566H260L236 456H132L110 350Z" />
<glyph unicode="&#xb4;" horiz-adv-x="267" d="M351 673Q363 685 368 698T372 724T359 743Q347 752 332 749T305 736T288 714L232 598H277L351 673Z" />
<glyph unicode="&#xb5;" horiz-adv-x="465" d="M433 112L518 510L404 497L332 158Q328 140 317 125T287 101T243 90Q230 90 214 95T187 114T181 150L256 500H146L0 -191L105 -216L156 29Q164 17 175 10T198 -1T221 -7T241 -9Q259 -9 274 -4T301 9T316 25Q317 23
320 18T327 7T337 -1L438 25Q436 28 432 36T427 62T433 112Z" />
<glyph unicode="&#xb6;" horiz-adv-x="678" d="M290 196H397L355 1H466L592 592H651L525 1H635L784 702H397Q358 702 318 691T240 652T173 576T128 454Q111 373 118 322T151 244T213 206T290 196ZM415 592H481L419 301H353Q315 301 288 306T247 326T230 372T238
454Q252 517 273 546T329 583T415 592Z" />
<glyph unicode="&#xb7;" horiz-adv-x="200" d="M177 364Q152 364 131 347T104 303Q99 278 112 261T151 243Q176 243 198 260T225 303Q230 329 216 346T177 364Z" />
<glyph unicode="&#xb8;" horiz-adv-x="267" d="M172 0H106L44 -75L54 -114Q76 -112 93 -111T123 -108T146 -107Q166 -107 171 -115T174 -138Q173 -146 168 -153T153 -164T129 -168Q109 -168 86 -166T47 -161T30 -158L4 -224Q5 -224 20 -227T57 -233T103 -236Q166
-236 199 -208T242 -133Q250 -98 232 -70T168 -42Q165 -42 160 -42T139 -42L172 0Z" />
<glyph unicode="&#xba;" horiz-adv-x="341" d="M409 504L426 588Q438 646 413 678T320 711Q250 711 209 680T155 588L138 504Q132 472 139 443T172 397T248 379Q317 379 357 413T409 504ZM339 584L324 507Q320 489 307 477T266 465Q249 465 239 470T226 485T225
507L240 584Q244 605 262 615T299 626Q317 626 326 621T339 607T339 584Z" />
<glyph unicode="&#xbb;" horiz-adv-x="543" d="M209 268L65 149L122 80L349 268L201 456L114 384L209 268ZM430 268L286 149L342 80L570 268L422 456L335 384L430 268Z" />
<glyph unicode="&#xbf;" horiz-adv-x="429" d="M432 162H321Q317 145 309 132T288 109T262 94T232 89Q215 90 200 99T178 126T176 168Q181 191 195 210T230 249T272 291Q290 309 307 329T341 372T369 422T389 482L409 575H300L281 485Q275 457 268 438T248 402T219
368T177 329Q151 305 128 281T89 231T65 171Q56 128 65 94T95 36T147 -1T211 -15Q255 -16 291 -3T357 34T405 90T432 162ZM383 710Q358 710 337 694T311 651Q306 626 319 608T357 590Q383 590 403 608T429 651Q434 677 421 693T383 710Z" />
<glyph unicode="&#xc0;" horiz-adv-x="545" d="M452 866Q452 880 443 889T421 901T392 896Q376 888 370 876T364 850T371 825L413 749H457L452 866ZM522 0L498 700H343L24 0H149L228 184H389L390 0H522ZM280 301L388 557L389 301H280Z" />
<glyph unicode="&#xc1;" horiz-adv-x="545" d="M521 823Q533 835 538 848T542 874T529 893Q517 902 502 899T475 886T458 864L402 748H447L521 823ZM522 0L498 700H343L24 0H149L228 184H389L390 0H522ZM280 301L388 557L389 301H280Z" />
<glyph unicode="&#xc2;" horiz-adv-x="545" d="M572 795L471 922L311 794L352 743L450 825L508 744L572 795ZM522 0L498 700H343L24 0H149L228 184H389L390 0H522ZM280 301L388 557L389 301H280Z" />
<glyph unicode="&#xc3;" horiz-adv-x="545" d="M519 860L517 852Q515 843 512 834T497 824Q491 824 484 828T472 836Q463 842 458 846T444 854Q430 862 413 863T378 860Q357 854 342 841T317 809T305 771L304 763H371L372 771Q374 782 377 789T393 797Q398 797
404 795T417 787Q422 784 431 777T446 767Q454 763 463 760T482 757Q523 757 549 786T584 852L586 860H519ZM522 0L498 700H343L24 0H149L228 184H389L390 0H522ZM280 301L388 557L389 301H280Z" />
<glyph unicode="&#xc4;" horiz-adv-x="545" d="M381 879Q356 879 335 862T308 820Q303 795 316 778T355 760Q381 760 401 777T427 820Q433 844 420 861T381 879ZM539 879Q514 879 493 862T467 820Q462 795 475 778T514 760Q539 760 560 777T587 820Q592 844 579
861T539 879ZM522 0L498 700H343L24 0H149L228 184H389L390 0H522ZM280 301L388 557L389 301H280Z" />
<glyph unicode="&#xc5;" horiz-adv-x="545" d="M461 886Q430 886 401 871T350 831T322 773Q316 742 326 716T358 675T412 659Q444 659 473 674T523 716T551 773Q558 805 548 830T516 871T461 886ZM443 804Q459 804 465 793Q470 785 468 773Q467 766 463 761T454
750Q449 746 443 744T429 741Q424 741 419 743T410 750Q406 755 405 760T405 773Q407 780 411 786T420 796Q425 800 431 802T443 804ZM522 0L498 700H343L24 0H149L228 184H389L390 0H522ZM280 301L388 557L389 301H280Z" />
<glyph unicode="&#xc6;" horiz-adv-x="758" d="M388 0H721L743 101H518L562 307H680L737 414H585L622 590H849L872 700H442L21 0H151L264 194H429L388 0ZM326 301L493 590H513L452 301H326Z" />
<glyph unicode="&#xc7;" horiz-adv-x="427" d="M256 0H190L128 -75L138 -114Q160 -112 177 -111T207 -108T230 -107Q250 -107 255 -115T258 -138Q257 -146 252 -153T237 -164T213 -168Q193 -168 170 -166T131 -161T114 -158L88 -224Q89 -224 104 -227T141 -233T187
-236Q250 -236 283 -208T326 -133Q334 -98 316 -70T252 -42Q249 -42 244 -42T223 -42L256 0ZM469 587L517 677Q485 695 446 703T370 712Q315 712 269 689T191 622T145 511L75 184Q62 123 76 79T129 12T231 -12Q270 -12 312 -3T402 23L408 128Q403 127 380 120T324
107T261 101Q232 101 213 109T187 136T186 186L256 514Q263 545 277 565T316 595T379 605Q402 605 426 600T469 587Z" />
<glyph unicode="&#xc8;" horiz-adv-x="411" d="M386 866Q386 880 377 889T355 901T326 896Q310 888 304 876T298 850T305 825L347 749H391L386 866ZM41 0H374L396 101H173L217 309H332L377 414H240L277 590H502L525 700H190L41 0Z" />
<glyph unicode="&#xc9;" horiz-adv-x="411" d="M455 823Q467 835 472 848T476 874T463 893Q451 902 436 899T409 886T392 864L336 748H381L455 823ZM41 0H374L396 101H173L217 309H332L377 414H240L277 590H502L525 700H190L41 0Z" />
<glyph unicode="&#xca;" horiz-adv-x="411" d="M505 795L404 922L244 794L285 743L383 825L441 744L505 795ZM41 0H374L396 101H173L217 309H332L377 414H240L277 590H502L525 700H190L41 0Z" />
<glyph unicode="&#xcb;" horiz-adv-x="411" d="M318 879Q293 879 272 862T245 820Q240 795 253 778T292 760Q318 760 338 777T364 820Q370 844 357 861T318 879ZM476 879Q451 879 430 862T404 820Q399 795 412 778T451 760Q476 760 497 777T524 820Q529 844 516
861T476 879ZM41 0H374L396 101H173L217 309H332L377 414H240L277 590H502L525 700H190L41 0Z" />
<glyph unicode="&#xcc;" horiz-adv-x="240" d="M310 867Q310 881 301 890T279 902T250 897Q234 889 228 877T222 851T229 826L271 750H315L310 867ZM150 595L212 593L86 0H197L346 700H172L150 595Z" />
<glyph unicode="&#xcd;" horiz-adv-x="240" d="M389 823Q401 835 406 848T410 874T397 893Q385 902 370 899T343 886T326 864L270 748H315L389 823ZM150 595L212 593L86 0H197L346 700H172L150 595Z" />
<glyph unicode="&#xce;" horiz-adv-x="240" d="M424 795L323 922L163 794L204 743L302 825L360 744L424 795ZM150 595L212 593L86 0H197L346 700H172L150 595Z" />
<glyph unicode="&#xcf;" horiz-adv-x="240" d="M248 879Q223 879 202 862T175 820Q170 795 183 778T222 760Q248 760 268 777T294 820Q300 844 287 861T248 879ZM406 879Q381 879 360 862T334 820Q329 795 342 778T381 760Q406 760 427 777T454 820Q459 844 446
861T406 879ZM150 595L212 593L86 0H197L346 700H172L150 595Z" />
<glyph unicode="&#xd0;" horiz-adv-x="499" d="M187 309H324L377 414H210L187 309ZM379 700H191L41 0H250Q321 0 373 24T459 94T507 207L563 475Q578 546 561 596T498 673T379 700ZM256 102H173L277 588H365Q404 588 426 577T456 544T455 485L394 197Q391 182
385 166T364 135T324 111T256 102Z" />
<glyph unicode="&#xd1;" horiz-adv-x="577" d="M534 860L532 852Q530 843 527 834T512 824Q506 824 499 828T487 836Q478 842 473 846T459 854Q445 862 428 863T393 860Q372 854 357 841T332 809T320 771L319 763H386L387 771Q389 782 392 789T408 797Q413 797
419 795T432 787Q437 784 446 777T461 767Q469 763 478 760T497 757Q538 757 564 786T599 852L601 860H534ZM683 700H572L468 211L300 700H190L41 0H151L252 473L423 0H534L683 700Z" />
<glyph unicode="&#xd2;" horiz-adv-x="495" d="M427 867Q427 881 418 890T396 902T367 897Q351 889 345 877T339 851T346 826L388 750H432L427 867ZM144 508L78 193Q65 128 83 83T143 13T245 -11Q309 -11 361 12T448 80T497 186L564 499Q585 597 543 657T400 717Q301
717 233 664T144 508ZM193 205L250 472Q259 515 275 543T315 586T374 600Q413 600 431 586T451 543T444 471L388 207Q382 176 365 152T323 115T266 102Q233 102 215 114T191 150T193 205Z" />
<glyph unicode="&#xd3;" horiz-adv-x="495" d="M495 823Q507 835 512 848T516 874T503 893Q491 902 476 899T449 886T432 864L376 748H421L495 823ZM144 508L78 193Q65 128 83 83T143 13T245 -11Q309 -11 361 12T448 80T497 186L564 499Q585 597 543 657T400 717Q301
717 233 664T144 508ZM193 205L250 472Q259 515 275 543T315 586T374 600Q413 600 431 586T451 543T444 471L388 207Q382 176 365 152T323 115T266 102Q233 102 215 114T191 150T193 205Z" />
<glyph unicode="&#xd4;" horiz-adv-x="495" d="M545 795L444 922L284 794L325 743L423 825L481 744L545 795ZM144 508L78 193Q65 128 83 83T143 13T245 -11Q309 -11 361 12T448 80T497 186L564 499Q585 597 543 657T400 717Q301 717 233 664T144 508ZM193 205L250
472Q259 515 275 543T315 586T374 600Q413 600 431 586T451 543T444 471L388 207Q382 176 365 152T323 115T266 102Q233 102 215 114T191 150T193 205Z" />
<glyph unicode="&#xd5;" horiz-adv-x="495" d="M492 860L490 852Q488 843 485 834T470 824Q464 824 457 828T445 836Q436 842 431 846T417 854Q403 862 386 863T351 860Q330 854 315 841T290 809T278 771L277 763H344L345 771Q347 782 350 789T366 797Q371 797
377 795T390 787Q395 784 404 777T419 767Q427 763 436 760T455 757Q496 757 522 786T557 852L559 860H492ZM144 508L78 193Q65 128 83 83T143 13T245 -11Q309 -11 361 12T448 80T497 186L564 499Q585 597 543 657T400 717Q301 717 233 664T144 508ZM193 205L250
472Q259 515 275 543T315 586T374 600Q413 600 431 586T451 543T444 471L388 207Q382 176 365 152T323 115T266 102Q233 102 215 114T191 150T193 205Z" />
<glyph unicode="&#xd6;" horiz-adv-x="495" d="M354 879Q329 879 308 862T281 820Q276 795 289 778T328 760Q354 760 374 777T400 820Q406 844 393 861T354 879ZM512 879Q487 879 466 862T440 820Q435 795 448 778T487 760Q512 760 533 777T560 820Q565 844 552
861T512 879ZM144 508L78 193Q65 128 83 83T143 13T245 -11Q309 -11 361 12T448 80T497 186L564 499Q585 597 543 657T400 717Q301 717 233 664T144 508ZM193 205L250 472Q259 515 275 543T315 586T374 600Q413 600 431 586T451 543T444 471L388 207Q382 176 365
152T323 115T266 102Q233 102 215 114T191 150T193 205Z" />
<glyph unicode="&#xd7;" horiz-adv-x="377" d="M274 405L210 509L126 449L199 333L80 219L135 157L243 261L309 158L392 219L319 333L442 452L382 510L274 405Z" />
<glyph unicode="&#xd8;" horiz-adv-x="495" d="M16 0H113L625 701H525L16 0ZM144 508L78 193Q65 128 83 83T143 13T245 -11Q309 -11 361 12T448 80T497 186L564 499Q585 597 543 657T400 717Q301 717 233 664T144 508ZM193 205L250 472Q259 515 275 543T315 586T374
600Q413 600 431 586T451 543T444 471L388 207Q382 176 365 152T323 115T266 102Q233 102 215 114T191 150T193 205Z" />
<glyph unicode="&#xd9;" horiz-adv-x="501" d="M430 867Q430 881 421 890T399 902T370 897Q354 889 348 877T342 851T349 826L391 750H435L430 867ZM500 186L609 700H499L394 207Q388 177 371 153T329 116T272 102Q239 102 219 114T193 149T193 205L299 700H188L79
186Q66 122 83 78T143 12T248 -11Q312 -11 364 12T451 79T500 186Z" />
<glyph unicode="&#xda;" horiz-adv-x="501" d="M498 823Q510 835 515 848T519 874T506 893Q494 902 479 899T452 886T435 864L379 748H424L498 823ZM500 186L609 700H499L394 207Q388 177 371 153T329 116T272 102Q239 102 219 114T193 149T193 205L299 700H188L79
186Q66 122 83 78T143 12T248 -11Q312 -11 364 12T451 79T500 186Z" />
<glyph unicode="&#xdb;" horiz-adv-x="501" d="M548 795L447 922L287 794L328 743L426 825L484 744L548 795ZM500 186L609 700H499L394 207Q388 177 371 153T329 116T272 102Q239 102 219 114T193 149T193 205L299 700H188L79 186Q66 122 83 78T143 12T248 -11Q312
-11 364 12T451 79T500 186Z" />
<glyph unicode="&#xdc;" horiz-adv-x="501" d="M357 879Q332 879 311 862T284 820Q279 795 292 778T331 760Q357 760 377 777T403 820Q409 844 396 861T357 879ZM515 879Q490 879 469 862T443 820Q438 795 451 778T490 760Q515 760 536 777T563 820Q568 844 555
861T515 879ZM500 186L609 700H499L394 207Q388 177 371 153T329 116T272 102Q239 102 219 114T193 149T193 205L299 700H188L79 186Q66 122 83 78T143 12T248 -11Q312 -11 364 12T451 79T500 186Z" />
<glyph unicode="&#xdd;" horiz-adv-x="520" d="M508 823Q520 835 525 848T529 874T516 893Q504 902 489 899T462 886T445 864L389 748H434L508 823ZM512 157L627 700H517L455 406Q450 384 438 365T409 332T371 309T327 299Q282 296 258 307T227 345T228 413L291
700H181L121 414Q109 357 121 308T175 229T291 199Q316 199 340 203T385 217T418 238L403 165Q397 138 388 120T366 91T338 73T306 65L323 -19Q407 -11 451 33T512 157Z" />
<glyph unicode="&#xde;" horiz-adv-x="509" d="M389 611H282L301 700H190L41 0H152L175 107H282Q323 107 364 117T442 154T508 231T555 364Q571 438 562 486T527 562T465 600T389 611ZM197 212L258 501H324Q363 501 390 497T432 480T450 439T443 364Q433 313 418
283T382 238T331 217T263 212H197Z" />
<glyph unicode="&#xdf;" horiz-adv-x="517" d="M151 0L258 507Q265 537 276 557T302 587T338 597Q353 597 361 592T372 577T372 557Q370 546 362 535T341 516T311 508Q296 490 288 474T276 440Q270 410 278 385T302 336T338 291T375 248T401 203T405 153Q402 140
395 129T377 110T354 98T330 93Q320 93 308 93T283 96T258 104T234 120L180 37Q196 22 216 11T260 -6T312 -12Q348 -12 382 -1T444 32T493 83T520 149Q529 189 522 221T498 279T461 327T423 368T396 406T390 445Q392 453 396 461T407 478Q407 478 410 478T418 478T424
478T427 478Q450 497 463 520T482 568T485 612Q482 641 463 661T414 691T351 702Q321 702 290 693T232 664T184 613T155 538L40 0H151Z" />
<glyph unicode="&#xe0;" horiz-adv-x="452" d="M366 927Q366 941 357 950T335 962T306 957Q290 949 284 937T278 911T285 886L327 810H371L366 927ZM376 335Q366 358 345 372T299 394T250 401Q223 401 197 392T148 365T109 319T83 253L62 156Q52 108 61 76T94
25T154 -2T232 -11Q252 -11 271 -11T309 -10T346 -8T381 -4T415 0L481 307Q493 364 490 403T468 465T410 499T315 510L290 434Q319 434 338 429T368 413T380 382T376 335ZM359 253L325 95Q325 95 321 95T309 94T293 93T276 92T263 91Q229 91 210 97T182 114T174
140T178 174L191 239Q194 253 200 262T216 277T235 285T257 288Q280 288 301 281T338 265T359 253Z" />
<glyph unicode="&#xe1;" horiz-adv-x="452" d="M444 885Q456 897 461 910T465 936T452 955Q440 964 425 961T398 948T381 926L325 810H370L444 885ZM376 335Q366 358 345 372T299 394T250 401Q223 401 197 392T148 365T109 319T83 253L62 156Q52 108 61 76T94
25T154 -2T232 -11Q252 -11 271 -11T309 -10T346 -8T381 -4T415 0L481 307Q493 364 490 403T468 465T410 499T315 510L290 434Q319 434 338 429T368 413T380 382T376 335ZM359 253L325 95Q325 95 321 95T309 94T293 93T276 92T263 91Q229 91 210 97T182 114T174
140T178 174L191 239Q194 253 200 262T216 277T235 285T257 288Q280 288 301 281T338 265T359 253Z" />
<glyph unicode="&#xe2;" horiz-adv-x="452" d="M484 866L383 993L223 865L264 814L362 896L420 815L484 866ZM376 335Q366 358 345 372T299 394T250 401Q223 401 197 392T148 365T109 319T83 253L62 156Q52 108 61 76T94 25T154 -2T232 -11Q252 -11 271 -11T309
-10T346 -8T381 -4T415 0L481 307Q493 364 490 403T468 465T410 499T315 510L290 434Q319 434 338 429T368 413T380 382T376 335ZM359 253L325 95Q325 95 321 95T309 94T293 93T276 92T263 91Q229 91 210 97T182 114T174 140T178 174L191 239Q194 253 200 262T216
277T235 285T257 288Q280 288 301 281T338 265T359 253Z" />
<glyph unicode="&#xe3;" horiz-adv-x="452" d="M431 921L429 913Q427 904 424 895T409 885Q403 885 396 889T384 897Q375 903 370 907T356 915Q342 923 325 924T290 921Q269 915 254 902T229 870T217 832L216 824H283L284 832Q286 843 289 850T305 858Q310 858
316 856T329 848Q334 845 343 838T358 828Q366 824 375 821T394 818Q435 818 461 847T496 913L498 921H431ZM376 335Q366 358 345 372T299 394T250 401Q223 401 197 392T148 365T109 319T83 253L62 156Q52 108 61 76T94 25T154 -2T232 -11Q252 -11 271 -11T309
-10T346 -8T381 -4T415 0L481 307Q493 364 490 403T468 465T410 499T315 510L290 434Q319 434 338 429T368 413T380 382T376 335ZM359 253L325 95Q325 95 321 95T309 94T293 93T276 92T263 91Q229 91 210 97T182 114T174 140T178 174L191 239Q194 253 200 262T216
277T235 285T257 288Q280 288 301 281T338 265T359 253Z" />
<glyph unicode="&#xe4;" horiz-adv-x="452" d="M292 940Q267 940 246 923T219 881Q214 856 227 839T266 821Q292 821 312 838T338 881Q344 905 331 922T292 940ZM450 940Q425 940 404 923T378 881Q373 856 386 839T425 821Q450 821 471 838T498 881Q503 905 490
922T450 940ZM376 335Q366 358 345 372T299 394T250 401Q223 401 197 392T148 365T109 319T83 253L62 156Q52 108 61 76T94 25T154 -2T232 -11Q252 -11 271 -11T309 -10T346 -8T381 -4T415 0L481 307Q493 364 490 403T468 465T410 499T315 510L290 434Q319 434
338 429T368 413T380 382T376 335ZM359 253L325 95Q325 95 321 95T309 94T293 93T276 92T263 91Q229 91 210 97T182 114T174 140T178 174L191 239Q194 253 200 262T216 277T235 285T257 288Q280 288 301 281T338 265T359 253Z" />
<glyph unicode="&#xe5;" horiz-adv-x="452" d="M365 912Q334 912 305 897T254 857T226 799Q220 768 230 742T262 701T316 685Q348 685 377 700T427 742T455 799Q462 831 452 856T420 897T365 912ZM347 830Q363 830 369 819Q374 811 372 799Q371 792 367 787T358
776Q353 772 347 770T333 767Q328 767 323 769T314 776Q310 781 309 786T309 799Q311 806 315 812T324 822Q329 826 335 828T347 830ZM376 335Q366 358 345 372T299 394T250 401Q223 401 197 392T148 365T109 319T83 253L62 156Q52 108 61 76T94 25T154 -2T232
-11Q252 -11 271 -11T309 -10T346 -8T381 -4T415 0L481 307Q493 364 490 403T468 465T410 499T315 510L290 434Q319 434 338 429T368 413T380 382T376 335ZM359 253L325 95Q325 95 321 95T309 94T293 93T276 92T263 91Q229 91 210 97T182 114T174 140T178 174L191
239Q194 253 200 262T216 277T235 285T257 288Q280 288 301 281T338 265T359 253Z" />
<glyph unicode="&#xe6;" horiz-adv-x="700" d="M376 335Q366 358 345 372T299 394T250 401Q223 401 197 392T148 365T109 319T83 253L62 156Q52 108 61 76T94 25T154 -2T232 -11Q252 -11 271 -11T309 -10T346 -8T381 -4T415 0L481 307Q493 364 490 403T468 465T410
499T315 510L290 434Q319 434 338 429T368 413T380 382T376 335ZM359 253L325 95Q325 95 321 95T309 94T293 93T276 92T263 91Q229 91 210 97T182 114T174 140T178 174L191 239Q194 253 200 262T216 277T235 285T257 288Q280 288 301 281T338 265T359 253ZM454
149L460 174L712 187L745 343Q757 399 742 436T691 492T600 511Q546 511 502 491T427 433T384 340L340 135Q332 97 338 69T363 23T410 -4T474 -13Q519 -13 567 0T655 35L635 131Q600 115 563 103T499 91Q486 91 476 95T461 107T453 125T454 149ZM628 313L621 284L481
275L489 314Q496 342 505 361T532 392T581 405Q611 407 621 393T632 356T628 313Z" />
<glyph unicode="&#xe7;" horiz-adv-x="385" d="M232 5H166L104 -70L114 -109Q136 -107 153 -106T183 -103T206 -102Q226 -102 231 -110T234 -133Q233 -141 228 -148T213 -159T189 -163Q169 -163 146 -161T107 -156T90 -153L64 -219Q65 -219 80 -222T117 -228T163
-231Q226 -231 259 -203T302 -128Q310 -93 292 -65T228 -37Q225 -37 220 -37T199 -37L232 5ZM412 394L454 479Q427 493 397 502T334 512Q265 514 218 490T142 422T100 320L68 174Q55 111 70 70T124 9T220 -12Q254 -13 288 -8T355 5L354 95Q354 95 346 94T325 90T296
86T263 84Q240 84 222 89T193 106T177 134T178 175L211 332Q217 362 234 380T275 407T326 416Q349 415 371 410T412 394Z" />
<glyph unicode="&#xe8;" horiz-adv-x="426" d="M353 937Q353 951 344 960T322 972T293 967Q277 959 271 947T265 921T272 896L314 820H358L353 937ZM176 149L182 174L434 187L467 343Q479 399 464 436T413 492T322 511Q268 511 224 491T149 433T106 340L62 135Q54
97 60 69T85 23T132 -4T196 -13Q241 -13 289 0T377 35L357 131Q322 115 285 103T221 91Q208 91 198 95T183 107T175 125T176 149ZM350 313L343 284L203 275L211 314Q218 342 227 361T254 392T303 405Q333 407 343 393T354 356T350 313Z" />
<glyph unicode="&#xe9;" horiz-adv-x="426" d="M422 894Q434 906 439 919T443 945T430 964Q418 973 403 970T376 957T359 935L303 819H348L422 894ZM176 149L182 174L434 187L467 343Q479 399 464 436T413 492T322 511Q268 511 224 491T149 433T106 340L62 135Q54
97 60 69T85 23T132 -4T196 -13Q241 -13 289 0T377 35L357 131Q322 115 285 103T221 91Q208 91 198 95T183 107T175 125T176 149ZM350 313L343 284L203 275L211 314Q218 342 227 361T254 392T303 405Q333 407 343 393T354 356T350 313Z" />
<glyph unicode="&#xea;" horiz-adv-x="426" d="M473 866L372 993L212 865L253 814L351 896L409 815L473 866ZM176 149L182 174L434 187L467 343Q479 399 464 436T413 492T322 511Q268 511 224 491T149 433T106 340L62 135Q54 97 60 69T85 23T132 -4T196 -13Q241
-13 289 0T377 35L357 131Q322 115 285 103T221 91Q208 91 198 95T183 107T175 125T176 149ZM350 313L343 284L203 275L211 314Q218 342 227 361T254 392T303 405Q333 407 343 393T354 356T350 313Z" />
<glyph unicode="&#xeb;" horiz-adv-x="426" d="M280 940Q255 940 234 923T207 881Q202 856 215 839T254 821Q280 821 300 838T326 881Q332 905 319 922T280 940ZM438 940Q413 940 392 923T366 881Q361 856 374 839T413 821Q438 821 459 838T486 881Q491 905 478
922T438 940ZM176 149L182 174L434 187L467 343Q479 399 464 436T413 492T322 511Q268 511 224 491T149 433T106 340L62 135Q54 97 60 69T85 23T132 -4T196 -13Q241 -13 289 0T377 35L357 131Q322 115 285 103T221 91Q208 91 198 95T183 107T175 125T176 149ZM350
313L343 284L203 275L211 314Q218 342 227 361T254 392T303 405Q333 407 343 393T354 356T350 313Z" />
<glyph unicode="&#xec;" horiz-adv-x="190" d="M481 937Q481 951 472 960T450 972T421 967Q405 959 399 947T393 921T400 896L442 820H486L481 937ZM39 0H150L256 501H146L39 0Z" />
<glyph unicode="&#xed;" horiz-adv-x="190" d="M563 894Q575 906 580 919T584 945T571 964Q559 973 544 970T517 957T500 935L444 819H489L563 894ZM39 0H150L256 501H146L39 0Z" />
<glyph unicode="&#xee;" horiz-adv-x="190" d="M608 866L507 993L347 865L388 814L486 896L544 815L608 866ZM39 0H150L256 501H146L39 0Z" />
<glyph unicode="&#xef;" horiz-adv-x="190" d="M418 940Q393 940 372 923T345 881Q340 856 353 839T392 821Q418 821 438 838T464 881Q470 905 457 922T418 940ZM576 940Q551 940 530 923T504 881Q499 856 512 839T551 821Q576 821 597 838T624 881Q629 905 616
922T576 940ZM39 0H150L256 501H146L39 0Z" />
<glyph unicode="&#xf0;" horiz-adv-x="424" d="M426 662Q406 675 383 685T337 701L295 632Q295 632 303 629T324 619T350 600L268 532L309 481L386 545Q391 532 391 516T388 481L373 409Q366 415 357 419T336 427T312 431T288 433Q205 433 152 386T78 246L66 187Q47
96 83 44T206 -9Q298 -9 357 41T436 187L499 481Q505 510 505 531T500 573T476 619L526 660L486 711L426 662ZM233 102Q209 102 195 112T175 139T175 181L192 261Q197 284 208 300T235 325T273 334Q285 334 299 331T325 322T343 306T346 282L325 181Q320 156 307
139T276 112T233 102Z" />
<glyph unicode="&#xf1;" horiz-adv-x="446" d="M425 921L423 913Q421 904 418 895T403 885Q397 885 390 889T378 897Q369 903 364 907T350 915Q336 923 319 924T284 921Q263 915 248 902T223 870T211 832L210 824H277L278 832Q280 843 283 850T299 858Q304 858
310 856T323 848Q328 845 337 838T352 828Q360 824 369 821T388 818Q429 818 455 847T490 913L492 921H425ZM373 343L300 -1H409L483 346Q491 384 488 412T474 459T444 489T404 504T357 509Q336 509 316 504T278 491T250 477L255 500H145L39 -1H148L230 386Q248
395 263 400T292 408T316 410Q332 410 344 405T363 391T373 370T373 343Z" />
<glyph unicode="&#xf2;" horiz-adv-x="433" d="M357 937Q357 951 348 960T326 972T297 967Q281 959 275 947T269 921T276 896L318 820H362L357 937ZM440 185L469 317Q489 409 452 460T328 512Q267 512 221 490T144 424T99 317L70 185Q60 134 70 90T115 18T217
-10Q309 -10 365 43T440 185ZM357 323L326 177Q321 155 310 137T282 109T239 99Q212 99 198 110T180 139T180 177L211 323Q217 349 229 366T260 392T303 401Q327 401 340 392T358 365T357 323Z" />
<glyph unicode="&#xf3;" horiz-adv-x="433" d="M426 894Q438 906 443 919T447 945T434 964Q422 973 407 970T380 957T363 935L307 819H352L426 894ZM440 185L469 317Q489 409 452 460T328 512Q267 512 221 490T144 424T99 317L70 185Q60 134 70 90T115 18T217
-10Q309 -10 365 43T440 185ZM357 323L326 177Q321 155 310 137T282 109T239 99Q212 99 198 110T180 139T180 177L211 323Q217 349 229 366T260 392T303 401Q327 401 340 392T358 365T357 323Z" />
<glyph unicode="&#xf4;" horiz-adv-x="433" d="M475 866L374 993L214 865L255 814L353 896L411 815L475 866ZM440 185L469 317Q489 409 452 460T328 512Q267 512 221 490T144 424T99 317L70 185Q60 134 70 90T115 18T217 -10Q309 -10 365 43T440 185ZM357 323L326
177Q321 155 310 137T282 109T239 99Q212 99 198 110T180 139T180 177L211 323Q217 349 229 366T260 392T303 401Q327 401 340 392T358 365T357 323Z" />
<glyph unicode="&#xf5;" horiz-adv-x="433" d="M422 921L420 913Q418 904 415 895T400 885Q394 885 387 889T375 897Q366 903 361 907T347 915Q333 923 316 924T281 921Q260 915 245 902T220 870T208 832L207 824H274L275 832Q277 843 280 850T296 858Q301 858
307 856T320 848Q325 845 334 838T349 828Q357 824 366 821T385 818Q426 818 452 847T487 913L489 921H422ZM440 185L469 317Q489 409 452 460T328 512Q267 512 221 490T144 424T99 317L70 185Q60 134 70 90T115 18T217 -10Q309 -10 365 43T440 185ZM357 323L326
177Q321 155 310 137T282 109T239 99Q212 99 198 110T180 139T180 177L211 323Q217 349 229 366T260 392T303 401Q327 401 340 392T358 365T357 323Z" />
<glyph unicode="&#xf6;" horiz-adv-x="433" d="M283 940Q258 940 237 923T210 881Q205 856 218 839T257 821Q283 821 303 838T329 881Q335 905 322 922T283 940ZM441 940Q416 940 395 923T369 881Q364 856 377 839T416 821Q441 821 462 838T489 881Q494 905 481
922T441 940ZM440 185L469 317Q489 409 452 460T328 512Q267 512 221 490T144 424T99 317L70 185Q60 134 70 90T115 18T217 -10Q309 -10 365 43T440 185ZM357 323L326 177Q321 155 310 137T282 109T239 99Q212 99 198 110T180 139T180 177L211 323Q217 349 229
366T260 392T303 401Q327 401 340 392T358 365T357 323Z" />
<glyph unicode="&#xf7;" horiz-adv-x="381" d="M102 341H423L441 427H120L102 341ZM313 573Q288 573 267 555T240 514Q234 489 248 472T287 454Q311 454 333 471T360 514Q365 537 351 555T313 573ZM257 314Q232 314 211 298T185 256Q180 231 193 214T232 196Q256
196 278 213T305 256Q311 282 297 298T257 314Z" />
<glyph unicode="&#xf8;" horiz-adv-x="433" d="M489 514H400L54 -20H139L489 514ZM440 185L469 317Q489 409 452 460T328 512Q267 512 221 490T144 424T99 317L70 185Q60 134 70 90T115 18T217 -10Q309 -10 365 43T440 185ZM357 323L326 177Q321 155 310 137T282
109T239 99Q212 99 198 110T180 139T180 177L211 323Q217 349 229 366T260 392T303 401Q327 401 340 392T358 365T357 323Z" />
<glyph unicode="&#xf9;" horiz-adv-x="447" d="M358 937Q358 951 349 960T327 972T298 967Q282 959 276 947T270 921T277 896L319 820H363L358 937ZM303 26L297 0H407L514 501H404L334 176Q330 158 321 144T299 120T270 103T237 95Q209 92 196 101T182 126T183
160L255 501H144L71 158Q63 119 66 91T81 44T111 14T151 -2T196 -7Q218 -7 239 -2T278 12T303 26Z" />
<glyph unicode="&#xfa;" horiz-adv-x="447" d="M431 894Q443 906 448 919T452 945T439 964Q427 973 412 970T385 957T368 935L312 819H357L431 894ZM303 26L297 0H407L514 501H404L334 176Q330 158 321 144T299 120T270 103T237 95Q209 92 196 101T182 126T183
160L255 501H144L71 158Q63 119 66 91T81 44T111 14T151 -2T196 -7Q218 -7 239 -2T278 12T303 26Z" />
<glyph unicode="&#xfb;" horiz-adv-x="447" d="M481 866L380 993L220 865L261 814L359 896L417 815L481 866ZM303 26L297 0H407L514 501H404L334 176Q330 158 321 144T299 120T270 103T237 95Q209 92 196 101T182 126T183 160L255 501H144L71 158Q63 119 66 91T81
44T111 14T151 -2T196 -7Q218 -7 239 -2T278 12T303 26Z" />
<glyph unicode="&#xfc;" horiz-adv-x="447" d="M287 940Q262 940 241 923T214 881Q209 856 222 839T261 821Q287 821 307 838T333 881Q339 905 326 922T287 940ZM445 940Q420 940 399 923T373 881Q368 856 381 839T420 821Q445 821 466 838T493 881Q498 905 485
922T445 940ZM303 26L297 0H407L514 501H404L334 176Q330 158 321 144T299 120T270 103T237 95Q209 92 196 101T182 126T183 160L255 501H144L71 158Q63 119 66 91T81 44T111 14T151 -2T196 -7Q218 -7 239 -2T278 12T303 26Z" />
<glyph unicode="&#xfd;" horiz-adv-x="484" d="M450 894Q462 906 467 919T471 945T458 964Q446 973 431 970T404 957T387 935L331 819H376L450 894ZM547 434L529 512Q484 512 453 494T405 449T381 393L335 177Q331 160 322 145T300 119T270 102T237 95Q222 95
210 100T191 114T182 135T182 162L254 503H143L70 159Q60 111 67 79T93 29T138 2T195 -6Q217 -6 238 -1T277 13T303 28L287 -48Q284 -63 276 -76T257 -101T231 -118T200 -125L210 -214Q259 -214 297 -195T360 -141T395 -59L485 363Q490 389 503 408T547 434Z" />
<glyph unicode="&#xfe;" horiz-adv-x="444" d="M448 177L484 346Q495 397 485 434T443 491T361 511Q342 511 320 506T279 493T252 479L298 700H188L-1 -192L105 -216L153 12Q164 5 177 0T206 -9T238 -12Q321 -12 375 36T448 177ZM372 338L334 160Q330 139 319
123T292 97T254 88Q242 88 229 91T203 100T184 116T180 140L233 387Q236 389 249 394T280 405T314 411Q328 411 340 408T361 396T373 374T372 338Z" />
<glyph unicode="&#xff;" horiz-adv-x="484" d="M307 940Q282 940 261 923T234 881Q229 856 242 839T281 821Q307 821 327 838T353 881Q359 905 346 922T307 940ZM465 940Q440 940 419 923T393 881Q388 856 401 839T440 821Q465 821 486 838T513 881Q518 905 505
922T465 940ZM547 434L529 512Q484 512 453 494T405 449T381 393L335 177Q331 160 322 145T300 119T270 102T237 95Q222 95 210 100T191 114T182 135T182 162L254 503H143L70 159Q60 111 67 79T93 29T138 2T195 -6Q217 -6 238 -1T277 13T303 28L287 -48Q284 -63
276 -76T257 -101T231 -118T200 -125L210 -214Q259 -214 297 -195T360 -141T395 -59L485 363Q490 389 503 408T547 434Z" />
<glyph unicode="&#x2013;" horiz-adv-x="446" d="M100 307H470L493 414H123L100 307Z" />
<glyph unicode="&#x2014;" horiz-adv-x="721" d="M100 307H750L773 414H123L100 307Z" />
<glyph unicode="&#x2018;" horiz-adv-x="177" d="M273 710L251 727Q251 727 239 719T210 695T178 654T155 595Q150 570 163 552T202 534Q227 534 248 552T274 595Q279 615 270 631T241 653Q247 667 255 682T273 710Z" />
<glyph unicode="&#x2019;" horiz-adv-x="174" d="M171 552L192 534Q191 534 203 542T232 566T265 608T288 667Q293 691 280 709T241 727Q216 727 195 709T168 667Q164 648 173 632T202 610Q196 595 189 581T171 552Z" />
<glyph unicode="&#x201a;" horiz-adv-x="189" d="M47 -73L67 -89Q67 -89 79 -81T108 -57T140 -16T163 43Q168 69 155 86T116 103Q91 103 70 86T44 43Q40 22 49 6T76 -15Q72 -29 65 -44T47 -73Z" />
<glyph unicode="&#x201c;" horiz-adv-x="358" d="M451 710L430 727Q431 727 419 719T390 695T358 654T335 595Q330 570 343 552T381 534Q407 534 429 552T456 595Q460 615 450 631T423 653Q428 667 434 682T451 710ZM273 710L251 727Q251 727 239 719T210 695T178
654T155 595Q150 570 163 552T202 534Q227 534 248 552T274 595Q279 615 270 631T241 653Q247 667 254 682T273 710Z" />
<glyph unicode="&#x201d;" horiz-adv-x="355" d="M172 552L191 534Q191 534 203 542T232 566T265 608T288 667Q293 691 280 709T241 727Q216 727 195 709T168 667Q164 648 173 632T201 610Q196 595 190 581T172 552ZM351 552L372 534Q372 534 384 542T413 566T446
608T469 667Q474 691 460 709T420 727Q395 727 375 709T349 667Q345 648 354 632T381 610Q377 595 370 581T351 552Z" />
<glyph unicode="&#x201e;" horiz-adv-x="370" d="M46 -73L67 -89Q67 -89 79 -81T108 -57T140 -16T163 43Q168 69 154 86T116 103Q91 103 70 86T44 43Q40 22 49 6T77 -15Q72 -29 65 -44T46 -73ZM227 -73L249 -89Q248 -89 260 -81T289 -57T322 -16T344 43Q349 69
335 86T296 103Q271 103 250 86T224 43Q220 22 229 6T256 -15Q252 -29 245 -44T227 -73Z" />
<glyph unicode="&#x2022;" horiz-adv-x="417" d="M430 464Q390 516 317 516Q244 516 178 464Q116 411 100 338Q92 301 98 269T124 211Q166 159 240 159Q278 159 312 172T377 211Q409 237 429 269T458 338Q475 412 430 464Z" />
<glyph unicode="&#x2039;" horiz-adv-x="321" d="M84 268L232 80L319 149L225 268L370 384L312 456L84 268Z" />
<glyph unicode="&#x203a;" horiz-adv-x="322" d="M209 268L65 149L123 80L349 268L202 456L114 384L209 268Z" />
</font>
</defs>
</svg>
